<?xml version="1.0" standalone="no"?>
<!DOCTYPE svg PUBLIC "-//W3C//DTD SVG 1.1//EN" "http://www.w3.org/Graphics/SVG/1.1/DTD/svg11.dtd" >
<svg xmlns="http://www.w3.org/2000/svg" width="100%" height="100%">
<metadata>
Created by FontXChange 20110222 at Mon Feb 17 13:36:31 2014
 By Zeeshan Jan
Copyright 1990 as an unpublished work by Bitstream Inc.  All rights reserved.  Confidential.
</metadata>
<defs>
<font id="GeometricSlab703BT-MediumItalic" horiz-adv-x="500" >
  <font-face 
    font-family="Geometric Slabserif 703"
    font-weight="500"
    font-style="italic"
    font-stretch="normal"
    units-per-em="1000"
    panose-1="2 0 6 3 0 0 0 0 0 0"
    ascent="800"
    descent="-200"
    x-height="458"
    cap-height="720"
    bbox="-167 -236 1275 963"
    underline-thickness="57"
    underline-position="-104"
    slope="10"
    stemh="68"
    stemv="87"
    unicode-range="U+0020-FB02"
  />
    <missing-glyph />
    <glyph glyph-name="space" unicode=" " horiz-adv-x="259" 
 />
    <glyph glyph-name="exclam" unicode="!" horiz-adv-x="331" 
d="M97 178l76 542h107l-113 -542h-70zM118 -12c-38 0 -66 28 -66 65c0 38 28 66 66 66c37 0 66 -29 66 -66c0 -36 -29 -65 -66 -65z" />
    <glyph glyph-name="quotedbl" unicode="&#x22;" horiz-adv-x="288" 
d="M103 700v-270h-57v270h57zM242 700v-270h-58v270h58z" />
    <glyph glyph-name="numbersign" unicode="#" horiz-adv-x="769" 
d="M450 711l-81 -230h127l82 230h70l-80 -230h150l-21 -60h-152l-46 -133h161l-21 -60h-162l-81 -229h-71l82 229h-129l-82 -229h-70l81 229h-156l21 60h156l47 133h-167l21 60h168l82 230h71zM475 421h-129l-46 -133h128z" />
    <glyph glyph-name="dollar" unicode="$" horiz-adv-x="519" 
d="M154 -93l16 94c-36 14 -65 35 -89 63l-13 -64h-60l31 208h56c6 -77 30 -120 86 -137l43 262c-105 52 -156 107 -156 185c0 91 72 157 185 157c9 0 18 0 27 -1l11 68h44l-12 -75c37 -12 64 -31 84 -58l9 59h61l-28 -199h-52c-2 72 -31 116 -86 133l-34 -205
c119 -51 178 -119 178 -210c0 -110 -88 -197 -210 -197c-11 0 -22 1 -33 2l-15 -85h-43zM224 63c6 -1 13 -1 19 -1c77 0 129 52 129 121c0 56 -36 101 -107 132zM238 416l31 194c-8 1 -15 1 -22 1c-62 0 -99 -35 -99 -87c0 -46 31 -84 90 -108z" />
    <glyph glyph-name="percent" unicode="%" horiz-adv-x="919" 
d="M231 431c56 0 99 43 99 100c0 58 -43 101 -99 101c-55 0 -100 -44 -100 -101c0 -56 44 -100 100 -100zM401 531c0 -96 -76 -170 -170 -170s-171 74 -171 170s76 170 171 170s170 -74 170 -170zM662 715h62l-469 -729h-59zM859 170c0 -96 -77 -170 -171 -170
s-170 74 -170 170s75 170 170 170s171 -74 171 -170zM688 70c56 0 100 43 100 100c0 58 -44 101 -100 101c-55 0 -99 -44 -99 -101c0 -56 43 -100 99 -100z" />
    <glyph glyph-name="ampersand" unicode="&#x26;" horiz-adv-x="745" 
d="M681 71l-13 -71h-147l-77 100c-77 -76 -151 -114 -233 -114c-118 0 -200 82 -200 191c0 93 60 169 183 234c-42 59 -64 110 -64 159c0 95 71 164 173 164c90 0 159 -65 159 -150c0 -64 -47 -127 -143 -188l141 -174c51 64 85 124 103 180h-76l13 71h215l-14 -71h-57
c-35 -88 -80 -167 -139 -241l72 -90h104zM270 456c75 48 113 88 113 136c0 44 -36 78 -85 78c-51 0 -87 -36 -87 -87c0 -38 20 -80 59 -127zM397 156l-153 193c-93 -52 -139 -101 -139 -164c0 -59 55 -112 126 -112c49 0 105 27 166 83z" />
    <glyph glyph-name="quoteright" unicode="&#x2019;" horiz-adv-x="275" 
d="M169 720h90l-91 -209h-83z" />
    <glyph glyph-name="parenleft" unicode="(" horiz-adv-x="278" 
d="M302 702c-132 -157 -195 -314 -195 -501c0 -93 18 -190 55 -283l-70 -23c-46 95 -69 199 -69 305c0 204 73 385 216 534z" />
    <glyph glyph-name="parenright" unicode=")" horiz-adv-x="278" 
d="M-48 -73c132 157 195 314 195 501c0 93 -19 190 -56 283l71 23c46 -95 69 -199 69 -305c0 -204 -73 -385 -216 -534z" />
    <glyph glyph-name="asterisk" unicode="*" 
d="M248 734h71l-7 -129l119 53l25 -67l-131 -41l94 -92l-54 -46l-84 101l-83 -101l-54 46l94 92l-132 41l25 67l122 -53z" />
    <glyph glyph-name="plus" unicode="+" horiz-adv-x="833" 
d="M446 596v-269h263v-57h-263v-270h-58v270h-264v57h264v269h58z" />
    <glyph glyph-name="comma" unicode="," horiz-adv-x="259" 
d="M59 121h90l-91 -209h-83z" />
    <glyph glyph-name="hyphen" unicode="-" horiz-adv-x="308" 
d="M7 194l14 78h238l-13 -78h-239z" />
    <glyph glyph-name="period" unicode="." horiz-adv-x="259" 
d="M86 -12c-38 0 -65 28 -65 65c0 38 27 66 65 66c37 0 66 -29 66 -66c0 -36 -29 -65 -66 -65z" />
    <glyph glyph-name="slash" unicode="/" horiz-adv-x="306" 
d="M297 734l-245 -827h-56l245 827h56z" />
    <glyph glyph-name="zero" unicode="0" horiz-adv-x="519" 
d="M365 243l35 200c6 37 9 65 9 85c0 71 -37 108 -109 108c-53 0 -89 -20 -114 -64c-12 -21 -19 -59 -29 -113l-39 -201c-6 -32 -9 -61 -9 -85c0 -71 37 -108 109 -108c98 0 125 54 147 178zM487 440l-31 -178c-13 -75 -23 -134 -48 -174c-46 -73 -104 -102 -199 -102
c-116 0 -187 67 -187 181c0 24 3 57 10 95l33 178c15 79 27 138 49 174c45 72 103 101 195 101c117 0 187 -68 187 -183c0 -26 -3 -57 -9 -92z" />
    <glyph glyph-name="one" unicode="1" horiz-adv-x="519" 
d="M368 701l-109 -633h86l-12 -68h-256l12 68h84l99 565h-92l12 68h176z" />
    <glyph glyph-name="two" unicode="2" horiz-adv-x="519" 
d="M423 0h-426l15 61l328 346c36 38 54 81 54 126c0 61 -45 105 -111 105c-85 0 -130 -57 -134 -171h-80c0 156 84 247 218 247c114 0 194 -77 194 -185c0 -71 -28 -119 -84 -177l-273 -282h231l22 109h81z" />
    <glyph glyph-name="three" unicode="3" horiz-adv-x="519" 
d="M24 228h81c-1 -12 -2 -23 -2 -33c0 -88 44 -135 120 -135c80 0 138 59 138 140c0 82 -53 132 -146 134l11 61c11 -1 22 -2 33 -2c95 0 150 53 150 136c0 67 -47 112 -112 112c-77 0 -120 -46 -129 -139h-80c7 132 89 213 208 213s199 -77 199 -187
c0 -83 -43 -147 -122 -180c50 -39 75 -87 75 -148c0 -123 -94 -214 -227 -214c-118 0 -201 78 -201 194c0 16 1 31 4 48z" />
    <glyph glyph-name="four" unicode="4" horiz-adv-x="519" 
d="M419 701h-246l12 -68h81l22 -116h-269l10 -68l353 -449h77l-80 449h85l-12 68h-84l-21 116h84zM299 449l60 -315l-253 315h193z" />
    <glyph glyph-name="five" unicode="5" horiz-adv-x="519" 
d="M25 465h79c-3 15 -4 29 -4 42c0 75 44 121 116 121c85 0 149 -70 149 -174c0 -99 -52 -145 -160 -145c-29 0 -61 3 -97 8l67 -331h300l-14 76h-223l-37 183c13 -1 26 -2 38 -2c136 0 213 77 213 212c0 144 -99 247 -232 247c-117 0 -198 -78 -198 -196c0 -13 1 -27 3 -41
z" />
    <glyph glyph-name="six" unicode="6" horiz-adv-x="519" 
d="M241 640c71 0 128 -64 128 -156c0 -81 -47 -131 -117 -131c-78 0 -132 61 -132 160c0 77 48 127 121 127zM43 422l35 -192c10 -56 18 -107 51 -156c38 -56 101 -88 177 -88c111 0 187 73 187 183c0 8 0 16 -1 24h-75v-9c0 -79 -40 -122 -111 -122c-82 0 -123 48 -140 153
l-17 103c42 -23 80 -35 118 -35c106 0 188 81 188 201c0 137 -88 231 -223 231c-116 0 -197 -77 -197 -196c0 -33 2 -65 8 -97z" />
    <glyph glyph-name="seven" unicode="7" horiz-adv-x="519" 
d="M221 0h-90l297 626h-237l-22 -129h-81l36 204h407l-13 -75z" />
    <glyph glyph-name="eight" unicode="8" horiz-adv-x="519" 
d="M152 326c-48 -38 -72 -85 -72 -143c0 -112 89 -197 212 -197c119 0 202 80 202 191c0 84 -44 148 -127 182c53 34 81 84 81 149c0 118 -88 208 -212 208c-126 0 -212 -85 -212 -202c0 -84 46 -153 128 -188zM166 181c0 73 51 125 122 125c69 0 120 -52 120 -129
c0 -72 -51 -122 -121 -122s-121 53 -121 126zM109 511c0 75 49 128 124 128c77 0 129 -53 129 -139c0 -73 -53 -126 -121 -126c-72 0 -132 61 -132 137z" />
    <glyph glyph-name="nine" unicode="9" horiz-adv-x="519" 
d="M280 640c-71 0 -128 -64 -128 -156c0 -81 47 -131 117 -131c78 0 133 60 133 159c0 77 -49 128 -122 128zM478 422l-34 -193c-10 -56 -19 -107 -52 -156c-38 -56 -100 -87 -176 -87c-111 0 -187 72 -187 182c0 8 0 16 1 24h75v-9c0 -79 39 -122 110 -122
c86 0 120 49 141 154l22 110c-35 -28 -78 -43 -123 -43c-107 0 -188 82 -188 202c0 137 87 230 222 230c116 0 198 -76 198 -195c0 -33 -3 -65 -9 -97z" />
    <glyph glyph-name="colon" unicode=":" horiz-adv-x="275" 
d="M148 340c-38 0 -66 27 -66 64c0 38 28 66 66 66c37 0 66 -29 66 -66c0 -36 -29 -64 -66 -64zM85 -12c-38 0 -66 28 -66 65c0 38 28 66 66 66c37 0 66 -29 66 -66c0 -36 -29 -65 -66 -65z" />
    <glyph glyph-name="semicolon" unicode=";" horiz-adv-x="275" 
d="M59 121h90l-91 -209h-83zM137 340c-38 0 -66 27 -66 64c0 38 28 66 66 66c37 0 66 -29 66 -66c0 -36 -29 -64 -66 -64z" />
    <glyph glyph-name="less" unicode="&#x3c;" horiz-adv-x="833" 
d="M704 497l-488 -199l488 -198v-63l-575 236v50l575 236v-62z" />
    <glyph glyph-name="equal" unicode="=" horiz-adv-x="833" 
d="M709 420v-57h-585v57h585zM709 233v-57h-585v57h585z" />
    <glyph glyph-name="greater" unicode="&#x3e;" horiz-adv-x="833" 
d="M704 323v-50l-575 -236v63l488 198l-488 199v62z" />
    <glyph glyph-name="question" unicode="?" 
d="M156 193l35 213h39c82 0 143 57 143 131c0 67 -46 117 -110 117c-69 0 -113 -49 -116 -119h-82c12 124 88 199 194 199c118 0 197 -77 197 -189c0 -123 -77 -208 -195 -214l-23 -138h-82zM180 -12c-38 0 -66 28 -66 65c0 38 28 66 66 66c37 0 66 -29 66 -66
c0 -36 -29 -65 -66 -65z" />
    <glyph glyph-name="at" unicode="@" horiz-adv-x="1000" 
d="M587 231l29 118c-11 59 -49 93 -101 93c-96 0 -167 -98 -167 -224c0 -72 35 -112 96 -112c65 0 124 49 143 125zM631 412l28 59h54l-69 -277c-4 -16 -6 -29 -6 -39c0 -29 18 -44 54 -44c26 0 65 14 99 43c56 48 93 130 93 220c0 170 -135 288 -349 288
c-109 0 -204 -34 -279 -100c-92 -80 -138 -186 -138 -311c0 -112 38 -196 121 -261c64 -51 157 -82 261 -82c111 0 220 32 308 92l22 -32c-96 -72 -205 -108 -322 -108c-124 0 -227 30 -305 90c-99 76 -148 176 -148 305c0 107 34 203 98 282c94 114 228 175 392 175
c110 0 208 -31 273 -82c84 -65 128 -152 128 -250c0 -112 -43 -204 -120 -266c-45 -36 -98 -55 -152 -55c-64 0 -97 25 -97 76c0 3 1 7 1 11c-33 -57 -84 -87 -145 -87c-100 0 -153 57 -153 162c0 153 104 268 229 268c59 0 100 -26 122 -77z" />
    <glyph glyph-name="A" unicode="A" horiz-adv-x="708" 
d="M102 649h74l-12 71h-220l13 -71h59l290 -578h-70l13 -71h301l-13 71h-72l118 578h70l-12 71h-242l12 -71h81l-36 -181h-263zM228 397h213l-57 -313z" />
    <glyph glyph-name="B" unicode="B" horiz-adv-x="560" 
d="M148 71h49h24c57 0 102 2 141 27s61 68 61 122c0 85 -53 130 -156 130h-70zM250 649l-43 -233h71c118 0 180 45 180 128c0 74 -43 105 -133 105h-75zM-36 0l12 71h78l102 578h-79l13 71h198c76 0 132 -1 173 -20c57 -26 89 -80 89 -152c0 -88 -54 -145 -161 -167
c82 -21 129 -83 129 -169c0 -57 -20 -109 -58 -148c-52 -53 -123 -64 -227 -64h-269z" />
    <glyph glyph-name="C" unicode="C" horiz-adv-x="736" 
d="M682 157c-68 -114 -170 -171 -302 -171c-91 0 -170 26 -232 77c-74 61 -118 157 -118 263c0 114 36 211 105 286c74 80 175 125 287 125c97 0 171 -32 217 -92l15 75h79l-39 -242h-67c-11 114 -83 177 -201 177c-68 0 -132 -22 -182 -61c-74 -58 -118 -152 -118 -259
c0 -159 103 -268 258 -268c98 0 170 41 223 124z" />
    <glyph glyph-name="D" unicode="D" horiz-adv-x="736" 
d="M-36 720l12 -71h78l102 -578h-79l13 -71h251c247 0 364 95 364 311c0 120 -40 229 -110 305c-79 86 -184 104 -336 104h-295zM342 71h-92l-102 578h89c102 0 180 -5 242 -49c80 -57 131 -166 131 -295c0 -160 -87 -234 -268 -234z" />
    <glyph glyph-name="E" unicode="E" horiz-adv-x="564" 
d="M-36 0l12 71h78l102 578h-79l13 71h485l-27 -191h-80l17 120h-235l-40 -232h197l-12 -70h-197l-50 -276h250l31 134h83l-47 -205h-501z" />
    <glyph glyph-name="F" unicode="F" horiz-adv-x="530" 
d="M-36 720l12 -71h78l102 -578h-79l13 -71h485l-27 191h-80l17 -120h-235l-40 232h197l-12 70h-197l-50 276h93l-12 71h-265z" />
    <glyph glyph-name="G" unicode="G" horiz-adv-x="819" 
d="M597 0l18 89c-66 -67 -152 -103 -247 -103c-82 0 -158 27 -220 78c-75 61 -117 155 -117 262c0 111 38 210 107 284c74 79 183 125 303 125c100 0 176 -31 232 -96l14 81h80l-39 -242h-67c-23 114 -102 177 -223 177c-72 0 -139 -23 -192 -66
c-77 -63 -119 -153 -119 -255c0 -163 103 -269 253 -269c111 0 205 63 268 184h-183l13 77h332l-14 -77h-73l-48 -249h-78z" />
    <glyph glyph-name="H" unicode="H" horiz-adv-x="729" 
d="M148 71h79l-12 -71h-251l12 71h78l102 578h-79l13 71h251l-12 -71h-79l-42 -239h330l42 239h-78l12 71h251l-12 -71h-78l-102 -578h78l-12 -71h-252l13 71h78l46 259h-330z" />
    <glyph glyph-name="I" unicode="I" horiz-adv-x="304" 
d="M148 71h79l-12 -71h-251l12 71h78l102 578h-79l13 71h251l-12 -71h-79z" />
    <glyph glyph-name="J" unicode="J" horiz-adv-x="304" 
d="M148 71c-21 -121 -62 -180 -162 -180c-18 0 -39 3 -64 9l15 86c18 -4 32 -5 42 -5c48 0 63 24 75 90l102 578h-79l13 71h251l-12 -71h-79z" />
    <glyph glyph-name="K" unicode="K" horiz-adv-x="630" 
d="M148 71h79l-12 -71h-251l12 71h78l102 578h-79l13 71h251l-12 -71h-79l-48 -262l278 262h-74l13 71h246l-12 -71h-58l-298 -278l208 -300h70l-13 -71h-253l12 71h75l-197 297z" />
    <glyph glyph-name="L" unicode="L" horiz-adv-x="545" 
d="M-36 0l12 71h78l102 578h-79l13 71h254l-13 -71h-81l-102 -578h250l31 134h83l-47 -205h-501z" />
    <glyph glyph-name="M" unicode="M" horiz-adv-x="853" 
d="M140 71h74l-12 -71h-238l12 71h78l102 578h-79l13 71h211l94 -506l279 506h211l-12 -71h-79l-102 -578h79l-13 -71h-238l13 71h73l99 549l-310 -557h-46l-115 571z" />
    <glyph glyph-name="N" unicode="N" horiz-adv-x="683" 
d="M140 71h79l-13 -71h-242l12 71h78l102 578h-79l13 71h163l203 -550l87 479h-79l13 71h243l-13 -71h-78l-117 -663h-72l-212 575z" />
    <glyph glyph-name="O" unicode="O" horiz-adv-x="809" 
d="M127 333c0 -157 104 -266 252 -266c67 0 128 21 182 64c76 60 120 153 120 257c0 158 -105 265 -254 265c-66 0 -127 -21 -181 -64c-76 -60 -119 -152 -119 -256zM381 -14c-92 0 -170 27 -233 78c-75 61 -117 154 -117 261c0 114 36 211 104 284c75 80 178 125 294 125
c208 0 349 -140 349 -338c0 -113 -37 -212 -105 -285c-74 -80 -179 -125 -292 -125z" />
    <glyph glyph-name="P" unicode="P" horiz-adv-x="575" 
d="M148 71h91l-13 -71h-262l12 71h78l102 578h-79l13 71h205c178 0 271 -75 271 -211c0 -146 -101 -235 -290 -235h-94zM250 649l-56 -308h70c133 0 204 67 204 173c0 90 -52 135 -157 135h-61z" />
    <glyph glyph-name="Q" unicode="Q" horiz-adv-x="809" 
d="M497 1l25 -65h125v-80h-184l-44 130c-9 0 -17 -1 -26 -1c-223 0 -362 140 -362 340c0 114 36 211 104 284c75 80 178 125 294 125c208 0 348 -140 348 -338c0 -192 -103 -337 -280 -395zM472 81c133 51 209 165 209 307c0 158 -105 265 -254 265c-66 0 -127 -21 -181 -64
c-76 -60 -119 -152 -119 -256c0 -159 100 -264 266 -268l-31 92l75 25z" />
    <glyph glyph-name="R" unicode="R" horiz-adv-x="647" 
d="M209 414h94c58 0 104 2 142 23c42 24 67 66 67 110c0 79 -52 102 -162 102h-99zM148 71h79l-12 -71h-251l12 71h78l102 578h-79l13 71h232c83 0 146 -1 194 -23c56 -26 87 -77 87 -150c0 -83 -49 -143 -143 -172c45 -26 64 -57 64 -103c0 -16 -3 -37 -7 -60l-25 -141h75
l-12 -71h-169l38 223c4 25 6 40 6 48c0 60 -37 72 -118 72h-115z" />
    <glyph glyph-name="S" unicode="S" horiz-adv-x="602" 
d="M-5 0l43 251h76c20 -116 91 -181 187 -181c89 0 148 51 148 125c0 63 -46 89 -137 125l-81 32c-103 40 -154 103 -154 188c0 108 91 194 228 194c78 0 140 -33 174 -94l11 78h87l-38 -208h-77c-24 98 -77 146 -162 146c-78 0 -130 -47 -130 -106c0 -75 54 -93 156 -134
l81 -33c91 -37 138 -101 138 -183c0 -122 -98 -214 -244 -214c-95 0 -164 37 -205 110l-15 -96h-86z" />
    <glyph glyph-name="T" unicode="T" horiz-adv-x="549" 
d="M347 649l-12 71h-252l13 -71h79l103 -578h-125l-24 130h-83l36 -201h512l-35 201h-83l23 -130h-127l-103 578h78z" />
    <glyph glyph-name="U" unicode="U" horiz-adv-x="727" 
d="M342 -13l-13 71h-79l-65 365c-5 27 -7 50 -7 70c0 89 57 145 147 145c105 0 164 -63 187 -194l68 -386h-78l12 -71h251l-12 71h-78l-70 391c-32 179 -130 271 -286 271c-142 0 -234 -86 -234 -216c0 -42 7 -80 13 -116l58 -330h-78l12 -71h252z" />
    <glyph glyph-name="V" unicode="V" horiz-adv-x="576" 
d="M190 -14l-84 663h-71l13 71h228l-13 -71h-68l55 -494l240 494h-71l12 71h221l-12 -71h-58l-329 -663h-63z" />
    <glyph glyph-name="W" unicode="W" horiz-adv-x="882" 
d="M179 720l-79 -663h-65l13 -71h227l-12 71h-73l49 474l215 -474h-82l12 -71h248l-12 71h-81l44 476l221 -476h-73l12 -71h219l-12 71h-58l-316 663h-53l-47 -551l-247 551h-50z" />
    <glyph glyph-name="X" unicode="X" horiz-adv-x="609" 
d="M126 71h83l-12 -72h-235l14 72h49l232 288l-146 290h-62l13 71h238l-14 -71h-76l106 -219l176 219h-88l14 71h234l-14 -71h-49l-234 -293l144 -285h60l-13 -72h-235l14 72h74l-101 215z" />
    <glyph glyph-name="Y" unicode="Y" horiz-adv-x="611" 
d="M517 649h-79l12 71h240l-12 -71h-65l-256 -318l-46 -260h82l-13 -71h-251l13 71h76l48 273l-158 305h-74l12 71h245l-12 -71h-72l118 -239z" />
    <glyph glyph-name="Z" unicode="Z" horiz-adv-x="537" 
d="M426 655h-257l-23 -128h-84l34 193h454l-9 -56l-434 -599h269l29 150h83l-39 -215h-464l11 62z" />
    <glyph glyph-name="bracketleft" unicode="[" horiz-adv-x="333" 
d="M23 720l143 -809h212l-12 71h-129l-117 668h128l-12 70h-213z" />
    <glyph glyph-name="backslash" unicode="\" horiz-adv-x="354" 
d="M238 -93h-56l-57 827h56z" />
    <glyph glyph-name="bracketright" unicode="]" horiz-adv-x="333" 
d="M302 720l-143 -809h-213l13 70h128l118 668h-129l13 71h213z" />
    <glyph glyph-name="asciicircum" unicode="^" horiz-adv-x="1000" 
d="M539 712l254 -272h-77l-216 214l-216 -214h-78l254 272h79z" />
    <glyph glyph-name="underscore" unicode="_" 
d="M500 -178v-58h-500v58h500z" />
    <glyph glyph-name="quoteleft" unicode="&#x2018;" horiz-adv-x="275" 
d="M169 720h90l-91 -209h-83z" />
    <glyph glyph-name="a" unicode="a" horiz-adv-x="604" 
d="M456 68h71l-12 -68h-156l9 47c-48 -39 -102 -59 -159 -59c-120 0 -206 89 -206 218c0 70 27 137 75 187s110 76 176 76c73 0 132 -31 173 -90l14 80h156l-12 -68h-72zM92 205c0 -84 58 -143 141 -143c98 0 176 83 176 190c0 84 -61 146 -144 146
c-98 0 -173 -83 -173 -193z" />
    <glyph glyph-name="b" unicode="b" horiz-adv-x="610" 
d="M121 0h-156l12 68h70l103 584h-71l12 68h156l-56 -315c46 42 100 64 161 64c120 0 205 -87 205 -216c0 -149 -107 -264 -245 -264c-76 0 -137 31 -178 90zM469 253c0 84 -58 143 -141 143c-98 0 -176 -83 -176 -190c0 -85 60 -146 148 -146c96 0 169 83 169 193z" />
    <glyph glyph-name="c" unicode="c" horiz-adv-x="498" 
d="M379 119l39 -47c-56 -55 -121 -84 -194 -84c-135 0 -221 91 -221 226c0 57 17 109 49 154c48 66 116 102 190 102c67 0 119 -26 147 -73l8 61h66l-29 -167h-56c-6 67 -59 112 -128 112c-91 0 -162 -83 -162 -190c0 -91 60 -156 143 -156c50 0 98 21 148 62z" />
    <glyph glyph-name="d" unicode="d" horiz-adv-x="600" 
d="M396 720h176l-115 -652h71l-12 -68h-156l10 54c-46 -42 -100 -64 -161 -64c-120 0 -206 87 -206 216c0 149 108 265 246 265c76 0 137 -32 178 -91l48 272h-91zM92 206c0 -84 58 -143 141 -143c98 0 176 83 176 190c0 85 -60 146 -148 146c-96 0 -169 -83 -169 -193z" />
    <glyph glyph-name="e" unicode="e" horiz-adv-x="536" 
d="M449 91c-48 -70 -117 -103 -213 -103c-140 0 -233 97 -233 221c0 149 111 261 271 261c126 0 214 -84 214 -211c0 -14 -1 -30 -3 -49h-394v-8c0 -88 60 -144 152 -144c63 0 113 23 151 71zM97 274h312c-3 80 -57 129 -141 129c-80 0 -145 -47 -171 -129z" />
    <glyph glyph-name="f" unicode="f" horiz-adv-x="306" 
d="M-29 0l12 68h68l57 322h-79l12 68h79l19 108c19 107 62 154 153 154c14 0 29 -1 45 -3l-12 -69c-10 2 -21 2 -33 2c-41 0 -58 -20 -67 -71l-21 -121h89l-12 -68h-89l-57 -322h82l-12 -68h-234z" />
    <glyph glyph-name="g" unicode="g" horiz-adv-x="600" 
d="M92 206c0 -84 58 -143 141 -143c98 0 176 83 176 190c0 85 -60 146 -148 146c-96 0 -169 -83 -169 -193zM427 380l13 78h155l-10 -68h-70l-58 -322c-15 -81 -23 -145 -54 -187c-47 -63 -108 -89 -197 -89c-112 0 -188 54 -203 143h85c18 -48 58 -72 119 -72
c105 0 148 58 163 191c-46 -42 -100 -64 -161 -64c-120 0 -206 87 -206 216c0 149 108 265 246 265c76 0 137 -32 178 -91z" />
    <glyph glyph-name="h" unicode="h" horiz-adv-x="584" 
d="M400 423c4 -20 5 -36 5 -46c0 -36 -23 -57 -65 -57c-47 0 -100 21 -162 63l-48 269h71l-12 68h-226l12 -68h71l103 -584h-71l12 -68h155l-54 313c60 -42 117 -63 174 -63c81 0 126 42 126 113c0 14 -2 34 -7 59l-40 230h70l-12 68h-227l12 -68h72z" />
    <glyph glyph-name="i" unicode="i" horiz-adv-x="278" 
d="M134 68h74l-12 -68h-229l12 68h70l57 322h-70l12 68h155zM95 572l16 90h121l-15 -90h-122z" />
    <glyph glyph-name="j" unicode="j" horiz-adv-x="256" 
d="M102 -44c-21 -116 -55 -166 -151 -166c-15 0 -32 2 -51 4l15 80c13 -2 25 -4 35 -4c49 0 58 30 70 102l73 418h-70l12 68h155zM82 572l16 90h121l-15 -90h-122z" />
    <glyph glyph-name="k" unicode="k" horiz-adv-x="539" 
d="M164 257l185 133h-63l13 68h227l-12 -68h-62l-203 -145l169 -177h54l-13 -68h-204l10 68h54l-158 169l-31 -169h71l-12 -68h-226l12 68h71l103 584h-71l12 68h155z" />
    <glyph glyph-name="l" unicode="l" horiz-adv-x="278" 
d="M130 68h74l-11 -68h-230l12 68h71l103 584h-71l12 68h155z" />
    <glyph glyph-name="m" unicode="m" horiz-adv-x="854" 
d="M422 402h65l-11 68h-213l11 -68h65l41 -229c4 -20 5 -36 5 -46c0 -36 -22 -57 -60 -57c-39 0 -88 20 -144 63l-49 269h71l-12 68h-224l12 -68h70l57 -322h-70l12 -68h153l-9 51c55 -42 109 -63 161 -63c58 0 94 24 111 72c63 -47 120 -72 179 -72c74 0 116 41 116 113
c0 14 -3 34 -7 59l-40 230h65l-11 68h-213l11 -68h64l42 -229c4 -20 5 -36 5 -46c0 -36 -22 -57 -60 -57c-39 0 -92 21 -146 66z" />
    <glyph glyph-name="n" unicode="n" horiz-adv-x="588" 
d="M403 297c4 20 6 36 6 46c0 36 -24 57 -66 57c-47 0 -99 -21 -161 -63l-48 -269h71l-12 -68h-226l12 68h70l57 322h-70l12 68h155l-9 -51c60 42 118 63 175 63c81 0 126 -42 126 -113c0 -14 -2 -34 -7 -59l-41 -230h71l-12 -68h-227l12 68h71z" />
    <glyph glyph-name="o" unicode="o" horiz-adv-x="557" 
d="M240 -11c-142 0 -237 92 -237 217c0 152 114 264 266 264c142 0 237 -91 237 -218c0 -153 -114 -263 -266 -263zM241 57c95 0 178 85 178 191c0 91 -61 154 -151 154c-98 0 -177 -85 -177 -192c0 -90 60 -153 150 -153z" />
    <glyph glyph-name="p" unicode="p" horiz-adv-x="600" 
d="M99 390h-71l13 68h155l-9 -47c41 33 95 58 160 58c119 0 205 -87 205 -216c0 -149 -107 -264 -245 -264c-76 0 -137 31 -178 90l-38 -219h75l-12 -68h-231l12 68h71zM464 253c0 84 -58 143 -141 143c-98 0 -177 -83 -177 -190c0 -85 61 -146 149 -146
c96 0 169 83 169 193z" />
    <glyph glyph-name="q" unicode="q" horiz-adv-x="600" 
d="M92 205c0 -84 58 -143 141 -143c98 0 176 83 176 190c0 84 -61 146 -144 146c-98 0 -173 -83 -173 -193zM421 -141h71l-12 -67h-231l12 67h74l33 188c-48 -39 -102 -59 -159 -59c-120 0 -206 89 -206 218c0 70 27 137 75 186c49 50 109 77 178 77c76 0 132 -29 171 -88
l14 78h156l-12 -68h-72z" />
    <glyph glyph-name="r" unicode="r" horiz-adv-x="363" 
d="M188 369c36 66 87 101 155 101c6 0 12 0 19 -1l-13 -73c-92 -2 -171 -81 -186 -164l-29 -164h75l-12 -68h-230l12 68h70l57 322h-70l12 68h155z" />
    <glyph glyph-name="s" unicode="s" horiz-adv-x="446" 
d="M-18 0l27 156h63c23 -66 70 -100 138 -100c51 0 82 27 82 64c0 34 -25 53 -78 72l-57 21c-77 28 -114 72 -114 134c0 69 59 123 147 123c64 0 112 -26 139 -73l8 61h66l-25 -140h-61c-18 54 -63 86 -117 86c-47 0 -75 -23 -75 -54c0 -42 34 -54 97 -78l59 -23
c58 -22 92 -68 92 -124c0 -80 -64 -136 -164 -136c-72 0 -122 26 -152 80l-10 -69h-65z" />
    <glyph glyph-name="t" unicode="t" horiz-adv-x="286" 
d="M213 616l-28 -158h87l-12 -68h-87l-44 -249c-3 -20 -5 -33 -5 -41c0 -26 17 -35 58 -35c7 0 14 1 22 1l-12 -66c-16 -1 -31 -2 -43 -2c-80 0 -115 15 -115 67c0 10 1 25 5 45l50 280h-76l12 68h76l27 158h85z" />
    <glyph glyph-name="u" unicode="u" horiz-adv-x="583" 
d="M136 161c-3 -18 -6 -34 -6 -46c0 -36 24 -57 66 -57c40 0 80 12 114 36c50 34 54 65 63 114l32 182h-70l12 68h155l-69 -390h71l-12 -68h-155l8 52c-60 -42 -117 -64 -174 -64c-81 0 -127 42 -127 113c0 14 2 35 7 60l41 229h-70l12 68h154z" />
    <glyph glyph-name="v" unicode="v" horiz-adv-x="534" 
d="M161 0l-99 390h-66l12 68h219l-12 -68h-73l70 -284l166 284h-73l12 68h216l-12 -68h-60l-241 -390h-59z" />
    <glyph glyph-name="w" unicode="w" horiz-adv-x="815" 
d="M141 0l-78 390h-60l12 68h210l-12 -68h-67l48 -270l163 270h-64l12 68h215l-12 -68h-71l60 -270l159 270h-60l12 68h199l-12 -68h-57l-236 -390h-55l-65 303l-185 -303h-56z" />
    <glyph glyph-name="x" unicode="x" horiz-adv-x="537" 
d="M-31 0l12 68h51l166 166l-113 156h-63l12 68h206l-12 -68h-53l75 -110l106 110h-56l12 68h202l-12 -68h-55l-158 -155l123 -167h60l-12 -68h-216l12 68h63l-82 120l-114 -120h59l-12 -68h-201z" />
    <glyph glyph-name="y" unicode="y" horiz-adv-x="534" 
d="M-32 -209l11 69h73l99 153l-90 377h-74l12 68h224l-12 -68h-71l68 -290l185 290h-78l12 68h219l-12 -68h-61l-340 -530h76l-11 -69h-230z" />
    <glyph glyph-name="z" unicode="z" horiz-adv-x="477" 
d="M4 0l6 68l304 322h-194l-16 -84h-75l27 152h358l-5 -68l-304 -322h207l19 96h74l-29 -164h-372z" />
    <glyph glyph-name="braceleft" unicode="{" 
d="M419 659c-8 0 -15 1 -22 1c-86 0 -101 -30 -101 -119v-118c0 -96 -16 -142 -97 -164c81 -22 97 -68 97 -164v-118c0 -90 16 -118 104 -118h19v-61h-17c-56 0 -97 5 -128 25c-44 29 -49 77 -49 153v119c0 97 -30 134 -119 134c-7 0 -14 -1 -22 -1v62c8 0 15 -1 22 -1
c89 0 119 37 119 135v119c0 76 4 124 49 153c31 20 71 25 128 25h17v-62z" />
    <glyph glyph-name="bar" unicode="|" 
d="M281 764v-1000h-62v1000h62z" />
    <glyph glyph-name="braceright" unicode="}" 
d="M275 543v-119c0 -98 31 -135 120 -135c7 0 14 1 22 1v-62c-8 0 -15 1 -22 1c-89 0 -120 -37 -120 -135v-118c0 -76 -4 -125 -48 -154c-30 -20 -71 -24 -126 -24h-20v61c8 0 15 -1 22 -1c86 0 101 31 101 120v117c0 96 16 142 97 164c-81 22 -97 68 -97 164v118
c0 90 -16 119 -104 119h-19v61h17c56 0 98 -5 129 -25c44 -29 48 -77 48 -153z" />
    <glyph glyph-name="asciitilde" unicode="~" horiz-adv-x="833" 
d="M747 306c-66 -47 -129 -70 -189 -70c-29 0 -60 6 -93 17c-69 23 -128 50 -190 50c-59 0 -117 -28 -188 -78v65c68 47 131 71 189 71c52 0 97 -16 142 -32c48 -17 91 -36 141 -36c60 0 118 28 188 77v-64z" />
    <glyph glyph-name="exclamdown" unicode="&#xa1;" horiz-adv-x="331" 
d="M242 542l-76 -542h-108l113 542h71zM221 731c38 0 65 -27 65 -64c0 -38 -27 -66 -65 -66c-37 0 -66 29 -66 66c0 36 29 64 66 64z" />
    <glyph glyph-name="cent" unicode="&#xa2;" horiz-adv-x="519" 
d="M166 89l138 310c-13 2 -24 3 -32 3c-88 0 -162 -81 -162 -191c0 -55 18 -95 56 -122zM68 -129l64 143c-71 49 -106 115 -106 199c0 149 104 257 236 257c21 0 44 -3 69 -10l54 119h44l-60 -137c11 -8 24 -21 41 -37l12 62h55l-25 -174h-48c-17 47 -34 77 -61 90
l-139 -314c20 -7 36 -10 49 -10c54 0 102 21 152 63l37 -49c-56 -57 -121 -86 -194 -86c-21 0 -46 3 -77 10l-57 -126h-46z" />
    <glyph glyph-name="sterling" unicode="&#xa3;" horiz-adv-x="519" 
d="M10 -13v90c69 1 100 77 113 235h-104l13 70h95v9c0 217 69 324 214 324c107 0 182 -70 182 -162c0 -19 -4 -40 -12 -62h-84c7 23 10 42 10 55c0 55 -40 94 -98 94c-91 0 -125 -83 -126 -258h127l-12 -70h-117c-4 -93 -22 -164 -54 -215c50 -24 90 -36 122 -36
c70 0 105 39 105 118v10h83c0 -6 1 -12 1 -18c0 -115 -65 -185 -167 -185c-54 0 -114 19 -176 58c-30 -37 -67 -55 -115 -57z" />
    <glyph glyph-name="fraction" unicode="&#x2044;" horiz-adv-x="167" 
d="M-167 -14l440 729h60l-440 -729h-60z" />
    <glyph glyph-name="yen" unicode="&#xa5;" horiz-adv-x="565" 
d="M466 633h-78l12 68h234l-12 -68h-63l-92 -121h113l-9 -51h-144l-73 -94h200l-9 -51h-226l-44 -248h79l-12 -68h-245l12 68h79l44 248h-229l9 51h208l-48 94h-144l9 51h109l-61 121h-73l13 68h239l-13 -68h-72l112 -238z" />
    <glyph glyph-name="florin" unicode="&#x192;" horiz-adv-x="519" 
d="M-8 -106c26 -8 47 -12 67 -12c92 0 101 96 131 321l21 163h-114v64h125l15 88c23 132 78 197 165 197c37 0 70 -7 95 -18l-17 -67c-24 9 -46 14 -66 14c-57 0 -81 -41 -95 -131l-13 -83h111v-64h-121l-16 -125c-18 -139 -33 -241 -54 -305c-30 -91 -78 -129 -167 -129
c-27 0 -56 6 -87 15z" />
    <glyph glyph-name="section" unicode="&#xa7;" 
d="M162 330l71 -99c32 -45 55 -69 88 -69c35 0 60 25 60 60c0 26 -17 52 -42 87l-68 95c-29 41 -51 63 -84 63c-34 0 -59 -26 -59 -60c0 -16 11 -45 34 -77zM466 720l-28 -158h-58l16 95h-50c-70 0 -103 -9 -103 -55c0 -27 18 -59 51 -103l118 -158c33 -44 50 -86 50 -120
c0 -66 -48 -114 -118 -114c-8 0 -16 1 -24 2c22 -33 33 -63 33 -91c0 -73 -54 -109 -163 -109h-164l28 159h59l-17 -96h91c51 0 79 22 79 55c0 22 -13 51 -40 87l-129 176c-33 45 -52 82 -52 118c0 68 50 113 131 113h13c-22 33 -33 61 -33 88c0 78 60 111 182 111h128z" />
    <glyph glyph-name="currency" unicode="&#xa4;" horiz-adv-x="606" 
d="M178 592c38 29 78 44 125 44s89 -15 127 -44l100 101l35 -36l-100 -100c28 -37 42 -79 42 -125s-14 -88 -42 -125l100 -100l-35 -36l-100 101c-37 -29 -79 -43 -127 -43s-88 14 -125 43l-101 -101l-35 36l101 100c-28 37 -43 79 -43 125s15 88 43 125l-101 100l35 36z
M457 433c0 84 -68 153 -153 153s-153 -69 -153 -153c0 -85 68 -154 153 -154s153 70 153 154z" />
    <glyph glyph-name="quotesingle" unicode="'" horiz-adv-x="149" 
d="M103 700v-270h-57v270h57z" />
    <glyph glyph-name="quotedblleft" unicode="&#x201c;" horiz-adv-x="440" 
d="M144 720h89l-91 -209h-83zM361 720h90l-92 -209h-82z" />
    <glyph glyph-name="guillemotleft" unicode="&#xab;" horiz-adv-x="488" 
d="M323 72l-99 153l135 153h83l-142 -153l94 -153h-71zM151 72l-99 153l135 153h84l-142 -153l94 -153h-72z" />
    <glyph glyph-name="guilsinglleft" unicode="&#x2039;" horiz-adv-x="317" 
d="M151 73l-99 152l135 153h84l-142 -153l94 -152h-72z" />
    <glyph glyph-name="guilsinglright" unicode="&#x203a;" horiz-adv-x="317" 
d="M128 378l99 -153l-135 -153h-83l142 153l-95 153h72z" />
    <glyph glyph-name="fi" unicode="&#xfb01;" horiz-adv-x="583" 
d="M-29 0l12 68h68l57 322h-79l12 68h79l19 108c19 107 62 154 153 154c14 0 29 -1 45 -3l-12 -69c-10 2 -21 2 -33 2c-41 0 -58 -20 -67 -71l-21 -121h89l-12 -68h-89l-57 -322h82l-12 -68h-234zM440 68h74l-12 -68h-230l12 68h71l57 322h-71l12 68h155zM401 572l16 90h121
l-16 -90h-121z" />
    <glyph glyph-name="fl" unicode="&#xfb02;" horiz-adv-x="583" 
d="M-29 0l12 68h68l57 322h-79l12 68h79l19 108c19 107 62 154 153 154c14 0 29 -1 45 -3l-12 -69c-10 2 -21 2 -33 2c-41 0 -58 -20 -67 -71l-21 -121h89l-12 -68h-89l-57 -322h82l-12 -68h-234zM436 68h74l-12 -68h-229l12 68h70l103 584h-70l12 68h155z" />
    <glyph glyph-name="endash" unicode="&#x2013;" 
d="M-6 205l10 57h499l-10 -57h-499z" />
    <glyph glyph-name="dagger" unicode="&#x2020;" 
d="M130 -91l88 502h-122l-10 -57h-57l25 180h63l-10 -58h123l32 186h-67l10 58h209l-11 -58h-65l-33 -186h121l11 58h62l-32 -180h-62l10 57h-121l-89 -502h-75z" />
    <glyph glyph-name="daggerdbl" unicode="&#x2021;" 
d="M262 662h-67l10 58h209l-11 -58h-65l-33 -186h121l11 58h62l-32 -180h-62l10 57h-121l-36 -199h121l11 58h62l-32 -179h-62l10 56h-121l-32 -179h68l-11 -59h-208l10 59h66l31 179h-122l-10 -56h-57l25 179h63l-10 -58h123l35 199h-122l-10 -57h-57l25 180h63l-10 -58
h123z" />
    <glyph glyph-name="periodcentered" unicode="&#xb7;" horiz-adv-x="259" 
d="M127 285c-38 0 -65 28 -65 65c0 38 27 66 65 66c37 0 66 -29 66 -66c0 -36 -29 -65 -66 -65z" />
    <glyph glyph-name="paragraph" unicode="&#xb6;" 
d="M463 684h-61v-684h-46v684h-90v-684h-46v382c-114 5 -183 73 -183 170c0 100 74 170 192 170h234v-38z" />
    <glyph glyph-name="bullet" unicode="&#x2022;" horiz-adv-x="590" 
d="M150 372c0 80 65 144 145 144c79 0 144 -64 144 -144c0 -79 -65 -145 -145 -145s-144 65 -144 145z" />
    <glyph glyph-name="quotesinglbase" unicode="&#x201a;" horiz-adv-x="275" 
d="M84 121h90l-91 -209h-83z" />
    <glyph glyph-name="quotedblbase" unicode="&#x201e;" horiz-adv-x="440" 
d="M84 121h90l-91 -209h-83zM302 121h90l-92 -209h-83z" />
    <glyph glyph-name="quotedblright" unicode="&#x201d;" horiz-adv-x="440" 
d="M144 720h89l-91 -209h-83zM361 720h90l-92 -209h-82z" />
    <glyph glyph-name="guillemotright" unicode="&#xbb;" horiz-adv-x="488" 
d="M300 378l99 -153l-136 -153h-83l142 153l-94 153h72zM128 378l99 -153l-135 -153h-83l142 153l-95 153h72z" />
    <glyph glyph-name="ellipsis" unicode="&#x2026;" horiz-adv-x="1000" 
d="M123 -12c-38 0 -65 28 -65 65c0 38 27 66 65 66c37 0 66 -29 66 -66c0 -36 -29 -65 -66 -65zM456 -12c-38 0 -65 28 -65 65c0 38 27 66 65 66c37 0 66 -29 66 -66c0 -36 -29 -65 -66 -65zM790 -12c-38 0 -65 28 -65 65c0 38 27 66 65 66c37 0 66 -29 66 -66
c0 -36 -29 -65 -66 -65z" />
    <glyph glyph-name="perthousand" unicode="&#x2030;" horiz-adv-x="1336" 
d="M231 431c56 0 99 43 99 100c0 58 -43 101 -99 101c-55 0 -100 -44 -100 -101c0 -56 44 -100 100 -100zM401 531c0 -96 -76 -170 -170 -170s-171 74 -171 170s76 170 171 170s170 -74 170 -170zM662 715h62l-469 -729h-59zM688 70c56 0 100 43 100 100
c0 58 -44 101 -100 101c-55 0 -99 -44 -99 -101c0 -56 43 -100 99 -100zM859 170c0 -96 -77 -170 -171 -170s-170 74 -170 170s75 170 170 170s171 -74 171 -170zM1275 170c0 -96 -76 -170 -170 -170s-171 74 -171 170s76 170 171 170s170 -74 170 -170zM1105 70
c56 0 99 43 99 100c0 58 -43 101 -99 101c-55 0 -99 -44 -99 -101c0 -56 43 -100 99 -100z" />
    <glyph glyph-name="questiondown" unicode="&#xbf;" 
d="M319 734c38 0 65 -28 65 -65c0 -38 -27 -66 -65 -66c-37 0 -66 29 -66 66c0 36 29 65 66 65zM342 529l-34 -212h-39c-82 0 -144 -58 -144 -132c0 -67 47 -117 111 -117c66 0 112 46 115 119h82c-12 -125 -87 -199 -193 -199c-118 0 -197 77 -197 189
c0 123 77 208 195 214l23 138h81z" />
    <glyph glyph-name="grave" unicode="`" 
d="M328 524h-49l-140 170h82z" />
    <glyph glyph-name="acute" unicode="&#xb4;" 
d="M250 524h-52l116 170h87z" />
    <glyph glyph-name="circumflex" unicode="&#x2c6;" 
d="M401 524h-47l-68 112l-112 -112h-52l131 170h75z" />
    <glyph glyph-name="tilde" unicode="&#x2dc;" 
d="M417 654c-20 -64 -45 -93 -91 -93c-12 0 -26 2 -40 6l-32 10c-15 5 -26 6 -33 6c-21 0 -33 -11 -41 -37h-42c19 65 46 95 92 95c12 0 25 -2 38 -6l33 -11c13 -4 23 -6 33 -6c22 0 35 11 41 36h42z" />
    <glyph glyph-name="macron" unicode="&#xaf;" 
d="M145 570l13 62h252l-13 -62h-252z" />
    <glyph glyph-name="breve" unicode="&#x2d8;" 
d="M155 676h43v-10c0 -41 25 -61 76 -61c55 0 91 22 113 71h45c-27 -90 -80 -134 -165 -134c-74 0 -113 38 -113 112c0 7 0 14 1 22z" />
    <glyph glyph-name="dotaccent" unicode="&#x2d9;" 
d="M312 658l-20 -97h-83l21 97h82z" />
    <glyph glyph-name="dieresis" unicode="&#xa8;" 
d="M151 555l19 92h78l-19 -92h-78zM307 555l20 92h78l-20 -92h-78z" />
    <glyph glyph-name="ring" unicode="&#x2da;" 
d="M166 636c0 68 53 121 121 121s121 -53 121 -121s-53 -121 -121 -121s-121 53 -121 121zM214 635c0 -41 32 -73 73 -73c40 0 72 32 72 73s-32 73 -72 73c-41 0 -73 -32 -73 -73z" />
    <glyph glyph-name="cedilla" unicode="&#xb8;" 
d="M74 -204l15 42c47 -14 84 -20 110 -20c40 0 61 18 61 51c0 31 -25 40 -80 40h-18l30 91h36l-18 -52h9c72 0 106 -24 106 -82c0 -55 -44 -95 -117 -95c-36 0 -81 9 -134 25z" />
    <glyph glyph-name="hungarumlaut" unicode="&#x2dd;" 
d="M258 694h76l-118 -170h-41zM395 694h77l-128 -170h-41z" />
    <glyph glyph-name="ogonek" unicode="&#x2db;" 
d="M228 0c-44 -40 -67 -75 -67 -109c0 -29 14 -40 48 -40h46l-14 -63h-32c-73 0 -108 25 -108 80c0 48 32 84 92 132h35z" />
    <glyph glyph-name="caron" unicode="&#x2c7;" 
d="M152 694h46l68 -111l113 111h52l-132 -170h-75z" />
    <glyph glyph-name="emdash" unicode="&#x2014;" horiz-adv-x="1000" 
d="M981 262l-10 -57h-1000l10 57h1000z" />
    <glyph glyph-name="AE" unicode="&#xc6;" horiz-adv-x="920" 
d="M254 323h205l59 326h-33zM-79 0l12 71h57l406 578h-78l11 71h603l-26 -191h-81l17 120h-235l-42 -232h199l-12 -70h-199l-49 -276h251l31 134h83l-47 -205h-501l12 71h81l32 181h-239l-129 -181h75l-12 -71h-220z" />
    <glyph glyph-name="ordfeminine" unicode="&#xaa;" horiz-adv-x="453" 
d="M342 447h53l-9 -48h-117l7 33c-36 -27 -76 -41 -119 -41c-90 0 -155 62 -155 152c0 49 21 96 57 131s82 53 132 53c54 0 99 -21 129 -63l11 56h117l-9 -47h-54zM69 542c0 -58 44 -100 106 -100c73 0 132 58 132 133c0 59 -46 103 -108 103c-74 0 -130 -59 -130 -136z" />
    <glyph glyph-name="Lslash" unicode="&#x141;" horiz-adv-x="550" 
d="M-32 0l13 71h78l38 212l-103 -60l15 86l102 59l50 281h-79l12 71h254l-12 -71h-81l-42 -239l180 103l-16 -86l-180 -104l-44 -252h250l31 134h83l-47 -205h-502z" />
    <glyph glyph-name="Oslash" unicode="&#xd8;" horiz-adv-x="809" 
d="M567 615c-39 26 -86 38 -140 38c-66 0 -126 -21 -181 -64c-76 -59 -119 -153 -119 -256c0 -74 21 -135 64 -184zM238 106c44 -27 91 -40 142 -40c65 0 127 22 181 65c75 59 120 153 120 256c0 77 -22 139 -67 187zM622 685l62 75h81l-92 -113c69 -65 104 -151 104 -252
c0 -113 -36 -211 -104 -284c-74 -80 -179 -125 -293 -125c-69 0 -135 17 -198 51l-68 -85h-83l101 125c-67 68 -101 151 -101 248c0 114 36 211 104 284c75 80 179 125 294 125c72 0 137 -16 193 -49z" />
    <glyph glyph-name="OE" unicode="&#x152;" horiz-adv-x="953" 
d="M468 177l63 354c6 34 9 57 9 67c0 37 -27 52 -89 52c-208 0 -325 -127 -325 -333c0 -153 94 -248 242 -248c67 0 85 26 100 108zM965 720l-27 -191h-80l17 120h-235l-40 -232h197l-12 -70h-197l-50 -276h250l31 134h83l-47 -205h-370h-65c-84 0 -157 2 -221 28
c-102 40 -169 149 -169 291c0 164 73 285 218 363c63 34 178 38 349 38h368z" />
    <glyph glyph-name="ordmasculine" unicode="&#xba;" horiz-adv-x="418" 
d="M180 391c-106 0 -178 65 -178 152c0 107 86 185 200 185c106 0 178 -64 178 -153c0 -107 -86 -184 -200 -184zM181 439c71 0 133 59 133 134c0 63 -45 107 -113 107c-73 0 -133 -59 -133 -134c0 -63 45 -107 113 -107z" />
    <glyph glyph-name="ae" unicode="&#xe6;" horiz-adv-x="848" 
d="M410 274h312c-3 80 -57 129 -141 129c-80 0 -145 -47 -171 -129zM367 80c-47 -61 -115 -92 -205 -92c-111 0 -177 58 -177 150c0 98 78 166 204 166c59 0 107 -14 145 -42c6 18 9 40 9 66c0 45 -43 73 -121 73c-48 0 -94 -9 -139 -27l-23 67c46 17 98 29 162 29
c95 0 153 -26 176 -80c50 55 111 80 189 80c126 0 214 -84 214 -211c0 -14 -1 -30 -3 -49h-394v-9c0 -87 59 -143 151 -143c63 0 114 23 152 71l54 -38c-47 -68 -115 -103 -203 -103c-85 0 -144 28 -191 92zM319 153c0 52 -46 84 -129 84c-75 0 -124 -40 -124 -96
c0 -47 43 -82 115 -82c82 0 138 40 138 94z" />
    <glyph glyph-name="dotlessi" unicode="&#x131;" horiz-adv-x="278" 
d="M134 68h74l-12 -68h-229l12 68h70l57 322h-70l12 68h155z" />
    <glyph glyph-name="lslash" unicode="&#x142;" horiz-adv-x="287" 
d="M200 434l110 63l-13 -73l-110 -62l-52 -294h74l-12 -68h-229l12 68h70l46 257l-109 -63l12 72l109 62l45 256h-70l12 68h155z" />
    <glyph glyph-name="oslash" unicode="&#xf8;" horiz-adv-x="557" 
d="M393 442l45 57h62l-67 -84c48 -41 72 -97 72 -164c0 -153 -113 -262 -265 -262c-42 0 -84 9 -126 28l-48 -60h-62l71 88c-47 43 -72 98 -72 161c0 151 113 263 266 263c49 0 91 -8 124 -27zM350 388c-25 13 -53 19 -82 19c-98 0 -182 -87 -182 -196c0 -39 12 -74 36 -108
zM159 73c23 -13 52 -20 87 -20c93 0 178 87 178 198c0 44 -12 79 -37 106z" />
    <glyph glyph-name="oe" unicode="&#x153;" horiz-adv-x="940" 
d="M242 57c91 0 170 85 170 192c0 91 -59 153 -144 153c-93 0 -170 -84 -170 -192c0 -91 59 -153 144 -153zM464 350c49 83 114 120 206 120c138 0 221 -82 221 -211c0 -14 -1 -30 -3 -49h-391v-9c0 -88 58 -144 151 -144c65 0 115 24 152 72l53 -38
c-48 -72 -114 -103 -211 -103c-101 0 -173 43 -200 115c-52 -77 -118 -114 -203 -114c-133 0 -225 91 -225 217c0 152 109 263 255 263c96 0 159 -38 195 -119zM503 274h312c-4 81 -56 129 -137 129c-88 0 -149 -45 -175 -129z" />
    <glyph glyph-name="germandbls" unicode="&#xdf;" horiz-adv-x="564" 
d="M-37 0l12 68h67l83 461c24 134 92 199 208 199c113 0 182 -67 182 -167c0 -83 -48 -148 -131 -175c78 -20 127 -86 127 -174c0 -131 -87 -225 -206 -225c-17 0 -37 2 -57 7l16 65c7 -1 14 -1 20 -1c88 0 143 60 143 156c0 83 -52 135 -149 144l12 66c93 8 143 58 143 137
c0 63 -39 100 -102 100c-68 0 -106 -43 -122 -132l-82 -461h73l-13 -68h-224z" />
    <glyph glyph-name="Aacute" unicode="&#xc1;" horiz-adv-x="708" 
d="M102 71h74l-12 -71h-220l13 71h59l290 578h-70l13 71h301l-13 -71h-72l118 -578h70l-12 -71h-242l12 71h81l-36 181h-263zM228 323h213l-57 313zM389 788h-52l116 170h87z" />
    <glyph glyph-name="Acircumflex" unicode="&#xc2;" horiz-adv-x="708" 
d="M102 71h74l-12 -71h-220l13 71h59l290 578h-70l13 71h301l-13 -71h-72l118 -578h70l-12 -71h-242l12 71h81l-36 181h-263zM228 323h213l-57 313zM540 788h-47l-68 112l-112 -112h-52l131 170h75z" />
    <glyph glyph-name="Adieresis" unicode="&#xc4;" horiz-adv-x="708" 
d="M102 71h74l-12 -71h-220l13 71h59l290 578h-70l13 71h301l-13 -71h-72l118 -578h70l-12 -71h-242l12 71h81l-36 181h-263zM228 323h213l-57 313zM290 819l19 92h78l-19 -92h-78zM446 819l20 92h78l-20 -92h-78z" />
    <glyph glyph-name="Agrave" unicode="&#xc0;" horiz-adv-x="708" 
d="M102 71h74l-12 -71h-220l13 71h59l290 578h-70l13 71h301l-13 -71h-72l118 -578h70l-12 -71h-242l12 71h81l-36 181h-263zM228 323h213l-57 313zM467 788h-49l-140 170h82z" />
    <glyph glyph-name="Aring" unicode="&#xc5;" horiz-adv-x="708" 
d="M228 323h213l-57 313zM102 71h74l-12 -71h-220l13 71h59l290 578h-70l13 71h301l-13 -71h-72l118 -578h70l-12 -71h-242l12 71h81l-36 181h-263zM290 855c0 61 47 108 108 108c60 0 107 -48 107 -108s-47 -107 -107 -107c-61 0 -108 47 -108 107zM342 856
c0 -32 25 -57 56 -57c32 0 56 25 56 57c0 31 -25 56 -56 56s-56 -25 -56 -56z" />
    <glyph glyph-name="Atilde" unicode="&#xc3;" horiz-adv-x="708" 
d="M102 71h74l-12 -71h-220l13 71h59l290 578h-70l13 71h301l-13 -71h-72l118 -578h70l-12 -71h-242l12 71h81l-36 181h-263zM228 323h213l-57 313zM556 918c-20 -64 -45 -93 -91 -93c-12 0 -26 2 -40 6l-32 10c-15 5 -26 6 -33 6c-21 0 -33 -11 -41 -37h-42
c19 65 46 95 92 95c12 0 25 -2 38 -6l33 -11c13 -4 23 -6 33 -6c22 0 35 11 41 36h42z" />
    <glyph glyph-name="Ccedilla" unicode="&#xc7;" horiz-adv-x="736" 
d="M682 157c-68 -114 -170 -171 -302 -171c-91 0 -170 26 -232 77c-74 61 -118 157 -118 263c0 114 36 211 105 286c74 80 175 125 287 125c97 0 171 -32 217 -92l15 75h79l-39 -242h-67c-11 114 -83 177 -201 177c-68 0 -132 -22 -182 -61c-74 -58 -118 -152 -118 -259
c0 -159 103 -268 258 -268c98 0 170 41 223 124zM247 -204l15 42c47 -14 84 -20 110 -20c40 0 61 18 61 51c0 31 -25 40 -80 40h-18l30 91h36l-18 -52h9c72 0 106 -24 106 -82c0 -55 -44 -95 -117 -95c-36 0 -81 9 -134 25z" />
    <glyph glyph-name="Eacute" unicode="&#xc9;" horiz-adv-x="564" 
d="M-36 0l12 71h78l102 578h-79l13 71h485l-27 -191h-80l17 120h-235l-40 -232h197l-12 -70h-197l-50 -276h250l31 134h83l-47 -205h-501zM337 788h-52l116 170h87z" />
    <glyph glyph-name="Ecircumflex" unicode="&#xca;" horiz-adv-x="564" 
d="M-36 0l12 71h78l102 578h-79l13 71h485l-27 -191h-80l17 120h-235l-40 -232h197l-12 -70h-197l-50 -276h250l31 134h83l-47 -205h-501zM488 788h-47l-68 112l-112 -112h-52l131 170h75z" />
    <glyph glyph-name="Edieresis" unicode="&#xcb;" horiz-adv-x="564" 
d="M-36 0l12 71h78l102 578h-79l13 71h485l-27 -191h-80l17 120h-235l-40 -232h197l-12 -70h-197l-50 -276h250l31 134h83l-47 -205h-501zM238 819l19 92h78l-19 -92h-78zM394 819l20 92h78l-20 -92h-78z" />
    <glyph glyph-name="Egrave" unicode="&#xc8;" horiz-adv-x="564" 
d="M-36 0l12 71h78l102 578h-79l13 71h485l-27 -191h-80l17 120h-235l-40 -232h197l-12 -70h-197l-50 -276h250l31 134h83l-47 -205h-501zM415 788h-49l-140 170h82z" />
    <glyph glyph-name="Iacute" unicode="&#xcd;" horiz-adv-x="304" 
d="M148 71h79l-12 -71h-251l12 71h78l102 578h-79l13 71h251l-12 -71h-79zM207 788h-52l116 170h87z" />
    <glyph glyph-name="Icircumflex" unicode="&#xce;" horiz-adv-x="304" 
d="M148 71h79l-12 -71h-251l12 71h78l102 578h-79l13 71h251l-12 -71h-79zM358 788h-47l-68 112l-112 -112h-52l131 170h75z" />
    <glyph glyph-name="Idieresis" unicode="&#xcf;" horiz-adv-x="304" 
d="M148 71h79l-12 -71h-251l12 71h78l102 578h-79l13 71h251l-12 -71h-79zM108 819l19 92h78l-19 -92h-78zM264 819l20 92h78l-20 -92h-78z" />
    <glyph glyph-name="Igrave" unicode="&#xcc;" horiz-adv-x="304" 
d="M148 71h79l-12 -71h-251l12 71h78l102 578h-79l13 71h251l-12 -71h-79zM285 788h-49l-140 170h82z" />
    <glyph glyph-name="Ntilde" unicode="&#xd1;" horiz-adv-x="683" 
d="M140 71h79l-13 -71h-242l12 71h78l102 578h-79l13 71h163l203 -550l87 479h-79l13 71h243l-13 -71h-78l-117 -663h-72l-212 575zM558 918c-20 -64 -45 -93 -91 -93c-12 0 -26 2 -40 6l-32 10c-15 5 -26 6 -33 6c-21 0 -33 -11 -41 -37h-42c19 65 46 95 92 95
c12 0 25 -2 38 -6l33 -11c13 -4 23 -6 33 -6c22 0 35 11 41 36h42z" />
    <glyph glyph-name="Oacute" unicode="&#xd3;" horiz-adv-x="809" 
d="M127 333c0 -157 104 -266 252 -266c67 0 128 21 182 64c76 60 120 153 120 257c0 158 -105 265 -254 265c-66 0 -127 -21 -181 -64c-76 -60 -119 -152 -119 -256zM381 -14c-92 0 -170 27 -233 78c-75 61 -117 154 -117 261c0 114 36 211 104 284c75 80 178 125 294 125
c208 0 349 -140 349 -338c0 -113 -37 -212 -105 -285c-74 -80 -179 -125 -292 -125zM426 788h-52l116 170h87z" />
    <glyph glyph-name="Ocircumflex" unicode="&#xd4;" horiz-adv-x="809" 
d="M127 333c0 -157 104 -266 252 -266c67 0 128 21 182 64c76 60 120 153 120 257c0 158 -105 265 -254 265c-66 0 -127 -21 -181 -64c-76 -60 -119 -152 -119 -256zM381 -14c-92 0 -170 27 -233 78c-75 61 -117 154 -117 261c0 114 36 211 104 284c75 80 178 125 294 125
c208 0 349 -140 349 -338c0 -113 -37 -212 -105 -285c-74 -80 -179 -125 -292 -125zM577 788h-47l-68 112l-112 -112h-52l131 170h75z" />
    <glyph glyph-name="Odieresis" unicode="&#xd6;" horiz-adv-x="809" 
d="M127 333c0 -157 104 -266 252 -266c67 0 128 21 182 64c76 60 120 153 120 257c0 158 -105 265 -254 265c-66 0 -127 -21 -181 -64c-76 -60 -119 -152 -119 -256zM381 -14c-92 0 -170 27 -233 78c-75 61 -117 154 -117 261c0 114 36 211 104 284c75 80 178 125 294 125
c208 0 349 -140 349 -338c0 -113 -37 -212 -105 -285c-74 -80 -179 -125 -292 -125zM327 819l19 92h78l-19 -92h-78zM483 819l20 92h78l-20 -92h-78z" />
    <glyph glyph-name="Ograve" unicode="&#xd2;" horiz-adv-x="809" 
d="M127 333c0 -157 104 -266 252 -266c67 0 128 21 182 64c76 60 120 153 120 257c0 158 -105 265 -254 265c-66 0 -127 -21 -181 -64c-76 -60 -119 -152 -119 -256zM381 -14c-92 0 -170 27 -233 78c-75 61 -117 154 -117 261c0 114 36 211 104 284c75 80 178 125 294 125
c208 0 349 -140 349 -338c0 -113 -37 -212 -105 -285c-74 -80 -179 -125 -292 -125zM504 788h-49l-140 170h82z" />
    <glyph glyph-name="Otilde" unicode="&#xd5;" horiz-adv-x="809" 
d="M127 333c0 -157 104 -266 252 -266c67 0 128 21 182 64c76 60 120 153 120 257c0 158 -105 265 -254 265c-66 0 -127 -21 -181 -64c-76 -60 -119 -152 -119 -256zM381 -14c-92 0 -170 27 -233 78c-75 61 -117 154 -117 261c0 114 36 211 104 284c75 80 178 125 294 125
c208 0 349 -140 349 -338c0 -113 -37 -212 -105 -285c-74 -80 -179 -125 -292 -125zM593 918c-20 -64 -45 -93 -91 -93c-12 0 -26 2 -40 6l-32 10c-15 5 -26 6 -33 6c-21 0 -33 -11 -41 -37h-42c19 65 46 95 92 95c12 0 25 -2 38 -6l33 -11c13 -4 23 -6 33 -6
c22 0 35 11 41 36h42z" />
    <glyph glyph-name="Scaron" unicode="&#x160;" horiz-adv-x="602" 
d="M-5 0l43 251h76c20 -116 91 -181 187 -181c89 0 148 51 148 125c0 63 -46 89 -137 125l-81 32c-103 40 -154 103 -154 188c0 108 91 194 228 194c78 0 140 -33 174 -94l11 78h87l-38 -208h-77c-24 98 -77 146 -162 146c-78 0 -130 -47 -130 -106c0 -75 54 -93 156 -134
l81 -33c91 -37 138 -101 138 -183c0 -122 -98 -214 -244 -214c-95 0 -164 37 -205 110l-15 -96h-86zM258 958h46l68 -111l113 111h52l-132 -170h-75z" />
    <glyph glyph-name="Uacute" unicode="&#xda;" horiz-adv-x="727" 
d="M342 720l-13 -71h-79l-65 -365c-5 -27 -7 -50 -7 -70c0 -89 57 -145 147 -145c105 0 164 63 187 194l68 386h-78l12 71h251l-12 -71h-78l-70 -391c-32 -179 -130 -271 -286 -271c-142 0 -234 86 -234 216c0 42 7 80 13 116l58 330h-78l12 71h252zM413 788h-52l116 170h87
z" />
    <glyph glyph-name="Ucircumflex" unicode="&#xdb;" horiz-adv-x="727" 
d="M342 720l-13 -71h-79l-65 -365c-5 -27 -7 -50 -7 -70c0 -89 57 -145 147 -145c105 0 164 63 187 194l68 386h-78l12 71h251l-12 -71h-78l-70 -391c-32 -179 -130 -271 -286 -271c-142 0 -234 86 -234 216c0 42 7 80 13 116l58 330h-78l12 71h252zM564 788h-47l-68 112
l-112 -112h-52l131 170h75z" />
    <glyph glyph-name="Udieresis" unicode="&#xdc;" horiz-adv-x="727" 
d="M342 720l-13 -71h-79l-65 -365c-5 -27 -7 -50 -7 -70c0 -89 57 -145 147 -145c105 0 164 63 187 194l68 386h-78l12 71h251l-12 -71h-78l-70 -391c-32 -179 -130 -271 -286 -271c-142 0 -234 86 -234 216c0 42 7 80 13 116l58 330h-78l12 71h252zM314 819l19 92h78
l-19 -92h-78zM470 819l20 92h78l-20 -92h-78z" />
    <glyph glyph-name="Ugrave" unicode="&#xd9;" horiz-adv-x="727" 
d="M342 720l-13 -71h-79l-65 -365c-5 -27 -7 -50 -7 -70c0 -89 57 -145 147 -145c105 0 164 63 187 194l68 386h-78l12 71h251l-12 -71h-78l-70 -391c-32 -179 -130 -271 -286 -271c-142 0 -234 86 -234 216c0 42 7 80 13 116l58 330h-78l12 71h252zM491 788h-49l-140 170
h82z" />
    <glyph glyph-name="Ydieresis" unicode="&#x178;" horiz-adv-x="611" 
d="M517 649h-79l12 71h240l-12 -71h-65l-256 -318l-46 -260h82l-13 -71h-251l13 71h76l48 273l-158 305h-74l12 71h245l-12 -71h-72l118 -239zM262 819l19 92h78l-19 -92h-78zM418 819l20 92h78l-20 -92h-78z" />
    <glyph glyph-name="Zcaron" unicode="&#x17d;" horiz-adv-x="537" 
d="M426 655h-257l-23 -128h-84l34 193h454l-9 -56l-434 -599h269l29 150h83l-39 -215h-464l11 62zM226 958h46l68 -111l113 111h52l-132 -170h-75z" />
    <glyph glyph-name="aacute" unicode="&#xe1;" horiz-adv-x="604" 
d="M456 68h71l-12 -68h-156l9 47c-48 -39 -102 -59 -159 -59c-120 0 -206 89 -206 218c0 70 27 137 75 187s110 76 176 76c73 0 132 -31 173 -90l14 80h156l-12 -68h-72zM92 205c0 -84 58 -143 141 -143c98 0 176 83 176 190c0 84 -61 146 -144 146
c-98 0 -173 -83 -173 -193zM302 524h-52l116 170h87z" />
    <glyph glyph-name="acircumflex" unicode="&#xe2;" horiz-adv-x="604" 
d="M456 68h71l-12 -68h-156l9 47c-48 -39 -102 -59 -159 -59c-120 0 -206 89 -206 218c0 70 27 137 75 187s110 76 176 76c73 0 132 -31 173 -90l14 80h156l-12 -68h-72zM92 205c0 -84 58 -143 141 -143c98 0 176 83 176 190c0 84 -61 146 -144 146
c-98 0 -173 -83 -173 -193zM453 524h-47l-68 112l-112 -112h-52l131 170h75z" />
    <glyph glyph-name="adieresis" unicode="&#xe4;" horiz-adv-x="604" 
d="M456 68h71l-12 -68h-156l9 47c-48 -39 -102 -59 -159 -59c-120 0 -206 89 -206 218c0 70 27 137 75 187s110 76 176 76c73 0 132 -31 173 -90l14 80h156l-12 -68h-72zM92 205c0 -84 58 -143 141 -143c98 0 176 83 176 190c0 84 -61 146 -144 146
c-98 0 -173 -83 -173 -193zM203 555l19 92h78l-19 -92h-78zM359 555l20 92h78l-20 -92h-78z" />
    <glyph glyph-name="agrave" unicode="&#xe0;" horiz-adv-x="604" 
d="M456 68h71l-12 -68h-156l9 47c-48 -39 -102 -59 -159 -59c-120 0 -206 89 -206 218c0 70 27 137 75 187s110 76 176 76c73 0 132 -31 173 -90l14 80h156l-12 -68h-72zM92 205c0 -84 58 -143 141 -143c98 0 176 83 176 190c0 84 -61 146 -144 146
c-98 0 -173 -83 -173 -193zM380 524h-49l-140 170h82z" />
    <glyph glyph-name="aring" unicode="&#xe5;" horiz-adv-x="604" 
d="M92 205c0 -84 58 -143 141 -143c98 0 176 83 176 190c0 84 -61 146 -144 146c-98 0 -173 -83 -173 -193zM456 68h71l-12 -68h-156l9 47c-48 -39 -102 -59 -159 -59c-120 0 -206 89 -206 218c0 70 27 137 75 187s110 76 176 76c73 0 132 -30 173 -90l14 80h156l-12 -68
h-72zM208 603c0 61 47 108 108 108c60 0 107 -48 107 -108s-47 -107 -107 -107c-61 0 -108 47 -108 107zM259 603c0 -32 25 -56 56 -56c32 0 57 24 57 56c0 31 -26 56 -57 56s-56 -25 -56 -56z" />
    <glyph glyph-name="atilde" unicode="&#xe3;" horiz-adv-x="604" 
d="M456 68h71l-12 -68h-156l9 47c-48 -39 -102 -59 -159 -59c-120 0 -206 89 -206 218c0 70 27 137 75 187s110 76 176 76c73 0 132 -31 173 -90l14 80h156l-12 -68h-72zM92 205c0 -84 58 -143 141 -143c98 0 176 83 176 190c0 84 -61 146 -144 146
c-98 0 -173 -83 -173 -193zM469 654c-20 -64 -45 -93 -91 -93c-12 0 -26 2 -40 6l-32 10c-15 5 -26 6 -33 6c-21 0 -33 -11 -41 -37h-42c19 65 46 95 92 95c12 0 25 -2 38 -6l33 -11c13 -4 23 -6 33 -6c22 0 35 11 41 36h42z" />
    <glyph glyph-name="ccedilla" unicode="&#xe7;" horiz-adv-x="498" 
d="M379 119l39 -47c-56 -55 -121 -84 -194 -84c-135 0 -221 91 -221 226c0 57 17 109 49 154c48 66 116 102 190 102c67 0 119 -26 147 -73l8 61h66l-29 -167h-56c-6 67 -59 112 -128 112c-91 0 -162 -83 -162 -190c0 -91 60 -156 143 -156c50 0 98 21 148 62zM104 -204
l15 42c47 -14 84 -20 110 -20c40 0 61 18 61 51c0 31 -25 40 -80 40h-18l30 91h36l-18 -52h9c72 0 106 -24 106 -82c0 -55 -44 -95 -117 -95c-36 0 -81 9 -134 25z" />
    <glyph glyph-name="eacute" unicode="&#xe9;" horiz-adv-x="536" 
d="M449 91c-48 -70 -117 -103 -213 -103c-140 0 -233 97 -233 221c0 149 111 261 271 261c126 0 214 -84 214 -211c0 -14 -1 -30 -3 -49h-394v-8c0 -88 60 -144 152 -144c63 0 113 23 151 71zM97 274h312c-3 80 -57 129 -141 129c-80 0 -145 -47 -171 -129zM260 524h-52
l116 170h87z" />
    <glyph glyph-name="ecircumflex" unicode="&#xea;" horiz-adv-x="536" 
d="M449 91c-48 -70 -117 -103 -213 -103c-140 0 -233 97 -233 221c0 149 111 261 271 261c126 0 214 -84 214 -211c0 -14 -1 -30 -3 -49h-394v-8c0 -88 60 -144 152 -144c63 0 113 23 151 71zM97 274h312c-3 80 -57 129 -141 129c-80 0 -145 -47 -171 -129zM411 524h-47
l-68 112l-112 -112h-52l131 170h75z" />
    <glyph glyph-name="edieresis" unicode="&#xeb;" horiz-adv-x="536" 
d="M449 91c-48 -70 -117 -103 -213 -103c-140 0 -233 97 -233 221c0 149 111 261 271 261c126 0 214 -84 214 -211c0 -14 -1 -30 -3 -49h-394v-8c0 -88 60 -144 152 -144c63 0 113 23 151 71zM97 274h312c-3 80 -57 129 -141 129c-80 0 -145 -47 -171 -129zM161 555l19 92
h78l-19 -92h-78zM317 555l20 92h78l-20 -92h-78z" />
    <glyph glyph-name="egrave" unicode="&#xe8;" horiz-adv-x="536" 
d="M449 91c-48 -70 -117 -103 -213 -103c-140 0 -233 97 -233 221c0 149 111 261 271 261c126 0 214 -84 214 -211c0 -14 -1 -30 -3 -49h-394v-8c0 -88 60 -144 152 -144c63 0 113 23 151 71zM97 274h312c-3 80 -57 129 -141 129c-80 0 -145 -47 -171 -129zM338 524h-49
l-140 170h82z" />
    <glyph glyph-name="iacute" unicode="&#xed;" horiz-adv-x="278" 
d="M134 68h74l-12 -68h-229l12 68h70l57 322h-70l12 68h155zM122 524h-52l116 170h87z" />
    <glyph glyph-name="icircumflex" unicode="&#xee;" horiz-adv-x="278" 
d="M134 68h74l-12 -68h-229l12 68h70l57 322h-70l12 68h155zM273 524h-47l-68 112l-112 -112h-52l131 170h75z" />
    <glyph glyph-name="idieresis" unicode="&#xef;" horiz-adv-x="278" 
d="M134 68h74l-12 -68h-229l12 68h70l57 322h-70l12 68h155zM23 555l19 92h78l-19 -92h-78zM179 555l20 92h78l-20 -92h-78z" />
    <glyph glyph-name="igrave" unicode="&#xec;" horiz-adv-x="278" 
d="M134 68h74l-12 -68h-229l12 68h70l57 322h-70l12 68h155zM200 524h-49l-140 170h82z" />
    <glyph glyph-name="ntilde" unicode="&#xf1;" horiz-adv-x="588" 
d="M403 297c4 20 6 36 6 46c0 36 -24 57 -66 57c-47 0 -99 -21 -161 -63l-48 -269h71l-12 -68h-226l12 68h70l57 322h-70l12 68h155l-9 -51c60 42 118 63 175 63c81 0 126 -42 126 -113c0 -14 -2 -34 -7 -59l-41 -230h71l-12 -68h-227l12 68h71zM461 654
c-20 -64 -45 -93 -91 -93c-12 0 -26 2 -40 6l-32 10c-15 5 -26 6 -33 6c-21 0 -33 -11 -41 -37h-42c19 65 46 95 92 95c12 0 25 -2 38 -6l33 -11c13 -4 23 -6 33 -6c22 0 35 11 41 36h42z" />
    <glyph glyph-name="oacute" unicode="&#xf3;" horiz-adv-x="557" 
d="M240 -11c-142 0 -237 92 -237 217c0 152 114 264 266 264c142 0 237 -91 237 -218c0 -153 -114 -263 -266 -263zM241 57c95 0 178 85 178 191c0 91 -61 154 -151 154c-98 0 -177 -85 -177 -192c0 -90 60 -153 150 -153zM279 524h-52l116 170h87z" />
    <glyph glyph-name="ocircumflex" unicode="&#xf4;" horiz-adv-x="557" 
d="M240 -11c-142 0 -237 92 -237 217c0 152 114 264 266 264c142 0 237 -91 237 -218c0 -153 -114 -263 -266 -263zM241 57c95 0 178 85 178 191c0 91 -61 154 -151 154c-98 0 -177 -85 -177 -192c0 -90 60 -153 150 -153zM430 524h-47l-68 112l-112 -112h-52l131 170h75z
" />
    <glyph glyph-name="odieresis" unicode="&#xf6;" horiz-adv-x="557" 
d="M240 -11c-142 0 -237 92 -237 217c0 152 114 264 266 264c142 0 237 -91 237 -218c0 -153 -114 -263 -266 -263zM241 57c95 0 178 85 178 191c0 91 -61 154 -151 154c-98 0 -177 -85 -177 -192c0 -90 60 -153 150 -153zM180 555l19 92h78l-19 -92h-78zM336 555l20 92h78
l-20 -92h-78z" />
    <glyph glyph-name="ograve" unicode="&#xf2;" horiz-adv-x="557" 
d="M240 -11c-142 0 -237 92 -237 217c0 152 114 264 266 264c142 0 237 -91 237 -218c0 -153 -114 -263 -266 -263zM241 57c95 0 178 85 178 191c0 91 -61 154 -151 154c-98 0 -177 -85 -177 -192c0 -90 60 -153 150 -153zM357 524h-49l-140 170h82z" />
    <glyph glyph-name="otilde" unicode="&#xf5;" horiz-adv-x="557" 
d="M240 -11c-142 0 -237 92 -237 217c0 152 114 264 266 264c142 0 237 -91 237 -218c0 -153 -114 -263 -266 -263zM241 57c95 0 178 85 178 191c0 91 -61 154 -151 154c-98 0 -177 -85 -177 -192c0 -90 60 -153 150 -153zM446 654c-20 -64 -45 -93 -91 -93
c-12 0 -26 2 -40 6l-32 10c-15 5 -26 6 -33 6c-21 0 -33 -11 -41 -37h-42c19 65 46 95 92 95c12 0 25 -2 38 -6l33 -11c13 -4 23 -6 33 -6c22 0 35 11 41 36h42z" />
    <glyph glyph-name="scaron" unicode="&#x161;" horiz-adv-x="446" 
d="M-18 0l27 156h63c23 -66 70 -100 138 -100c51 0 82 27 82 64c0 34 -25 53 -78 72l-57 21c-77 28 -114 72 -114 134c0 69 59 123 147 123c64 0 112 -26 139 -73l8 61h66l-25 -140h-61c-18 54 -63 86 -117 86c-47 0 -75 -23 -75 -54c0 -42 34 -54 97 -78l59 -23
c58 -22 92 -68 92 -124c0 -80 -64 -136 -164 -136c-72 0 -122 26 -152 80l-10 -69h-65zM125 694h46l68 -111l113 111h52l-132 -170h-75z" />
    <glyph glyph-name="uacute" unicode="&#xfa;" horiz-adv-x="583" 
d="M136 161c-3 -18 -6 -34 -6 -46c0 -36 24 -57 66 -57c40 0 80 12 114 36c50 34 54 65 63 114l32 182h-70l12 68h155l-69 -390h71l-12 -68h-155l8 52c-60 -42 -117 -64 -174 -64c-81 0 -127 42 -127 113c0 14 2 35 7 60l41 229h-70l12 68h154zM270 524h-52l116 170h87z" />
    <glyph glyph-name="ucircumflex" unicode="&#xfb;" horiz-adv-x="583" 
d="M136 161c-3 -18 -6 -34 -6 -46c0 -36 24 -57 66 -57c40 0 80 12 114 36c50 34 54 65 63 114l32 182h-70l12 68h155l-69 -390h71l-12 -68h-155l8 52c-60 -42 -117 -64 -174 -64c-81 0 -127 42 -127 113c0 14 2 35 7 60l41 229h-70l12 68h154zM421 524h-47l-68 112
l-112 -112h-52l131 170h75z" />
    <glyph glyph-name="udieresis" unicode="&#xfc;" horiz-adv-x="583" 
d="M136 161c-3 -18 -6 -34 -6 -46c0 -36 24 -57 66 -57c40 0 80 12 114 36c50 34 54 65 63 114l32 182h-70l12 68h155l-69 -390h71l-12 -68h-155l8 52c-60 -42 -117 -64 -174 -64c-81 0 -127 42 -127 113c0 14 2 35 7 60l41 229h-70l12 68h154zM171 555l19 92h78l-19 -92
h-78zM327 555l20 92h78l-20 -92h-78z" />
    <glyph glyph-name="ugrave" unicode="&#xf9;" horiz-adv-x="583" 
d="M136 161c-3 -18 -6 -34 -6 -46c0 -36 24 -57 66 -57c40 0 80 12 114 36c50 34 54 65 63 114l32 182h-70l12 68h155l-69 -390h71l-12 -68h-155l8 52c-60 -42 -117 -64 -174 -64c-81 0 -127 42 -127 113c0 14 2 35 7 60l41 229h-70l12 68h154zM348 524h-49l-140 170h82z
" />
    <glyph glyph-name="ydieresis" unicode="&#xff;" horiz-adv-x="534" 
d="M-32 -209l11 69h73l99 153l-90 377h-74l12 68h224l-12 -68h-71l68 -290l185 290h-78l12 68h219l-12 -68h-61l-340 -530h76l-11 -69h-230zM168 555l19 92h78l-19 -92h-78zM324 555l20 92h78l-20 -92h-78z" />
    <glyph glyph-name="zcaron" unicode="&#x17e;" horiz-adv-x="477" 
d="M4 0l6 68l304 322h-194l-16 -84h-75l27 152h358l-5 -68l-304 -322h207l19 96h74l-29 -164h-372zM141 694h46l68 -111l113 111h52l-132 -170h-75z" />
    <glyph glyph-name="trademark" unicode="&#x2122;" horiz-adv-x="833" 
d="M339 711v-33h-84v-228h-46v228h-85v33h215zM463 711l78 -198l73 198h64v-261h-40v224l-84 -224h-26l-88 224v-224h-40v261h63z" />
    <glyph glyph-name="copyright" unicode="&#xa9;" horiz-adv-x="833" 
d="M416 713c97 0 187 -36 256 -105c67 -67 103 -157 103 -254c0 -98 -36 -186 -103 -252c-71 -69 -162 -107 -256 -107c-95 0 -183 37 -252 106s-106 158 -106 253s38 185 107 255c66 67 154 104 251 104zM733 354c0 85 -33 165 -92 224c-60 60 -139 92 -225 92
s-163 -32 -221 -91c-61 -62 -94 -142 -94 -225s33 -161 93 -222c60 -60 138 -93 222 -93c83 0 164 33 226 94c59 58 91 135 91 221zM520 445c-10 51 -49 80 -102 80c-75 0 -121 -61 -121 -172c0 -107 48 -168 121 -168c56 0 97 33 107 89h63c-7 -83 -77 -140 -173 -140
c-113 0 -188 83 -188 218c0 138 78 223 193 223c90 0 156 -54 163 -130h-63z" />
    <glyph glyph-name="logicalnot" unicode="&#xac;" horiz-adv-x="833" 
d="M709 419v-245h-56v188h-529v57h585z" />
    <glyph glyph-name="registered" unicode="&#xae;" horiz-adv-x="833" 
d="M416 713c98 0 187 -37 256 -106c67 -67 103 -157 103 -253c0 -98 -36 -186 -104 -252c-71 -69 -161 -107 -255 -107c-95 0 -184 38 -253 107c-68 68 -105 157 -105 252s38 186 108 256c66 67 153 103 250 103zM733 352c0 86 -32 166 -91 225c-61 61 -139 93 -226 93
c-85 0 -162 -31 -220 -90c-62 -62 -95 -142 -95 -226c0 -83 33 -161 93 -222s139 -93 221 -93c85 0 164 32 226 93c59 58 92 135 92 220zM426 565c114 0 171 -36 171 -113c0 -57 -36 -99 -96 -109l92 -188h-77l-86 178h-87v-178h-69v410h152zM413 520h-70v-142h72
c76 0 111 17 111 69c0 53 -36 73 -113 73z" />
    <glyph glyph-name="minus" unicode="&#x2212;" horiz-adv-x="833" 
d="M709 327v-58h-585v58h585z" />
    <glyph glyph-name="Eth" unicode="&#xd0;" horiz-adv-x="741" 
d="M-32 0l13 71h78l47 267h-107l12 70h107l42 241h-78l12 71h251c247 0 365 -95 365 -311c0 -120 -41 -229 -111 -305c-79 -86 -183 -104 -335 -104h-296zM347 649h-92l-43 -241h176l-12 -70h-176l-47 -267h88c102 0 180 5 242 49c80 57 132 166 132 295
c0 160 -87 234 -268 234z" />
    <glyph glyph-name="Thorn" unicode="&#xde;" horiz-adv-x="575" 
d="M287 513h-62l-52 -295h67c133 0 205 64 205 165c0 86 -53 130 -158 130zM341 720l-12 -71h-80l-12 -68h35c179 0 271 -72 271 -204c0 -141 -101 -228 -290 -228h-92l-14 -78h92l-13 -71h-262l12 71h78l102 578h-79l13 71h251z" />
    <glyph glyph-name="Yacute" unicode="&#xdd;" horiz-adv-x="611" 
d="M517 649h-79l12 71h240l-12 -71h-65l-256 -318l-46 -260h82l-13 -71h-251l13 71h76l48 273l-158 305h-74l12 71h245l-12 -71h-72l118 -239zM361 788h-52l116 170h87z" />
    <glyph glyph-name="brokenbar" unicode="&#xa6;" 
d="M281 699v-370h-62v370h62zM281 199v-370h-62v370h62z" />
    <glyph glyph-name="degree" unicode="&#xb0;" horiz-adv-x="329" 
d="M165 710c76 0 138 -62 138 -138c0 -75 -61 -138 -139 -138c-77 0 -137 61 -137 138c0 78 62 138 138 138zM263 572c0 54 -43 98 -98 98c-54 0 -99 -43 -99 -98c0 -56 45 -99 99 -99c56 0 98 45 98 99z" />
    <glyph glyph-name="divide" unicode="&#xf7;" horiz-adv-x="833" 
d="M417 530c31 0 56 -25 56 -56c0 -30 -24 -56 -56 -56s-56 25 -56 56s26 56 56 56zM709 327v-57h-585v57h585zM417 178c30 0 56 -25 56 -56c0 -30 -24 -56 -56 -56c-31 0 -56 25 -56 56c0 32 26 56 56 56z" />
    <glyph glyph-name="eth" unicode="&#xf0;" horiz-adv-x="557" 
d="M91 207c0 -88 60 -150 150 -150c97 0 178 84 178 187c0 89 -61 151 -151 151c-97 0 -177 -84 -177 -188zM362 578l83 -151c38 -69 60 -126 60 -180c0 -150 -112 -258 -265 -258c-143 0 -237 92 -237 214c0 149 112 258 263 258c27 0 53 -5 78 -14l-61 116l-133 -26
l-10 51l116 23l-59 109h89l52 -93l105 20l10 -50z" />
    <glyph glyph-name="mu" unicode="&#x3bc;" horiz-adv-x="551" 
d="M177 522l-62 -291c-5 -22 -7 -44 -7 -67c0 -70 38 -111 106 -111c82 0 135 66 164 200l59 269h76l-79 -368c-7 -31 -11 -53 -11 -66c0 -21 12 -32 35 -32c2 0 8 0 17 1l-13 -61c-17 -4 -33 -5 -45 -5c-46 0 -67 22 -71 72c-26 -45 -78 -72 -141 -72c-56 0 -99 22 -128 67
l-55 -266h-76l154 730h77z" />
    <glyph glyph-name="multiply" unicode="&#xd7;" horiz-adv-x="833" 
d="M419 338l232 233l40 -40l-232 -233l232 -232l-40 -40l-232 232l-233 -232l-39 40l232 232l-232 233l39 40z" />
    <glyph glyph-name="onehalf" unicode="&#xbd;" horiz-adv-x="821" 
d="M232 701l-69 -355h54l-7 -38h-161l7 38h53l62 316h-58l8 39h111zM160 -14l440 729h60l-440 -729h-60zM760 0h-268l10 34l206 194c23 21 34 45 34 70c0 35 -28 59 -70 59c-53 0 -82 -32 -84 -95h-51c0 87 53 138 138 138c72 0 122 -43 122 -104c0 -40 -18 -66 -53 -99
l-172 -158h146l14 61h51z" />
    <glyph glyph-name="onequarter" unicode="&#xbc;" horiz-adv-x="821" 
d="M232 701l-69 -355h54l-7 -38h-161l7 38h53l62 316h-58l8 39h111zM160 -14l440 729h60l-440 -729h-60zM758 0h-155l8 38h51l13 65h-169l6 38l223 252h48l-50 -252h53l-7 -38h-53l-13 -65h53zM682 141l38 177l-159 -177h121z" />
    <glyph glyph-name="onesuperior" unicode="&#xb9;" horiz-adv-x="342" 
d="M243 701l-72 -380h56l-7 -41h-169l7 41h56l65 339h-60l7 41h117z" />
    <glyph glyph-name="plusminus" unicode="&#xb1;" horiz-adv-x="833" 
d="M446 576v-168h263v-57h-263v-168h-58v168h-264v57h264v168h58zM709 77v-57h-585v57h585z" />
    <glyph glyph-name="thorn" unicode="&#xfe;" horiz-adv-x="600" 
d="M464 253c0 84 -59 143 -141 143c-99 0 -177 -83 -177 -190c0 -85 61 -146 149 -146c96 0 169 84 169 193zM146 652h-70l12 68h155l-56 -309c48 39 102 58 160 58c120 0 205 -87 205 -216c0 -149 -107 -264 -245 -264c-76 0 -138 31 -178 90l-38 -219h75l-12 -68h-231
l12 68h71z" />
    <glyph glyph-name="threequarters" unicode="&#xbe;" horiz-adv-x="821" 
d="M15 436h51c0 -7 -1 -13 -1 -19c0 -49 28 -75 75 -75c51 0 87 33 87 78c0 46 -33 74 -92 75l7 34c7 0 14 -1 21 -1c60 0 95 30 95 76c0 38 -30 63 -71 63c-48 0 -75 -26 -81 -78h-51c5 74 57 119 131 119c75 0 126 -43 126 -104c0 -47 -27 -83 -77 -101
c31 -22 47 -49 47 -83c0 -69 -59 -120 -143 -120c-74 0 -126 44 -126 109c0 9 0 17 2 27zM160 -14l440 729h60l-440 -729h-60zM758 0h-155l8 38h51l13 65h-169l6 38l223 252h48l-50 -252h53l-7 -38h-53l-13 -65h53zM682 141l38 177l-159 -177h121z" />
    <glyph glyph-name="threesuperior" unicode="&#xb3;" horiz-adv-x="343" 
d="M16 417h53c0 -7 -1 -14 -1 -20c0 -53 29 -81 79 -81c53 0 91 35 91 84s-35 79 -96 80l7 37c7 -1 15 -1 22 -1c63 0 99 32 99 81c0 41 -31 68 -74 68c-51 0 -79 -28 -85 -84h-53c5 79 59 128 137 128c79 0 132 -46 132 -112c0 -50 -29 -88 -81 -108c33 -24 50 -52 50 -89
c0 -74 -62 -128 -150 -128c-78 0 -133 46 -133 116c0 10 1 19 3 29z" />
    <glyph glyph-name="twosuperior" unicode="&#xb2;" horiz-adv-x="343" 
d="M279 280h-281l10 37l216 207c24 23 36 49 36 76c0 36 -30 63 -73 63c-56 0 -86 -34 -89 -103h-52c0 94 55 148 143 148c76 0 128 -46 128 -111c0 -42 -18 -71 -55 -106l-180 -169h152l15 65h53z" />
    <glyph glyph-name="yacute" unicode="&#xfd;" horiz-adv-x="534" 
d="M-32 -209l11 69h73l99 153l-90 377h-74l12 68h224l-12 -68h-71l68 -290l185 290h-78l12 68h219l-12 -68h-61l-340 -530h76l-11 -69h-230zM267 524h-52l116 170h87z" />
    </font>
</defs>
</svg>
