<?xml version="1.0" standalone="no"?>
<!DOCTYPE svg PUBLIC "-//W3C//DTD SVG 1.1//EN" "http://www.w3.org/Graphics/SVG/1.1/DTD/svg11.dtd" >
<svg xmlns="http://www.w3.org/2000/svg" width="100%" height="100%">
<metadata>
Created by FontXChange 20110222 at Mon Feb 17 13:36:30 2014
 By Zeeshan Jan
Copyright 1990 as an unpublished work by Bitstream Inc.  All rights reserved.  Confidential.
</metadata>
<defs>
<font id="GeometricSlab703BT-BoldCond" horiz-adv-x="500" >
  <font-face 
    font-family="Geometric Slabserif 703"
    font-weight="700"
    font-stretch="normal"
    units-per-em="1000"
    panose-1="2 0 8 3 0 0 0 0 0 0"
    ascent="800"
    descent="-200"
    x-height="437"
    cap-height="681"
    bbox="-167 -236 1000 965"
    underline-thickness="63"
    underline-position="-92"
    stemh="83"
    stemv="99"
    unicode-range="U+0020-FB02"
  />
    <missing-glyph />
    <glyph glyph-name="space" unicode=" " horiz-adv-x="194" 
 />
    <glyph glyph-name="exclam" unicode="!" horiz-adv-x="284" 
d="M82 46c0 32 27 60 60 60s60 -26 60 -60s-28 -60 -60 -60s-60 28 -60 60zM182 201h-80c-3 180 -10 340 -19 480h118c-9 -139 -16 -299 -19 -480z" />
    <glyph glyph-name="quotedbl" unicode="&#x22;" horiz-adv-x="314" 
d="M42 701h80v-272h-80v272zM193 701h80v-272h-80v272z" />
    <glyph glyph-name="numbersign" unicode="#" horiz-adv-x="769" 
d="M359 713h93l-75 -213h122l76 213h93l-75 -213h142l-29 -84h-143l-44 -123h151l-30 -84h-150l-76 -212h-93l76 212h-123l-77 -212h-93l76 212h-146l30 84h145l44 123h-154l30 84h154zM346 416l-44 -124h125l44 124h-125z" />
    <glyph glyph-name="dollar" unicode="$" horiz-adv-x="389" 
d="M338 663v-181h-69c-1 58 -21 92 -60 103v-192c107 -65 156 -129 156 -224c0 -105 -64 -171 -147 -171h-9v-97h-37v99c-32 6 -61 25 -76 50v-47h-71v196h75c2 -71 27 -110 72 -117v215c-96 57 -143 123 -143 210c0 96 56 158 143 159v66h37v-69c30 -9 52 -23 65 -42v42h64
zM172 417v171c-34 0 -59 -30 -59 -72s20 -75 59 -99zM209 270v-191c39 3 66 35 66 80c0 48 -21 84 -66 111z" />
    <glyph glyph-name="percent" unicode="%" horiz-adv-x="568" 
d="M33 422v143c0 67 33 102 94 102c62 0 94 -35 94 -102v-143c0 -67 -32 -102 -94 -102c-61 0 -94 35 -94 102zM100 425c0 -31 9 -45 27 -45s26 14 26 45v137c0 30 -8 45 -26 45s-27 -15 -27 -45v-137zM347 102v143c0 67 33 102 94 102s94 -35 94 -102v-143
c0 -67 -32 -102 -94 -102c-61 0 -94 35 -94 102zM414 106c0 -31 9 -46 27 -46s26 16 26 46v136c0 30 -8 45 -26 45c-19 0 -27 -14 -27 -45v-136zM97 -14l321 695h52l-321 -695h-52z" />
    <glyph glyph-name="ampersand" unicode="&#x26;" horiz-adv-x="594" 
d="M219 449c44 37 67 72 67 108c0 32 -22 54 -55 54c-34 0 -58 -23 -58 -62c0 -31 16 -62 46 -100zM274 385l135 -174c18 38 29 75 33 110h-48v84h178v-84h-42c-9 -65 -27 -125 -61 -182l38 -48h65v-91h-125l-48 59c-46 -49 -100 -73 -166 -73c-120 0 -202 82 -202 201
c0 76 38 143 114 204c-41 54 -62 103 -62 153c0 90 61 150 148 150c92 0 148 -53 148 -136c0 -65 -35 -121 -105 -173zM196 320c-40 -34 -61 -73 -61 -117c0 -65 53 -119 117 -119c35 0 66 15 94 44z" />
    <glyph glyph-name="quoteright" unicode="&#x2019;" horiz-adv-x="194" 
d="M83 681h85l-63 -209h-85z" />
    <glyph glyph-name="parenleft" unicode="(" horiz-adv-x="262" 
d="M171 -95c-83 129 -124 262 -124 395s41 265 124 394h79c-69 -134 -103 -265 -103 -394s34 -261 103 -395h-79z" />
    <glyph glyph-name="parenright" unicode=")" horiz-adv-x="262" 
d="M90 694c83 -129 125 -261 125 -394s-42 -266 -125 -395h-78c69 135 103 267 103 395s-34 259 -103 394h78z" />
    <glyph glyph-name="asterisk" unicode="*" horiz-adv-x="324" 
d="M107 437l-48 36l60 75l-92 27l18 56l90 -33l-4 96h61l-3 -96l90 33l18 -57l-93 -27l59 -75l-48 -35l-54 79z" />
    <glyph glyph-name="plus" unicode="+" horiz-adv-x="833" 
d="M375 596h83v-257h251v-81h-251v-258h-83v258h-251v81h251v257z" />
    <glyph glyph-name="comma" unicode="," horiz-adv-x="194" 
d="M67 112h85l-63 -208h-85z" />
    <glyph glyph-name="hyphen" unicode="-" horiz-adv-x="303" 
d="M28 188v83h246v-83h-246z" />
    <glyph glyph-name="period" unicode="." horiz-adv-x="194" 
d="M37 52c0 32 27 60 60 60s60 -27 60 -60s-28 -60 -60 -60s-60 28 -60 60z" />
    <glyph glyph-name="slash" unicode="/" horiz-adv-x="291" 
d="M-24 -93l282 787h58l-282 -787h-58z" />
    <glyph glyph-name="zero" unicode="0" horiz-adv-x="389" 
d="M248 520c0 46 -21 74 -54 74s-53 -28 -53 -74v-374c0 -47 20 -73 53 -73s54 27 54 73v374zM355 476v-286c0 -134 -57 -204 -161 -204s-160 70 -160 204v286c0 134 56 205 160 205s161 -71 161 -205z" />
    <glyph glyph-name="one" unicode="1" horiz-adv-x="389" 
d="M94 0v80h51v508h-51v79h156v-587h52v-80h-208z" />
    <glyph glyph-name="two" unicode="2" horiz-adv-x="389" 
d="M31 454v41c0 123 55 186 162 186c94 0 152 -62 152 -163c0 -61 -26 -126 -73 -204l-138 -230h130v94h85v-178h-321v85l139 228c47 78 73 139 73 195c0 54 -17 80 -55 80c-44 0 -61 -32 -61 -100v-34h-93z" />
    <glyph glyph-name="three" unicode="3" horiz-adv-x="389" 
d="M249 316c62 7 100 67 100 171c0 129 -54 194 -162 194c-104 0 -156 -61 -156 -183v-31h91v25c0 69 21 103 64 103c53 0 62 -36 62 -112c0 -89 -11 -122 -89 -122h-7v-80h4c76 0 91 -30 91 -112c0 -68 -15 -99 -58 -99c-42 0 -61 32 -61 101v20h-90v-26
c0 -119 50 -179 151 -179c100 0 154 62 154 178c0 98 -31 149 -94 152z" />
    <glyph glyph-name="four" unicode="4" horiz-adv-x="389" 
d="M92 262h113l2 249zM203 667h98v-405h48v-78h-48v-105h48v-79h-199v79h53v105h-183v85z" />
    <glyph glyph-name="five" unicode="5" horiz-adv-x="389" 
d="M62 310v357h253v-91h-162v-169c18 13 39 18 64 18c91 0 135 -74 135 -223c0 -148 -45 -216 -161 -216c-100 0 -158 58 -158 156v42h94v-27c0 -55 21 -84 60 -84c47 0 61 29 61 93v77c0 67 -13 100 -57 100c-21 0 -38 -11 -51 -33h-78z" />
    <glyph glyph-name="six" unicode="6" horiz-adv-x="389" 
d="M346 522v-27h-92v28c0 49 -19 74 -56 74c-45 0 -64 -32 -64 -99v-136c19 29 48 43 91 43c85 0 132 -70 132 -208s-57 -211 -159 -211c-112 0 -163 71 -163 216v266c0 143 50 213 157 213c97 0 154 -58 154 -159zM253 238c0 55 -20 84 -59 84c-43 0 -60 -33 -60 -100v-61
c0 -60 22 -91 60 -91c40 0 59 28 59 85v83z" />
    <glyph glyph-name="seven" unicode="7" horiz-adv-x="389" 
d="M35 473v194h319v-100l-172 -567h-103l174 576h-131v-103h-87z" />
    <glyph glyph-name="eight" unicode="8" horiz-adv-x="389" 
d="M253 349c62 -5 99 -63 99 -166c0 -133 -49 -197 -158 -197c-106 0 -158 62 -158 188c0 110 35 169 100 175c-66 8 -95 56 -95 148c0 124 48 184 153 184s154 -60 154 -184c0 -92 -29 -140 -95 -148zM250 471v50c0 52 -19 78 -56 78s-55 -26 -55 -78v-50
c0 -53 17 -80 55 -80c37 0 56 27 56 80zM254 162v55c0 60 -20 90 -60 90c-39 0 -59 -30 -59 -90v-55c0 -64 18 -94 59 -94s60 30 60 94z" />
    <glyph glyph-name="nine" unicode="9" horiz-adv-x="389" 
d="M42 172h92v-28c0 -49 19 -74 56 -74c47 0 64 32 64 99v136c-22 -29 -48 -44 -86 -44c-92 0 -137 71 -137 212c0 136 60 208 160 208c107 0 162 -70 162 -207v-275c0 -143 -48 -213 -159 -213c-96 0 -152 56 -152 155v31zM135 429c0 -56 21 -84 59 -84c44 0 60 33 60 100
v61c0 60 -20 91 -59 91c-40 0 -60 -29 -60 -85v-83z" />
    <glyph glyph-name="colon" unicode=":" horiz-adv-x="212" 
d="M106 387c34 0 60 -27 60 -60s-28 -60 -60 -60s-60 28 -60 60s27 60 60 60zM106 112c33 0 60 -27 60 -60s-28 -60 -60 -60s-60 28 -60 60s27 60 60 60z" />
    <glyph glyph-name="semicolon" unicode=";" horiz-adv-x="212" 
d="M111 387c34 0 60 -27 60 -60s-28 -60 -60 -60s-60 28 -60 60s27 60 60 60zM69 112h85l-63 -208h-85z" />
    <glyph glyph-name="less" unicode="&#x3c;" horiz-adv-x="833" 
d="M704 574v-90l-456 -186l456 -186v-89l-575 236v78z" />
    <glyph glyph-name="equal" unicode="=" horiz-adv-x="833" 
d="M124 440h585v-82h-585v82zM124 238h585v-81h-585v81z" />
    <glyph glyph-name="greater" unicode="&#x3e;" horiz-adv-x="833" 
d="M129 574l575 -237v-78l-575 -236v89l456 186l-456 186v90z" />
    <glyph glyph-name="question" unicode="?" horiz-adv-x="396" 
d="M213 336v-130h-88v199h16c83 0 119 32 119 108c0 62 -25 95 -72 95c-40 0 -66 -29 -66 -77h-89v21c0 88 58 143 156 143c105 0 162 -63 162 -182c0 -109 -50 -171 -138 -177zM170 106c33 0 60 -26 60 -61c0 -32 -27 -59 -61 -59c-31 0 -59 28 -59 60s27 60 60 60z" />
    <glyph glyph-name="at" unicode="@" horiz-adv-x="1000" 
d="M602 345c-9 55 -41 86 -90 86c-82 0 -150 -95 -150 -214c0 -65 31 -100 85 -100c57 0 111 46 128 117zM573 138c-36 -57 -82 -82 -148 -82c-99 0 -153 58 -153 164c0 156 106 272 230 272c58 0 96 -22 121 -69l27 52h75l-72 -286c-2 -10 -4 -18 -4 -24
c0 -25 19 -41 47 -41c31 0 70 19 104 56c46 49 72 117 72 192c0 162 -130 278 -330 278c-89 0 -166 -20 -230 -61c-118 -74 -184 -194 -184 -335c0 -203 148 -335 375 -335c109 0 214 33 300 93l33 -48c-98 -74 -209 -111 -329 -111c-126 0 -230 32 -309 93
c-101 77 -150 179 -150 309c0 108 35 206 100 286c95 116 231 178 397 178c111 0 211 -32 278 -84c87 -67 129 -154 129 -262c0 -106 -44 -200 -122 -263c-45 -36 -99 -55 -155 -55c-69 0 -102 26 -102 81v2z" />
    <glyph glyph-name="A" unicode="A" horiz-adv-x="537" 
d="M10 681v-88h43l134 -505h-59v-88h286v88h-59l132 505h40v88h-215v-88h60l-27 -114h-162l-28 114h58v88h-203zM201 403h127l-62 -277z" />
    <glyph glyph-name="B" unicode="B" horiz-adv-x="493" 
d="M25 0v88h56v505h-56v88h243c120 0 178 -49 178 -153v-24c0 -82 -38 -127 -115 -140c87 -13 125 -58 125 -145v-44c0 -120 -54 -175 -174 -175h-257zM195 405h53c64 0 88 19 88 83v36c0 49 -25 72 -79 72h-62v-191zM195 85h59c64 0 88 28 88 96v56c0 60 -25 85 -88 85h-59
v-237z" />
    <glyph glyph-name="C" unicode="C" horiz-adv-x="432" 
d="M410 225v-28c0 -138 -66 -211 -189 -211c-124 0 -190 75 -190 220v250c0 159 57 238 168 238c48 0 87 -17 114 -50v37h86v-205h-93l-1 18c-4 69 -28 104 -75 104c-56 0 -80 -35 -80 -108v-300c0 -73 24 -107 80 -107c53 0 80 36 80 108v34h100z" />
    <glyph glyph-name="D" unicode="D" horiz-adv-x="506" 
d="M25 0h186c191 0 263 63 263 234v180c0 189 -69 267 -241 267h-208v-88h56v-505h-56v-88zM199 87v507h22c97 0 135 -48 135 -161v-204c0 -104 -30 -142 -128 -142h-29z" />
    <glyph glyph-name="E" unicode="E" 
d="M25 681v-88h56v-505h-56v-88h435v192h-96v-105h-165v185h140v98h-140v224h167v-122h97v209h-438z" />
    <glyph glyph-name="F" unicode="F" horiz-adv-x="481" 
d="M25 0v88h56v505h-56v88h444v-195h-97v108h-173v-185h140v-98h-140v-223h57v-88h-231z" />
    <glyph glyph-name="G" unicode="G" horiz-adv-x="433" 
d="M325 37c-32 -33 -73 -51 -115 -51c-115 0 -179 76 -179 220v263c0 149 59 225 168 225c48 0 87 -20 114 -57v44h82v-200h-89l-1 19c-3 66 -27 98 -75 98c-56 0 -80 -35 -80 -108v-301c0 -73 23 -106 80 -106c53 0 80 35 80 107v50h-60v91h157v-331h-56z" />
    <glyph glyph-name="H" unicode="H" horiz-adv-x="552" 
d="M25 681h227v-88h-53v-183h153v183h-53v88h227v-88h-56v-505h56v-88h-227v88h53v224h-153v-224h53v-88h-227v88h56v505h-56v88z" />
    <glyph glyph-name="I" unicode="I" horiz-adv-x="281" 
d="M25 0v88h56v505h-56v88h231v-88h-57v-505h57v-88h-231z" />
    <glyph glyph-name="J" unicode="J" horiz-adv-x="281" 
d="M13 -121v101h14c49 0 61 18 61 68v545h-56v88h230v-88h-56v-540c0 -118 -54 -174 -171 -174h-22z" />
    <glyph glyph-name="K" unicode="K" horiz-adv-x="535" 
d="M25 0v88h56v505h-56v88h227v-88h-53v-233l167 233h-60v88h226v-88h-47l-166 -233l171 -272h45v-89h-228v89h54l-162 268v-268h53v-88h-227z" />
    <glyph glyph-name="L" unicode="L" horiz-adv-x="480" 
d="M25 0v88h56v505h-56v88h231v-88h-57v-506h163v126h98v-213h-435z" />
    <glyph glyph-name="M" unicode="M" horiz-adv-x="658" 
d="M25 681h211l93 -368l98 368h206v-88h-56v-505h56v-88h-218v88h53l7 497l-130 -480h-47l-121 480v-497h53v-88h-205v88h56v505h-56v88z" />
    <glyph glyph-name="N" unicode="N" horiz-adv-x="559" 
d="M25 0v88h56v505h-56v88h176l181 -466v378h-54v88h206v-88h-56v-597h-101l-198 506v-414h53v-88h-207z" />
    <glyph glyph-name="O" unicode="O" horiz-adv-x="450" 
d="M300 497c0 69 -22 101 -75 101s-75 -32 -75 -101v-313c0 -69 22 -101 75 -101s75 32 75 101v313zM419 490v-300c0 -134 -67 -204 -194 -204s-194 70 -194 204v300c0 134 67 204 194 204s194 -70 194 -204z" />
    <glyph glyph-name="P" unicode="P" horiz-adv-x="487" 
d="M25 0v88h56v505h-56v88h240c132 0 193 -49 193 -164v-70c0 -115 -51 -167 -163 -167h-96v-192h57v-88h-231zM199 367h49c76 0 97 19 97 89v60c0 61 -27 78 -99 78h-47v-227z" />
    <glyph glyph-name="Q" unicode="Q" horiz-adv-x="450" 
d="M150 184c0 -68 22 -101 75 -101s75 33 75 101v313c0 68 -22 101 -75 101s-75 -33 -75 -101v-313zM31 190v300c0 134 67 204 194 204s194 -70 194 -204v-300c0 -102 -38 -166 -113 -191l111 -117h-123l-95 105c-112 12 -168 80 -168 203z" />
    <glyph glyph-name="R" unicode="R" horiz-adv-x="525" 
d="M25 0v88h56v505h-56v88h241c141 0 198 -37 198 -153v-45c0 -82 -30 -117 -115 -129c84 -11 115 -37 115 -107v-159h56v-88h-169v242c0 57 -22 72 -92 72h-60v-226h53v-88h-227zM199 399h67c57 0 85 20 85 70v59c0 54 -28 66 -93 66h-59v-195z" />
    <glyph glyph-name="S" unicode="S" horiz-adv-x="426" 
d="M37 0v213h88c7 -86 46 -132 101 -132c43 0 71 28 71 72c0 34 -18 63 -55 96l-118 105c-57 50 -85 110 -85 178c0 94 64 162 150 162c43 0 82 -19 115 -55v42h83v-185h-84c-10 67 -46 105 -91 105c-37 0 -66 -30 -66 -67c0 -27 16 -56 48 -84l126 -113
c62 -55 89 -107 89 -180c0 -100 -69 -170 -166 -170c-50 0 -90 21 -126 66v-53h-80z" />
    <glyph glyph-name="T" unicode="T" horiz-adv-x="485" 
d="M116 0v88h67v508h-77v-114h-81v199h435v-199h-82v114h-77v-508h68v-88h-253z" />
    <glyph glyph-name="U" unicode="U" horiz-adv-x="552" 
d="M81 172v421h-56v88h227v-88h-53v-415c0 -65 23 -95 77 -95s76 30 76 95v415h-53v88h227v-88h-56v-421c0 -121 -67 -186 -194 -186s-195 65 -195 186z" />
    <glyph glyph-name="V" unicode="V" horiz-adv-x="484" 
d="M204 -7l-154 600h-39v88h201v-88h-46l82 -401l85 401h-49v88h192v-88h-42l-147 -600h-83z" />
    <glyph glyph-name="W" unicode="W" horiz-adv-x="684" 
d="M179 681l-134 -600h-41v-88h198v88h-49l75 384l81 -384h-51v-88h176v88h-49l79 384l80 -384h-50v-88h186v88h-39l-138 600h-71l-91 -421l-95 421h-67z" />
    <glyph glyph-name="X" unicode="X" horiz-adv-x="487" 
d="M11 681v-88h38l140 -244l-140 -261h-35v-88h205v88h-51l83 157l88 -157h-48v-88h185v88h-31l-142 247l139 258h32v88h-204v-88h52l-81 -153l-87 153h48v88h-191z" />
    <glyph glyph-name="Y" unicode="Y" 
d="M12 681h207v-88h-49l80 -221l91 221h-49v88h196v-88h-40l-146 -325v-180h56v-88h-230v88h56v184l-131 321h-41v88z" />
    <glyph glyph-name="Z" unicode="Z" horiz-adv-x="440" 
d="M24 681v-94l272 -500h-171v107h-96v-194h384v89l-275 505h176v-131h97v218h-387z" />
    <glyph glyph-name="bracketleft" unicode="[" horiz-adv-x="262" 
d="M67 -81v762h195v-65h-98v-633h98v-64h-195z" />
    <glyph glyph-name="backslash" unicode="\" horiz-adv-x="291" 
d="M258 -93l-282 787h58l282 -787h-58z" />
    <glyph glyph-name="bracketright" unicode="]" horiz-adv-x="262" 
d="M195 681v-762h-195v64h98v633h-98v65h195z" />
    <glyph glyph-name="asciicircum" unicode="^" horiz-adv-x="1000" 
d="M447 713h106l242 -274h-101l-194 194l-195 -194h-101z" />
    <glyph glyph-name="underscore" unicode="_" 
d="M0 -152h500v-84h-500v84z" />
    <glyph glyph-name="quoteleft" unicode="&#x2018;" horiz-adv-x="194" 
d="M83 681h85l-63 -209h-85z" />
    <glyph glyph-name="a" unicode="a" horiz-adv-x="404" 
d="M249 50c-30 -39 -62 -58 -101 -58c-71 0 -112 59 -112 172v130c0 97 46 151 117 151c45 0 76 -17 102 -60v52h124v-80h-38v-277h38v-80h-130v50zM136 154c0 -53 14 -77 47 -77c34 0 58 31 58 86v118c0 53 -18 80 -55 80c-35 0 -50 -26 -50 -79v-128z" />
    <glyph glyph-name="b" unicode="b" horiz-adv-x="398" 
d="M20 0v80h38v520h-38v81h138v-283c26 32 57 48 93 48c70 0 112 -53 112 -149v-154c0 -98 -40 -151 -110 -151c-45 0 -78 17 -107 58v-50h-126zM158 159c0 -56 16 -82 55 -82c34 0 50 23 50 72v140c0 46 -15 70 -47 70c-37 0 -58 -25 -58 -73v-127z" />
    <glyph glyph-name="c" unicode="c" horiz-adv-x="347" 
d="M325 162v-11c0 -101 -54 -159 -142 -159c-102 0 -155 65 -155 191v92c0 110 47 171 126 171c31 0 60 -15 89 -42v33h72v-147h-82c-4 48 -22 73 -55 73c-37 0 -50 -32 -50 -96v-89c0 -70 14 -103 53 -103c36 0 54 27 54 82v5h90z" />
    <glyph glyph-name="d" unicode="d" horiz-adv-x="398" 
d="M250 52c-28 -41 -61 -60 -104 -60c-70 0 -112 53 -112 150v155c0 97 42 149 112 149c36 0 69 -17 94 -50v204h-38v81h138v-601h38v-80h-128v52zM134 157c0 -54 13 -78 50 -78c36 0 56 30 56 87v118c0 51 -19 77 -56 77c-33 0 -50 -23 -50 -70v-134z" />
    <glyph glyph-name="e" unicode="e" horiz-adv-x="357" 
d="M328 137c-6 -94 -60 -145 -150 -145c-98 0 -150 63 -150 184v79c0 121 59 191 148 191c98 0 153 -65 153 -187v-61h-201v-28c0 -64 17 -95 56 -95c31 0 49 20 54 62h90zM128 265h107v24c0 49 -20 77 -51 77c-40 0 -56 -28 -56 -89v-12z" />
    <glyph glyph-name="f" unicode="f" horiz-adv-x="234" 
d="M29 0v80h38v280h-38v77h38v126c0 81 32 118 105 118h44v-77c-40 0 -49 -14 -49 -57v-110h42v-77h-42v-280h38v-80h-176z" />
    <glyph glyph-name="g" unicode="g" horiz-adv-x="398" 
d="M340 11c0 -141 -52 -210 -166 -210c-47 0 -88 10 -121 32v89c32 -26 65 -38 104 -38c63 0 83 35 83 110v50c-26 -36 -53 -52 -93 -52c-72 0 -113 52 -113 151v154c0 96 44 148 113 148c41 0 74 -20 105 -61v53h126v-80h-38v-346zM134 157c0 -53 16 -78 49 -78
c37 0 57 29 57 87v112c0 55 -20 83 -59 83c-31 0 -47 -24 -47 -70v-134z" />
    <glyph glyph-name="h" unicode="h" horiz-adv-x="433" 
d="M20 681h138v-291c30 36 67 55 108 55c74 0 103 -41 103 -128v-237h38v-80h-175v80h37v212c0 45 -12 66 -44 66s-59 -20 -67 -50v-228h38v-80h-176v80h38v520h-38v81z" />
    <glyph glyph-name="i" unicode="i" horiz-adv-x="225" 
d="M29 621v-80h38v-277h-38v-80h138v357h38v80h-176zM48 106v-106h119v106h-119z" />
    <glyph glyph-name="j" unicode="j" horiz-adv-x="209" 
d="M39 621h119v-106h-119v106zM20 437h138v-477c0 -113 -37 -157 -149 -159v87c47 6 49 26 49 80v389h-38v80z" />
    <glyph glyph-name="k" unicode="k" horiz-adv-x="424" 
d="M20 0v80h38v520h-38v81h138v-446l126 129h-62v73h195v-80h-35l-118 -121l128 -156h32v-80h-189v80h41l-118 151v-151h38v-80h-176z" />
    <glyph glyph-name="l" unicode="l" horiz-adv-x="216" 
d="M20 0v80h38v520h-38v81h138v-601h38v-80h-176z" />
    <glyph glyph-name="m" unicode="m" horiz-adv-x="632" 
d="M358 58c32 -39 68 -58 110 -58c71 0 100 41 100 128v237h38v80h-174v-80h38v-212c0 -45 -10 -66 -41 -66c-30 0 -56 20 -63 50v228h39v80h-174v-80h38v-212c0 -45 -10 -66 -41 -66c-30 0 -56 20 -63 50v228h38v80h-174v-80h38v-277h-38v-80h126v57c34 -44 72 -65 117 -65
c43 0 73 20 86 58z" />
    <glyph glyph-name="n" unicode="n" horiz-adv-x="444" 
d="M379 129v237h38v80h-176v-80h39v-212c0 -45 -11 -66 -41 -66c-31 0 -56 14 -71 41v237h38v80h-176v-80h39v-277h-39v-80h129v57c33 -44 71 -66 117 -66c74 0 103 42 103 129z" />
    <glyph glyph-name="o" unicode="o" horiz-adv-x="359" 
d="M27 165v108c0 113 53 173 152 173s153 -60 153 -173v-108c0 -113 -54 -173 -153 -173c-100 0 -152 60 -152 173zM127 165c0 -60 16 -90 52 -90s53 30 53 90v108c0 60 -17 90 -53 90s-52 -30 -52 -90v-108z" />
    <glyph glyph-name="p" unicode="p" horiz-adv-x="387" 
d="M361 323v-204c0 -82 -39 -127 -107 -127c-33 0 -67 16 -95 48v-145h38v-80h-175v80h38v462h-38v80h127v-53c30 41 65 62 107 62c67 0 105 -44 105 -123zM261 294c0 43 -15 64 -48 64c-34 0 -54 -26 -54 -74v-122c0 -57 19 -86 57 -86c33 0 45 21 45 65v153z" />
    <glyph glyph-name="q" unicode="q" horiz-adv-x="398" 
d="M251 382v55h127v-80h-38v-462h38v-80h-176v80h38v145c-28 -32 -60 -48 -94 -48c-71 0 -112 52 -112 149v154c0 97 43 150 116 150c43 0 74 -20 101 -63zM240 282c0 49 -21 75 -59 75c-31 0 -47 -24 -47 -70v-135c0 -53 14 -77 50 -77c35 0 56 29 56 86v121z" />
    <glyph glyph-name="r" unicode="r" horiz-adv-x="319" 
d="M284 0h28v114c-18 -4 -35 -6 -50 -6c-63 0 -95 40 -95 120v138h49v80h-191v-80h42v-277h-38v-80h131v78c29 -57 70 -87 124 -87z" />
    <glyph glyph-name="s" unicode="s" horiz-adv-x="322" 
d="M28 0v152h73c8 -53 33 -81 67 -81c25 0 41 14 41 38c0 20 -13 34 -36 52l-88 68c-33 26 -53 64 -53 105c0 66 45 112 104 112c31 0 58 -14 84 -40v31h66v-130h-69c-11 42 -29 63 -60 63c-20 0 -35 -14 -35 -34c0 -16 11 -27 32 -43l78 -61c45 -35 67 -73 67 -122
c0 -70 -46 -118 -108 -118c-35 0 -63 14 -91 44v-36h-72z" />
    <glyph glyph-name="t" unicode="t" horiz-adv-x="225" 
d="M201 -5c-23 -2 -41 -2 -55 -2c-73 0 -88 27 -88 103v264h-38v77h38v158h100v-158h42v-77h-42v-241c0 -35 2 -40 33 -40h10v-84z" />
    <glyph glyph-name="u" unicode="u" horiz-adv-x="433" 
d="M26 -8h138v291c0 45 10 67 43 67s60 -20 68 -51v-227h-38v-80h138v357h38v80h-129v-57c-33 44 -71 65 -117 65c-74 0 -103 -41 -103 -128v-237h-38v-80z" />
    <glyph glyph-name="v" unicode="v" horiz-adv-x="403" 
d="M162 -6l-123 363h-34v80h168v-80h-36l65 -223l72 223h-40v80h164v-80h-36l-130 -363h-70z" />
    <glyph glyph-name="w" unicode="w" horiz-adv-x="571" 
d="M147 -6l-111 363h-31v80h162v-80h-34l58 -226l63 226h-33v80h140v-80h-36l62 -226l61 226h-35v80h153v-80h-31l-111 -363h-71l-69 252l-70 -252h-67z" />
    <glyph glyph-name="x" unicode="x" horiz-adv-x="357" 
d="M8 0h128v61l49 77l51 -77v-61h109v80h-29l-85 126l95 151h26v80h-127v-66l-54 -84l-56 84v66h-110v-80h26l95 -138l-88 -139h-30v-80z" />
    <glyph glyph-name="y" unicode="y" horiz-adv-x="403" 
d="M58 -185v80h44l49 132l-112 330h-34v80h168v-80h-36l65 -223l72 223h-40v80h164v-80h-36l-172 -462h47v-80h-179z" />
    <glyph glyph-name="z" unicode="z" horiz-adv-x="370" 
d="M18 0v82l218 281h-129v-64h-80v138h317v-83l-216 -280h141v74h75v-148h-326z" />
    <glyph glyph-name="braceleft" unicode="{" 
d="M427 721v-87c-8 0 -16 1 -23 1c-77 0 -91 -26 -91 -105v-118c0 -91 -17 -133 -99 -153c82 -20 99 -63 99 -153v-117c0 -79 14 -106 92 -106c7 0 14 1 22 1v-86h-31c-58 0 -101 5 -133 24c-44 26 -50 72 -50 146v121c0 92 -29 128 -113 128c-7 0 -14 -1 -21 -1v87
c7 0 14 -1 21 -1c83 0 113 35 113 127v121c0 74 5 120 50 147c34 20 79 24 142 24h22z" />
    <glyph glyph-name="bar" unicode="|" 
d="M207 764h87v-1000h-87v1000z" />
    <glyph glyph-name="braceright" unicode="}" 
d="M74 721h22c62 0 107 -4 141 -24c45 -27 50 -74 50 -147v-121c0 -92 29 -127 113 -127c6 0 14 1 21 1v-87c-7 0 -14 1 -21 1c-84 0 -113 -36 -113 -128v-121c0 -73 -5 -119 -50 -146c-33 -20 -79 -24 -141 -24h-22v86c8 0 15 -1 22 -1c78 0 91 27 91 106v117
c0 90 18 133 100 153c-83 20 -100 63 -100 153v118c0 79 -14 105 -90 105c-7 0 -15 -1 -23 -1v87z" />
    <glyph glyph-name="asciitilde" unicode="~" horiz-adv-x="833" 
d="M747 383v-90c-65 -45 -126 -69 -186 -69c-29 0 -61 6 -93 17c-69 23 -129 48 -193 48c-58 0 -117 -27 -188 -77v91c69 47 131 70 189 70c57 0 102 -15 143 -29c49 -17 94 -36 143 -36c58 0 117 26 185 75z" />
    <glyph glyph-name="exclamdown" unicode="&#xa1;" horiz-adv-x="284" 
d="M102 480h80c3 -181 10 -341 19 -480h-118c9 140 16 300 19 480zM202 634c0 -32 -27 -59 -60 -59s-60 25 -60 59s28 60 60 60s60 -28 60 -60z" />
    <glyph glyph-name="cent" unicode="&#xa2;" horiz-adv-x="389" 
d="M296 539h36l-34 -101h36v-151h-88l-75 -209c10 -4 20 -5 29 -5c41 0 59 27 59 86v5h85v-9c0 -107 -51 -164 -142 -164c-21 0 -39 3 -57 10l-41 -121h-35l47 135c-57 33 -77 101 -77 212c0 148 35 219 130 219c36 0 64 -13 84 -37zM231 347c-12 11 -26 17 -41 17
c-55 0 -56 -52 -56 -159c0 -42 1 -74 11 -98z" />
    <glyph glyph-name="sterling" unicode="&#xa3;" horiz-adv-x="389" 
d="M358 487h-89v35c0 54 -17 79 -59 79c-34 0 -55 -27 -55 -75c0 -33 8 -84 24 -153h108v-74h-99c1 -18 2 -34 2 -47c0 -72 -13 -126 -36 -160c15 -14 37 -22 64 -22c46 0 65 32 65 99v10h83c1 -11 1 -22 1 -33c0 -111 -40 -161 -133 -161c-48 0 -89 15 -119 42
c-23 -19 -49 -32 -80 -40v88c43 28 65 81 65 156c0 20 -1 43 -4 68h-61v74h49c-16 65 -24 115 -24 152c0 97 56 155 148 155c103 0 150 -53 150 -165v-28z" />
    <glyph glyph-name="fraction" unicode="&#x2044;" horiz-adv-x="167" 
d="M-167 -14l446 695h54l-446 -695h-54z" />
    <glyph glyph-name="yen" unicode="&#xa5;" horiz-adv-x="435" 
d="M109 0v88h56v181l-6 16h-136v50h114l-25 63h-89v51h68l-50 130h-41v88h186v-88h-48l78 -230l93 230h-47v88h173v-88h-39l-59 -130h75v-51h-98l-28 -63h126v-50h-150l-5 -16v-181h56v-88h-204z" />
    <glyph glyph-name="florin" unicode="&#x192;" horiz-adv-x="389" 
d="M356 678l-5 -80c-10 1 -20 2 -28 2c-68 0 -75 -47 -85 -159l-3 -42h88v-81h-95l-24 -249c-17 -180 -44 -268 -175 -268c-12 0 -26 2 -41 4l6 76c8 -1 15 -1 22 -1c75 0 76 48 87 164l27 274h-81v81h90l4 44c13 159 65 238 166 238c17 0 32 -1 47 -3z" />
    <glyph glyph-name="section" unicode="&#xa7;" horiz-adv-x="435" 
d="M256 681h98v-156h-67v90h-32c-52 0 -79 -17 -79 -51c0 -28 24 -60 67 -108l107 -122c36 -41 59 -76 59 -123c0 -64 -39 -104 -109 -110c35 -40 53 -78 53 -118c0 -72 -55 -120 -146 -120h-123v155h67v-89h36c56 0 83 17 83 52c0 26 -17 51 -47 85l-131 149
c-40 45 -60 88 -60 126c0 61 43 106 109 111c-30 37 -45 74 -45 111c0 78 53 118 160 118zM207 371c-14 16 -28 24 -45 24c-31 0 -51 -20 -51 -49c0 -17 8 -37 23 -54l92 -105c17 -19 32 -29 55 -29c29 0 50 20 50 46c0 27 -14 42 -33 63z" />
    <glyph glyph-name="currency" unicode="&#xa4;" horiz-adv-x="606" 
d="M82 698l99 -99c36 27 76 40 122 40s87 -13 123 -40l99 99l46 -45l-100 -100c26 -35 39 -76 39 -121s-13 -86 -39 -121l100 -100l-46 -45l-99 100c-37 -27 -76 -40 -122 -40s-87 13 -123 40l-99 -100l-45 45l99 100c-26 35 -39 76 -39 121s13 86 39 121l-99 100zM304 574
c-78 0 -142 -65 -142 -142c0 -78 63 -141 142 -141s142 63 142 141c0 77 -64 142 -142 142z" />
    <glyph glyph-name="quotesingle" unicode="'" horiz-adv-x="163" 
d="M42 701h80v-272h-80v272z" />
    <glyph glyph-name="quotedblleft" unicode="&#x201c;" horiz-adv-x="357" 
d="M83 681h85l-63 -209h-85zM245 681h86l-63 -209h-85z" />
    <glyph glyph-name="guillemotleft" unicode="&#xab;" horiz-adv-x="457" 
d="M215 223l119 155h95l-118 -155l118 -155h-95zM28 223l119 155h95l-118 -155l118 -155h-95z" />
    <glyph glyph-name="guilsinglleft" unicode="&#x2039;" horiz-adv-x="270" 
d="M28 223l119 155h95l-118 -155l118 -155h-95z" />
    <glyph glyph-name="guilsinglright" unicode="&#x203a;" horiz-adv-x="270" 
d="M242 223l-118 -155h-96l119 155l-119 155h96z" />
    <glyph glyph-name="fi" unicode="&#xfb01;" horiz-adv-x="447" 
d="M29 0v80h38v280h-38v77h38v126c0 81 32 118 105 118h44v-77c-40 0 -49 -14 -49 -57v-110h42v-77h-42v-280h38v-80h-176zM251 0v80h39v277h-39v80h138v-357h38v-80h-176zM271 515v106h118v-106h-118z" />
    <glyph glyph-name="fl" unicode="&#xfb02;" horiz-adv-x="447" 
d="M29 0v80h38v280h-38v77h38v126c0 81 32 118 105 118h44v-77c-40 0 -49 -14 -49 -57v-110h42v-77h-42v-280h38v-80h-176zM251 0v80h39v520h-39v81h138v-601h38v-80h-176z" />
    <glyph glyph-name="endash" unicode="&#x2013;" 
d="M500 261v-63h-500v63h500z" />
    <glyph glyph-name="dagger" unicode="&#x2020;" horiz-adv-x="477" 
d="M147 681h182v-61h-55v-188h82v51h66v-168h-66v51h-82v-503h-71v503h-83v-51h-65v168h65v-51h83v188h-56v61z" />
    <glyph glyph-name="daggerdbl" unicode="&#x2021;" 
d="M159 -137v61h55v149h-82v-51h-66v168h66v-51h82v277h-82v-51h-66v168h66v-51h82v138h-55v61h182v-61h-55v-138h82v51h66v-168h-66v51h-82v-277h82v51h66v-168h-66v51h-82v-149h55v-61h-182z" />
    <glyph glyph-name="periodcentered" unicode="&#xb7;" horiz-adv-x="194" 
d="M37 334c0 32 27 60 60 60c34 0 60 -27 60 -60s-27 -60 -60 -60c-32 0 -60 28 -60 60z" />
    <glyph glyph-name="paragraph" unicode="&#xb6;" 
d="M473 722v-48h-57v-674h-63v674h-83v-674h-63v383c-112 4 -180 73 -180 169c0 100 73 170 191 170h255z" />
    <glyph glyph-name="bullet" unicode="&#x2022;" horiz-adv-x="590" 
d="M150 372c0 80 65 144 145 144c79 0 144 -64 144 -144c0 -79 -65 -145 -145 -145s-144 65 -144 145z" />
    <glyph glyph-name="quotesinglbase" unicode="&#x201a;" horiz-adv-x="194" 
d="M67 112h85l-63 -208h-85z" />
    <glyph glyph-name="quotedblbase" unicode="&#x201e;" horiz-adv-x="357" 
d="M69 112h85l-63 -208h-85zM231 112h85l-62 -208h-85z" />
    <glyph glyph-name="quotedblright" unicode="&#x201d;" horiz-adv-x="357" 
d="M83 681h85l-63 -209h-85zM245 681h86l-63 -209h-85z" />
    <glyph glyph-name="guillemotright" unicode="&#xbb;" horiz-adv-x="457" 
d="M242 223l-118 -155h-96l119 155l-119 155h96zM429 223l-118 -155h-96l119 155l-119 155h96z" />
    <glyph glyph-name="ellipsis" unicode="&#x2026;" horiz-adv-x="1000" 
d="M107 52c0 32 27 60 60 60s60 -27 60 -60s-28 -60 -60 -60s-60 28 -60 60zM440 52c0 32 27 60 60 60s60 -27 60 -60s-28 -60 -60 -60s-60 28 -60 60zM774 52c0 32 27 60 60 60s60 -27 60 -60s-28 -60 -60 -60s-60 28 -60 60z" />
    <glyph glyph-name="perthousand" unicode="&#x2030;" horiz-adv-x="813" 
d="M33 422v143c0 67 33 102 94 102c62 0 94 -35 94 -102v-143c0 -67 -32 -102 -94 -102c-61 0 -94 35 -94 102zM100 425c0 -31 9 -45 27 -45s26 14 26 45v137c0 30 -8 45 -26 45s-27 -15 -27 -45v-137zM347 102v143c0 67 33 102 94 102s94 -35 94 -102v-143
c0 -67 -32 -102 -94 -102c-61 0 -94 35 -94 102zM414 106c0 -31 9 -46 27 -46s26 16 26 46v136c0 30 -8 45 -26 45c-19 0 -27 -14 -27 -45v-136zM592 102v143c0 67 32 102 93 102c62 0 95 -35 95 -102v-143c0 -67 -33 -102 -95 -102c-61 0 -93 35 -93 102zM659 106
c0 -31 8 -46 26 -46s27 16 27 46v136c0 30 -9 45 -27 45c-19 0 -26 -14 -26 -45v-136zM97 -14l321 695h52l-321 -695h-52z" />
    <glyph glyph-name="questiondown" unicode="&#xbf;" horiz-adv-x="396" 
d="M183 344v130h88v-198h-15c-84 0 -120 -32 -120 -109c0 -62 26 -94 73 -94c41 0 66 28 66 76h88v-21c0 -88 -58 -142 -156 -142c-105 0 -162 63 -162 182c0 109 50 170 138 176zM226 575c-34 0 -60 26 -60 61c0 32 28 58 62 58c31 0 58 -28 58 -60s-27 -59 -60 -59z" />
    <glyph glyph-name="grave" unicode="`" 
d="M127 675h105l87 -175h-59z" />
    <glyph glyph-name="acute" unicode="&#xb4;" 
d="M269 675h105l-133 -175h-60z" />
    <glyph glyph-name="circumflex" unicode="&#x2c6;" 
d="M116 500l85 175h98l85 -175h-59l-75 105l-75 -105h-59z" />
    <glyph glyph-name="tilde" unicode="&#x2dc;" 
d="M386 646c-14 -75 -43 -112 -90 -112c-10 0 -20 2 -31 5l-41 14c-11 4 -20 4 -24 4c-22 0 -33 -10 -41 -35h-45c13 72 44 109 89 109c10 0 21 -2 32 -6l42 -13c8 -3 16 -5 24 -5c21 0 32 13 40 39h45z" />
    <glyph glyph-name="macron" unicode="&#xaf;" 
d="M125 547v74h251v-74h-251z" />
    <glyph glyph-name="breve" unicode="&#x2d8;" 
d="M117 658h53c3 -46 28 -68 80 -68s78 22 80 68h53c-7 -98 -48 -142 -133 -142s-127 45 -133 142z" />
    <glyph glyph-name="dotaccent" unicode="&#x2d9;" 
d="M201 638h99v-111h-99v111z" />
    <glyph glyph-name="dieresis" unicode="&#xa8;" 
d="M117 528v112h101v-112h-101zM282 528v112h101v-112h-101z" />
    <glyph glyph-name="ring" unicode="&#x2da;" 
d="M250 742c71 0 126 -55 126 -125c0 -71 -55 -126 -126 -126s-126 55 -126 126s55 125 126 125zM250 680c-36 0 -63 -28 -63 -64s27 -63 63 -63s64 27 64 63s-28 64 -64 64z" />
    <glyph glyph-name="cedilla" unicode="&#xb8;" 
d="M219 0h44v-47h10c72 0 111 -32 111 -89c0 -64 -42 -95 -127 -95c-30 0 -72 6 -126 21v54c54 -13 96 -20 124 -20c36 0 53 12 53 37c0 31 -20 42 -65 42c-7 0 -15 0 -24 -1v98z" />
    <glyph glyph-name="hungarumlaut" unicode="&#x2dd;" 
d="M213 675h90l-102 -175h-45zM346 675h93l-117 -175h-47z" />
    <glyph glyph-name="ogonek" unicode="&#x2db;" 
d="M261 0h43c-42 -37 -63 -69 -63 -103c0 -28 13 -40 43 -40h44v-76h-37c-83 0 -123 24 -123 86c0 48 31 88 93 133z" />
    <glyph glyph-name="caron" unicode="&#x2c7;" 
d="M116 675h59l75 -106l75 106h59l-85 -175h-98z" />
    <glyph glyph-name="emdash" unicode="&#x2014;" horiz-adv-x="1000" 
d="M1000 261v-63h-1000v63h1000z" />
    <glyph glyph-name="AE" unicode="&#xc6;" horiz-adv-x="766" 
d="M-23 0v88h42l209 505h-65v88h563v-192h-96v105h-162v-185h130v-98h-130v-224h163v122h98v-209h-435v88h56v153h-164l-62 -153h59v-88h-206zM217 316h133v284h-19z" />
    <glyph glyph-name="ordfeminine" unicode="&#xaa;" horiz-adv-x="303" 
d="M187 409c-23 -27 -47 -41 -76 -41c-53 0 -84 42 -84 121v91c0 68 35 105 88 105c34 0 57 -11 76 -42v37h93v-56h-28v-194h28v-56h-97v35zM102 482c0 -37 11 -54 35 -54c26 0 44 22 44 60v83c0 37 -14 56 -41 56s-38 -19 -38 -56v-89z" />
    <glyph glyph-name="Lslash" unicode="&#x141;" horiz-adv-x="480" 
d="M25 0v88h56v191l-81 -53v72l81 53v242h-56v88h231v-88h-57v-179l107 70v-72l-107 -70v-255h163v126h98v-213h-435z" />
    <glyph glyph-name="Oslash" unicode="&#xd8;" horiz-adv-x="450" 
d="M361 764h60l-49 -123c34 -39 47 -88 47 -151v-300c0 -134 -67 -204 -194 -204c-40 0 -72 6 -102 21l-40 -100h-60l55 136c-32 33 -47 80 -47 147v300c0 134 67 204 194 204c38 0 71 -6 101 -20zM287 566c-12 21 -33 32 -62 32c-53 0 -75 -32 -75 -101v-290zM161 116
c13 -22 34 -33 64 -33c53 0 75 32 75 101v299z" />
    <glyph glyph-name="OE" unicode="&#x152;" horiz-adv-x="724" 
d="M261 681h423v-192h-96v105h-163v-185h146v-98h-146v-224h164v122h98v-209h-426c-156 0 -230 77 -230 240v201c0 163 74 240 230 240zM308 521c0 52 -8 70 -58 70c-69 0 -100 -43 -100 -134v-233c0 -91 31 -134 100 -134c50 0 58 18 58 70v361z" />
    <glyph glyph-name="ordmasculine" unicode="&#xba;" horiz-adv-x="269" 
d="M20 489v76c0 79 40 121 114 121c75 0 115 -42 115 -121v-76c0 -79 -40 -121 -115 -121s-114 42 -114 121zM95 489c0 -42 12 -63 39 -63s40 21 40 63v76c0 42 -13 63 -40 63s-39 -21 -39 -63v-76z" />
    <glyph glyph-name="ae" unicode="&#xe6;" horiz-adv-x="564" 
d="M291 402c27 29 58 44 96 44c93 0 149 -67 149 -187v-61h-201v-28c0 -64 16 -95 55 -95c31 0 49 20 54 62h90c-6 -93 -60 -145 -148 -145c-51 0 -91 19 -115 55c-29 -37 -66 -55 -112 -55c-79 0 -133 57 -133 133v28c0 76 52 131 125 131c33 0 60 -10 84 -32v47
c0 42 -22 67 -60 67c-29 0 -52 -16 -60 -44h-66v115h63v-24c23 22 50 33 78 33c42 0 75 -14 101 -44zM441 289c0 50 -20 77 -51 77c-40 0 -55 -28 -55 -89v-12h106v24zM235 147c0 39 -23 66 -55 66c-31 0 -55 -27 -55 -66v-12c0 -40 23 -65 55 -65s55 26 55 65v12z" />
    <glyph glyph-name="dotlessi" unicode="&#x131;" horiz-adv-x="225" 
d="M29 0v80h38v277h-38v80h138v-357h38v-80h-176z" />
    <glyph glyph-name="lslash" unicode="&#x142;" horiz-adv-x="216" 
d="M20 0v80h38v215l-58 -38v55l58 38v250h-38v81h138v-282l58 38v-55l-58 -38v-264h38v-80h-176z" />
    <glyph glyph-name="oslash" unicode="&#xf8;" horiz-adv-x="361" 
d="M27 165v108c0 113 53 173 152 173c28 0 53 -5 75 -15l38 85h46l-50 -109c29 -29 44 -73 44 -134v-108c0 -113 -54 -173 -153 -173c-29 0 -53 5 -73 15l-40 -88h-46l52 112c-30 26 -45 71 -45 134zM137 94c11 -16 24 -23 42 -23c37 0 54 30 54 92v111c0 9 0 19 -1 28z
M127 139l93 204c-7 15 -23 24 -41 24c-36 0 -53 -31 -53 -93v-111c0 -10 0 -18 1 -24z" />
    <glyph glyph-name="oe" unicode="&#x153;" horiz-adv-x="561" 
d="M283 37c-23 -30 -57 -45 -102 -45c-99 0 -153 60 -153 173v108c0 113 54 173 153 173c46 0 79 -16 106 -49c22 31 57 49 100 49c90 0 146 -67 146 -187v-61h-200v-28c0 -64 16 -95 55 -95c31 0 49 20 54 62h90c-6 -93 -60 -145 -150 -145c-44 0 -78 15 -99 45zM128 165
c0 -60 17 -90 53 -90s52 30 52 90v108c0 60 -16 93 -52 93s-53 -33 -53 -93v-108zM333 265h106v24c0 50 -20 77 -51 77c-40 0 -55 -28 -55 -89v-12z" />
    <glyph glyph-name="germandbls" unicode="&#xdf;" horiz-adv-x="440" 
d="M20 0v80h38v417c0 123 53 184 159 184c89 0 143 -55 143 -146v-43c0 -53 -23 -90 -71 -114c72 -18 111 -73 111 -161v-42c0 -116 -50 -183 -132 -183c-23 0 -42 4 -57 13l12 71c11 -3 20 -4 30 -4c34 0 46 33 46 102v50c0 78 -23 112 -80 112c-5 0 -10 -1 -15 -1v71
c45 3 62 24 62 75v44c0 50 -17 73 -53 73s-55 -26 -55 -76v-522h-138z" />
    <glyph glyph-name="Aacute" unicode="&#xc1;" horiz-adv-x="537" 
d="M10 0v88h43l134 505h-59v88h286v-88h-59l132 -505h40v-88h-215v88h60l-27 114h-162l-28 -114h58v-88h-203zM201 278h127l-62 277zM288 924h105l-133 -175h-60z" />
    <glyph glyph-name="Acircumflex" unicode="&#xc2;" horiz-adv-x="537" 
d="M10 0v88h43l134 505h-59v88h286v-88h-59l132 -505h40v-88h-215v88h60l-27 114h-162l-28 -114h58v-88h-203zM201 278h127l-62 277zM135 749l85 175h98l85 -175h-59l-75 105l-75 -105h-59z" />
    <glyph glyph-name="Adieresis" unicode="&#xc4;" horiz-adv-x="537" 
d="M10 0v88h43l134 505h-59v88h286v-88h-59l132 -505h40v-88h-215v88h60l-27 114h-162l-28 -114h58v-88h-203zM201 278h127l-62 277zM136 777v112h101v-112h-101zM301 777v112h101v-112h-101z" />
    <glyph glyph-name="Agrave" unicode="&#xc0;" horiz-adv-x="537" 
d="M10 0v88h43l134 505h-59v88h286v-88h-59l132 -505h40v-88h-215v88h60l-27 114h-162l-28 -114h58v-88h-203zM201 278h127l-62 277zM146 924h105l87 -175h-59z" />
    <glyph glyph-name="Aring" unicode="&#xc5;" horiz-adv-x="537" 
d="M10 0v88h43l134 505h-59v88h286v-88h-59l132 -505h40v-88h-215v88h60l-27 114h-162l-28 -114h58v-88h-203zM201 278h127l-62 277zM266 965c71 0 127 -56 127 -126c0 -71 -56 -126 -127 -126s-125 55 -125 126s54 126 125 126zM267 903c-36 0 -64 -28 -64 -64
s28 -64 64 -64s63 28 63 64s-27 64 -63 64z" />
    <glyph glyph-name="Atilde" unicode="&#xc3;" horiz-adv-x="537" 
d="M10 0v88h43l134 505h-59v88h286v-88h-59l132 -505h40v-88h-215v88h60l-27 114h-162l-28 -114h58v-88h-203zM201 278h127l-62 277zM405 895c-14 -75 -43 -112 -90 -112c-10 0 -20 2 -31 5l-41 14c-11 4 -20 4 -24 4c-22 0 -33 -10 -41 -35h-45c13 72 44 109 89 109
c10 0 21 -2 32 -6l42 -13c8 -3 16 -5 24 -5c21 0 32 13 40 39h45z" />
    <glyph glyph-name="Ccedilla" unicode="&#xc7;" horiz-adv-x="432" 
d="M410 225v-28c0 -138 -66 -211 -189 -211c-124 0 -190 75 -190 220v250c0 159 57 238 168 238c48 0 87 -17 114 -50v37h86v-205h-93l-1 18c-4 69 -28 104 -75 104c-56 0 -80 -35 -80 -108v-300c0 -73 24 -107 80 -107c53 0 80 36 80 108v34h100zM185 0h44v-47h10
c72 0 111 -32 111 -89c0 -64 -42 -95 -127 -95c-30 0 -72 6 -126 21v54c54 -13 96 -20 124 -20c36 0 53 12 53 37c0 31 -20 42 -65 42c-7 0 -15 0 -24 -1v98z" />
    <glyph glyph-name="Eacute" unicode="&#xc9;" 
d="M25 0v88h56v505h-56v88h435v-192h-96v105h-165v-185h140v-98h-140v-224h167v122h97v-209h-438zM269 924h105l-133 -175h-60z" />
    <glyph glyph-name="Ecircumflex" unicode="&#xca;" 
d="M25 0v88h56v505h-56v88h435v-192h-96v105h-165v-185h140v-98h-140v-224h167v122h97v-209h-438zM116 749l85 175h98l85 -175h-59l-75 105l-75 -105h-59z" />
    <glyph glyph-name="Edieresis" unicode="&#xcb;" 
d="M25 0v88h56v505h-56v88h435v-192h-96v105h-165v-185h140v-98h-140v-224h167v122h97v-209h-438zM117 777v112h101v-112h-101zM282 777v112h101v-112h-101z" />
    <glyph glyph-name="Egrave" unicode="&#xc8;" 
d="M25 0v88h56v505h-56v88h435v-192h-96v105h-165v-185h140v-98h-140v-224h167v122h97v-209h-438zM127 924h105l87 -175h-59z" />
    <glyph glyph-name="Iacute" unicode="&#xcd;" horiz-adv-x="281" 
d="M25 0v88h56v505h-56v88h231v-88h-57v-505h57v-88h-231zM160 924h105l-133 -175h-60z" />
    <glyph glyph-name="Icircumflex" unicode="&#xce;" horiz-adv-x="281" 
d="M25 0v88h56v505h-56v88h231v-88h-57v-505h57v-88h-231zM7 749l85 175h98l85 -175h-59l-75 105l-75 -105h-59z" />
    <glyph glyph-name="Idieresis" unicode="&#xcf;" horiz-adv-x="281" 
d="M25 0v88h56v505h-56v88h231v-88h-57v-505h57v-88h-231zM8 777v112h101v-112h-101zM173 777v112h101v-112h-101z" />
    <glyph glyph-name="Igrave" unicode="&#xcc;" horiz-adv-x="281" 
d="M25 0v88h56v505h-56v88h231v-88h-57v-505h57v-88h-231zM18 924h105l87 -175h-59z" />
    <glyph glyph-name="Ntilde" unicode="&#xd1;" horiz-adv-x="559" 
d="M25 0v88h56v505h-56v88h176l181 -466v378h-54v88h206v-88h-56v-597h-101l-198 506v-414h53v-88h-207zM416 895c-14 -75 -43 -112 -90 -112c-10 0 -20 2 -31 5l-41 14c-11 4 -20 4 -24 4c-22 0 -33 -10 -41 -35h-45c13 72 44 109 89 109c10 0 21 -2 32 -6l42 -13
c8 -3 16 -5 24 -5c21 0 32 13 40 39h45z" />
    <glyph glyph-name="Oacute" unicode="&#xd3;" horiz-adv-x="450" 
d="M300 497c0 69 -22 101 -75 101s-75 -32 -75 -101v-313c0 -69 22 -101 75 -101s75 32 75 101v313zM419 490v-300c0 -134 -67 -204 -194 -204s-194 70 -194 204v300c0 134 67 204 194 204s194 -70 194 -204zM244 924h105l-133 -175h-60z" />
    <glyph glyph-name="Ocircumflex" unicode="&#xd4;" horiz-adv-x="450" 
d="M300 497c0 69 -22 101 -75 101s-75 -32 -75 -101v-313c0 -69 22 -101 75 -101s75 32 75 101v313zM419 490v-300c0 -134 -67 -204 -194 -204s-194 70 -194 204v300c0 134 67 204 194 204s194 -70 194 -204zM91 749l85 175h98l85 -175h-59l-75 105l-75 -105h-59z" />
    <glyph glyph-name="Odieresis" unicode="&#xd6;" horiz-adv-x="450" 
d="M300 497c0 69 -22 101 -75 101s-75 -32 -75 -101v-313c0 -69 22 -101 75 -101s75 32 75 101v313zM419 490v-300c0 -134 -67 -204 -194 -204s-194 70 -194 204v300c0 134 67 204 194 204s194 -70 194 -204zM92 777v112h101v-112h-101zM257 777v112h101v-112h-101z" />
    <glyph glyph-name="Ograve" unicode="&#xd2;" horiz-adv-x="450" 
d="M300 497c0 69 -22 101 -75 101s-75 -32 -75 -101v-313c0 -69 22 -101 75 -101s75 32 75 101v313zM419 490v-300c0 -134 -67 -204 -194 -204s-194 70 -194 204v300c0 134 67 204 194 204s194 -70 194 -204zM102 924h105l87 -175h-59z" />
    <glyph glyph-name="Otilde" unicode="&#xd5;" horiz-adv-x="450" 
d="M300 497c0 69 -22 101 -75 101s-75 -32 -75 -101v-313c0 -69 22 -101 75 -101s75 32 75 101v313zM419 490v-300c0 -134 -67 -204 -194 -204s-194 70 -194 204v300c0 134 67 204 194 204s194 -70 194 -204zM361 895c-14 -75 -43 -112 -90 -112c-10 0 -20 2 -31 5l-41 14
c-11 4 -20 4 -24 4c-22 0 -33 -10 -41 -35h-45c13 72 44 109 89 109c10 0 21 -2 32 -6l42 -13c8 -3 16 -5 24 -5c21 0 32 13 40 39h45z" />
    <glyph glyph-name="Scaron" unicode="&#x160;" horiz-adv-x="426" 
d="M37 0v213h88c7 -86 46 -132 101 -132c43 0 71 28 71 72c0 34 -18 63 -55 96l-118 105c-57 50 -85 110 -85 178c0 94 64 162 150 162c43 0 82 -19 115 -55v42h83v-185h-84c-10 67 -46 105 -91 105c-37 0 -66 -30 -66 -67c0 -27 16 -56 48 -84l126 -113
c62 -55 89 -107 89 -180c0 -100 -69 -170 -166 -170c-50 0 -90 21 -126 66v-53h-80zM79 924h59l75 -106l75 106h59l-85 -175h-98z" />
    <glyph glyph-name="Uacute" unicode="&#xda;" horiz-adv-x="552" 
d="M81 172v421h-56v88h227v-88h-53v-415c0 -65 23 -95 77 -95s76 30 76 95v415h-53v88h227v-88h-56v-421c0 -121 -67 -186 -194 -186s-195 65 -195 186zM295 924h105l-133 -175h-60z" />
    <glyph glyph-name="Ucircumflex" unicode="&#xdb;" horiz-adv-x="552" 
d="M81 172v421h-56v88h227v-88h-53v-415c0 -65 23 -95 77 -95s76 30 76 95v415h-53v88h227v-88h-56v-421c0 -121 -67 -186 -194 -186s-195 65 -195 186zM142 749l85 175h98l85 -175h-59l-75 105l-75 -105h-59z" />
    <glyph glyph-name="Udieresis" unicode="&#xdc;" horiz-adv-x="552" 
d="M81 172v421h-56v88h227v-88h-53v-415c0 -65 23 -95 77 -95s76 30 76 95v415h-53v88h227v-88h-56v-421c0 -121 -67 -186 -194 -186s-195 65 -195 186zM143 777v112h101v-112h-101zM308 777v112h101v-112h-101z" />
    <glyph glyph-name="Ugrave" unicode="&#xd9;" horiz-adv-x="552" 
d="M81 172v421h-56v88h227v-88h-53v-415c0 -65 23 -95 77 -95s76 30 76 95v415h-53v88h227v-88h-56v-421c0 -121 -67 -186 -194 -186s-195 65 -195 186zM153 924h105l87 -175h-59z" />
    <glyph glyph-name="Ydieresis" unicode="&#x178;" 
d="M12 681h207v-88h-49l80 -221l91 221h-49v88h196v-88h-40l-146 -325v-180h56v-88h-230v88h56v184l-131 321h-41v88zM117 777v112h101v-112h-101zM282 777v112h101v-112h-101z" />
    <glyph glyph-name="Zcaron" unicode="&#x17d;" horiz-adv-x="440" 
d="M24 0v94l272 500h-171v-107h-96v194h384v-89l-275 -505h176v131h97v-218h-387zM86 924h59l75 -106l75 106h59l-85 -175h-98z" />
    <glyph glyph-name="aacute" unicode="&#xe1;" horiz-adv-x="404" 
d="M249 50c-30 -39 -62 -58 -101 -58c-71 0 -112 59 -112 172v130c0 97 46 151 117 151c45 0 76 -17 102 -60v52h124v-80h-38v-277h38v-80h-130v50zM136 154c0 -53 14 -77 47 -77c34 0 58 31 58 86v118c0 53 -18 80 -55 80c-35 0 -50 -26 -50 -79v-128zM221 675h105
l-133 -175h-60z" />
    <glyph glyph-name="acircumflex" unicode="&#xe2;" horiz-adv-x="404" 
d="M249 50c-30 -39 -62 -58 -101 -58c-71 0 -112 59 -112 172v130c0 97 46 151 117 151c45 0 76 -17 102 -60v52h124v-80h-38v-277h38v-80h-130v50zM136 154c0 -53 14 -77 47 -77c34 0 58 31 58 86v118c0 53 -18 80 -55 80c-35 0 -50 -26 -50 -79v-128zM68 500l85 175h98
l85 -175h-59l-75 105l-75 -105h-59z" />
    <glyph glyph-name="adieresis" unicode="&#xe4;" horiz-adv-x="404" 
d="M249 50c-30 -39 -62 -58 -101 -58c-71 0 -112 59 -112 172v130c0 97 46 151 117 151c45 0 76 -17 102 -60v52h124v-80h-38v-277h38v-80h-130v50zM136 154c0 -53 14 -77 47 -77c34 0 58 31 58 86v118c0 53 -18 80 -55 80c-35 0 -50 -26 -50 -79v-128zM69 528v112h101v-112
h-101zM234 528v112h101v-112h-101z" />
    <glyph glyph-name="agrave" unicode="&#xe0;" horiz-adv-x="404" 
d="M249 50c-30 -39 -62 -58 -101 -58c-71 0 -112 59 -112 172v130c0 97 46 151 117 151c45 0 76 -17 102 -60v52h124v-80h-38v-277h38v-80h-130v50zM136 154c0 -53 14 -77 47 -77c34 0 58 31 58 86v118c0 53 -18 80 -55 80c-35 0 -50 -26 -50 -79v-128zM79 675h105l87 -175
h-59z" />
    <glyph glyph-name="aring" unicode="&#xe5;" horiz-adv-x="404" 
d="M249 50c-30 -39 -62 -58 -101 -58c-71 0 -112 59 -112 172v130c0 97 46 151 117 151c45 0 76 -17 102 -60v52h124v-80h-38v-277h38v-80h-130v50zM136 154c0 -53 14 -77 47 -77c34 0 58 31 58 86v118c0 53 -18 80 -55 80c-35 0 -50 -26 -50 -79v-128zM222 730
c71 0 126 -55 126 -126s-55 -126 -126 -126s-126 55 -126 126s55 126 126 126zM222 668c-36 0 -64 -28 -64 -64s28 -64 64 -64c35 0 63 28 63 64c0 35 -28 64 -63 64z" />
    <glyph glyph-name="atilde" unicode="&#xe3;" horiz-adv-x="404" 
d="M249 50c-30 -39 -62 -58 -101 -58c-71 0 -112 59 -112 172v130c0 97 46 151 117 151c45 0 76 -17 102 -60v52h124v-80h-38v-277h38v-80h-130v50zM136 154c0 -53 14 -77 47 -77c34 0 58 31 58 86v118c0 53 -18 80 -55 80c-35 0 -50 -26 -50 -79v-128zM338 646
c-14 -75 -43 -112 -90 -112c-10 0 -20 2 -31 5l-41 14c-11 4 -20 4 -24 4c-22 0 -33 -10 -41 -35h-45c13 72 44 109 89 109c10 0 21 -2 32 -6l42 -13c8 -3 16 -5 24 -5c21 0 32 13 40 39h45z" />
    <glyph glyph-name="ccedilla" unicode="&#xe7;" horiz-adv-x="347" 
d="M325 162v-11c0 -101 -54 -159 -142 -159c-102 0 -155 65 -155 191v92c0 110 47 171 126 171c31 0 60 -15 89 -42v33h72v-147h-82c-4 48 -22 73 -55 73c-37 0 -50 -32 -50 -96v-89c0 -70 14 -103 53 -103c36 0 54 27 54 82v5h90zM143 0h44v-47h10c72 0 111 -32 111 -89
c0 -64 -42 -95 -127 -95c-30 0 -72 6 -126 21v54c54 -13 96 -20 124 -20c36 0 53 12 53 37c0 31 -20 42 -65 42c-7 0 -15 0 -24 -1v98z" />
    <glyph glyph-name="eacute" unicode="&#xe9;" horiz-adv-x="357" 
d="M328 137c-6 -94 -60 -145 -150 -145c-98 0 -150 63 -150 184v79c0 121 59 191 148 191c98 0 153 -65 153 -187v-61h-201v-28c0 -64 17 -95 56 -95c31 0 49 20 54 62h90zM128 265h107v24c0 49 -20 77 -51 77c-40 0 -56 -28 -56 -89v-12zM198 675h105l-133 -175h-60z" />
    <glyph glyph-name="ecircumflex" unicode="&#xea;" horiz-adv-x="357" 
d="M328 137c-6 -94 -60 -145 -150 -145c-98 0 -150 63 -150 184v79c0 121 59 191 148 191c98 0 153 -65 153 -187v-61h-201v-28c0 -64 17 -95 56 -95c31 0 49 20 54 62h90zM128 265h107v24c0 49 -20 77 -51 77c-40 0 -56 -28 -56 -89v-12zM45 500l85 175h98l85 -175h-59
l-75 105l-75 -105h-59z" />
    <glyph glyph-name="edieresis" unicode="&#xeb;" horiz-adv-x="357" 
d="M328 137c-6 -94 -60 -145 -150 -145c-98 0 -150 63 -150 184v79c0 121 59 191 148 191c98 0 153 -65 153 -187v-61h-201v-28c0 -64 17 -95 56 -95c31 0 49 20 54 62h90zM128 265h107v24c0 49 -20 77 -51 77c-40 0 -56 -28 -56 -89v-12zM46 528v112h101v-112h-101z
M211 528v112h101v-112h-101z" />
    <glyph glyph-name="egrave" unicode="&#xe8;" horiz-adv-x="357" 
d="M328 137c-6 -94 -60 -145 -150 -145c-98 0 -150 63 -150 184v79c0 121 59 191 148 191c98 0 153 -65 153 -187v-61h-201v-28c0 -64 17 -95 56 -95c31 0 49 20 54 62h90zM128 265h107v24c0 49 -20 77 -51 77c-40 0 -56 -28 -56 -89v-12zM56 675h105l87 -175h-59z" />
    <glyph glyph-name="iacute" unicode="&#xed;" horiz-adv-x="225" 
d="M29 0v80h38v277h-38v80h138v-357h38v-80h-176zM132 675h105l-133 -175h-60z" />
    <glyph glyph-name="icircumflex" unicode="&#xee;" horiz-adv-x="225" 
d="M29 0v80h38v277h-38v80h138v-357h38v-80h-176zM-21 500l85 175h98l85 -175h-59l-75 105l-75 -105h-59z" />
    <glyph glyph-name="idieresis" unicode="&#xef;" horiz-adv-x="225" 
d="M29 0v80h38v277h-38v80h138v-357h38v-80h-176zM-20 528v112h101v-112h-101zM145 528v112h101v-112h-101z" />
    <glyph glyph-name="igrave" unicode="&#xec;" horiz-adv-x="225" 
d="M29 0v80h38v277h-38v80h138v-357h38v-80h-176zM-10 675h105l87 -175h-59z" />
    <glyph glyph-name="ntilde" unicode="&#xf1;" horiz-adv-x="444" 
d="M379 317v-237h38v-80h-176v80h39v212c0 45 -11 66 -41 66c-31 0 -56 -14 -71 -41v-237h38v-80h-176v80h39v277h-39v80h129v-57c33 44 71 66 117 66c74 0 103 -42 103 -129zM358 646c-14 -75 -43 -112 -90 -112c-10 0 -20 2 -31 5l-41 14c-11 4 -20 4 -24 4
c-22 0 -33 -10 -41 -35h-45c13 72 44 109 89 109c10 0 21 -2 32 -6l42 -13c8 -3 16 -5 24 -5c21 0 32 13 40 39h45z" />
    <glyph glyph-name="oacute" unicode="&#xf3;" horiz-adv-x="359" 
d="M27 165v108c0 113 53 173 152 173s153 -60 153 -173v-108c0 -113 -54 -173 -153 -173c-100 0 -152 60 -152 173zM127 165c0 -60 16 -90 52 -90s53 30 53 90v108c0 60 -17 90 -53 90s-52 -30 -52 -90v-108zM199 675h105l-133 -175h-60z" />
    <glyph glyph-name="ocircumflex" unicode="&#xf4;" horiz-adv-x="359" 
d="M27 165v108c0 113 53 173 152 173s153 -60 153 -173v-108c0 -113 -54 -173 -153 -173c-100 0 -152 60 -152 173zM127 165c0 -60 16 -90 52 -90s53 30 53 90v108c0 60 -17 90 -53 90s-52 -30 -52 -90v-108zM46 500l85 175h98l85 -175h-59l-75 105l-75 -105h-59z" />
    <glyph glyph-name="odieresis" unicode="&#xf6;" horiz-adv-x="359" 
d="M27 165v108c0 113 53 173 152 173s153 -60 153 -173v-108c0 -113 -54 -173 -153 -173c-100 0 -152 60 -152 173zM127 165c0 -60 16 -90 52 -90s53 30 53 90v108c0 60 -17 90 -53 90s-52 -30 -52 -90v-108zM47 528v112h101v-112h-101zM212 528v112h101v-112h-101z" />
    <glyph glyph-name="ograve" unicode="&#xf2;" horiz-adv-x="359" 
d="M27 165v108c0 113 53 173 152 173s153 -60 153 -173v-108c0 -113 -54 -173 -153 -173c-100 0 -152 60 -152 173zM127 165c0 -60 16 -90 52 -90s53 30 53 90v108c0 60 -17 90 -53 90s-52 -30 -52 -90v-108zM57 675h105l87 -175h-59z" />
    <glyph glyph-name="otilde" unicode="&#xf5;" horiz-adv-x="359" 
d="M27 165v108c0 113 53 173 152 173s153 -60 153 -173v-108c0 -113 -54 -173 -153 -173c-100 0 -152 60 -152 173zM127 165c0 -60 16 -90 52 -90s53 30 53 90v108c0 60 -17 90 -53 90s-52 -30 -52 -90v-108zM316 646c-14 -75 -43 -112 -90 -112c-10 0 -20 2 -31 5l-41 14
c-11 4 -20 4 -24 4c-22 0 -33 -10 -41 -35h-45c13 72 44 109 89 109c10 0 21 -2 32 -6l42 -13c8 -3 16 -5 24 -5c21 0 32 13 40 39h45z" />
    <glyph glyph-name="scaron" unicode="&#x161;" horiz-adv-x="322" 
d="M28 0v152h73c8 -53 33 -81 67 -81c25 0 41 14 41 38c0 20 -13 34 -36 52l-88 68c-33 26 -53 64 -53 105c0 66 45 112 104 112c31 0 58 -14 84 -40v31h66v-130h-69c-11 42 -29 63 -60 63c-20 0 -35 -14 -35 -34c0 -16 11 -27 32 -43l78 -61c45 -35 67 -73 67 -122
c0 -70 -46 -118 -108 -118c-35 0 -63 14 -91 44v-36h-72zM27 675h59l75 -106l75 106h59l-85 -175h-98z" />
    <glyph glyph-name="uacute" unicode="&#xfa;" horiz-adv-x="433" 
d="M26 437h138v-291c0 -45 10 -67 43 -67s60 20 68 51v227h-38v80h138v-357h38v-80h-129v57c-33 -44 -71 -65 -117 -65c-74 0 -103 41 -103 128v237h-38v80zM236 675h105l-133 -175h-60z" />
    <glyph glyph-name="ucircumflex" unicode="&#xfb;" horiz-adv-x="433" 
d="M26 437h138v-291c0 -45 10 -67 43 -67s60 20 68 51v227h-38v80h138v-357h38v-80h-129v57c-33 -44 -71 -65 -117 -65c-74 0 -103 41 -103 128v237h-38v80zM83 500l85 175h98l85 -175h-59l-75 105l-75 -105h-59z" />
    <glyph glyph-name="udieresis" unicode="&#xfc;" horiz-adv-x="433" 
d="M26 437h138v-291c0 -45 10 -67 43 -67s60 20 68 51v227h-38v80h138v-357h38v-80h-129v57c-33 -44 -71 -65 -117 -65c-74 0 -103 41 -103 128v237h-38v80zM84 528v112h101v-112h-101zM249 528v112h101v-112h-101z" />
    <glyph glyph-name="ugrave" unicode="&#xf9;" horiz-adv-x="433" 
d="M26 437h138v-291c0 -45 10 -67 43 -67s60 20 68 51v227h-38v80h138v-357h38v-80h-129v57c-33 -44 -71 -65 -117 -65c-74 0 -103 41 -103 128v237h-38v80zM94 675h105l87 -175h-59z" />
    <glyph glyph-name="ydieresis" unicode="&#xff;" horiz-adv-x="403" 
d="M58 -185v80h44l49 132l-112 330h-34v80h168v-80h-36l65 -223l72 223h-40v80h164v-80h-36l-172 -462h47v-80h-179zM69 528v112h101v-112h-101zM234 528v112h101v-112h-101z" />
    <glyph glyph-name="zcaron" unicode="&#x17e;" horiz-adv-x="370" 
d="M18 0v82l218 281h-129v-64h-80v138h317v-83l-216 -280h141v74h75v-148h-326zM51 675h59l75 -106l75 106h59l-85 -175h-98z" />
    <glyph glyph-name="trademark" unicode="&#x2122;" horiz-adv-x="833" 
d="M110 713h228v-46h-82v-219h-63v219h-83v46zM395 713h83l69 -176l65 176h83v-265h-56v209l-78 -209h-29l-81 209v-209h-56v265z" />
    <glyph glyph-name="copyright" unicode="&#xa9;" horiz-adv-x="833" 
d="M416 718c98 0 187 -36 257 -106c68 -68 105 -157 105 -255c0 -99 -36 -188 -104 -254c-71 -70 -163 -108 -258 -108s-185 38 -254 107s-107 159 -107 255c0 95 39 186 108 256c68 69 154 105 253 105zM417 665c-84 0 -159 -30 -217 -89c-59 -60 -91 -138 -91 -219
c0 -82 32 -158 91 -217s136 -91 217 -91s158 32 219 92c58 57 89 131 89 216c0 83 -31 160 -89 218c-59 59 -135 90 -219 90zM589 441h-81c-7 48 -41 75 -93 75c-62 0 -103 -56 -103 -159c0 -100 40 -155 108 -155c51 0 85 29 92 82h81c-5 -87 -75 -146 -176 -146
c-118 0 -194 82 -194 216c0 137 79 222 196 222c96 0 164 -55 170 -135z" />
    <glyph glyph-name="logicalnot" unicode="&#xac;" horiz-adv-x="833" 
d="M124 421h585v-245h-81v164h-504v81z" />
    <glyph glyph-name="registered" unicode="&#xae;" horiz-adv-x="833" 
d="M416 718c99 0 189 -37 259 -108c67 -68 103 -156 103 -253c0 -100 -37 -189 -106 -256c-71 -69 -162 -106 -256 -106c-96 0 -187 39 -256 109c-68 69 -105 158 -105 253c0 96 39 188 109 258c68 68 154 103 252 103zM417 665c-84 0 -157 -30 -215 -88
c-60 -61 -93 -139 -93 -220s31 -157 89 -216c59 -59 136 -92 214 -92c85 0 162 31 223 90c58 56 90 132 90 213c0 87 -30 162 -88 221c-60 60 -135 92 -220 92zM269 566h156c114 0 171 -39 171 -110c0 -59 -32 -99 -90 -112l90 -183h-97l-80 169h-63v-169h-87v405zM356 511
v-127h57c64 0 94 18 94 62c0 46 -32 65 -98 65h-53z" />
    <glyph glyph-name="minus" unicode="&#x2212;" horiz-adv-x="833" 
d="M124 340h585v-83h-585v83z" />
    <glyph glyph-name="Eth" unicode="&#xd0;" horiz-adv-x="506" 
d="M25 681h186c191 0 263 -63 263 -234v-180c0 -189 -69 -267 -241 -267h-208v88h56v243h-81v60h81v202h-56v88zM199 594v-203h76v-60h-76v-244h22c97 0 135 48 135 161v220c0 92 -36 126 -128 126h-29z" />
    <glyph glyph-name="Thorn" unicode="&#xde;" horiz-adv-x="487" 
d="M25 0v88h56v505h-56v88h231v-88h-58v-56h67c132 0 193 -49 193 -164v-48c0 -115 -51 -168 -163 -168h-96v-69h57v-88h-231zM199 241h49c76 0 97 19 97 89v46c0 60 -26 78 -99 78h-47v-213z" />
    <glyph glyph-name="Yacute" unicode="&#xdd;" 
d="M12 681h207v-88h-49l80 -221l91 221h-49v88h196v-88h-40l-146 -325v-180h56v-88h-230v88h56v184l-131 321h-41v88zM269 924h105l-133 -175h-60z" />
    <glyph glyph-name="brokenbar" unicode="&#xa6;" 
d="M207 699h87v-370h-87v370zM207 199h87v-370h-87v370z" />
    <glyph glyph-name="degree" unicode="&#xb0;" horiz-adv-x="329" 
d="M165 713c79 0 144 -65 144 -145c0 -78 -64 -144 -145 -144c-80 0 -143 63 -143 144s64 145 144 145zM165 659c-50 0 -91 -40 -91 -90s41 -91 91 -91c51 0 90 42 90 91c0 50 -40 90 -90 90z" />
    <glyph glyph-name="divide" unicode="&#xf7;" horiz-adv-x="833" 
d="M417 551c37 0 67 -31 67 -68c0 -36 -29 -66 -67 -66s-67 29 -67 66s31 68 67 68zM124 339h585v-81h-585v81zM417 179c37 0 67 -30 67 -67c0 -36 -29 -66 -67 -66s-67 29 -67 66s31 67 67 67z" />
    <glyph glyph-name="eth" unicode="&#xf0;" horiz-adv-x="361" 
d="M28 165v108c0 112 54 172 147 172c18 0 33 -4 47 -12l-54 111l-99 -29l-13 36l95 28l-46 102h93l38 -76l80 26l12 -37l-75 -24l39 -81c35 -71 41 -138 41 -216v-108c0 -113 -52 -173 -152 -173c-99 0 -153 60 -153 173zM128 165c0 -60 17 -90 53 -90s52 30 52 90v108
c0 60 -16 90 -52 90s-53 -30 -53 -90v-108z" />
    <glyph glyph-name="mu" unicode="&#x3bc;" horiz-adv-x="590" 
d="M100 528h112l-61 -310c-4 -19 -6 -36 -6 -51c0 -63 31 -96 89 -96c83 0 124 59 149 186l53 271h110l-71 -361c-6 -31 -9 -52 -9 -65c0 -23 9 -32 33 -32c5 0 11 0 17 1l-16 -78c-23 -6 -47 -8 -73 -8c-48 0 -73 20 -73 61v7c-27 -44 -73 -69 -124 -69s-87 15 -115 53
l-48 -247h-112z" />
    <glyph glyph-name="multiply" unicode="&#xd7;" horiz-adv-x="833" 
d="M197 580l224 -224l225 224l57 -57l-224 -225l224 -224l-57 -58l-225 225l-224 -225l-57 58l224 224l-224 225z" />
    <glyph glyph-name="onehalf" unicode="&#xbd;" horiz-adv-x="657" 
d="M59 293v45h32v284h-32v45h98v-329h33v-45h-131zM78 -14l446 695h54l-446 -695h-54zM432 254v23c0 69 34 104 102 104c59 0 95 -34 95 -91c0 -34 -16 -70 -46 -114l-87 -129h82v53h54v-100h-202v48l87 127c30 44 46 78 46 109s-11 45 -34 45c-28 0 -39 -18 -39 -56v-19
h-58z" />
    <glyph glyph-name="onequarter" unicode="&#xbc;" horiz-adv-x="657" 
d="M59 293v45h32v284h-32v45h98v-329h33v-45h-131zM78 -14l446 695h54l-446 -695h-54zM470 147h71l1 139zM540 374h62v-227h30v-44h-30v-59h30v-44h-126v44h34v59h-115v48z" />
    <glyph glyph-name="onesuperior" unicode="&#xb9;" horiz-adv-x="257" 
d="M62 266v48h34v305h-34v47h103v-352h35v-48h-138z" />
    <glyph glyph-name="plusminus" unicode="&#xb1;" horiz-adv-x="833" 
d="M375 589h83v-163h251v-81h-251v-163h-83v163h-251v81h251v163zM124 89h585v-82h-585v82z" />
    <glyph glyph-name="thorn" unicode="&#xfe;" horiz-adv-x="398" 
d="M20 681h138v-286c24 33 59 50 99 50c66 0 106 -43 106 -122v-204c0 -81 -41 -127 -104 -127c-40 0 -72 15 -101 48v-145h38v-80h-176v80h38v705h-38v81zM263 294c0 42 -16 63 -48 63c-36 0 -57 -26 -57 -73v-122c0 -58 20 -86 61 -86c31 0 44 21 44 65v153z" />
    <glyph glyph-name="threequarters" unicode="&#xbe;" horiz-adv-x="657" 
d="M157 490c39 -4 63 -38 63 -96c0 -72 -34 -109 -102 -109c-66 0 -98 34 -98 103v17h57v-14c0 -39 13 -58 40 -58c34 0 39 20 39 63c0 50 -7 68 -56 68h-4v45h2c48 0 58 17 58 63c0 38 -10 55 -37 55c-26 0 -38 -18 -38 -56v-11h-57v14c0 67 31 100 95 100
c63 0 97 -34 97 -99c0 -55 -19 -84 -59 -85zM78 -14l446 695h54l-446 -695h-54zM470 147h71l1 139zM540 374h62v-227h30v-44h-30v-59h30v-44h-126v44h34v59h-115v48z" />
    <glyph glyph-name="threesuperior" unicode="&#xb3;" horiz-adv-x="257" 
d="M164 477c41 -5 66 -41 66 -103c0 -77 -35 -116 -107 -116c-68 0 -103 36 -103 109v19h61v-15c0 -41 13 -62 42 -62c35 0 41 22 41 67c0 54 -8 74 -59 74h-5v48h3c50 0 60 18 60 67c0 41 -10 59 -38 59s-41 -19 -41 -60v-12h-59v15c0 72 33 108 100 108
c66 0 101 -38 101 -107c0 -59 -20 -90 -62 -91z" />
    <glyph glyph-name="twosuperior" unicode="&#xb2;" horiz-adv-x="257" 
d="M20 538v25c0 74 37 112 107 112c62 0 101 -38 101 -98c0 -37 -17 -76 -48 -123l-92 -138h86v57h56v-107h-212v51l92 137c31 47 48 83 48 117c0 32 -11 48 -36 48c-29 0 -40 -19 -40 -60v-21h-62z" />
    <glyph glyph-name="yacute" unicode="&#xfd;" horiz-adv-x="403" 
d="M58 -185v80h44l49 132l-112 330h-34v80h168v-80h-36l65 -223l72 223h-40v80h164v-80h-36l-172 -462h47v-80h-179zM221 675h105l-133 -175h-60z" />
    </font>
</defs>
</svg>
