<?xml version="1.0" standalone="no"?>
<!DOCTYPE svg PUBLIC "-//W3C//DTD SVG 1.1//EN" "http://www.w3.org/Graphics/SVG/1.1/DTD/svg11.dtd" >
<svg xmlns="http://www.w3.org/2000/svg" width="100%" height="100%">
<metadata>
Created by FontXChange 20110222 at Mon Feb 17 13:36:32 2014
 By Zeeshan Jan
Copyright 1990 as an unpublished work by Bitstream Inc.  All rights reserved.  Confidential.
</metadata>
<defs>
<font id="GeometricSlab703BT-XtraBoldItal" horiz-adv-x="500" >
  <font-face 
    font-family="Geometric Slabserif 703"
    font-weight="700"
    font-style="italic"
    font-stretch="normal"
    units-per-em="1000"
    panose-1="2 0 8 3 0 0 0 0 0 0"
    ascent="800"
    descent="-200"
    x-height="475"
    cap-height="720"
    bbox="-175 -243 1322 963"
    underline-thickness="118"
    underline-position="-107"
    slope="10"
    stemh="161"
    stemv="180"
    unicode-range="U+0020-FB02"
  />
    <missing-glyph />
    <glyph glyph-name="space" unicode=" " horiz-adv-x="277" 
 />
    <glyph glyph-name="exclam" unicode="!" horiz-adv-x="329" 
d="M58 240c33 165 53 325 70 480h205c-51 -201 -85 -361 -104 -480h-171zM122 -14c-57 0 -100 44 -100 100c0 57 43 100 100 100s101 -43 101 -100c0 -56 -43 -100 -101 -100z" />
    <glyph glyph-name="quotedbl" unicode="&#x22;" horiz-adv-x="348" 
d="M37 702h107v-274h-107v274zM203 702h109v-274h-109v274z" />
    <glyph glyph-name="numbersign" unicode="#" horiz-adv-x="769" 
d="M334 716h122l-68 -193h115l69 193h122l-68 -193h132l-42 -112h-131l-39 -112h135l-41 -113h-134l-69 -192h-122l68 192h-115l-69 -192h-122l68 192h-134l42 113h132l40 112h-138l42 112h136zM345 411l-40 -113h120l40 113h-120z" />
    <glyph glyph-name="dollar" unicode="$" horiz-adv-x="553" 
d="M-13 13l31 218h101c15 -42 40 -69 80 -87l24 148c-122 55 -181 113 -181 209c0 111 91 200 228 200h18l9 53h65l-10 -57c25 -5 49 -13 73 -25l5 24h119l-34 -195h-106c-13 42 -34 67 -75 82l-23 -147c136 -61 201 -123 201 -218c0 -125 -98 -218 -244 -218
c-9 0 -18 0 -27 1l-14 -87l-64 3l16 97c-23 8 -44 20 -65 36l-10 -37h-117zM262 130c7 -1 13 -1 19 -1c47 0 76 26 76 63c0 33 -23 52 -73 73zM250 461l21 121c-55 0 -86 -25 -86 -56c0 -26 22 -48 65 -65z" />
    <glyph glyph-name="percent" unicode="%" horiz-adv-x="903" 
d="M882 185c0 -106 -84 -185 -186 -185c-103 0 -185 81 -185 185s83 186 185 186s186 -81 186 -186zM697 125c32 0 59 26 59 60c0 35 -26 60 -59 60s-60 -26 -60 -60c0 -33 28 -60 60 -60zM630 715h88l-445 -729h-88zM392 516c0 -106 -84 -185 -186 -185
c-103 0 -186 81 -186 185c0 103 84 185 186 185s186 -80 186 -185zM206 456c32 0 60 26 60 60c0 35 -27 60 -60 60s-59 -26 -59 -60c0 -33 27 -60 59 -60z" />
    <glyph glyph-name="ampersand" unicode="&#x26;" horiz-adv-x="807" 
d="M712 0h-184l-45 53c-72 -46 -140 -67 -222 -67c-164 0 -263 91 -263 229c0 91 56 160 172 222c-30 44 -48 81 -48 124c0 99 82 173 195 173c112 0 183 -67 183 -161c0 -62 -32 -115 -95 -159l108 -133c24 22 41 47 53 76h-53l22 126h262l-25 -140h-40
c-26 -69 -66 -127 -121 -181l23 -20h103zM305 503c46 19 69 45 69 78c0 31 -22 50 -51 50c-35 0 -56 -20 -56 -54c0 -18 13 -43 38 -74zM270 320c-55 -34 -82 -74 -82 -108c0 -40 35 -73 85 -73c32 0 76 12 114 39z" />
    <glyph glyph-name="quoteright" unicode="&#x2019;" horiz-adv-x="275" 
d="M56 474l74 246h161l-76 -246h-159z" />
    <glyph glyph-name="parenleft" unicode="(" horiz-adv-x="387" 
d="M114 -174c-47 111 -70 221 -70 337c0 224 88 427 246 571l113 -112c-113 -120 -179 -290 -179 -470c0 -92 13 -179 39 -269z" />
    <glyph glyph-name="parenright" unicode=")" horiz-adv-x="387" 
d="M277 734c47 -111 71 -221 71 -338c0 -224 -88 -427 -246 -571l-114 112c113 120 179 290 179 470c0 92 -13 180 -39 270z" />
    <glyph glyph-name="asterisk" unicode="*" horiz-adv-x="556" 
d="M253 720h109l-19 -147l134 71l37 -101l-153 -41l115 -101l-82 -69l-90 122l-88 -124l-82 72l114 100l-153 41l38 101l136 -71z" />
    <glyph glyph-name="plus" unicode="+" horiz-adv-x="833" 
d="M359 596h116v-241h234v-113h-234v-242h-116v242h-235v113h235v241z" />
    <glyph glyph-name="comma" unicode="," horiz-adv-x="275" 
d="M-26 -63l74 246h161l-76 -246h-159z" />
    <glyph glyph-name="hyphen" unicode="-" horiz-adv-x="331" 
d="M-5 152l30 171h267l-30 -171h-267z" />
    <glyph glyph-name="period" unicode="." horiz-adv-x="275" 
d="M6 88c0 58 46 99 95 99c61 0 103 -40 103 -99c0 -56 -43 -97 -98 -97s-100 40 -100 97z" />
    <glyph glyph-name="slash" unicode="/" horiz-adv-x="347" 
d="M337 734l-246 -827h-81l245 827h82z" />
    <glyph glyph-name="zero" unicode="0" horiz-adv-x="553" 
d="M494 262c-12 -69 -22 -123 -41 -162c-36 -74 -107 -114 -209 -114c-144 0 -226 68 -226 187c0 20 3 49 10 89l31 178c12 69 22 123 41 162c36 74 108 114 209 114c144 0 226 -68 226 -187c0 -20 -3 -49 -10 -89zM319 245l38 211c4 20 5 36 5 48c0 27 -22 48 -57 48
c-51 0 -61 -35 -72 -96l-37 -211c-4 -20 -5 -36 -5 -48c0 -26 22 -47 52 -47c57 0 65 34 76 95z" />
    <glyph glyph-name="one" unicode="1" horiz-adv-x="553" 
d="M54 0l23 130h77l78 442h-84l23 129h256l-101 -571h85l-23 -130h-334z" />
    <glyph glyph-name="two" unicode="2" horiz-adv-x="553" 
d="M-1 0l18 142l267 289c36 39 56 64 56 88c0 26 -21 44 -53 44c-41 0 -61 -28 -61 -85h-165c6 148 94 237 237 237c134 0 227 -82 227 -191c0 -73 -40 -134 -115 -207l-179 -175h125l7 41h143l-33 -183h-474z" />
    <glyph glyph-name="three" unicode="3" horiz-adv-x="553" 
d="M12 225h165c2 -54 22 -80 66 -80c46 0 77 34 77 85c0 40 -36 70 -88 70h-10l19 132c8 -1 16 -1 24 -1c66 0 104 34 104 79c0 34 -29 62 -65 62s-60 -22 -69 -67h-160c23 133 118 210 254 210c134 0 219 -72 219 -178c0 -85 -56 -146 -160 -172c77 -37 113 -87 113 -160
c0 -123 -104 -216 -259 -216c-146 0 -233 84 -233 198c0 12 1 25 3 38z" />
    <glyph glyph-name="four" unicode="4" horiz-adv-x="553" 
d="M143 0l20 116h96l10 58h-279l22 126l297 401h225l-73 -409h71l-21 -118h-70l-11 -58h71l-21 -116h-337zM293 292l47 244l-178 -235v-9h131z" />
    <glyph glyph-name="five" unicode="5" horiz-adv-x="553" 
d="M40 236h167c-3 -20 -4 -34 -4 -41c0 -37 18 -58 47 -58c41 0 69 54 69 127c0 60 -29 72 -110 72h-142l74 365h384l-27 -150h-235l-13 -77c28 4 53 6 77 6c111 0 172 -55 172 -153c0 -97 -30 -208 -55 -250c-38 -64 -97 -89 -195 -89c-143 0 -213 62 -213 190
c0 18 2 37 4 58z" />
    <glyph glyph-name="six" unicode="6" horiz-adv-x="553" 
d="M186 192c0 -44 21 -67 57 -67c34 0 53 18 67 57c11 32 20 79 20 107c0 43 -19 63 -59 63c-54 0 -85 -63 -85 -160zM367 503c1 11 2 18 2 21c0 37 -16 54 -56 54c-53 0 -70 -44 -86 -148c41 14 77 21 109 21c101 0 161 -58 161 -167c0 -200 -79 -298 -238 -298
c-154 0 -240 74 -240 206c0 23 4 53 10 91l21 128c17 101 32 177 72 227c43 54 105 77 194 77c145 0 223 -61 223 -180c0 -7 0 -18 -1 -32h-171z" />
    <glyph glyph-name="seven" unicode="7" horiz-adv-x="553" 
d="M91 0l274 559h-138l-15 -100h-159l36 242h478l-27 -173l-261 -528h-188z" />
    <glyph glyph-name="eight" unicode="8" horiz-adv-x="553" 
d="M137 396c-50 43 -76 89 -76 140c0 101 93 179 246 179c147 0 243 -76 243 -193c0 -68 -38 -122 -113 -159c57 -47 80 -92 80 -157c0 -131 -99 -219 -260 -219c-168 0 -263 87 -263 221c0 84 47 144 143 188zM172 228c0 -56 38 -89 91 -89c56 0 93 41 93 107
c0 44 -36 80 -87 80c-58 0 -97 -42 -97 -98zM226 503c0 -44 33 -75 79 -75s79 33 79 80c0 50 -29 80 -74 80c-50 0 -84 -35 -84 -85z" />
    <glyph glyph-name="nine" unicode="9" horiz-adv-x="553" 
d="M186 199c-1 -11 -2 -18 -2 -21c0 -37 17 -54 57 -54c53 0 70 44 86 148c-41 -14 -77 -21 -109 -21c-101 0 -161 58 -161 167c0 200 79 298 238 298c154 0 239 -73 239 -205c0 -23 -3 -54 -9 -92l-22 -127c-17 -101 -31 -178 -71 -228c-43 -54 -105 -77 -194 -77
c-145 0 -224 62 -224 181c0 7 1 17 2 31h170zM367 510c0 44 -20 67 -56 67c-34 0 -54 -18 -68 -57c-11 -32 -19 -79 -19 -107c0 -43 18 -63 58 -63c54 0 85 63 85 160z" />
    <glyph glyph-name="colon" unicode=":" horiz-adv-x="331" 
d="M6 88c0 58 46 99 95 99c61 0 103 -40 103 -99c0 -56 -43 -97 -98 -97s-100 40 -100 97zM51 376c0 58 46 99 95 99c61 0 103 -40 103 -99c0 -56 -43 -97 -98 -97s-100 40 -100 97z" />
    <glyph glyph-name="semicolon" unicode=";" horiz-adv-x="331" 
d="M-25 -63l75 246h160l-76 -246h-159zM64 376c0 58 46 99 95 99c61 0 103 -40 103 -99c0 -56 -43 -97 -98 -97s-100 40 -100 97z" />
    <glyph glyph-name="less" unicode="&#x3c;" horiz-adv-x="833" 
d="M704 593v-124l-417 -171l417 -170v-124l-575 237v114z" />
    <glyph glyph-name="equal" unicode="=" horiz-adv-x="833" 
d="M124 464h585v-113h-585v113zM124 245h585v-112h-585v112z" />
    <glyph glyph-name="greater" unicode="&#x3e;" horiz-adv-x="833" 
d="M129 4l575 238v114l-575 237v-124l417 -170l-417 -171v-124z" />
    <glyph glyph-name="question" unicode="?" horiz-adv-x="549" 
d="M242 -14c-57 0 -101 44 -101 100c0 57 44 100 101 100s101 -43 101 -100c0 -56 -43 -100 -101 -100zM172 242l31 168h7c94 0 142 37 142 106c0 44 -24 70 -67 70c-38 0 -62 -24 -64 -69h-184c13 138 106 217 257 217c146 0 244 -91 244 -220c0 -106 -63 -184 -176 -214
l-13 -58h-177z" />
    <glyph glyph-name="at" unicode="@" horiz-adv-x="1000" 
d="M585 340c-6 50 -34 76 -78 76c-66 0 -127 -90 -127 -199c0 -55 24 -85 65 -85c53 0 99 40 115 106zM567 128c-37 -54 -81 -77 -144 -77c-106 0 -162 57 -162 168c0 160 107 277 240 277c50 0 87 -20 112 -60l25 45h101l-75 -298c-1 -6 -2 -11 -2 -16c0 -19 10 -29 31 -29
c88 0 168 108 168 234c0 153 -125 264 -316 264c-97 0 -179 -24 -246 -71c-101 -72 -158 -183 -158 -308c0 -197 143 -323 365 -323c106 0 207 31 291 91l47 -66c-101 -76 -214 -114 -338 -114c-127 0 -233 33 -314 95c-102 79 -152 182 -152 314c0 110 35 210 102 292
c96 118 236 182 404 182c114 0 214 -33 283 -87c88 -69 132 -156 132 -268c0 -109 -44 -202 -125 -267c-46 -37 -103 -56 -161 -56c-69 0 -105 26 -108 78z" />
    <glyph glyph-name="A" unicode="A" horiz-adv-x="771" 
d="M-45 720l25 -141h72l202 -438h-73l24 -141h494l-23 141h-74l61 438h54l-27 141h-322l23 -141h86l-11 -102h-180l-44 102h68l-26 141h-329zM336 354h118l-24 -225z" />
    <glyph glyph-name="B" unicode="B" horiz-adv-x="667" 
d="M-39 0l25 141h72l77 438h-72l25 141h319c171 0 259 -67 259 -183c0 -98 -62 -157 -186 -180c98 -34 145 -84 145 -159c0 -118 -83 -198 -247 -198h-417zM298 431h45c78 0 117 25 117 85c0 43 -28 63 -88 63h-48zM247 141h57c83 0 123 29 123 92c0 52 -35 82 -99 82h-50z
" />
    <glyph glyph-name="C" unicode="C" horiz-adv-x="741" 
d="M568 666l11 54h182l-48 -270h-182c-19 67 -65 102 -129 102c-99 0 -175 -86 -175 -219c0 -98 46 -152 135 -152c65 0 113 30 148 91l190 -83c-66 -134 -182 -203 -338 -203c-202 0 -339 147 -339 351c0 97 31 190 88 262c71 91 157 135 265 135c72 0 133 -22 192 -68z
" />
    <glyph glyph-name="D" unicode="D" horiz-adv-x="797" 
d="M410 720c106 0 184 -11 246 -52c76 -51 119 -140 119 -258c0 -122 -40 -231 -110 -306c-83 -89 -187 -104 -336 -104h-368l25 141h72l77 438h-72l25 141h322zM395 579h-71l-77 -438h62c180 0 270 83 270 265c0 116 -60 173 -184 173z" />
    <glyph glyph-name="E" unicode="E" horiz-adv-x="657" 
d="M-45 0l25 141h73l73 438h-69l25 141h600l-37 -268h-134l-11 127h-178l-24 -137h132l-26 -143h-131l-28 -158h199l55 144h134l-63 -285h-615z" />
    <glyph glyph-name="F" unicode="F" horiz-adv-x="632" 
d="M-32 0l25 141h73l73 438h-69l25 141h571l-32 -268h-135l-12 127h-152l-24 -137h122l-25 -143h-123l-27 -158h75l-25 -141h-340z" />
    <glyph glyph-name="G" unicode="G" horiz-adv-x="847" 
d="M591 667l12 53h189l-44 -253h-175c-28 64 -75 94 -146 94c-121 0 -200 -87 -200 -228c0 -105 57 -161 157 -161c70 0 117 26 168 87h-89l24 139h355l-24 -139h-53l-46 -259h-145l13 75c-57 -60 -132 -89 -229 -89c-200 0 -336 143 -336 349c0 225 149 397 374 397
c73 0 131 -19 195 -65z" />
    <glyph glyph-name="H" unicode="H" horiz-adv-x="785" 
d="M314 141l-25 -141h-328l25 141h72l77 438h-72l25 141h328l-25 -141h-68l-23 -133h216l23 133h-68l26 141h328l-25 -141h-73l-77 -438h72l-25 -141h-327l25 141h67l28 163h-215l-29 -163h68z" />
    <glyph glyph-name="I" unicode="I" horiz-adv-x="377" 
d="M314 141l-25 -141h-328l25 141h72l77 438h-72l25 141h328l-25 -141h-68l-77 -438h68z" />
    <glyph glyph-name="J" unicode="J" horiz-adv-x="387" 
d="M-59 -180l30 166c10 -2 17 -3 23 -3c40 0 52 34 64 104l86 492h-69l25 141h324l-25 -141h-66l-92 -526c-28 -160 -65 -243 -204 -243c-30 0 -62 3 -96 10z" />
    <glyph glyph-name="K" unicode="K" horiz-adv-x="748" 
d="M302 579l-25 141h-316l25 -141h72l77 -438h-72l25 -141h315l-24 141h-56l-34 194l213 -194h-61l25 -141h320l-25 141h-50l-241 225l152 213h62l-25 141h-304l25 -141h48l-145 -213l-37 213h56z" />
    <glyph glyph-name="L" unicode="L" horiz-adv-x="606" 
d="M410 141l57 144h131l-62 -285h-575l25 141h72l77 438h-72l25 141h328l-25 -141h-68l-77 -438h164z" />
    <glyph glyph-name="M" unicode="M" horiz-adv-x="940" 
d="M305 141l-25 -141h-319l25 141h72l77 438h-72l25 141h314l50 -353l182 353h336l-25 -141h-72l-77 -438h72l-25 -141h-315l25 141h55l86 425l-216 -420h-112l-56 399l-64 -404h59z" />
    <glyph glyph-name="N" unicode="N" horiz-adv-x="773" 
d="M-39 0l25 141h72l77 438h-72l25 141h249l157 -420l44 279h-63l25 141h316l-24 -141h-72l-102 -579h-157l-171 458l-50 -317h63l-25 -141h-317z" />
    <glyph glyph-name="O" unicode="O" horiz-adv-x="811" 
d="M388 -16c-222 0 -364 143 -364 341c0 239 172 411 403 411c220 0 360 -144 360 -341c0 -239 -174 -411 -399 -411zM220 333c0 -109 68 -177 171 -177c117 0 201 103 201 232c0 110 -66 176 -170 176c-114 0 -202 -98 -202 -231z" />
    <glyph glyph-name="P" unicode="P" horiz-adv-x="662" 
d="M246 141h68l-25 -141h-328l25 141h72l77 438h-72l25 141h307c175 0 265 -75 265 -205c0 -159 -110 -246 -308 -246h-83zM294 409h57c71 0 116 41 116 91c0 46 -40 79 -99 79h-44z" />
    <glyph glyph-name="Q" unicode="Q" horiz-adv-x="811" 
d="M592 592h135v144h-260l-25 -89c-20 1 -39 2 -57 2c-220 0 -361 -142 -361 -340c0 -239 172 -411 403 -411c220 0 360 144 360 341c0 156 -71 284 -195 353zM512 434c51 -42 80 -110 80 -191c0 -108 -66 -173 -170 -173c-114 0 -202 98 -202 231c0 103 58 168 157 176
l-28 -94l135 -43z" />
    <glyph glyph-name="R" unicode="R" horiz-adv-x="713" 
d="M247 579h67l-25 141h-328l25 -141h72l77 -438h-72l25 -141h363c165 0 248 57 248 168c0 92 -54 155 -168 180c60 23 80 43 80 91c0 8 -2 23 -6 46l-16 94h64l-25 141h-256l34 -193c4 -24 8 -45 8 -63c0 -41 -33 -47 -94 -47h-45zM298 291h65c87 0 131 -30 131 -83
c0 -47 -33 -67 -106 -67h-64z" />
    <glyph glyph-name="S" unicode="S" horiz-adv-x="667" 
d="M-22 0l44 251h174c16 -71 73 -117 142 -117c52 0 81 31 81 62c0 62 -69 76 -203 129c-118 47 -179 107 -179 210c0 115 99 200 256 200c86 0 152 -22 204 -70l9 55h170l-40 -226h-172c-19 72 -74 112 -146 112c-46 0 -74 -22 -74 -53c0 -51 55 -59 135 -90
c159 -61 244 -123 244 -239c0 -130 -107 -239 -265 -239c-77 0 -139 21 -203 69l-10 -54h-167z" />
    <glyph glyph-name="T" unicode="T" horiz-adv-x="630" 
d="M437 141l-25 -141h-328l25 141h72l78 438h-67l-49 -119h-119l43 260h603l-36 -260h-121l-7 119h-60l-77 -438h68z" />
    <glyph glyph-name="U" unicode="U" horiz-adv-x="773" 
d="M131 579h-72l25 141h327l-25 -141h-66l-44 -248c-7 -40 -9 -67 -9 -78c0 -58 35 -92 94 -92c63 0 109 50 126 147l48 271h-68l25 141h328l-25 -141h-72l-55 -301c-39 -213 -126 -292 -337 -292c-161 0 -261 86 -261 207c0 30 4 63 11 101z" />
    <glyph glyph-name="V" unicode="V" horiz-adv-x="708" 
d="M97 141h-62l26 -141h313l-27 141h-66l40 329l156 -329h-71l25 -141h340l-24 141h-78l-308 579h-169z" />
    <glyph glyph-name="W" unicode="W" horiz-adv-x="968" 
d="M167 0l-74 579h-59l26 141h295l-25 -141h-63l26 -302l149 302h-59l25 141h254l-25 -141h-63l56 -307l118 307h-53l25 141h297l-23 -141h-65l-255 -579h-148l-51 349l-155 -349h-153z" />
    <glyph glyph-name="X" unicode="X" horiz-adv-x="769" 
d="M-22 0l25 141h47l225 241l-130 197h-64l24 141h309l-25 -141h-53l63 -105l101 105h-52l25 141h320l-24 -141h-52l-217 -220l141 -218h50l-25 -141h-297l27 141h47l-66 126l-105 -126h54l-25 -141h-323z" />
    <glyph glyph-name="Y" unicode="Y" horiz-adv-x="750" 
d="M273 269l-157 310h-72l25 141h328l-25 -141h-68l72 -150l120 150h-66l24 141h340l-25 -141h-77l-233 -313l-21 -125h65l-25 -141h-318l25 141h66z" />
    <glyph glyph-name="Z" unicode="Z" horiz-adv-x="662" 
d="M-14 0l15 86l394 493h-162l-39 -101h-132l45 242h558l-14 -84l-386 -495h170l60 146h122l-55 -287h-576z" />
    <glyph glyph-name="bracketleft" unicode="[" horiz-adv-x="387" 
d="M-15 720l145 -822h295l-19 110h-116l-107 602h117l-19 110h-296z" />
    <glyph glyph-name="backslash" unicode="\" horiz-adv-x="398" 
d="M261 -93h-81l-41 827h81z" />
    <glyph glyph-name="bracketright" unicode="]" horiz-adv-x="387" 
d="M401 720l-145 -822h-295l20 110h116l106 602h-116l19 110h295z" />
    <glyph glyph-name="asciicircum" unicode="^" horiz-adv-x="1000" 
d="M429 714h141l227 -275h-129l-168 167l-169 -167h-129z" />
    <glyph glyph-name="underscore" unicode="_" 
d="M0 -119h500v-117h-500v117z" />
    <glyph glyph-name="quoteleft" unicode="&#x2018;" horiz-adv-x="275" 
d="M56 474l74 246h161l-76 -246h-159z" />
    <glyph glyph-name="a" unicode="a" horiz-adv-x="604" 
d="M275 338c-60 0 -98 -43 -98 -108c0 -55 31 -88 83 -88c55 0 92 48 92 111c0 52 -29 85 -77 85zM322 0l8 44c-49 -38 -90 -57 -145 -57c-109 0 -187 84 -187 215c0 171 107 284 256 284c60 0 104 -20 141 -66l9 55h198l-24 -144h-44l-35 -189h51l-23 -142h-205z" />
    <glyph glyph-name="b" unicode="b" horiz-adv-x="637" 
d="M131 577h-58l25 143h234l-48 -270c35 24 73 36 114 36c111 0 197 -87 197 -221c0 -163 -106 -277 -234 -277c-67 0 -116 24 -150 75l-11 -63h-231l25 142h58zM238 229c0 -51 33 -86 82 -86c55 0 95 47 95 104c0 48 -34 83 -83 83c-55 0 -94 -41 -94 -101z" />
    <glyph glyph-name="c" unicode="c" horiz-adv-x="537" 
d="M341 198c-14 -36 -42 -54 -80 -54c-50 0 -85 41 -85 97c0 51 35 86 82 86c34 0 66 -17 88 -50l135 103c-62 70 -147 107 -241 107c-144 0 -243 -98 -243 -244c0 -143 101 -253 242 -253c55 0 101 16 141 50l8 -38h137l-36 196h-148z" />
    <glyph glyph-name="d" unicode="d" horiz-adv-x="604" 
d="M322 0l8 44c-49 -38 -90 -57 -145 -57c-109 0 -187 84 -187 215c0 171 108 284 254 284c53 0 93 -15 120 -46l24 138h-58l25 142h232l-96 -578h51l-23 -142h-205zM275 338c-60 0 -98 -43 -98 -108c0 -55 31 -88 83 -88c55 0 92 48 92 111c0 52 -29 85 -77 85z" />
    <glyph glyph-name="e" unicode="e" horiz-adv-x="551" 
d="M352 160l122 -78c-58 -62 -136 -94 -225 -94c-153 0 -250 88 -250 236c0 149 110 262 277 262c144 0 233 -88 233 -239c0 -12 -1 -25 -2 -38h-327c0 -53 33 -86 86 -86c32 0 58 12 86 37zM185 278h159c0 4 1 7 1 10c0 43 -29 70 -73 70c-46 0 -75 -26 -87 -80z" />
    <glyph glyph-name="f" unicode="f" horiz-adv-x="347" 
d="M-32 721l26 -142h58l34 -190h-59l25 -143h59c27 -184 52 -246 195 -246c22 0 51 4 88 11l-23 133c-14 0 -22 -1 -24 -1c-48 0 -55 22 -66 103h63l-24 143h-60l-33 190h59l-23 142h-295z" />
    <glyph glyph-name="g" unicode="g" horiz-adv-x="604" 
d="M275 -61c-60 0 -98 43 -98 108c0 55 31 88 83 88c55 0 92 -48 92 -111c0 -52 -29 -85 -77 -85zM-18 425l43 -124c57 35 115 53 176 53c79 0 112 -45 131 -148c-46 43 -89 63 -144 63c-109 0 -189 -81 -189 -203c0 -161 107 -275 255 -275c60 0 104 20 141 66l9 -55h198
l-24 144h-44l-56 308c-28 158 -90 232 -255 232c-83 0 -162 -20 -241 -61z" />
    <glyph glyph-name="h" unicode="h" horiz-adv-x="623" 
d="M282 142l-26 -142h-287l25 142h58l78 435h-58l25 143h235l-57 -312c51 47 109 71 168 71c72 0 111 -34 111 -98c0 -14 -5 -41 -12 -83l-28 -156h58l-25 -142h-237l53 298c1 4 1 8 1 12c0 24 -12 34 -39 34c-36 0 -63 -23 -72 -73l-22 -129h51z" />
    <glyph glyph-name="i" unicode="i" horiz-adv-x="340" 
d="M102 540l28 154h194l-26 -154h-196zM291 142l-27 -142h-296l26 142h57l34 190h-58l25 143h236l-58 -333h61z" />
    <glyph glyph-name="j" unicode="j" horiz-adv-x="329" 
d="M102 540l28 154h194l-26 -154h-196zM210 27c-29 -166 -67 -234 -214 -234c-24 0 -47 2 -71 7l31 163c11 -2 18 -3 24 -3c36 0 46 23 54 72l51 300h-67l25 143h245z" />
    <glyph glyph-name="k" unicode="k" horiz-adv-x="602" 
d="M-26 0l26 142h46l77 436h-61l24 142h239l-82 -463l129 101h-48l20 117h247l-24 -141h-52l-108 -87l89 -105h45l-24 -142h-256l16 112h51l-83 101h-8l-37 -213h-226z" />
    <glyph glyph-name="l" unicode="l" horiz-adv-x="340" 
d="M291 142l-27 -142h-296l26 142h57l77 435h-58l25 143h237l-102 -578h61z" />
    <glyph glyph-name="m" unicode="m" horiz-adv-x="866" 
d="M-32 0l26 142h58l34 190h-60l27 143h222l-12 -66c53 49 101 75 153 75c49 0 81 -18 104 -60c52 40 106 60 161 60c70 0 114 -40 114 -99c0 -25 -3 -42 -5 -53l-34 -190h60l-26 -142h-237l45 259c3 17 6 32 6 44c0 26 -12 38 -36 38c-32 0 -49 -23 -57 -68l-23 -131h39
l-26 -142h-206l44 244c5 25 7 44 7 55c0 28 -10 40 -36 40c-37 0 -48 -28 -58 -80l-22 -117h35l-25 -142h-272z" />
    <glyph glyph-name="n" unicode="n" horiz-adv-x="623" 
d="M282 142l-26 -142h-287l25 142h58l33 190h-57l25 143h222l-13 -79c57 55 117 83 181 83c72 0 111 -34 111 -98c0 -14 -5 -41 -12 -83l-28 -156h58l-25 -142h-237l53 298c1 4 1 8 1 12c0 24 -12 34 -39 34c-36 0 -63 -23 -72 -73l-22 -129h51z" />
    <glyph glyph-name="o" unicode="o" horiz-adv-x="567" 
d="M247 -11c-152 0 -250 97 -250 225c0 156 121 272 280 272c150 0 249 -95 249 -225c0 -160 -121 -272 -279 -272zM255 151c49 0 91 44 91 96c0 45 -32 78 -77 78c-49 0 -90 -43 -90 -97c0 -46 30 -77 76 -77z" />
    <glyph glyph-name="p" unicode="p" horiz-adv-x="637" 
d="M270 -196l-9 44c38 -38 83 -56 136 -56c111 0 197 88 197 225c0 155 -109 274 -240 274c-61 0 -111 -26 -144 -75l-23 129h63l-25 142h-294l25 -142h58l70 -398h-58l25 -143h219zM235 55c0 51 34 87 83 87c55 0 94 -47 94 -104c0 -48 -33 -84 -82 -84
c-55 0 -95 41 -95 101z" />
    <glyph glyph-name="q" unicode="q" horiz-adv-x="604" 
d="M461 -66h51l-24 -142h-283l25 142h52l15 87c-26 -21 -66 -34 -112 -34c-109 0 -187 83 -187 215c0 170 106 284 252 284c60 0 105 -20 145 -66l9 55h198l-24 -144h-45zM275 338c-60 0 -98 -43 -98 -108c0 -55 31 -88 83 -88c55 0 92 48 92 111c0 52 -29 85 -77 85z" />
    <glyph glyph-name="r" unicode="r" horiz-adv-x="493" 
d="M282 142l-26 -142h-287l25 142h58l33 190h-57l25 143h227l-11 -64h9c22 50 57 76 104 76c54 0 91 -38 91 -93c0 -65 -41 -112 -100 -112c-50 0 -88 28 -97 83h-9l-36 -223h51z" />
    <glyph glyph-name="s" unicode="s" horiz-adv-x="495" 
d="M-16 0l26 159h113c6 -48 31 -73 75 -73c28 0 46 16 46 36c0 33 -44 49 -105 81c-66 35 -100 74 -100 131c0 83 73 152 180 152c48 0 93 -14 137 -40l7 29h107l-24 -145h-111c-15 37 -37 55 -68 55c-25 0 -41 -12 -41 -29c0 -28 39 -41 98 -73c75 -41 111 -84 111 -145
c0 -87 -75 -150 -187 -150c-52 0 -102 14 -146 41l-5 -29h-113z" />
    <glyph glyph-name="t" unicode="t" horiz-adv-x="352" 
d="M267 293l-23 117c-4 22 -7 37 -7 45c0 20 14 32 42 32c5 0 10 0 16 -1l-26 139h-105c-83 0 -121 -13 -121 -71c0 -21 3 -56 12 -103l30 -158h-60l25 -143h60l28 -150h176l-27 150h59l-25 143h-54z" />
    <glyph glyph-name="u" unicode="u" horiz-adv-x="604" 
d="M297 332l26 143h229l-58 -332h58l-25 -143h-223l14 78c-57 -55 -118 -83 -182 -83c-72 0 -111 34 -111 98c0 15 5 43 12 84l28 155h-58l25 143h237l-53 -298c-1 -4 -1 -9 -1 -13c0 -24 12 -34 39 -34c36 0 63 23 72 73l22 129h-51z" />
    <glyph glyph-name="v" unicode="v" horiz-adv-x="558" 
d="M120 0l-81 332h-54l25 143h248l-25 -143h-36l43 -175l92 175h-45l25 143h255l-26 -143h-38l-197 -332h-186z" />
    <glyph glyph-name="w" unicode="w" horiz-adv-x="808" 
d="M106 0l-74 332h-43l25 143h239l-24 -143h-45l29 -139l142 282h98l35 -281l84 138h-45l23 143h265l-26 -143h-42l-218 -332h-136l-31 236l-123 -236h-133z" />
    <glyph glyph-name="x" unicode="x" horiz-adv-x="551" 
d="M-33 0l24 142h52l122 110l-76 80h-46l26 143h176l-14 -76l42 -47l45 45l13 78h204l-26 -143h-44l-96 -86l92 -104h38l-25 -142h-193l18 101l-42 47l-43 -45l-20 -103h-227z" />
    <glyph glyph-name="y" unicode="y" horiz-adv-x="604" 
d="M4 -208l26 142h71l36 59l-84 339h-58l24 143h266l-22 -134h-42l38 -177l107 177h-51l24 134h266l-27 -143h-39l-264 -398h71l-26 -142h-316z" />
    <glyph glyph-name="z" unicode="z" horiz-adv-x="549" 
d="M6 475l23 -148l266 -205h-120l-18 52h-113l33 -174h438l-28 151l-268 200h130l20 -53h110l-35 177h-438z" />
    <glyph glyph-name="braceleft" unicode="{" 
d="M436 721v-118c-7 0 -14 1 -20 1c-68 0 -81 -21 -81 -89v-117c0 -85 -20 -122 -103 -139c84 -17 103 -53 103 -138v-118c0 -67 13 -88 80 -88c7 0 14 1 21 1v-118c-14 0 -27 -1 -40 -1c-64 0 -112 6 -146 24c-47 25 -52 68 -52 137v125c0 86 -28 118 -106 118
c-5 0 -12 -1 -18 -1v118c6 0 12 -1 18 -1c78 0 106 34 106 119v124c0 69 5 113 52 138c34 18 83 24 147 24c12 0 25 -1 39 -1z" />
    <glyph glyph-name="bar" unicode="|" 
d="M192 764h117v-1000h-117v1000z" />
    <glyph glyph-name="braceright" unicode="}" 
d="M65 721c14 0 27 1 39 1c64 0 112 -6 147 -24c47 -25 52 -69 52 -138v-124c0 -86 28 -119 106 -119c6 0 12 1 18 1v-118c-6 0 -12 1 -18 1c-78 0 -106 -33 -106 -118v-125c0 -69 -5 -113 -52 -138c-33 -18 -80 -23 -142 -23c-14 0 -29 1 -44 1v118c8 0 15 -1 21 -1
c68 0 80 21 80 88v118c0 84 19 121 103 138c-84 17 -103 54 -103 139v117c0 66 -12 89 -78 89c-7 0 -15 -1 -23 -1v118z" />
    <glyph glyph-name="asciitilde" unicode="~" horiz-adv-x="833" 
d="M747 400v-124c-64 -44 -124 -67 -184 -67c-30 0 -59 5 -84 14c-72 25 -137 50 -205 50c-59 0 -117 -27 -187 -77v124c71 46 133 70 189 70s101 -14 144 -28c48 -16 94 -36 146 -36c58 0 115 26 181 74z" />
    <glyph glyph-name="exclamdown" unicode="&#xa1;" horiz-adv-x="329" 
d="M206 734c57 0 101 -44 101 -100c0 -57 -44 -100 -101 -100s-101 43 -101 100c0 56 43 100 101 100zM271 480c-33 -165 -54 -325 -71 -480h-204c51 201 85 361 104 480h171z" />
    <glyph glyph-name="cent" unicode="&#xa2;" horiz-adv-x="553" 
d="M216 167l54 184h-4c-62 0 -99 -42 -99 -105c0 -35 16 -61 49 -79zM126 -123l39 142c-99 31 -151 107 -151 218c0 147 100 254 240 254c10 0 24 -1 41 -3l33 118h68l-38 -137l39 -26l8 38h136l-35 -196h-138c-16 31 -31 49 -56 56l-56 -187c9 -2 17 -3 24 -3
c30 0 57 17 87 49l126 -97c-62 -68 -138 -102 -214 -102c-11 0 -28 1 -50 3l-36 -127h-67z" />
    <glyph glyph-name="sterling" unicode="&#xa3;" horiz-adv-x="553" 
d="M-25 -4l26 163c64 12 86 60 94 159h-73l13 89h68c15 205 100 309 249 309c120 0 200 -74 200 -188c0 -8 0 -17 -1 -26h-159v10c0 43 -12 64 -39 64c-49 0 -65 -55 -75 -169h125l-12 -89h-124c-10 -74 -23 -124 -42 -151c24 -14 44 -21 65 -21c34 0 56 20 59 57h168
c-14 -137 -89 -214 -178 -214c-52 0 -108 21 -170 63c-41 -41 -85 -60 -141 -60c-13 0 -31 2 -53 4z" />
    <glyph glyph-name="fraction" unicode="&#x2044;" horiz-adv-x="167" 
d="M-175 0l430 701h86l-430 -701h-86z" />
    <glyph glyph-name="yen" unicode="&#xa5;" horiz-adv-x="553" 
d="M197 233h-203l14 79h173l-40 82h-119l14 79h66l-49 99h-49l23 129h268l-23 -129h-56l70 -188l110 188h-58l23 129h278l-23 -129h-56l-65 -99h85l-13 -79h-125l-54 -82h164l-14 -79h-187l-15 -103h67l-23 -130h-287l23 130h64z" />
    <glyph glyph-name="florin" unicode="&#x192;" horiz-adv-x="553" 
d="M-20 -183l20 145c29 -10 51 -15 68 -15c60 0 66 49 77 133l28 205h-110v137h129c27 209 88 293 247 293c28 0 64 -5 107 -15l-16 -146c-28 11 -51 18 -72 18c-59 0 -75 -45 -84 -150h123v-137h-140l-24 -182c-27 -200 -76 -304 -233 -304c-39 0 -79 6 -120 18z" />
    <glyph glyph-name="section" unicode="&#xa7;" horiz-adv-x="551" 
d="M-6 -131l29 168h121l-7 -54h40h27c18 0 32 12 32 30c0 10 -10 38 -33 68l-136 179c-39 51 -58 99 -58 142c0 77 52 128 140 128h3c-13 27 -21 52 -21 76c0 89 63 114 180 114h204l-29 -159h-121l4 46h-39c-31 0 -45 -8 -45 -28c0 -13 9 -30 27 -53l145 -187
c40 -52 60 -105 60 -145c0 -75 -56 -129 -141 -132c11 -21 16 -41 16 -64c0 -110 -80 -129 -220 -129h-178zM263 215c27 -36 47 -55 70 -55s41 18 41 41c0 21 -10 46 -31 74l-81 110c-27 37 -48 55 -69 55c-25 0 -43 -19 -43 -44c0 -16 13 -47 38 -81z" />
    <glyph glyph-name="currency" unicode="&#xa4;" horiz-adv-x="606" 
d="M87 705l99 -98c32 22 70 36 117 36c45 0 85 -12 119 -36l98 98l58 -57l-98 -100c23 -35 34 -73 34 -116c0 -42 -11 -81 -34 -116l98 -99l-58 -58l-98 99c-35 -25 -73 -36 -118 -36s-82 11 -118 36l-99 -99l-57 58l98 99c-23 34 -35 72 -35 116s12 83 35 116l-98 100z
M304 559c-70 0 -127 -58 -127 -127c0 -70 56 -127 127 -127c70 0 127 57 127 127c0 69 -57 127 -127 127z" />
    <glyph glyph-name="quotesingle" unicode="'" horiz-adv-x="181" 
d="M37 702h107v-274h-107v274z" />
    <glyph glyph-name="quotedblleft" unicode="&#x201c;" horiz-adv-x="549" 
d="M56 474l74 246h161l-76 -246h-159zM329 474l74 246h161l-76 -246h-159z" />
    <glyph glyph-name="guillemotleft" unicode="&#xab;" horiz-adv-x="545" 
d="M275 398l-127 -170l91 -151h-106l-101 158l124 163h119zM489 398l-127 -170l91 -151h-106l-101 158l124 163h119z" />
    <glyph glyph-name="guilsinglleft" unicode="&#x2039;" horiz-adv-x="331" 
d="M280 398l-127 -170l91 -151h-107l-101 158l125 163h119z" />
    <glyph glyph-name="guilsinglright" unicode="&#x203a;" horiz-adv-x="331" 
d="M17 77l127 170l-91 151h106l102 -158l-125 -163h-119z" />
    <glyph glyph-name="fi" unicode="&#xfb01;" horiz-adv-x="687" 
d="M-32 0l26 142h58l34 190h-59l25 143h59c27 184 52 246 195 246c22 0 51 -4 88 -11l-23 -133c-14 0 -22 1 -24 1c-48 0 -55 -22 -66 -103h63l-24 -143h-60l-33 -190h59l-23 -142h-295zM639 142l-28 -142h-295l25 142h58l33 190h-58l25 143h237l-58 -333h61zM450 540
l27 154h195l-27 -154h-195z" />
    <glyph glyph-name="fl" unicode="&#xfb02;" horiz-adv-x="687" 
d="M642 142l-28 -142h-295l25 142h58l76 435h-57l25 143h236l-102 -578h62zM-32 0l26 142h58l34 190h-59l25 143h59c27 184 52 246 195 246c22 0 51 -4 88 -11l-23 -133c-14 0 -22 1 -24 1c-48 0 -55 -22 -66 -103h63l-24 -143h-60l-33 -190h59l-23 -142h-295z" />
    <glyph glyph-name="endash" unicode="&#x2013;" 
d="M-21 190l21 118h521l-21 -118h-521z" />
    <glyph glyph-name="dagger" unicode="&#x2020;" horiz-adv-x="551" 
d="M125 -136l90 506h-88l-8 -41h-111l34 192h111l-7 -42h88l24 137h-49l18 104h223l-18 -105h-52l-24 -136h88l7 42h111l-34 -192h-111l8 41h-88l-90 -506h-122z" />
    <glyph glyph-name="daggerdbl" unicode="&#x2021;" horiz-adv-x="551" 
d="M303 168h88l7 41h111l-33 -192h-111l7 41h-88l-16 -89h49l-18 -105h-224l19 105h52l16 89h-88l-8 -41h-111l34 192h111l-7 -41h88l46 248h-88l-8 -41h-111l34 192h111l-7 -41h88l16 90h-50l19 104h223l-18 -105h-52l-16 -89h88l7 41h111l-33 -192h-112l8 41h-88z" />
    <glyph glyph-name="periodcentered" unicode="&#xb7;" horiz-adv-x="275" 
d="M41 366c0 58 46 99 95 99c61 0 103 -40 103 -99c0 -56 -42 -97 -97 -97s-101 40 -101 97z" />
    <glyph glyph-name="paragraph" unicode="&#xb6;" 
d="M487 722v-60h-52v-662h-85v662h-74v-662h-85v383c-109 4 -177 73 -177 169c0 100 72 170 190 170h283z" />
    <glyph glyph-name="bullet" unicode="&#x2022;" horiz-adv-x="590" 
d="M150 372c0 80 65 144 145 144c79 0 144 -64 144 -144c0 -79 -65 -145 -145 -145s-144 65 -144 145z" />
    <glyph glyph-name="quotesinglbase" unicode="&#x201a;" horiz-adv-x="275" 
d="M-26 -63l74 246h161l-76 -246h-159z" />
    <glyph glyph-name="quotedblbase" unicode="&#x201e;" horiz-adv-x="549" 
d="M-26 -63l74 246h161l-76 -246h-159zM247 -63l74 246h161l-76 -246h-159z" />
    <glyph glyph-name="quotedblright" unicode="&#x201d;" horiz-adv-x="549" 
d="M56 474l74 246h161l-76 -246h-159zM329 474l74 246h161l-76 -246h-159z" />
    <glyph glyph-name="guillemotright" unicode="&#xbb;" horiz-adv-x="545" 
d="M231 77l127 170l-91 151h107l101 -158l-125 -163h-119zM17 77l127 170l-91 151h106l102 -158l-125 -163h-119z" />
    <glyph glyph-name="ellipsis" unicode="&#x2026;" horiz-adv-x="1000" 
d="M35 88c0 58 46 99 95 99c61 0 103 -40 103 -99c0 -56 -43 -97 -98 -97s-100 40 -100 97zM368 88c0 58 46 99 95 99c61 0 103 -40 103 -99c0 -56 -43 -97 -98 -97s-100 40 -100 97zM702 88c0 58 46 99 95 99c61 0 103 -40 103 -99c0 -56 -43 -97 -98 -97s-100 40 -100 97z
" />
    <glyph glyph-name="perthousand" unicode="&#x2030;" horiz-adv-x="1343" 
d="M392 516c0 -106 -84 -185 -186 -185c-103 0 -186 81 -186 185c0 103 84 185 186 185s186 -80 186 -185zM206 456c32 0 60 26 60 60c0 35 -27 60 -60 60s-59 -26 -59 -60c0 -33 27 -60 59 -60zM630 715h88l-445 -729h-88zM882 185c0 -106 -84 -185 -186 -185
c-103 0 -185 81 -185 185s83 186 185 186s186 -81 186 -186zM697 125c32 0 59 26 59 60c0 35 -26 60 -59 60s-60 -26 -60 -60c0 -33 28 -60 60 -60zM1322 185c0 -105 -83 -185 -185 -185c-103 0 -186 81 -186 185s84 186 186 186s185 -81 185 -186zM1137 125
c32 0 60 26 60 60c0 35 -27 60 -60 60s-59 -26 -59 -60c0 -33 27 -60 59 -60z" />
    <glyph glyph-name="questiondown" unicode="&#xbf;" horiz-adv-x="549" 
d="M310 734c57 0 101 -44 101 -100c0 -57 -44 -100 -101 -100s-101 43 -101 100c0 56 43 100 101 100zM380 478l-31 -168h-7c-94 0 -143 -38 -143 -107c0 -44 25 -69 68 -69c38 0 62 24 64 69h183c-13 -138 -106 -217 -257 -217c-146 0 -243 91 -243 220
c0 106 63 184 176 214l13 58h177z" />
    <glyph glyph-name="grave" unicode="`" 
d="M138 721h132l80 -181h-68z" />
    <glyph glyph-name="acute" unicode="&#xb4;" 
d="M178 540l114 181h152l-191 -181h-75z" />
    <glyph glyph-name="circumflex" unicode="&#x2c6;" 
d="M422 540h-69l-61 97l-108 -97h-75l128 181h124z" />
    <glyph glyph-name="tilde" unicode="&#x2dc;" 
d="M453 706c-22 -85 -57 -126 -115 -126c-14 0 -27 2 -42 7l-31 10c-10 3 -21 6 -32 6c-23 0 -42 -17 -49 -47h-58c20 85 58 128 115 128c13 0 28 -3 45 -8l31 -10c13 -4 23 -6 27 -6c27 0 40 14 50 46h59z" />
    <glyph glyph-name="macron" unicode="&#xaf;" 
d="M131 589l17 83h300l-17 -83h-300z" />
    <glyph glyph-name="breve" unicode="&#x2d8;" 
d="M153 661h64c1 -41 24 -60 72 -60c50 0 84 19 106 60h66c-28 -92 -91 -139 -181 -139c-84 0 -127 42 -127 125v14z" />
    <glyph glyph-name="dotaccent" unicode="&#x2d9;" 
d="M211 562l29 138h128l-29 -138h-128z" />
    <glyph glyph-name="dieresis" unicode="&#xa8;" 
d="M126 565l28 132h122l-28 -132h-122zM303 565l28 132h122l-28 -132h-122z" />
    <glyph glyph-name="ring" unicode="&#x2da;" 
d="M166 664c0 73 58 132 132 132c73 0 133 -59 133 -132c0 -74 -59 -133 -133 -133s-132 58 -132 133zM238 663c0 -33 26 -60 60 -60s60 27 60 60c0 34 -27 60 -60 60c-34 0 -60 -25 -60 -60z" />
    <glyph glyph-name="cedilla" unicode="&#xb8;" 
d="M61 -214l26 65c45 -18 83 -26 114 -26c30 0 48 15 48 37c0 26 -26 33 -85 33h-13l37 105h56l-16 -45c76 -1 114 -29 114 -85c0 -69 -46 -113 -137 -113c-36 0 -84 10 -144 29z" />
    <glyph glyph-name="hungarumlaut" unicode="&#x2dd;" 
d="M157 540l71 181h131l-148 -181h-54zM304 540l94 181h136l-172 -181h-58z" />
    <glyph glyph-name="ogonek" unicode="&#x2db;" 
d="M242 0c-38 -35 -58 -63 -58 -96c0 -27 12 -39 37 -39h61l-20 -93h-27h-39c-60 0 -101 38 -101 96c0 50 32 90 95 132h52z" />
    <glyph glyph-name="caron" unicode="&#x2c7;" 
d="M147 721h69l61 -97l108 97h75l-128 -181h-124z" />
    <glyph glyph-name="emdash" unicode="&#x2014;" horiz-adv-x="1000" 
d="M-12 308h1000l-20 -118h-1000z" />
    <glyph glyph-name="AE" unicode="&#xc6;" horiz-adv-x="977" 
d="M-93 0l25 141h62l250 438h-79l25 141h803l-37 -268h-135l-11 127h-177l-24 -137h131l-25 -143h-132l-27 -158h198l55 144h134l-63 -285h-574l25 141h46l19 110h-157l-61 -110h41l-25 -141h-287zM415 360l39 219h-28l-126 -219h115z" />
    <glyph glyph-name="ordfeminine" unicode="&#xaa;" horiz-adv-x="453" 
d="M206 625c-45 0 -73 -31 -73 -76c0 -39 23 -62 62 -62c41 0 69 34 69 78c0 36 -22 60 -58 60zM242 388l6 31c-37 -27 -68 -40 -109 -40c-82 0 -141 59 -141 150c0 120 81 199 193 199c45 0 78 -14 105 -46l7 38h149l-18 -100h-33l-27 -133h39l-18 -99h-153z" />
    <glyph glyph-name="Lslash" unicode="&#x141;" horiz-adv-x="611" 
d="M415 141l57 144h131l-63 -285h-574l25 141h72l17 94l-110 -55l28 155l110 57l32 187h-72l25 141h328l-25 -141h-68l-16 -91l129 66l-29 -159l-128 -64l-33 -190h164z" />
    <glyph glyph-name="Oslash" unicode="&#xd8;" horiz-adv-x="811" 
d="M227 13l-91 -129h-127l129 184c-75 54 -116 140 -116 251c0 241 168 415 405 415c59 0 110 -8 157 -28l54 76h127l-89 -127c74 -74 112 -162 112 -260c0 -235 -168 -409 -405 -409c-60 0 -111 7 -156 27zM480 556c-16 9 -34 12 -57 12c-110 0 -208 -108 -208 -236
c0 -42 9 -74 34 -104zM334 167c21 -8 40 -12 61 -12c108 0 197 102 197 234c0 39 -9 75 -26 110z" />
    <glyph glyph-name="OE" unicode="&#x152;" horiz-adv-x="1023" 
d="M439 229l43 240c3 15 4 25 4 27c0 35 -26 51 -89 51c-108 0 -185 -88 -185 -200c0 -105 68 -175 152 -175c56 0 66 6 75 57zM1039 720l-37 -268h-135l-11 127h-177l-24 -137h131l-25 -143h-132l-27 -158h198l55 144h134l-62 -285h-530c-86 0 -156 5 -222 42
c-98 55 -153 154 -153 287c0 130 44 235 124 304c79 68 176 87 316 87h577z" />
    <glyph glyph-name="ordmasculine" unicode="&#xba;" horiz-adv-x="425" 
d="M185 380c-114 0 -187 68 -187 158c0 109 91 190 210 190c112 0 187 -66 187 -157c0 -112 -91 -191 -210 -191zM191 494c37 0 69 30 69 67c0 31 -24 54 -58 54c-37 0 -68 -30 -68 -67c0 -33 23 -54 57 -54z" />
    <glyph glyph-name="ae" unicode="&#xe6;" horiz-adv-x="877" 
d="M366 51c-59 -43 -120 -64 -180 -64c-106 0 -181 71 -181 160c0 97 77 164 194 164c52 0 96 -18 149 -43c2 12 4 23 4 31c0 51 -35 79 -100 79c-37 0 -71 -8 -109 -25l-55 104c49 18 110 33 185 33c57 0 104 -11 160 -44c55 25 104 43 161 43c137 0 235 -93 235 -227
c0 -10 0 -27 -2 -50h-338c0 -4 -1 -8 -1 -13c0 -49 34 -82 77 -82c33 0 61 14 95 43l122 -79c-57 -64 -134 -95 -233 -95c-68 0 -134 23 -183 65zM242 217c-47 0 -76 -23 -76 -59s34 -63 78 -63c46 0 80 25 80 63c0 33 -33 59 -82 59zM495 279h163c1 6 1 11 1 16
c0 43 -29 71 -71 71c-44 0 -83 -33 -93 -87z" />
    <glyph glyph-name="dotlessi" unicode="&#x131;" horiz-adv-x="340" 
d="M291 142l-27 -142h-296l26 142h57l34 190h-58l25 143h236l-58 -333h61z" />
    <glyph glyph-name="lslash" unicode="&#x142;" horiz-adv-x="350" 
d="M296 142l-27 -142h-296l25 142h58l21 123l-94 -55l23 132l95 54l32 181h-58l25 143h237l-43 -246l94 55l-22 -132l-96 -54l-35 -201h61z" />
    <glyph glyph-name="oslash" unicode="&#xf8;" horiz-adv-x="567" 
d="M255 151c49 0 91 44 91 96c0 45 -32 78 -77 78c-49 0 -90 -43 -90 -97c0 -46 30 -77 76 -77zM63 -72h-97l99 126c-44 45 -68 100 -68 160c0 156 122 272 280 272c39 0 76 -7 115 -21l69 84h97l-100 -126c45 -44 68 -100 68 -162c0 -159 -120 -272 -279 -272
c-39 0 -78 8 -118 22z" />
    <glyph glyph-name="oe" unicode="&#x153;" horiz-adv-x="887" 
d="M436 432c51 41 105 55 175 55c146 0 235 -88 235 -239c0 -13 -1 -26 -2 -39h-327c0 -53 33 -86 86 -86c32 0 58 12 86 37l122 -78c-58 -62 -137 -94 -227 -94c-68 0 -127 19 -174 56c-36 -35 -93 -55 -165 -55c-149 0 -248 98 -248 225c0 156 121 272 279 272
c65 0 114 -16 160 -54zM255 151c49 0 91 44 91 96c0 45 -32 78 -77 78c-49 0 -90 -43 -90 -97c0 -46 30 -77 76 -77zM522 278h159c0 4 1 7 1 10c0 43 -29 70 -73 70c-46 0 -75 -26 -87 -80z" />
    <glyph glyph-name="germandbls" unicode="&#xdf;" horiz-adv-x="595" 
d="M-38 0l26 142h45l64 356c28 155 99 231 246 231c135 0 223 -77 223 -182c0 -69 -39 -129 -117 -165c69 -37 102 -89 102 -166c0 -133 -83 -229 -199 -229c-28 0 -55 6 -84 18l23 142c13 -2 23 -4 29 -4c39 0 61 37 61 89c0 49 -26 73 -82 74l28 144h7c45 0 68 27 68 75
c0 35 -23 57 -57 57c-48 0 -67 -43 -82 -132l-77 -450h-224z" />
    <glyph glyph-name="Aacute" unicode="&#xc1;" horiz-adv-x="771" 
d="M-45 0l25 141h72l202 438h-73l24 141h494l-23 -141h-74l61 -438h54l-27 -141h-322l23 141h86l-11 102h-180l-44 -102h68l-26 -141h-329zM336 366h118l-24 225zM356 774l114 181h152l-191 -181h-75z" />
    <glyph glyph-name="Acircumflex" unicode="&#xc2;" horiz-adv-x="771" 
d="M-45 0l25 141h72l202 438h-73l24 141h494l-23 -141h-74l61 -438h54l-27 -141h-322l23 141h86l-11 102h-180l-44 -102h68l-26 -141h-329zM336 366h118l-24 225zM600 774h-69l-61 97l-108 -97h-75l128 181h124z" />
    <glyph glyph-name="Adieresis" unicode="&#xc4;" horiz-adv-x="771" 
d="M-45 0l25 141h72l202 438h-73l24 141h494l-23 -141h-74l61 -438h54l-27 -141h-322l23 141h86l-11 102h-180l-44 -102h68l-26 -141h-329zM336 366h118l-24 225zM304 799l28 132h122l-28 -132h-122zM481 799l28 132h122l-28 -132h-122z" />
    <glyph glyph-name="Agrave" unicode="&#xc0;" horiz-adv-x="771" 
d="M-45 0l25 141h72l202 438h-73l24 141h494l-23 -141h-74l61 -438h54l-27 -141h-322l23 141h86l-11 102h-180l-44 -102h68l-26 -141h-329zM336 366h118l-24 225zM316 955h132l80 -181h-68z" />
    <glyph glyph-name="Aring" unicode="&#xc5;" horiz-adv-x="771" 
d="M-45 0l25 141h72l202 438h-73l24 141h494l-23 -141h-74l61 -438h54l-27 -141h-322l23 141h86l-11 102h-180l-44 -102h68l-26 -141h-329zM336 366h118l-24 225zM340 855c0 60 48 108 108 108c59 0 107 -48 107 -108c0 -59 -48 -107 -107 -107c-60 0 -108 47 -108 107z
M410 856c0 -22 16 -39 38 -39c21 0 39 18 39 39c0 20 -18 38 -39 38s-38 -17 -38 -38z" />
    <glyph glyph-name="Atilde" unicode="&#xc3;" horiz-adv-x="771" 
d="M-45 0l25 141h72l202 438h-73l24 141h494l-23 -141h-74l61 -438h54l-27 -141h-322l23 141h86l-11 102h-180l-44 -102h68l-26 -141h-329zM336 366h118l-24 225zM631 940c-22 -85 -57 -126 -115 -126c-14 0 -27 2 -42 7l-31 10c-10 3 -21 6 -32 6c-23 0 -42 -17 -49 -47
h-58c20 85 58 128 115 128c13 0 28 -3 45 -8l31 -10c13 -4 23 -6 27 -6c27 0 40 14 50 46h59z" />
    <glyph glyph-name="Ccedilla" unicode="&#xc7;" horiz-adv-x="741" 
d="M568 666l11 54h182l-48 -270h-182c-19 67 -65 102 -129 102c-99 0 -175 -86 -175 -219c0 -98 46 -152 135 -152c65 0 113 30 148 91l190 -83c-66 -134 -182 -203 -338 -203c-202 0 -339 147 -339 351c0 97 31 190 88 262c71 91 157 135 265 135c72 0 133 -22 192 -68z
M166 -214l26 65c45 -18 83 -26 114 -26c30 0 48 15 48 37c0 26 -26 33 -85 33h-13l37 105h56l-16 -45c76 -1 114 -29 114 -85c0 -69 -46 -113 -137 -113c-36 0 -84 10 -144 29z" />
    <glyph glyph-name="Eacute" unicode="&#xc9;" horiz-adv-x="657" 
d="M-45 0l25 141h73l73 438h-69l25 141h600l-37 -268h-134l-11 127h-178l-24 -137h132l-26 -143h-131l-28 -158h199l55 144h134l-63 -285h-615zM310 774l114 181h152l-191 -181h-75z" />
    <glyph glyph-name="Ecircumflex" unicode="&#xca;" horiz-adv-x="657" 
d="M-45 0l25 141h73l73 438h-69l25 141h600l-37 -268h-134l-11 127h-178l-24 -137h132l-26 -143h-131l-28 -158h199l55 144h134l-63 -285h-615zM554 774h-69l-61 97l-108 -97h-75l128 181h124z" />
    <glyph glyph-name="Edieresis" unicode="&#xcb;" horiz-adv-x="657" 
d="M-45 0l25 141h73l73 438h-69l25 141h600l-37 -268h-134l-11 127h-178l-24 -137h132l-26 -143h-131l-28 -158h199l55 144h134l-63 -285h-615zM258 799l28 132h122l-28 -132h-122zM435 799l28 132h122l-28 -132h-122z" />
    <glyph glyph-name="Egrave" unicode="&#xc8;" horiz-adv-x="657" 
d="M-45 0l25 141h73l73 438h-69l25 141h600l-37 -268h-134l-11 127h-178l-24 -137h132l-26 -143h-131l-28 -158h199l55 144h134l-63 -285h-615zM270 955h132l80 -181h-68z" />
    <glyph glyph-name="Iacute" unicode="&#xcd;" horiz-adv-x="377" 
d="M314 141l-25 -141h-328l25 141h72l77 438h-72l25 141h328l-25 -141h-68l-77 -438h68zM170 774l114 181h152l-191 -181h-75z" />
    <glyph glyph-name="Icircumflex" unicode="&#xce;" horiz-adv-x="377" 
d="M314 141l-25 -141h-328l25 141h72l77 438h-72l25 141h328l-25 -141h-68l-77 -438h68zM414 774h-69l-61 97l-108 -97h-75l128 181h124z" />
    <glyph glyph-name="Idieresis" unicode="&#xcf;" horiz-adv-x="377" 
d="M314 141l-25 -141h-328l25 141h72l77 438h-72l25 141h328l-25 -141h-68l-77 -438h68zM118 799l28 132h122l-28 -132h-122zM295 799l28 132h122l-28 -132h-122z" />
    <glyph glyph-name="Igrave" unicode="&#xcc;" horiz-adv-x="377" 
d="M314 141l-25 -141h-328l25 141h72l77 438h-72l25 141h328l-25 -141h-68l-77 -438h68zM130 955h132l80 -181h-68z" />
    <glyph glyph-name="Ntilde" unicode="&#xd1;" horiz-adv-x="773" 
d="M-39 0l25 141h72l77 438h-72l25 141h249l157 -420l44 279h-63l25 141h316l-24 -141h-72l-102 -579h-157l-171 458l-50 -317h63l-25 -141h-317zM626 940c-22 -85 -57 -126 -115 -126c-14 0 -27 2 -42 7l-31 10c-10 3 -21 6 -32 6c-23 0 -42 -17 -49 -47h-58
c20 85 58 128 115 128c13 0 28 -3 45 -8l31 -10c13 -4 23 -6 27 -6c27 0 40 14 50 46h59z" />
    <glyph glyph-name="Oacute" unicode="&#xd3;" horiz-adv-x="811" 
d="M388 -16c-222 0 -364 143 -364 341c0 239 172 411 403 411c220 0 360 -144 360 -341c0 -239 -174 -411 -399 -411zM220 333c0 -109 68 -177 171 -177c117 0 201 103 201 232c0 110 -66 176 -170 176c-114 0 -202 -98 -202 -231zM387 774l114 181h152l-191 -181h-75z" />
    <glyph glyph-name="Ocircumflex" unicode="&#xd4;" horiz-adv-x="811" 
d="M388 -16c-222 0 -364 143 -364 341c0 239 172 411 403 411c220 0 360 -144 360 -341c0 -239 -174 -411 -399 -411zM220 333c0 -109 68 -177 171 -177c117 0 201 103 201 232c0 110 -66 176 -170 176c-114 0 -202 -98 -202 -231zM631 774h-69l-61 97l-108 -97h-75l128 181
h124z" />
    <glyph glyph-name="Odieresis" unicode="&#xd6;" horiz-adv-x="811" 
d="M388 -16c-222 0 -364 143 -364 341c0 239 172 411 403 411c220 0 360 -144 360 -341c0 -239 -174 -411 -399 -411zM220 333c0 -109 68 -177 171 -177c117 0 201 103 201 232c0 110 -66 176 -170 176c-114 0 -202 -98 -202 -231zM335 799l28 132h122l-28 -132h-122z
M512 799l28 132h122l-28 -132h-122z" />
    <glyph glyph-name="Ograve" unicode="&#xd2;" horiz-adv-x="811" 
d="M388 -16c-222 0 -364 143 -364 341c0 239 172 411 403 411c220 0 360 -144 360 -341c0 -239 -174 -411 -399 -411zM220 333c0 -109 68 -177 171 -177c117 0 201 103 201 232c0 110 -66 176 -170 176c-114 0 -202 -98 -202 -231zM347 955h132l80 -181h-68z" />
    <glyph glyph-name="Otilde" unicode="&#xd5;" horiz-adv-x="811" 
d="M388 -16c-222 0 -364 143 -364 341c0 239 172 411 403 411c220 0 360 -144 360 -341c0 -239 -174 -411 -399 -411zM220 333c0 -109 68 -177 171 -177c117 0 201 103 201 232c0 110 -66 176 -170 176c-114 0 -202 -98 -202 -231zM662 940c-22 -85 -57 -126 -115 -126
c-14 0 -27 2 -42 7l-31 10c-10 3 -21 6 -32 6c-23 0 -42 -17 -49 -47h-58c20 85 58 128 115 128c13 0 28 -3 45 -8l31 -10c13 -4 23 -6 27 -6c27 0 40 14 50 46h59z" />
    <glyph glyph-name="Scaron" unicode="&#x160;" horiz-adv-x="667" 
d="M-22 0l44 251h174c16 -71 73 -117 142 -117c52 0 81 31 81 62c0 62 -69 76 -203 129c-118 47 -179 107 -179 210c0 115 99 200 256 200c86 0 152 -22 204 -70l9 55h170l-40 -226h-172c-19 72 -74 112 -146 112c-46 0 -74 -22 -74 -53c0 -51 55 -59 135 -90
c159 -61 244 -123 244 -239c0 -130 -107 -239 -265 -239c-77 0 -139 21 -203 69l-10 -54h-167zM284 955h69l61 -97l108 97h75l-128 -181h-124z" />
    <glyph glyph-name="Uacute" unicode="&#xda;" horiz-adv-x="773" 
d="M131 579h-72l25 141h327l-25 -141h-66l-44 -248c-7 -40 -9 -67 -9 -78c0 -58 35 -92 94 -92c63 0 109 50 126 147l48 271h-68l25 141h328l-25 -141h-72l-55 -301c-39 -213 -126 -292 -337 -292c-161 0 -261 86 -261 207c0 30 4 63 11 101zM368 774l114 181h152l-191 -181
h-75z" />
    <glyph glyph-name="Ucircumflex" unicode="&#xdb;" horiz-adv-x="773" 
d="M131 579h-72l25 141h327l-25 -141h-66l-44 -248c-7 -40 -9 -67 -9 -78c0 -58 35 -92 94 -92c63 0 109 50 126 147l48 271h-68l25 141h328l-25 -141h-72l-55 -301c-39 -213 -126 -292 -337 -292c-161 0 -261 86 -261 207c0 30 4 63 11 101zM612 774h-69l-61 97l-108 -97
h-75l128 181h124z" />
    <glyph glyph-name="Udieresis" unicode="&#xdc;" horiz-adv-x="773" 
d="M131 579h-72l25 141h327l-25 -141h-66l-44 -248c-7 -40 -9 -67 -9 -78c0 -58 35 -92 94 -92c63 0 109 50 126 147l48 271h-68l25 141h328l-25 -141h-72l-55 -301c-39 -213 -126 -292 -337 -292c-161 0 -261 86 -261 207c0 30 4 63 11 101zM316 799l28 132h122l-28 -132
h-122zM493 799l28 132h122l-28 -132h-122z" />
    <glyph glyph-name="Ugrave" unicode="&#xd9;" horiz-adv-x="773" 
d="M131 579h-72l25 141h327l-25 -141h-66l-44 -248c-7 -40 -9 -67 -9 -78c0 -58 35 -92 94 -92c63 0 109 50 126 147l48 271h-68l25 141h328l-25 -141h-72l-55 -301c-39 -213 -126 -292 -337 -292c-161 0 -261 86 -261 207c0 30 4 63 11 101zM328 955h132l80 -181h-68z" />
    <glyph glyph-name="Ydieresis" unicode="&#x178;" horiz-adv-x="750" 
d="M273 269l-157 310h-72l25 141h328l-25 -141h-68l72 -150l120 150h-66l24 141h340l-25 -141h-77l-233 -313l-21 -125h65l-25 -141h-318l25 141h66zM305 799l28 132h122l-28 -132h-122zM482 799l28 132h122l-28 -132h-122z" />
    <glyph glyph-name="Zcaron" unicode="&#x17d;" horiz-adv-x="662" 
d="M-14 0l15 86l394 493h-162l-39 -101h-132l45 242h558l-14 -84l-386 -495h170l60 146h122l-55 -287h-576zM282 955h69l61 -97l108 97h75l-128 -181h-124z" />
    <glyph glyph-name="aacute" unicode="&#xe1;" horiz-adv-x="604" 
d="M275 338c-60 0 -98 -43 -98 -108c0 -55 31 -88 83 -88c55 0 92 48 92 111c0 52 -29 85 -77 85zM322 0l8 44c-49 -38 -90 -57 -145 -57c-109 0 -187 84 -187 215c0 171 107 284 256 284c60 0 104 -20 141 -66l9 55h198l-24 -144h-44l-35 -189h51l-23 -142h-205zM239 540
l114 181h152l-191 -181h-75z" />
    <glyph glyph-name="acircumflex" unicode="&#xe2;" horiz-adv-x="604" 
d="M275 338c-60 0 -98 -43 -98 -108c0 -55 31 -88 83 -88c55 0 92 48 92 111c0 52 -29 85 -77 85zM322 0l8 44c-49 -38 -90 -57 -145 -57c-109 0 -187 84 -187 215c0 171 107 284 256 284c60 0 104 -20 141 -66l9 55h198l-24 -144h-44l-35 -189h51l-23 -142h-205zM483 540
h-69l-61 97l-108 -97h-75l128 181h124z" />
    <glyph glyph-name="adieresis" unicode="&#xe4;" horiz-adv-x="604" 
d="M275 338c-60 0 -98 -43 -98 -108c0 -55 31 -88 83 -88c55 0 92 48 92 111c0 52 -29 85 -77 85zM322 0l8 44c-49 -38 -90 -57 -145 -57c-109 0 -187 84 -187 215c0 171 107 284 256 284c60 0 104 -20 141 -66l9 55h198l-24 -144h-44l-35 -189h51l-23 -142h-205zM187 565
l28 132h122l-28 -132h-122zM364 565l28 132h122l-28 -132h-122z" />
    <glyph glyph-name="agrave" unicode="&#xe0;" horiz-adv-x="604" 
d="M275 338c-60 0 -98 -43 -98 -108c0 -55 31 -88 83 -88c55 0 92 48 92 111c0 52 -29 85 -77 85zM322 0l8 44c-49 -38 -90 -57 -145 -57c-109 0 -187 84 -187 215c0 171 107 284 256 284c60 0 104 -20 141 -66l9 55h198l-24 -144h-44l-35 -189h51l-23 -142h-205zM199 721
h132l80 -181h-68z" />
    <glyph glyph-name="aring" unicode="&#xe5;" horiz-adv-x="604" 
d="M275 338c-60 0 -98 -43 -98 -108c0 -55 31 -88 83 -88c55 0 92 48 92 111c0 52 -29 85 -77 85zM322 0l8 44c-49 -38 -90 -57 -145 -57c-109 0 -187 84 -187 215c0 171 107 284 256 284c60 0 104 -20 141 -66l9 55h198l-24 -144h-44l-35 -189h51l-23 -142h-205zM211 647
c0 73 59 132 133 132c73 0 132 -59 132 -132c0 -74 -58 -133 -132 -133s-133 58 -133 133zM284 646c0 -33 26 -59 60 -59s59 26 59 59c0 34 -26 61 -59 61c-34 0 -60 -26 -60 -61z" />
    <glyph glyph-name="atilde" unicode="&#xe3;" horiz-adv-x="604" 
d="M275 338c-60 0 -98 -43 -98 -108c0 -55 31 -88 83 -88c55 0 92 48 92 111c0 52 -29 85 -77 85zM322 0l8 44c-49 -38 -90 -57 -145 -57c-109 0 -187 84 -187 215c0 171 107 284 256 284c60 0 104 -20 141 -66l9 55h198l-24 -144h-44l-35 -189h51l-23 -142h-205zM514 706
c-22 -85 -57 -126 -115 -126c-14 0 -27 2 -42 7l-31 10c-10 3 -21 6 -32 6c-23 0 -42 -17 -49 -47h-58c20 85 58 128 115 128c13 0 28 -3 45 -8l31 -10c13 -4 23 -6 27 -6c27 0 40 14 50 46h59z" />
    <glyph glyph-name="ccedilla" unicode="&#xe7;" horiz-adv-x="537" 
d="M341 279c-14 36 -42 54 -80 54c-50 0 -85 -41 -85 -97c0 -51 35 -86 82 -86c34 0 66 17 88 50l135 -103c-62 -70 -147 -107 -241 -107c-144 0 -243 98 -243 244c0 143 101 253 242 253c55 0 101 -16 141 -50l8 38h137l-36 -196h-148zM80 -214l26 65
c45 -18 83 -26 114 -26c30 0 48 15 48 37c0 26 -26 33 -85 33h-13l37 105h56l-16 -45c76 -1 114 -29 114 -85c0 -69 -46 -113 -137 -113c-36 0 -84 10 -144 29z" />
    <glyph glyph-name="eacute" unicode="&#xe9;" horiz-adv-x="551" 
d="M352 160l122 -78c-58 -62 -136 -94 -225 -94c-153 0 -250 88 -250 236c0 149 110 262 277 262c144 0 233 -88 233 -239c0 -12 -1 -25 -2 -38h-327c0 -53 33 -86 86 -86c32 0 58 12 86 37zM185 278h159c0 4 1 7 1 10c0 43 -29 70 -73 70c-46 0 -75 -26 -87 -80zM204 540
l114 181h152l-191 -181h-75z" />
    <glyph glyph-name="ecircumflex" unicode="&#xea;" horiz-adv-x="551" 
d="M352 160l122 -78c-58 -62 -136 -94 -225 -94c-153 0 -250 88 -250 236c0 149 110 262 277 262c144 0 233 -88 233 -239c0 -12 -1 -25 -2 -38h-327c0 -53 33 -86 86 -86c32 0 58 12 86 37zM185 278h159c0 4 1 7 1 10c0 43 -29 70 -73 70c-46 0 -75 -26 -87 -80zM448 540
h-69l-61 97l-108 -97h-75l128 181h124z" />
    <glyph glyph-name="edieresis" unicode="&#xeb;" horiz-adv-x="551" 
d="M352 160l122 -78c-58 -62 -136 -94 -225 -94c-153 0 -250 88 -250 236c0 149 110 262 277 262c144 0 233 -88 233 -239c0 -12 -1 -25 -2 -38h-327c0 -53 33 -86 86 -86c32 0 58 12 86 37zM185 278h159c0 4 1 7 1 10c0 43 -29 70 -73 70c-46 0 -75 -26 -87 -80zM152 565
l28 132h122l-28 -132h-122zM329 565l28 132h122l-28 -132h-122z" />
    <glyph glyph-name="egrave" unicode="&#xe8;" horiz-adv-x="551" 
d="M352 160l122 -78c-58 -62 -136 -94 -225 -94c-153 0 -250 88 -250 236c0 149 110 262 277 262c144 0 233 -88 233 -239c0 -12 -1 -25 -2 -38h-327c0 -53 33 -86 86 -86c32 0 58 12 86 37zM185 278h159c0 4 1 7 1 10c0 43 -29 70 -73 70c-46 0 -75 -26 -87 -80zM164 721
h132l80 -181h-68z" />
    <glyph glyph-name="iacute" unicode="&#xed;" horiz-adv-x="340" 
d="M291 142l-27 -142h-296l26 142h57l34 190h-58l25 143h236l-58 -333h61zM98 540l114 181h152l-191 -181h-75z" />
    <glyph glyph-name="icircumflex" unicode="&#xee;" horiz-adv-x="340" 
d="M291 142l-27 -142h-296l26 142h57l34 190h-58l25 143h236l-58 -333h61zM342 540h-69l-61 97l-108 -97h-75l128 181h124z" />
    <glyph glyph-name="idieresis" unicode="&#xef;" horiz-adv-x="340" 
d="M291 142l-27 -142h-296l26 142h57l34 190h-58l25 143h236l-58 -333h61zM46 565l28 132h122l-28 -132h-122zM223 565l28 132h122l-28 -132h-122z" />
    <glyph glyph-name="igrave" unicode="&#xec;" horiz-adv-x="340" 
d="M291 142l-27 -142h-296l26 142h57l34 190h-58l25 143h236l-58 -333h61zM58 721h132l80 -181h-68z" />
    <glyph glyph-name="ntilde" unicode="&#xf1;" horiz-adv-x="623" 
d="M282 142l-26 -142h-287l25 142h58l33 190h-57l25 143h222l-13 -79c57 55 117 83 181 83c72 0 111 -34 111 -98c0 -14 -5 -41 -12 -83l-28 -156h58l-25 -142h-237l53 298c1 4 1 8 1 12c0 24 -12 34 -39 34c-36 0 -63 -23 -72 -73l-22 -129h51zM515 706
c-22 -85 -57 -126 -115 -126c-14 0 -27 2 -42 7l-31 10c-10 3 -21 6 -32 6c-23 0 -42 -17 -49 -47h-58c20 85 58 128 115 128c13 0 28 -3 45 -8l31 -10c13 -4 23 -6 27 -6c27 0 40 14 50 46h59z" />
    <glyph glyph-name="oacute" unicode="&#xf3;" horiz-adv-x="567" 
d="M247 -11c-152 0 -250 97 -250 225c0 156 121 272 280 272c150 0 249 -95 249 -225c0 -160 -121 -272 -279 -272zM255 151c49 0 91 44 91 96c0 45 -32 78 -77 78c-49 0 -90 -43 -90 -97c0 -46 30 -77 76 -77zM205 540l114 181h152l-191 -181h-75z" />
    <glyph glyph-name="ocircumflex" unicode="&#xf4;" horiz-adv-x="567" 
d="M247 -11c-152 0 -250 97 -250 225c0 156 121 272 280 272c150 0 249 -95 249 -225c0 -160 -121 -272 -279 -272zM255 151c49 0 91 44 91 96c0 45 -32 78 -77 78c-49 0 -90 -43 -90 -97c0 -46 30 -77 76 -77zM449 540h-69l-61 97l-108 -97h-75l128 181h124z" />
    <glyph glyph-name="odieresis" unicode="&#xf6;" horiz-adv-x="567" 
d="M247 -11c-152 0 -250 97 -250 225c0 156 121 272 280 272c150 0 249 -95 249 -225c0 -160 -121 -272 -279 -272zM255 151c49 0 91 44 91 96c0 45 -32 78 -77 78c-49 0 -90 -43 -90 -97c0 -46 30 -77 76 -77zM153 565l28 132h122l-28 -132h-122zM330 565l28 132h122
l-28 -132h-122z" />
    <glyph glyph-name="ograve" unicode="&#xf2;" horiz-adv-x="567" 
d="M247 -11c-152 0 -250 97 -250 225c0 156 121 272 280 272c150 0 249 -95 249 -225c0 -160 -121 -272 -279 -272zM255 151c49 0 91 44 91 96c0 45 -32 78 -77 78c-49 0 -90 -43 -90 -97c0 -46 30 -77 76 -77zM165 721h132l80 -181h-68z" />
    <glyph glyph-name="otilde" unicode="&#xf5;" horiz-adv-x="567" 
d="M247 -11c-152 0 -250 97 -250 225c0 156 121 272 280 272c150 0 249 -95 249 -225c0 -160 -121 -272 -279 -272zM255 151c49 0 91 44 91 96c0 45 -32 78 -77 78c-49 0 -90 -43 -90 -97c0 -46 30 -77 76 -77zM480 706c-22 -85 -57 -126 -115 -126c-14 0 -27 2 -42 7
l-31 10c-10 3 -21 6 -32 6c-23 0 -42 -17 -49 -47h-58c20 85 58 128 115 128c13 0 28 -3 45 -8l31 -10c13 -4 23 -6 27 -6c27 0 40 14 50 46h59z" />
    <glyph glyph-name="scaron" unicode="&#x161;" horiz-adv-x="495" 
d="M-16 0l26 159h113c6 -48 31 -73 75 -73c28 0 46 16 46 36c0 33 -44 49 -105 81c-66 35 -100 74 -100 131c0 83 73 152 180 152c48 0 93 -14 137 -40l7 29h107l-24 -145h-111c-15 37 -37 55 -68 55c-25 0 -41 -12 -41 -29c0 -28 39 -41 98 -73c75 -41 111 -84 111 -145
c0 -87 -75 -150 -187 -150c-52 0 -102 14 -146 41l-5 -29h-113zM145 721h69l61 -97l108 97h75l-128 -181h-124z" />
    <glyph glyph-name="uacute" unicode="&#xfa;" horiz-adv-x="604" 
d="M297 332l26 143h229l-58 -332h58l-25 -143h-223l14 78c-57 -55 -118 -83 -182 -83c-72 0 -111 34 -111 98c0 15 5 43 12 84l28 155h-58l25 143h237l-53 -298c-1 -4 -1 -9 -1 -13c0 -24 12 -34 39 -34c36 0 63 23 72 73l22 129h-51zM214 540l114 181h152l-191 -181h-75z
" />
    <glyph glyph-name="ucircumflex" unicode="&#xfb;" horiz-adv-x="604" 
d="M297 332l26 143h229l-58 -332h58l-25 -143h-223l14 78c-57 -55 -118 -83 -182 -83c-72 0 -111 34 -111 98c0 15 5 43 12 84l28 155h-58l25 143h237l-53 -298c-1 -4 -1 -9 -1 -13c0 -24 12 -34 39 -34c36 0 63 23 72 73l22 129h-51zM458 540h-69l-61 97l-108 -97h-75
l128 181h124z" />
    <glyph glyph-name="udieresis" unicode="&#xfc;" horiz-adv-x="604" 
d="M297 332l26 143h229l-58 -332h58l-25 -143h-223l14 78c-57 -55 -118 -83 -182 -83c-72 0 -111 34 -111 98c0 15 5 43 12 84l28 155h-58l25 143h237l-53 -298c-1 -4 -1 -9 -1 -13c0 -24 12 -34 39 -34c36 0 63 23 72 73l22 129h-51zM162 565l28 132h122l-28 -132h-122z
M339 565l28 132h122l-28 -132h-122z" />
    <glyph glyph-name="ugrave" unicode="&#xf9;" horiz-adv-x="604" 
d="M297 332l26 143h229l-58 -332h58l-25 -143h-223l14 78c-57 -55 -118 -83 -182 -83c-72 0 -111 34 -111 98c0 15 5 43 12 84l28 155h-58l25 143h237l-53 -298c-1 -4 -1 -9 -1 -13c0 -24 12 -34 39 -34c36 0 63 23 72 73l22 129h-51zM174 721h132l80 -181h-68z" />
    <glyph glyph-name="ydieresis" unicode="&#xff;" horiz-adv-x="604" 
d="M4 -208l26 142h71l36 59l-84 339h-58l24 143h266l-22 -134h-42l38 -177l107 177h-51l24 134h266l-27 -143h-39l-264 -398h71l-26 -142h-316zM178 565l28 132h122l-28 -132h-122zM355 565l28 132h122l-28 -132h-122z" />
    <glyph glyph-name="zcaron" unicode="&#x17e;" horiz-adv-x="549" 
d="M6 0l23 148l266 205h-120l-18 -52h-113l33 174h438l-28 -151l-268 -200h130l20 53h110l-35 -177h-438zM172 721h69l61 -97l108 97h75l-128 -181h-124z" />
    <glyph glyph-name="trademark" unicode="&#x2122;" horiz-adv-x="833" 
d="M92 715h245v-62h-80v-207h-85v207h-80v62zM389 715h109l55 -148l56 148h108v-269h-76v190l-71 -190h-32l-73 190v-190h-76v269z" />
    <glyph glyph-name="copyright" unicode="&#xa9;" horiz-adv-x="833" 
d="M416 725c100 0 190 -37 260 -107c69 -69 105 -159 105 -258c0 -100 -36 -189 -104 -256c-72 -71 -165 -109 -261 -109s-187 38 -257 108s-107 160 -107 257c0 96 38 188 108 259c68 69 156 106 256 106zM417 659c-82 0 -154 -30 -210 -87c-57 -58 -89 -133 -89 -212
c0 -78 32 -153 89 -210s131 -88 210 -88c78 0 154 31 213 89c56 55 85 127 85 209c0 81 -30 155 -86 211c-57 57 -130 88 -212 88zM596 435h-104c-4 44 -32 69 -76 69c-52 0 -86 -50 -86 -143c0 -92 32 -139 91 -139c43 0 70 27 74 76h105c-4 -93 -75 -155 -181 -155
c-123 0 -201 81 -201 214c0 136 79 220 200 220c103 0 173 -57 178 -142z" />
    <glyph glyph-name="logicalnot" unicode="&#xac;" horiz-adv-x="833" 
d="M124 423h585v-245h-112v134h-473v111z" />
    <glyph glyph-name="registered" unicode="&#xae;" horiz-adv-x="833" 
d="M416 725c101 0 193 -38 263 -110c67 -68 102 -158 102 -255c0 -101 -38 -192 -108 -259c-72 -69 -163 -106 -257 -106c-98 0 -189 39 -259 111c-68 70 -105 159 -105 254c0 97 39 191 111 262c68 67 155 103 253 103zM417 659c-81 0 -152 -29 -208 -84
c-59 -59 -90 -135 -90 -215c0 -78 29 -150 85 -207c57 -59 132 -91 212 -91c78 0 153 30 211 86c57 55 88 130 88 212c0 80 -29 153 -84 209c-58 59 -132 90 -214 90zM262 568h161c115 0 173 -41 173 -116c0 -52 -31 -92 -85 -108l89 -176h-121l-75 159h-32v-159h-110v400z
M372 499v-107h39c48 0 72 17 72 52c0 39 -25 55 -78 55h-33z" />
    <glyph glyph-name="minus" unicode="&#x2212;" horiz-adv-x="833" 
d="M124 356h585v-115h-585v115z" />
    <glyph glyph-name="Eth" unicode="&#xd0;" horiz-adv-x="802" 
d="M415 720c106 0 184 -11 246 -52c76 -51 118 -140 118 -258c0 -122 -40 -231 -110 -306c-83 -89 -186 -104 -335 -104h-368l25 141h72l29 168h-98l23 130h98l25 140h-72l25 141h322zM400 579h-72l-25 -140h136l-23 -130h-136l-29 -168h62c180 0 271 83 271 265
c0 116 -60 173 -184 173z" />
    <glyph glyph-name="Thorn" unicode="&#xde;" horiz-adv-x="625" 
d="M295 436l-26 -151h58c61 0 96 33 96 80c0 42 -30 71 -83 71h-45zM422 720l-24 -130h-76l-6 -37h49c170 0 254 -56 254 -177c0 -146 -97 -208 -295 -208h-76l-7 -38h72l-24 -130h-328l25 141h72l77 438h-72l25 141h334z" />
    <glyph glyph-name="Yacute" unicode="&#xdd;" horiz-adv-x="750" 
d="M273 269l-157 310h-72l25 141h328l-25 -141h-68l72 -150l120 150h-66l24 141h340l-25 -141h-77l-233 -313l-21 -125h65l-25 -141h-318l25 141h66zM357 774l114 181h152l-191 -181h-75z" />
    <glyph glyph-name="brokenbar" unicode="&#xa6;" 
d="M192 699h117v-370h-117v370zM192 199h117v-370h-117v370z" />
    <glyph glyph-name="degree" unicode="&#xb0;" horiz-adv-x="329" 
d="M165 716c83 0 152 -67 152 -152c0 -83 -68 -152 -153 -152c-84 0 -151 67 -151 152c0 86 68 152 152 152zM165 645c-44 0 -81 -35 -81 -80s35 -81 81 -81c45 0 80 37 80 81s-35 80 -80 80z" />
    <glyph glyph-name="divide" unicode="&#xf7;" horiz-adv-x="833" 
d="M417 577c43 0 80 -36 80 -81c0 -43 -35 -80 -81 -80c-45 0 -80 36 -80 80c0 45 37 81 81 81zM124 355h585v-113h-585v113zM417 181c44 0 80 -36 80 -81c0 -43 -34 -80 -80 -80c-44 0 -81 35 -81 80s37 81 81 81z" />
    <glyph glyph-name="eth" unicode="&#xf0;" horiz-adv-x="567" 
d="M179 219c0 -44 32 -75 71 -75c56 0 96 44 96 93c0 43 -31 76 -77 76c-49 0 -90 -42 -90 -94zM295 465l-48 78l-143 -30l-13 77l113 24l-63 106h157l47 -77l121 25l15 -77l-94 -19l60 -98c49 -79 78 -149 78 -227c0 -149 -118 -260 -278 -260c-151 0 -250 94 -250 219
c0 151 127 262 265 262c3 0 14 0 33 -3z" />
    <glyph glyph-name="mu" unicode="&#x3bc;" horiz-adv-x="642" 
d="M94 532h175l-39 -258c-4 -27 -6 -51 -6 -70c0 -55 23 -83 70 -83c59 0 89 46 104 141l43 270h174l-85 -532h-157l9 61c-26 -48 -56 -69 -102 -69c-38 0 -70 20 -90 59l-40 -260h-172z" />
    <glyph glyph-name="multiply" unicode="&#xd7;" horiz-adv-x="833" 
d="M210 593l215 -215l215 215l79 -79l-215 -216l215 -215l-79 -79l-215 215l-215 -215l-79 79l215 215l-215 216z" />
    <glyph glyph-name="onehalf" unicode="&#xbd;" horiz-adv-x="864" 
d="M33 309l15 73h48l50 247h-53l14 73h161l-63 -320h53l-14 -73h-211zM174 0l430 701h86l-430 -701h-86zM515 0l12 80l168 161c23 22 35 36 35 50s-13 24 -33 24c-26 0 -39 -15 -39 -47h-104c4 83 60 132 150 132c84 0 143 -46 143 -107c0 -40 -25 -75 -73 -115l-112 -98h78
l5 22h90l-21 -102h-299z" />
    <glyph glyph-name="onequarter" unicode="&#xbc;" horiz-adv-x="864" 
d="M33 309l15 73h48l50 247h-53l14 73h161l-63 -320h53l-14 -73h-211zM174 0l430 701h86l-430 -701h-86zM606 0l13 65h60l6 32h-175l14 71l187 225h141l-46 -229h45l-13 -67h-44l-7 -32h45l-14 -65h-212zM701 164l29 136l-112 -131v-5h83z" />
    <glyph glyph-name="onesuperior" unicode="&#xb9;" horiz-adv-x="365" 
d="M36 281l15 78h51l51 265h-55l15 78h169l-67 -343h56l-15 -78h-220z" />
    <glyph glyph-name="plusminus" unicode="&#xb1;" horiz-adv-x="833" 
d="M359 606h116v-156h234v-113h-234v-156h-116v156h-235v113h235v156zM124 104h585v-113h-585v113z" />
    <glyph glyph-name="thorn" unicode="&#xfe;" horiz-adv-x="637" 
d="M128 577h-58l25 143h230l-51 -278c32 29 75 45 123 45c111 0 197 -88 197 -225c0 -155 -109 -274 -240 -274c-62 0 -111 25 -144 75l-23 -129h63l-25 -142h-294l25 142h58zM235 224c0 -52 34 -87 83 -87c55 0 94 47 94 104c0 48 -33 84 -82 84c-54 0 -95 -42 -95 -101z
" />
    <glyph glyph-name="threequarters" unicode="&#xbe;" horiz-adv-x="864" 
d="M8 435h104c1 -30 13 -45 41 -45c29 0 49 19 49 48c0 22 -23 39 -56 39h-6l12 74c5 -1 10 -1 15 -1c42 0 65 19 65 45c0 19 -18 34 -40 34c-23 0 -38 -12 -44 -37h-101c15 74 75 117 160 117s138 -40 138 -99c0 -48 -35 -82 -101 -97c49 -20 72 -48 72 -89
c0 -69 -66 -121 -164 -121c-92 0 -146 47 -146 111c0 6 0 14 2 21zM173 0l430 701h86l-430 -701h-86zM605 0l13 65h60l6 32h-175l14 71l187 225h141l-46 -229h45l-13 -67h-44l-7 -32h45l-14 -65h-212zM700 164l29 136l-112 -131v-5h83z" />
    <glyph glyph-name="threesuperior" unicode="&#xb3;" horiz-adv-x="365" 
d="M8 416h109c1 -32 14 -48 43 -48c31 0 51 20 51 51c0 24 -24 42 -58 42h-6l12 79h16c43 0 69 20 69 47c0 20 -20 37 -43 37c-24 0 -40 -13 -46 -40h-105c15 80 77 126 167 126c89 0 145 -43 145 -107c0 -51 -37 -87 -106 -103c51 -22 75 -52 75 -96
c0 -74 -69 -130 -171 -130c-97 0 -154 51 -154 119c0 7 1 15 2 23z" />
    <glyph glyph-name="twosuperior" unicode="&#xb2;" horiz-adv-x="365" 
d="M-1 281l12 85l176 174c24 23 37 38 37 52c0 16 -13 27 -35 27c-27 0 -40 -17 -40 -51h-109c4 89 62 142 157 142c88 0 150 -49 150 -115c0 -43 -27 -80 -76 -124l-119 -105h83l5 25h94l-22 -110h-313z" />
    <glyph glyph-name="yacute" unicode="&#xfd;" horiz-adv-x="604" 
d="M4 -208l26 142h71l36 59l-84 339h-58l24 143h266l-22 -134h-42l38 -177l107 177h-51l24 134h266l-27 -143h-39l-264 -398h71l-26 -142h-316zM230 540l114 181h152l-191 -181h-75z" />
    </font>
</defs>
</svg>
