<?xml version="1.0" standalone="no"?>
<!DOCTYPE svg PUBLIC "-//W3C//DTD SVG 1.1//EN" "http://www.w3.org/Graphics/SVG/1.1/DTD/svg11.dtd" >
<svg xmlns="http://www.w3.org/2000/svg" width="100%" height="100%">
<metadata>
Created by FontXChange 20110222 at Mon Feb 17 13:36:30 2014
 By Zeeshan Jan
Copyright 1990 as an unpublished work by Bitstream Inc.  All rights reserved.  Confidential.
</metadata>
<defs>
<font id="GeometricSlab703BT-Bold" horiz-adv-x="500" >
  <font-face 
    font-family="Geometric Slabserif 703"
    font-weight="700"
    font-stretch="normal"
    units-per-em="1000"
    panose-1="2 0 8 3 0 0 0 0 0 0"
    ascent="800"
    descent="-200"
    x-height="465"
    cap-height="720"
    bbox="-167 -236 1267 963"
    underline-thickness="77"
    underline-position="-104"
    stemh="100"
    stemv="116"
    unicode-range="U+0020-FB02"
  />
    <missing-glyph />
    <glyph glyph-name="space" unicode=" " horiz-adv-x="267" 
 />
    <glyph glyph-name="exclam" unicode="!" horiz-adv-x="345" 
d="M222 217h-99l-27 503h153zM172 -12c-52 0 -89 38 -89 89s38 88 89 88c50 0 90 -39 90 -88s-40 -89 -90 -89z" />
    <glyph glyph-name="quotedbl" unicode="&#x22;" horiz-adv-x="314" 
d="M42 701h80v-272h-80v272zM193 701h80v-272h-80v272z" />
    <glyph glyph-name="numbersign" unicode="#" horiz-adv-x="769" 
d="M359 713h93l-75 -213h122l76 213h93l-75 -213h142l-29 -84h-143l-44 -123h151l-30 -84h-150l-76 -212h-93l76 212h-123l-77 -212h-93l76 212h-146l30 84h145l44 123h-154l30 84h154zM346 416l-44 -124h125l44 124h-125z" />
    <glyph glyph-name="dollar" unicode="$" horiz-adv-x="535" 
d="M298 87c62 8 98 47 98 97c0 49 -31 77 -98 100v-197zM53 220h76c14 -63 52 -108 107 -128v208c-118 32 -177 96 -177 187c0 106 69 178 177 183v57h62v-59c41 -4 76 -26 96 -61l-3 58h73v-191h-70c-17 60 -54 99 -96 108v-181c141 -38 210 -102 210 -205
c0 -112 -87 -201 -210 -205v-82h-62v86c-49 8 -89 36 -112 79l4 -73h-75v219zM236 419v165c-43 -10 -68 -40 -68 -80s26 -72 68 -85z" />
    <glyph glyph-name="percent" unicode="%" horiz-adv-x="887" 
d="M387 525c0 -100 -81 -177 -177 -177c-95 0 -176 77 -176 177s79 176 176 176c98 0 177 -76 177 -176zM211 444c45 0 80 35 80 81c0 47 -36 81 -80 81s-81 -35 -81 -81c0 -45 36 -81 81 -81zM616 715h70l-416 -729h-70zM853 177c0 -100 -81 -177 -177 -177
c-95 0 -177 77 -177 177s80 176 177 176c98 0 177 -76 177 -176zM676 96c45 0 80 35 80 81c0 47 -36 81 -80 81s-80 -35 -80 -81c0 -45 35 -81 80 -81z" />
    <glyph glyph-name="ampersand" unicode="&#x26;" horiz-adv-x="741" 
d="M273 450c48 42 72 79 72 120c0 46 -30 78 -70 78c-41 0 -71 -31 -71 -75c0 -37 24 -76 69 -123zM401 151l-145 159c-55 -45 -83 -86 -83 -128c0 -52 36 -88 94 -88c46 0 94 19 134 57zM687 100v-100h-152l-68 78c-66 -62 -134 -92 -217 -92c-112 0 -190 84 -190 193
c0 82 44 137 132 207c-58 66 -89 121 -89 177c0 92 78 169 175 169c89 0 163 -67 163 -163c0 -69 -34 -124 -102 -183l138 -152c33 48 51 95 56 152h-55v88h209v-88h-63c-3 -81 -30 -152 -82 -225l58 -61h87z" />
    <glyph glyph-name="quoteright" unicode="&#x2019;" horiz-adv-x="225" 
d="M81 720h126l-70 -208h-120z" />
    <glyph glyph-name="parenleft" unicode="(" horiz-adv-x="317" 
d="M307 673c-92 -117 -141 -258 -141 -394c0 -138 50 -280 143 -392l-86 -62c-112 139 -170 297 -170 454c0 158 58 315 170 455z" />
    <glyph glyph-name="parenright" unicode=")" horiz-adv-x="317" 
d="M10 673l84 61c112 -140 170 -297 170 -455c0 -157 -58 -315 -170 -454l-86 62c93 112 143 254 143 392c0 136 -49 277 -141 394z" />
    <glyph glyph-name="asterisk" unicode="*" horiz-adv-x="556" 
d="M230 734h101l-17 -152l137 73l36 -94l-157 -45l116 -102l-75 -66l-94 125l-92 -125l-75 66l116 102l-157 45l36 94l139 -73z" />
    <glyph glyph-name="plus" unicode="+" horiz-adv-x="833" 
d="M375 596h83v-257h251v-81h-251v-258h-83v258h-251v81h251v257z" />
    <glyph glyph-name="comma" unicode="," horiz-adv-x="267" 
d="M83 117h127l-73 -223h-120z" />
    <glyph glyph-name="hyphen" unicode="-" horiz-adv-x="308" 
d="M30 181v103h248v-103h-248z" />
    <glyph glyph-name="period" unicode="." horiz-adv-x="267" 
d="M134 -12c-52 0 -90 38 -90 89s39 88 90 88c50 0 89 -39 89 -88s-39 -89 -89 -89z" />
    <glyph glyph-name="slash" unicode="/" horiz-adv-x="333" 
d="M315 734l-246 -827h-67l246 827h67z" />
    <glyph glyph-name="zero" unicode="0" horiz-adv-x="535" 
d="M46 262v178c0 63 0 120 32 174c39 65 106 101 189 101c84 0 150 -35 190 -101c29 -48 31 -99 31 -154v-20v-178v-23c0 -44 -1 -86 -21 -130c-34 -76 -107 -123 -200 -123c-83 0 -150 37 -189 102c-32 54 -32 110 -32 174zM167 429v-157c0 -112 16 -177 100 -177
c81 0 101 62 101 177v158c0 114 -18 177 -101 177c-82 0 -100 -64 -100 -178z" />
    <glyph glyph-name="one" unicode="1" horiz-adv-x="535" 
d="M129 0v97h82v507h-76v97h197v-604h81v-97h-284z" />
    <glyph glyph-name="two" unicode="2" horiz-adv-x="535" 
d="M384 205h115v-205h-457v97l228 252c65 72 100 126 100 176c0 53 -35 85 -98 85c-83 0 -109 -52 -109 -166v-20h-115c-1 12 -1 23 -1 34c0 173 74 257 227 257c136 0 218 -77 218 -192c0 -91 -56 -156 -139 -240l-176 -178h207v100z" />
    <glyph glyph-name="three" unicode="3" horiz-adv-x="535" 
d="M159 456c2 104 36 152 110 152c61 0 105 -49 105 -110c0 -70 -48 -113 -128 -113h-11v-87c6 0 11 1 16 1c74 0 112 -40 112 -110c0 -59 -36 -95 -92 -95c-79 0 -105 49 -105 164v7h-118c0 -10 -1 -21 -1 -35c0 -155 82 -243 220 -243c136 0 216 80 216 200
c0 78 -36 132 -99 151c68 16 110 76 110 159c0 134 -84 219 -225 219c-151 0 -230 -81 -230 -234c0 -9 1 -17 1 -26h119z" />
    <glyph glyph-name="four" unicode="4" horiz-adv-x="535" 
d="M216 0v89h99v78h-273v91l270 443h116v-446h84v-88h-84v-78h84v-89h-296zM147 255h168v174c0 29 3 76 12 139z" />
    <glyph glyph-name="five" unicode="5" horiz-adv-x="535" 
d="M42 222h116v-14c0 -74 35 -113 98 -113c71 0 115 50 115 135c0 89 -49 127 -157 127c-28 0 -70 -3 -123 -9v354h344v-106h-225v-132c15 1 28 1 39 1c154 0 244 -93 244 -239c0 -143 -90 -240 -231 -240c-135 0 -221 83 -221 216c0 6 1 13 1 20z" />
    <glyph glyph-name="six" unicode="6" horiz-adv-x="535" 
d="M365 503c-4 72 -33 106 -92 106c-88 0 -102 -63 -102 -173v-51c45 34 88 51 132 51c111 0 196 -87 196 -222s-87 -228 -222 -228c-153 0 -226 89 -226 268v211c0 165 80 250 224 250c131 0 208 -74 208 -202v-10h-118zM274 95c56 0 103 47 103 116s-46 116 -103 116
c-56 0 -102 -47 -102 -116c0 -70 46 -116 102 -116z" />
    <glyph glyph-name="seven" unicode="7" horiz-adv-x="535" 
d="M111 0l263 596h-206v-124h-115v229h445v-102l-258 -599h-129z" />
    <glyph glyph-name="eight" unicode="8" horiz-adv-x="535" 
d="M150 363c-63 32 -98 88 -98 157c0 114 89 196 215 196s216 -82 216 -196c0 -69 -36 -125 -99 -157c71 -40 108 -101 108 -177c0 -111 -90 -200 -225 -200s-224 89 -224 200c0 76 36 137 107 177zM268 91c59 0 106 47 106 108c0 62 -46 109 -106 109s-107 -46 -107 -109
c0 -62 48 -108 107 -108zM267 412c54 0 99 43 99 100s-45 101 -99 101c-55 0 -97 -44 -97 -101c0 -56 42 -100 97 -100z" />
    <glyph glyph-name="nine" unicode="9" horiz-adv-x="535" 
d="M170 197c4 -72 33 -105 92 -105c88 0 102 62 102 172v51c-45 -34 -88 -50 -132 -50c-111 0 -196 86 -196 221s87 229 222 229c153 0 226 -89 226 -268v-212c0 -165 -80 -249 -224 -249c-131 0 -208 73 -208 201v10h118zM260 606c-56 0 -103 -47 -103 -116
s46 -116 103 -116c56 0 103 47 103 116c0 70 -47 116 -103 116z" />
    <glyph glyph-name="colon" unicode=":" horiz-adv-x="329" 
d="M164 -12c-52 0 -89 38 -89 89s38 88 89 88c50 0 89 -39 89 -88s-39 -89 -89 -89zM164 300c-52 0 -89 37 -89 88s38 89 89 89c50 0 89 -40 89 -89s-39 -88 -89 -88z" />
    <glyph glyph-name="semicolon" unicode=";" horiz-adv-x="329" 
d="M169 300c-52 0 -90 37 -90 88s39 89 90 89c50 0 89 -40 89 -89s-39 -88 -89 -88zM101 117h126l-73 -223h-120z" />
    <glyph glyph-name="less" unicode="&#x3c;" horiz-adv-x="833" 
d="M704 574v-90l-456 -186l456 -186v-89l-575 236v78z" />
    <glyph glyph-name="equal" unicode="=" horiz-adv-x="833" 
d="M124 440h585v-82h-585v82zM124 238h585v-81h-585v81z" />
    <glyph glyph-name="greater" unicode="&#x3e;" horiz-adv-x="833" 
d="M129 23l575 237v78l-575 236v-89l456 -186l-456 -186v-90z" />
    <glyph glyph-name="question" unicode="?" horiz-adv-x="595" 
d="M286 734c-52 0 -89 -38 -89 -89s38 -88 89 -88c50 0 89 39 89 88s-39 89 -89 89zM84 198c12 -137 89 -210 216 -210c130 0 212 79 212 197c0 100 -59 172 -164 194v126h-116v-214c12 0 19 1 22 1c93 0 141 -43 141 -112c0 -54 -37 -90 -98 -90c-59 0 -98 40 -101 108
h-112z" />
    <glyph glyph-name="at" unicode="@" horiz-adv-x="1000" 
d="M602 345c-9 55 -41 86 -90 86c-82 0 -150 -95 -150 -214c0 -65 31 -100 85 -100c57 0 111 46 128 117zM573 138c-36 -57 -82 -82 -148 -82c-99 0 -153 58 -153 164c0 156 106 272 230 272c58 0 96 -22 121 -69l27 52h75l-72 -286c-2 -10 -4 -18 -4 -24
c0 -25 19 -41 47 -41c31 0 70 19 104 56c46 49 72 117 72 192c0 162 -130 278 -330 278c-89 0 -166 -20 -230 -61c-118 -74 -184 -194 -184 -335c0 -203 148 -335 375 -335c109 0 214 33 300 93l33 -48c-98 -74 -209 -111 -329 -111c-126 0 -230 32 -309 93
c-101 77 -150 179 -150 309c0 108 35 206 100 286c95 116 231 178 397 178c111 0 211 -32 278 -84c87 -67 129 -154 129 -262c0 -106 -44 -200 -122 -263c-45 -36 -99 -55 -155 -55c-69 0 -102 26 -102 81v2z" />
    <glyph glyph-name="A" unicode="A" horiz-adv-x="685" 
d="M178 620h77v100h-258v-100h57l182 -520h-78v-100h369v100h-83l178 520h66v100h-273v-100h77l-44 -131h-226zM253 389h163l-81 -244z" />
    <glyph glyph-name="B" unicode="B" horiz-adv-x="613" 
d="M25 0v100h77v520h-77v100h260c158 0 241 -66 241 -183c0 -77 -40 -125 -122 -147c101 -24 154 -87 154 -180c0 -141 -91 -210 -273 -210h-260zM231 620v-189h54c70 0 111 36 111 94c0 61 -39 95 -111 95h-54zM231 338v-238h54c99 0 144 31 144 119c0 86 -46 119 -144 119
h-54z" />
    <glyph glyph-name="C" unicode="C" horiz-adv-x="759" 
d="M592 480c-29 87 -96 134 -185 134c-144 0 -241 -102 -241 -254s97 -253 241 -253c91 0 149 39 193 127h125c-39 -153 -163 -248 -318 -248c-217 0 -375 159 -375 374c0 224 159 374 367 374c86 0 155 -27 195 -74l-2 60h107v-240h-107z" />
    <glyph glyph-name="D" unicode="D" horiz-adv-x="749" 
d="M314 720c266 0 404 -128 404 -360s-138 -360 -404 -360h-289v100h77v520h-77v100h289zM231 620v-520h87c176 0 267 91 267 260s-91 260 -267 260h-87z" />
    <glyph glyph-name="E" unicode="E" horiz-adv-x="625" 
d="M25 0v100h77v520h-77v100h548v-196h-112v95h-230v-180h193v-108h-193v-231h226v113h116v-213h-548z" />
    <glyph glyph-name="F" unicode="F" horiz-adv-x="597" 
d="M25 0v100h77v520h-77v100h548v-196h-112v95h-230v-180h205v-108h-205v-231h94v-100h-300z" />
    <glyph glyph-name="G" unicode="G" horiz-adv-x="833" 
d="M630 638c-58 64 -135 96 -229 96c-207 0 -371 -157 -371 -374s155 -374 377 -374c88 0 160 25 204 69v-55h106v240h-106c-39 -88 -107 -132 -202 -132c-151 0 -242 104 -242 252c0 149 105 252 240 252c96 0 164 -38 217 -126h-165v-104h344v104h-75v234h-94z" />
    <glyph glyph-name="H" unicode="H" horiz-adv-x="749" 
d="M231 323v-223h77v-100h-283v100h77v520h-77v100h283v-100h-77v-181h287v181h-77v100h282v-100h-76v-520h76v-100h-282v100h77v223h-287z" />
    <glyph glyph-name="I" unicode="I" horiz-adv-x="333" 
d="M231 100h77v-100h-283v100h77v520h-77v100h283v-100h-77v-520z" />
    <glyph glyph-name="J" unicode="J" horiz-adv-x="333" 
d="M236 67c0 -128 -54 -184 -185 -184c-10 0 -22 0 -34 1v126c17 -1 27 -1 30 -1c40 0 59 21 59 65v546h-87v100h293v-100h-76v-553z" />
    <glyph glyph-name="K" unicode="K" horiz-adv-x="648" 
d="M231 100h77v-100h-283v100h77v520h-77v100h283v-100h-77v-235l198 235h-75v100h272v-100h-51l-207 -239l206 -281h67v-100h-287v100h72l-195 266v-266z" />
    <glyph glyph-name="L" unicode="L" horiz-adv-x="546" 
d="M25 720v-100h77v-520h-77v-100h294v101h-88v519h180v-113h117v213h-503z" />
    <glyph glyph-name="M" unicode="M" horiz-adv-x="885" 
d="M229 100h86v-100h-290v100h77v520h-77v100h280l142 -413l143 413h270v-100h-77v-520h77v-100h-290v100h86v487l-178 -491h-69l-180 491v-487z" />
    <glyph glyph-name="N" unicode="N" horiz-adv-x="727" 
d="M225 606h76v100h-276v-100h77v-520h-77v-100h220l257 470v-370h-77v-100h276v100h-77v634h-109l-290 -545v431z" />
    <glyph glyph-name="O" unicode="O" horiz-adv-x="815" 
d="M167 360c0 -149 107 -252 240 -252c135 0 241 103 241 252c0 150 -108 252 -241 252c-131 0 -240 -102 -240 -252zM30 360c0 210 159 374 377 374c99 0 184 -30 252 -91c82 -73 126 -171 126 -283c0 -97 -35 -187 -99 -256c-72 -78 -167 -118 -279 -118
c-217 0 -377 165 -377 374z" />
    <glyph glyph-name="P" unicode="P" horiz-adv-x="586" 
d="M231 620h93v100h-299v-100h77v-520h-77v-100h246c203 0 305 80 305 230c0 149 -102 229 -305 229h-40v161zM231 99v261h40c117 0 175 -41 175 -131s-58 -130 -175 -130h-40z" />
    <glyph glyph-name="Q" unicode="Q" horiz-adv-x="815" 
d="M585 28l20 -37h99v-116h-165l-57 117c-30 -4 -55 -6 -75 -6c-98 0 -183 31 -251 91c-82 72 -126 173 -126 283c0 210 159 374 377 374c99 0 183 -30 252 -91c82 -72 126 -171 126 -283c0 -144 -77 -273 -200 -332zM529 137c75 39 119 121 119 223
c0 152 -106 252 -241 252c-134 0 -240 -101 -240 -252s105 -252 240 -252h16l-34 70l93 51z" />
    <glyph glyph-name="R" unicode="R" horiz-adv-x="648" 
d="M231 100h87v-100h-293v100h77v520h-77v100h297c173 0 260 -52 260 -185c0 -79 -40 -131 -123 -159c72 -10 102 -47 102 -125v-151h69v-100h-199v181c0 103 -13 149 -133 149h-67v-230zM231 620v-190h94c86 0 128 26 128 95s-42 95 -128 95h-94z" />
    <glyph glyph-name="S" unicode="S" horiz-adv-x="626" 
d="M173 61v-61h-104v244h104c27 -104 86 -158 171 -158c67 0 117 48 117 108c0 58 -42 88 -127 112l-82 23c-126 35 -188 93 -188 199c0 117 93 206 217 206c67 0 125 -22 165 -61v47h100v-214h-100c-23 85 -71 127 -145 127c-66 0 -106 -41 -106 -91c0 -49 27 -70 85 -87
l87 -25c146 -42 219 -97 219 -221c0 -134 -88 -223 -224 -223c-76 0 -141 25 -189 75z" />
    <glyph glyph-name="T" unicode="T" horiz-adv-x="597" 
d="M363 100h93v-100h-315v100h93v520h-93v-104h-116v204h116h315h116v-204h-116v104h-93v-520z" />
    <glyph glyph-name="U" unicode="U" horiz-adv-x="743" 
d="M244 444c0 102 27 154 128 154c98 0 127 -50 127 -154v-358h-76v-100h282v100h-76v343c0 76 -3 136 -38 191c-42 67 -115 100 -219 100c-95 0 -165 -28 -210 -84c-41 -51 -48 -117 -48 -207v-343h-76v-100h282v100h-76v358z" />
    <glyph glyph-name="V" unicode="V" horiz-adv-x="660" 
d="M286 -14l-224 634h-51v100h252v-100h-65l134 -396l133 396h-68v100h244v-100h-49l-219 -634h-87z" />
    <glyph glyph-name="W" unicode="W" horiz-adv-x="946" 
d="M472 435l-135 -449h-85l-206 634h-50v100h249v-100h-68l120 -389l114 389h-65v100h254v-100h-66l122 -392l124 392h-80v100h250v-100h-51l-206 -634h-84z" />
    <glyph glyph-name="X" unicode="X" horiz-adv-x="660" 
d="M329 269l-108 -169h60v-100h-262v100h63l181 256l-176 264h-62v100h264v-100h-55l102 -163l104 163h-59v100h250v-100h-51l-180 -251l182 -269h63v-100h-269v100h58z" />
    <glyph glyph-name="Y" unicode="Y" horiz-adv-x="656" 
d="M389 620h88v100h-306v-100h88v-232l-189 -288h-57v-100h263v100h-57l110 179l108 -179h-65v-100h262v100h-58l-187 288v232z" />
    <glyph glyph-name="Z" unicode="Z" horiz-adv-x="649" 
d="M467 98v120h118v-220h-526v94l369 527h-237v-98h-118v197h512v-88l-371 -532h253z" />
    <glyph glyph-name="bracketleft" unicode="[" horiz-adv-x="363" 
d="M96 -85v805h234v-88h-118v-629h118v-88h-234z" />
    <glyph glyph-name="backslash" unicode="\" horiz-adv-x="333" 
d="M256 -93l-246 827h68l245 -827h-67z" />
    <glyph glyph-name="bracketright" unicode="]" horiz-adv-x="363" 
d="M268 -85h-234v88h118v629h-118v88h234v-805z" />
    <glyph glyph-name="asciicircum" unicode="^" horiz-adv-x="1000" 
d="M447 713h106l242 -274h-101l-194 194l-195 -194h-101z" />
    <glyph glyph-name="underscore" unicode="_" 
d="M0 -236h500v84h-500v-84z" />
    <glyph glyph-name="quoteleft" unicode="&#x2018;" horiz-adv-x="225" 
d="M81 720h126l-70 -208h-120z" />
    <glyph glyph-name="a" unicode="a" horiz-adv-x="620" 
d="M144 232c0 -82 55 -139 134 -139c73 0 134 55 134 139s-61 140 -134 140c-79 0 -134 -57 -134 -140zM524 97h65v-97h-181v50c-39 -40 -90 -61 -146 -61c-138 0 -236 102 -236 244c0 136 99 244 236 244c57 0 104 -21 146 -62v50h181v-97h-65v-271z" />
    <glyph glyph-name="b" unicode="b" horiz-adv-x="616" 
d="M27 0v97h65v526h-65v97h180v-305c42 41 90 62 147 62c137 0 236 -108 236 -244c0 -142 -98 -244 -236 -244c-56 0 -108 21 -147 61v-50h-180zM204 232c0 -83 60 -139 134 -139s134 55 134 139s-61 140 -134 140s-134 -56 -134 -140z" />
    <glyph glyph-name="c" unicode="c" horiz-adv-x="516" 
d="M490 105c-59 -77 -134 -117 -218 -117c-142 0 -247 104 -247 245c0 145 103 245 231 245c49 0 91 -15 124 -45v32h91v-156h-74c-39 49 -74 70 -133 70c-72 0 -123 -54 -123 -146c0 -81 55 -144 130 -144c60 0 99 22 147 77z" />
    <glyph glyph-name="d" unicode="d" horiz-adv-x="613" 
d="M144 232c0 -83 60 -139 134 -139s134 55 134 139s-61 140 -134 140s-134 -56 -134 -140zM344 720h180v-623h65v-97h-181v50c-39 -40 -90 -61 -146 -61c-138 0 -236 102 -236 244c0 136 99 244 236 244c57 0 104 -21 146 -62v208h-64v97z" />
    <glyph glyph-name="e" unicode="e" horiz-adv-x="557" 
d="M517 137c-27 -94 -111 -149 -234 -149c-157 0 -257 101 -257 244c0 144 108 244 256 244s248 -103 248 -266v-12h-385c8 -71 58 -111 141 -111c53 0 95 19 117 50h114zM145 280h270c-19 64 -65 98 -133 98c-70 0 -121 -36 -137 -98z" />
    <glyph glyph-name="f" unicode="f" horiz-adv-x="326" 
d="M295 0h-273v97h77v271h-77v97h77v63c0 149 21 192 170 192c8 0 18 0 32 -1v-92h-26c-57 0 -61 -20 -61 -73v-32v-57h81v-97h-81v-271h81v-97z" />
    <glyph glyph-name="g" unicode="g" horiz-adv-x="616" 
d="M524 81v-38c0 -64 -2 -116 -28 -156c-39 -61 -111 -95 -207 -95c-84 0 -154 16 -214 51v112c70 -42 130 -63 180 -63c105 0 153 36 153 114v44c-39 -40 -90 -61 -146 -61c-138 0 -236 102 -236 244c0 136 99 244 236 244c57 0 104 -21 146 -62v50h181v-97h-65v-287z
M144 232c0 -83 60 -139 134 -139s134 55 134 139s-61 140 -134 140s-134 -56 -134 -140z" />
    <glyph glyph-name="h" unicode="h" horiz-adv-x="594" 
d="M88 623h-65v97h181v-318c53 50 104 75 165 75c100 0 144 -54 144 -162v-218h65v-97h-246v97h65v165v27c0 51 -27 79 -73 79c-42 0 -81 -24 -120 -70v-201h65v-97h-246v97h65v526z" />
    <glyph glyph-name="i" unicode="i" horiz-adv-x="292" 
d="M209 97h67v-97h-254v97h71v271h-70v97h186v-368zM55 541v123h154v-123h-154z" />
    <glyph glyph-name="j" unicode="j" horiz-adv-x="278" 
d="M55 -84v-123h154v123h-154zM209 425c0 162 -2 236 -192 239v-103c73 -10 76 -37 76 -111v-18v-343h-70v-97h186v433z" />
    <glyph glyph-name="k" unicode="k" horiz-adv-x="556" 
d="M91 623h-70v97h185v-468l148 116h-55v97h238v-97h-55l-154 -126l159 -145h50v-97h-232v97h41l-140 130v-130h56v-97h-242v97h71v526z" />
    <glyph glyph-name="l" unicode="l" horiz-adv-x="289" 
d="M91 623h-70v97h185v-623h68v-97h-254v97h71v526z" />
    <glyph glyph-name="m" unicode="m" horiz-adv-x="875" 
d="M209 402c45 50 99 75 148 75c64 0 108 -28 131 -83c44 57 94 83 159 83c104 0 148 -53 148 -162v-218h65v-97h-245v97h67v165c0 69 -12 106 -79 106c-38 0 -72 -18 -103 -53v-218h66v-97h-244v97h66v165c0 70 -11 106 -80 106c-40 0 -74 -24 -102 -70v-201h67v-97h-245
v97h65v271h-65v97h181v-63z" />
    <glyph glyph-name="n" unicode="n" horiz-adv-x="598" 
d="M209 402c53 50 103 75 164 75c100 0 145 -54 145 -162v-218h65v-97h-246v97h65v165v27c0 51 -27 79 -73 79c-42 0 -81 -24 -120 -70v-201h65v-97h-246v97h65v271h-65v97h181v-63z" />
    <glyph glyph-name="o" unicode="o" horiz-adv-x="565" 
d="M25 233c0 135 108 244 257 244c150 0 257 -109 257 -244s-107 -243 -257 -243c-148 0 -257 107 -257 243zM145 233c0 -84 62 -143 137 -143s137 58 137 143c0 86 -61 144 -137 144s-137 -59 -137 -144z" />
    <glyph glyph-name="p" unicode="p" horiz-adv-x="617" 
d="M28 -208v97h65v479h-65v97h181v-50c42 41 89 62 146 62c137 0 236 -108 236 -244c0 -142 -97 -244 -236 -244c-53 0 -103 19 -146 55v-155h69v-97h-250zM205 232c0 -83 60 -139 134 -139s134 55 134 139s-61 140 -134 140s-134 -56 -134 -140z" />
    <glyph glyph-name="q" unicode="q" horiz-adv-x="617" 
d="M412 232c0 84 -61 140 -134 140s-134 -56 -134 -140s60 -139 134 -139s134 56 134 139zM589 -208h-250v97h69v155c-43 -36 -93 -55 -146 -55c-139 0 -236 102 -236 244c0 136 99 244 236 244c57 0 104 -21 146 -62v50h181v-97h-65v-479h65v-97z" />
    <glyph glyph-name="r" unicode="r" horiz-adv-x="403" 
d="M209 398l6 2c13 48 44 73 85 73c46 0 82 -34 82 -83c0 -47 -33 -82 -83 -82c-37 0 -66 22 -83 64l-7 -3v-272h65v-97h-246v97h65v271h-65v97h181v-67z" />
    <glyph glyph-name="s" unicode="s" horiz-adv-x="514" 
d="M141 0h-87v162h91c23 -57 72 -88 142 -88c44 0 70 24 70 55c0 36 -32 43 -81 52l-77 13c-101 18 -150 62 -150 140c0 88 68 143 169 143c55 0 100 -15 130 -44l1 32h87v-147h-94c-17 50 -56 76 -110 76c-46 0 -73 -21 -73 -49c0 -42 31 -46 97 -58l53 -9
c108 -20 162 -64 162 -144c0 -81 -67 -146 -177 -146c-54 0 -103 15 -152 46z" />
    <glyph glyph-name="t" unicode="t" horiz-adv-x="338" 
d="M208 178c0 -84 5 -88 69 -88c4 0 9 1 16 2v-92c-27 -3 -53 -4 -78 -4c-108 0 -122 26 -122 124v248h-81v97h81v164h115v-164h85v-97h-85v-190z" />
    <glyph glyph-name="u" unicode="u" horiz-adv-x="595" 
d="M390 63c-53 -50 -104 -75 -165 -75c-100 0 -144 54 -144 162v218h-65v97h181v-262v-27c0 -51 27 -79 73 -79c41 0 80 23 120 70v201h-65v97h181v-368h64v-97h-180v63z" />
    <glyph glyph-name="v" unicode="v" horiz-adv-x="539" 
d="M222 0l-163 368h-54v97h224v-97h-45l88 -222l94 222h-47v97h215v-97h-55l-163 -368h-94z" />
    <glyph glyph-name="w" unicode="w" horiz-adv-x="794" 
d="M288 0h-77l-152 368h-55v97h217v-97h-51l85 -218l92 218h-55v97h218v-97h-56l89 -218l90 218h-61v97h219v-97h-52l-156 -368h-80l-106 255z" />
    <glyph glyph-name="x" unicode="x" horiz-adv-x="556" 
d="M216 92v-92h-193v97h68l124 133l-137 138h-55v97h185v-80l72 -86l66 86v80h184v-97h-67l-118 -132l140 -139h45v-97h-183v92l-69 75z" />
    <glyph glyph-name="y" unicode="y" horiz-adv-x="567" 
d="M347 -208h-261v97h73l61 123l-155 356h-58v97h237v-97h-62l100 -239l104 239h-60v97h233v-97h-57l-228 -479h73v-97z" />
    <glyph glyph-name="z" unicode="z" horiz-adv-x="492" 
d="M456 0h-420v97l266 271h-152v-62h-100v159h395v-97l-265 -271h177v69h99v-166z" />
    <glyph glyph-name="braceleft" unicode="{" 
d="M427 721v-87c-8 0 -16 1 -23 1c-77 0 -91 -26 -91 -105v-118c0 -91 -17 -133 -99 -153c82 -20 99 -63 99 -153v-117c0 -79 14 -106 92 -106c7 0 14 1 22 1v-86h-31c-58 0 -101 5 -133 24c-44 26 -50 72 -50 146v121c0 92 -29 128 -113 128c-7 0 -14 -1 -21 -1v87
c7 0 14 -1 21 -1c83 0 113 35 113 127v121c0 74 5 120 50 147c34 20 79 24 142 24h22z" />
    <glyph glyph-name="bar" unicode="|" 
d="M207 764h87v-1000h-87v1000z" />
    <glyph glyph-name="braceright" unicode="}" 
d="M74 721h22c62 0 107 -4 141 -24c45 -27 50 -74 50 -147v-121c0 -92 29 -127 113 -127c6 0 14 1 21 1v-87c-7 0 -14 1 -21 1c-84 0 -113 -36 -113 -128v-121c0 -73 -5 -119 -50 -146c-33 -20 -79 -24 -141 -24h-22v86c8 0 15 -1 22 -1c78 0 91 27 91 106v117
c0 90 18 133 100 153c-83 20 -100 63 -100 153v118c0 79 -14 105 -90 105c-7 0 -15 -1 -23 -1v87z" />
    <glyph glyph-name="asciitilde" unicode="~" horiz-adv-x="833" 
d="M747 383v-90c-65 -45 -126 -69 -186 -69c-29 0 -61 6 -93 17c-69 23 -129 48 -193 48c-58 0 -117 -27 -188 -77v91c69 47 131 70 189 70c57 0 102 -15 143 -29c49 -17 94 -36 143 -36c58 0 117 26 185 75z" />
    <glyph glyph-name="exclamdown" unicode="&#xa1;" horiz-adv-x="345" 
d="M222 503l27 -503h-153l27 503h99zM83 643c0 51 37 88 89 88c50 0 90 -39 90 -88s-40 -88 -90 -88c-51 0 -89 37 -89 88z" />
    <glyph glyph-name="cent" unicode="&#xa2;" horiz-adv-x="535" 
d="M428 163l69 -62c-62 -75 -136 -113 -205 -113c-16 0 -38 3 -66 9l-43 -128h-59l53 148c-81 48 -124 123 -124 217c0 140 98 243 228 243c17 0 34 -2 51 -6l37 109h56l-44 -132c18 -11 32 -25 44 -42l-4 59h67v-160h-79c-13 28 -31 45 -57 57l-95 -270c12 -3 24 -4 34 -4
c52 0 93 25 137 75zM211 123l90 255c-8 1 -13 1 -14 1c-66 0 -118 -55 -118 -140c0 -46 13 -83 42 -116z" />
    <glyph glyph-name="sterling" unicode="&#xa3;" horiz-adv-x="535" 
d="M24 -11v122c81 5 121 47 121 129c0 21 -4 44 -12 67h-100v93h81c-14 51 -21 93 -21 125c0 118 77 191 204 191s196 -69 196 -200c0 -8 0 -16 -1 -25h-112v15c0 73 -24 105 -84 105c-50 0 -81 -34 -81 -86c0 -23 10 -64 27 -125h121v-93h-107c3 -18 5 -35 5 -52
c0 -42 -11 -82 -33 -126c30 -20 60 -29 87 -29c57 0 84 28 84 91v3h116l2 -23c0 -5 1 -9 1 -14c0 -91 -76 -171 -171 -171c-55 0 -112 22 -167 66c-38 -44 -82 -64 -139 -64c-2 0 -7 1 -17 1z" />
    <glyph glyph-name="fraction" unicode="&#x2044;" horiz-adv-x="167" 
d="M-167 -14l429 729h71l-430 -729h-70z" />
    <glyph glyph-name="yen" unicode="&#xa5;" horiz-adv-x="535" 
d="M417 473h111v-75h-150l-47 -79h197v-75h-200v-151h82v-93h-285v93h82v151h-200v75h198l-45 79h-153v75h109l-77 136h-47v93h233v-93h-56l100 -188l97 188h-56v93h235v-93h-51z" />
    <glyph glyph-name="florin" unicode="&#x192;" horiz-adv-x="535" 
d="M1 -90c26 -8 48 -12 67 -12c79 0 86 81 115 308l17 131h-103v93h117l14 88c21 132 80 197 179 197c38 0 73 -8 95 -18l-26 -83c-21 6 -38 9 -52 9c-61 0 -78 -44 -92 -131l-10 -62h98v-93h-112l-12 -96c-17 -135 -33 -230 -48 -284c-30 -104 -84 -150 -184 -150
c-30 0 -59 5 -87 15z" />
    <glyph glyph-name="section" unicode="&#xa7;" 
d="M79 45h102v-62h56c33 0 51 14 51 38c0 18 -13 39 -39 66l-156 161c-47 49 -71 97 -71 139c0 66 53 117 122 117c9 0 19 0 30 -2c-41 36 -61 75 -61 114c0 68 52 104 157 104h143v-155h-102v64h-50c-28 0 -44 -11 -44 -31c0 -15 13 -37 39 -64l152 -156
c49 -51 77 -93 77 -149c0 -71 -44 -122 -116 -122c-3 0 -11 0 -22 1c36 -37 55 -68 55 -106c0 -74 -51 -115 -154 -115h-169v158zM172 324l87 -93c28 -29 49 -46 77 -46c27 0 45 15 45 41c0 16 -14 38 -40 66l-87 93c-28 29 -49 46 -77 46c-27 0 -44 -15 -44 -41
c0 -17 13 -38 39 -66z" />
    <glyph glyph-name="currency" unicode="&#xa4;" horiz-adv-x="606" 
d="M82 698l99 -99c36 27 76 40 122 40s87 -13 123 -40l99 99l46 -45l-100 -100c26 -35 39 -76 39 -121s-13 -86 -39 -121l100 -100l-46 -45l-99 100c-37 -27 -76 -40 -122 -40s-87 13 -123 40l-99 -100l-45 45l99 100c-26 35 -39 76 -39 121s13 86 39 121l-99 100zM304 574
c-78 0 -142 -65 -142 -142c0 -78 63 -141 142 -141s142 63 142 141c0 77 -64 142 -142 142z" />
    <glyph glyph-name="quotesingle" unicode="'" horiz-adv-x="163" 
d="M42 701h80v-272h-80v272z" />
    <glyph glyph-name="quotedblleft" unicode="&#x201c;" horiz-adv-x="443" 
d="M299 720h126l-70 -208h-120zM80 720h126l-70 -208h-120z" />
    <glyph glyph-name="guillemotleft" unicode="&#xab;" horiz-adv-x="541" 
d="M289 385l-128 -153l128 -152h-112l-126 152l126 153h112zM501 385l-128 -153l128 -152h-113l-126 152l126 153h113z" />
    <glyph glyph-name="guilsinglleft" unicode="&#x2039;" horiz-adv-x="329" 
d="M289 385l-128 -153l128 -152h-112l-126 152l126 153h112z" />
    <glyph glyph-name="guilsinglright" unicode="&#x203a;" horiz-adv-x="329" 
d="M39 385h113l126 -153l-126 -152h-113l129 152z" />
    <glyph glyph-name="fi" unicode="&#xfb01;" horiz-adv-x="618" 
d="M295 0h-273v97h77v271h-77v97h77v63c0 149 21 192 170 192c8 0 18 0 32 -1v-92h-26c-57 0 -61 -20 -61 -73v-32v-57h81v-97h-81v-271h81v-97zM535 97h68v-97h-254v97h70v271h-70v97h186v-368zM381 541v123h154v-123h-154z" />
    <glyph glyph-name="fl" unicode="&#xfb02;" horiz-adv-x="616" 
d="M295 0h-273v97h77v271h-77v97h77v63c0 149 21 192 170 192c8 0 18 0 32 -1v-92h-26c-57 0 -61 -20 -61 -73v-32v-57h81v-97h-81v-271h81v-97zM419 623h-70v97h186v-623h68v-97h-254v97h70v526z" />
    <glyph glyph-name="endash" unicode="&#x2013;" 
d="M0 194v77h500v-77h-500z" />
    <glyph glyph-name="dagger" unicode="&#x2020;" horiz-adv-x="556" 
d="M226 -117v495h-86v-53h-90v201h90v-54h86v155h-51v93h208v-93h-53v-155h84v54h92v-201h-92v53h-84v-495h-104z" />
    <glyph glyph-name="daggerdbl" unicode="&#x2021;" 
d="M301 175h91v48h92v-186h-92v49h-91v-110h49v-93h-199v93h48v110h-91v-49h-92v186h92v-48h91v253h-91v-49h-92v187h92v-49h91v110h-49v93h199v-93h-48v-110h91v49h92v-187h-92v49h-91v-253z" />
    <glyph glyph-name="periodcentered" unicode="&#xb7;" horiz-adv-x="267" 
d="M134 269c-52 0 -90 38 -90 89s39 88 90 88c50 0 89 -39 89 -88s-39 -89 -89 -89z" />
    <glyph glyph-name="paragraph" unicode="&#xb6;" 
d="M473 722v-48h-57v-674h-63v674h-83v-674h-63v383c-112 4 -180 73 -180 169c0 100 73 170 191 170h255z" />
    <glyph glyph-name="bullet" unicode="&#x2022;" horiz-adv-x="590" 
d="M150 372c0 80 65 144 145 144c79 0 144 -64 144 -144c0 -79 -65 -145 -145 -145s-144 65 -144 145z" />
    <glyph glyph-name="quotesinglbase" unicode="&#x201a;" horiz-adv-x="225" 
d="M81 117h126l-70 -208h-120z" />
    <glyph glyph-name="quotedblbase" unicode="&#x201e;" horiz-adv-x="443" 
d="M299 117h127l-71 -208h-120zM81 117h126l-70 -208h-120z" />
    <glyph glyph-name="quotedblright" unicode="&#x201d;" horiz-adv-x="443" 
d="M81 720h126l-70 -208h-120zM299 720h127l-71 -208h-120z" />
    <glyph glyph-name="guillemotright" unicode="&#xbb;" horiz-adv-x="541" 
d="M39 385h113l126 -153l-126 -152h-113l129 152zM251 385h113l126 -153l-126 -152h-113l128 152z" />
    <glyph glyph-name="ellipsis" unicode="&#x2026;" horiz-adv-x="1000" 
d="M167 -12c-52 0 -90 38 -90 89s39 88 90 88c50 0 89 -39 89 -88s-39 -89 -89 -89zM500 -12c-52 0 -90 38 -90 89s39 88 90 88c50 0 89 -39 89 -88s-39 -89 -89 -89zM834 -12c-52 0 -90 38 -90 89s39 88 90 88c50 0 89 -39 89 -88s-39 -89 -89 -89z" />
    <glyph glyph-name="perthousand" unicode="&#x2030;" horiz-adv-x="1301" 
d="M387 525c0 -100 -81 -177 -177 -177c-95 0 -176 77 -176 177s79 176 176 176c98 0 177 -76 177 -176zM211 444c45 0 80 35 80 81c0 47 -36 81 -80 81s-81 -35 -81 -81c0 -45 36 -81 81 -81zM616 715h70l-416 -729h-70zM853 177c0 -100 -81 -177 -177 -177
c-95 0 -177 77 -177 177s80 176 177 176c98 0 177 -76 177 -176zM676 96c45 0 80 35 80 81c0 47 -36 81 -80 81s-80 -35 -80 -81c0 -45 35 -81 80 -81zM1267 177c0 -100 -81 -177 -177 -177c-95 0 -177 77 -177 177s80 176 177 176c98 0 177 -76 177 -176zM1090 96
c45 0 80 35 80 81c0 47 -36 81 -80 81s-80 -35 -80 -81c0 -45 35 -81 80 -81z" />
    <glyph glyph-name="questiondown" unicode="&#xbf;" horiz-adv-x="595" 
d="M309 734c52 0 89 -38 89 -89s-38 -88 -89 -88c-50 0 -90 39 -90 88s40 89 90 89zM511 199c-12 -137 -89 -211 -216 -211c-130 0 -212 79 -212 197c0 100 59 172 164 194v126h116v-213h-22c-93 0 -141 -42 -141 -111c0 -54 37 -90 98 -90c59 0 98 40 101 108h112z" />
    <glyph glyph-name="grave" unicode="`" 
d="M322 531h-64l-144 170h108z" />
    <glyph glyph-name="acute" unicode="&#xb4;" 
d="M178 531l100 170h108l-144 -170h-64z" />
    <glyph glyph-name="circumflex" unicode="&#x2c6;" 
d="M105 530l92 171h106l92 -171h-64l-81 103l-82 -103h-63z" />
    <glyph glyph-name="tilde" unicode="&#x2dc;" 
d="M397 670c-15 -75 -44 -111 -97 -111c-11 0 -23 2 -34 5l-41 12c-11 3 -21 5 -31 5c-22 0 -35 -11 -42 -33h-49c13 72 44 107 94 107c11 0 25 -1 41 -6l43 -12c8 -2 16 -4 25 -4c20 0 36 13 42 37h49z" />
    <glyph glyph-name="macron" unicode="&#xaf;" 
d="M115 574v72h270v-72h-270z" />
    <glyph glyph-name="breve" unicode="&#x2d8;" 
d="M104 687h59c3 -50 30 -71 87 -71s83 21 86 71h58c-6 -97 -51 -143 -144 -143s-139 46 -146 143z" />
    <glyph glyph-name="dotaccent" unicode="&#x2d9;" 
d="M198 552v117h105v-117h-105z" />
    <glyph glyph-name="dieresis" unicode="&#xa8;" 
d="M117 554v112h100v-112h-100zM283 554v112h100v-112h-100z" />
    <glyph glyph-name="ring" unicode="&#x2da;" 
d="M125 647c0 70 55 126 125 126s126 -56 126 -126c0 -71 -56 -126 -126 -126s-125 55 -125 126zM188 647c0 -35 28 -63 63 -63s62 29 62 63c0 35 -27 62 -62 62s-63 -27 -63 -62z" />
    <glyph glyph-name="cedilla" unicode="&#xb8;" 
d="M140 -212v58c54 -14 96 -21 125 -21c35 0 53 13 53 37c0 28 -23 39 -70 39c-6 0 -13 -1 -20 -1v100h44v-46h8c77 0 115 -30 115 -94c0 -58 -42 -93 -122 -93c-31 0 -77 6 -133 21z" />
    <glyph glyph-name="hungarumlaut" unicode="&#x2dd;" 
d="M199 531h-51l65 170h92zM276 531l79 170h96l-124 -170h-51z" />
    <glyph glyph-name="ogonek" unicode="&#x2db;" 
d="M305 0c-42 -36 -64 -67 -64 -104c0 -28 11 -39 43 -39h46v-76h-47c-76 0 -113 27 -113 88c0 44 31 85 92 131h43z" />
    <glyph glyph-name="caron" unicode="&#x2c7;" 
d="M105 701h63l82 -103l81 103h64l-92 -171h-106z" />
    <glyph glyph-name="emdash" unicode="&#x2014;" horiz-adv-x="1000" 
d="M0 271h1000v-77h-1000v77z" />
    <glyph glyph-name="AE" unicode="&#xc6;" horiz-adv-x="1002" 
d="M296 331h183v297h-35zM950 720v-196h-112v95h-229v-180h192v-108h-192v-231h226v113h115v-213h-547v100h76v131h-232l-65 -131h73v-100h-258v100h57l265 520h-85v100h716z" />
    <glyph glyph-name="ordfeminine" unicode="&#xaa;" horiz-adv-x="465" 
d="M108 556c0 -57 41 -97 101 -97c54 0 100 39 100 97c0 59 -46 98 -100 98c-60 0 -101 -40 -101 -98zM393 462h49v-68h-136v35c-29 -28 -67 -43 -109 -43c-104 0 -177 72 -177 171c0 95 74 171 177 171c42 0 78 -15 109 -44v35h136v-67h-49v-190z" />
    <glyph glyph-name="Lslash" unicode="&#x141;" horiz-adv-x="551" 
d="M30 0v100h76v137l-106 -75v121l106 75v262h-76v100h294v-101h-88v-175l127 91v-123l-127 -89v-223h180v113h116v-213h-502z" />
    <glyph glyph-name="Oslash" unicode="&#xd8;" horiz-adv-x="815" 
d="M282 141c35 -19 75 -33 125 -33c137 0 246 103 246 252c0 68 -22 127 -62 172zM611 678l67 86h97l-105 -132c76 -75 115 -167 115 -272c0 -97 -35 -186 -99 -256c-72 -78 -167 -118 -279 -118c-77 0 -147 20 -204 56l-69 -88h-96l105 134c-75 78 -113 169 -113 272
c0 210 159 374 377 374c79 0 149 -19 204 -56zM532 579c-31 19 -69 33 -119 33c-143 0 -251 -103 -251 -252c0 -65 20 -122 60 -173z" />
    <glyph glyph-name="OE" unicode="&#x152;" horiz-adv-x="1023" 
d="M463 0c-101 0 -185 3 -263 46c-105 58 -170 174 -170 314c0 142 62 252 171 313c72 40 155 47 261 47h509v-196h-112v95h-229v-180h192v-108h-192v-231h226v113h115v-213h-508zM500 197v369c0 45 -22 55 -92 55c-154 0 -245 -94 -245 -260c0 -159 97 -261 248 -261
c78 0 89 24 89 97z" />
    <glyph glyph-name="ordmasculine" unicode="&#xba;" horiz-adv-x="424" 
d="M19 557c0 95 81 171 193 171s192 -76 192 -171c0 -94 -80 -170 -192 -170c-111 0 -193 75 -193 170zM109 557c0 -59 46 -100 103 -100c56 0 102 41 102 100c0 60 -45 101 -102 101s-103 -41 -103 -101z" />
    <glyph glyph-name="ae" unicode="&#xe6;" horiz-adv-x="884" 
d="M121 148c0 -40 39 -70 107 -70c64 0 104 30 104 69c0 38 -40 70 -103 70c-70 0 -108 -29 -108 -69zM455 280h270c-19 64 -65 98 -133 98c-70 0 -121 -36 -137 -98zM403 63c-57 -52 -118 -75 -195 -75c-120 0 -194 65 -194 154c0 94 86 158 204 158c52 0 93 -13 123 -37
c0 6 1 13 1 18c0 71 -34 103 -111 103c-50 0 -95 -8 -136 -26l-39 81c50 25 108 38 175 38c83 0 145 -24 190 -72c42 43 92 71 171 71c149 0 249 -104 249 -266v-12h-386c8 -71 58 -111 141 -111c53 0 95 19 117 50h115c-27 -94 -112 -149 -235 -149c-83 0 -147 25 -190 75z
" />
    <glyph glyph-name="dotlessi" unicode="&#x131;" horiz-adv-x="292" 
d="M209 97h67v-97h-254v97h71v271h-70v97h186v-368z" />
    <glyph glyph-name="lslash" unicode="&#x142;" horiz-adv-x="294" 
d="M95 258l-90 -63v108l90 62v258h-70v97h186v-288l90 63v-107l-90 -63v-228h68v-97h-254v97h70v161z" />
    <glyph glyph-name="oslash" unicode="&#xf8;" horiz-adv-x="556" 
d="M381 322l-169 -215c23 -11 45 -17 66 -17c71 0 129 57 129 143c0 34 -8 61 -26 89zM174 143l169 214c-13 12 -36 19 -65 19c-72 0 -130 -57 -130 -143c0 -33 9 -61 26 -90zM3 -72l100 128c-48 47 -74 109 -74 177c0 136 105 244 249 244c55 0 97 -14 128 -33l75 94h75
l-103 -130c49 -50 74 -108 74 -175c0 -136 -105 -243 -249 -243c-52 0 -99 12 -128 31l-72 -93h-75z" />
    <glyph glyph-name="oe" unicode="&#x153;" horiz-adv-x="962" 
d="M150 233c0 -86 60 -143 132 -143s131 57 131 143s-58 143 -131 143s-132 -57 -132 -143zM904 137c-27 -93 -109 -149 -234 -149c-82 0 -142 31 -195 98c-50 -66 -111 -96 -193 -96c-146 0 -253 107 -253 243s107 244 253 244c89 0 151 -33 193 -103
c45 68 110 102 194 102c149 0 248 -104 248 -266v-12h-385c8 -71 58 -111 141 -111c53 0 95 19 117 50h114zM532 280h270c-19 64 -65 98 -133 98c-70 0 -121 -36 -137 -98z" />
    <glyph glyph-name="germandbls" unicode="&#xdf;" horiz-adv-x="590" 
d="M24 0v97h64v378c0 171 49 254 211 254c129 0 201 -65 201 -177c0 -62 -29 -106 -93 -137c103 -32 153 -102 153 -213c0 -131 -71 -213 -172 -213c-28 0 -54 5 -79 15l16 90c13 -2 23 -3 31 -3c55 0 85 41 85 119c0 100 -43 150 -130 150c-6 0 -13 0 -20 -1v87
c63 7 98 44 98 104c0 51 -34 88 -90 88c-84 0 -95 -57 -95 -159v-382h55v-97h-235z" />
    <glyph glyph-name="Aacute" unicode="&#xc1;" horiz-adv-x="685" 
d="M178 100h77v-100h-258v100h57l182 520h-78v100h369v-100h-83l178 -520h66v-100h-273v100h77l-44 131h-226zM253 331h163l-81 244zM271 788l100 170h108l-144 -170h-64z" />
    <glyph glyph-name="Acircumflex" unicode="&#xc2;" horiz-adv-x="685" 
d="M178 100h77v-100h-258v100h57l182 520h-78v100h369v-100h-83l178 -520h66v-100h-273v100h77l-44 131h-226zM253 331h163l-81 244zM198 787l92 171h106l92 -171h-64l-81 103l-82 -103h-63z" />
    <glyph glyph-name="Adieresis" unicode="&#xc4;" horiz-adv-x="685" 
d="M178 100h77v-100h-258v100h57l182 520h-78v100h369v-100h-83l178 -520h66v-100h-273v100h77l-44 131h-226zM253 331h163l-81 244zM210 811v112h100v-112h-100zM376 811v112h100v-112h-100z" />
    <glyph glyph-name="Agrave" unicode="&#xc0;" horiz-adv-x="685" 
d="M178 100h77v-100h-258v100h57l182 520h-78v100h369v-100h-83l178 -520h66v-100h-273v100h77l-44 131h-226zM253 331h163l-81 244zM415 788h-64l-144 170h108z" />
    <glyph glyph-name="Aring" unicode="&#xc5;" horiz-adv-x="685" 
d="M178 100h77v-100h-258v100h57l182 520h-78v100h369v-100h-78l173 -520h66v-100h-273v100h77l-45 131h-225zM253 331h164l-82 244zM235 855c0 60 48 108 108 108c59 0 107 -48 107 -108c0 -59 -48 -107 -107 -107c-60 0 -108 47 -108 107zM298 855c0 -25 20 -45 45 -45
s46 20 46 45s-21 46 -46 46s-45 -21 -45 -46z" />
    <glyph glyph-name="Atilde" unicode="&#xc3;" horiz-adv-x="685" 
d="M178 100h77v-100h-258v100h57l182 520h-78v100h369v-100h-83l178 -520h66v-100h-273v100h77l-44 131h-226zM253 331h163l-81 244zM490 927c-15 -75 -44 -111 -97 -111c-11 0 -23 2 -34 5l-41 12c-11 3 -21 5 -31 5c-22 0 -35 -11 -42 -33h-49c13 72 44 107 94 107
c11 0 25 -1 41 -6l43 -12c8 -2 16 -4 25 -4c20 0 36 13 42 37h49z" />
    <glyph glyph-name="Ccedilla" unicode="&#xc7;" horiz-adv-x="759" 
d="M592 480c-29 87 -96 134 -185 134c-144 0 -241 -102 -241 -254s97 -253 241 -253c91 0 149 39 193 127h125c-39 -153 -163 -248 -318 -248c-217 0 -375 159 -375 374c0 224 159 374 367 374c86 0 155 -27 195 -74l-2 60h107v-240h-107zM289 -212v58
c54 -14 96 -21 125 -21c35 0 53 13 53 37c0 28 -23 39 -70 39c-6 0 -13 -1 -20 -1v100h44v-46h8c77 0 115 -30 115 -94c0 -58 -42 -93 -122 -93c-31 0 -77 6 -133 21z" />
    <glyph glyph-name="Eacute" unicode="&#xc9;" horiz-adv-x="625" 
d="M25 0v100h77v520h-77v100h548v-196h-112v95h-230v-180h193v-108h-193v-231h226v113h116v-213h-548zM241 788l100 170h108l-144 -170h-64z" />
    <glyph glyph-name="Ecircumflex" unicode="&#xca;" horiz-adv-x="625" 
d="M25 0v100h77v520h-77v100h548v-196h-112v95h-230v-180h193v-108h-193v-231h226v113h116v-213h-548zM168 787l92 171h106l92 -171h-64l-81 103l-82 -103h-63z" />
    <glyph glyph-name="Edieresis" unicode="&#xcb;" horiz-adv-x="625" 
d="M25 0v100h77v520h-77v100h548v-196h-112v95h-230v-180h193v-108h-193v-231h226v113h116v-213h-548zM180 811v112h100v-112h-100zM346 811v112h100v-112h-100z" />
    <glyph glyph-name="Egrave" unicode="&#xc8;" horiz-adv-x="625" 
d="M25 0v100h77v520h-77v100h548v-196h-112v95h-230v-180h193v-108h-193v-231h226v113h116v-213h-548zM385 788h-64l-144 170h108z" />
    <glyph glyph-name="Iacute" unicode="&#xcd;" horiz-adv-x="333" 
d="M231 100h77v-100h-283v100h77v520h-77v100h283v-100h-77v-520zM95 788l100 170h108l-144 -170h-64z" />
    <glyph glyph-name="Icircumflex" unicode="&#xce;" horiz-adv-x="333" 
d="M231 100h77v-100h-283v100h77v520h-77v100h283v-100h-77v-520zM22 787l92 171h106l92 -171h-64l-81 103l-82 -103h-63z" />
    <glyph glyph-name="Idieresis" unicode="&#xcf;" horiz-adv-x="333" 
d="M231 100h77v-100h-283v100h77v520h-77v100h283v-100h-77v-520zM34 811v112h100v-112h-100zM200 811v112h100v-112h-100z" />
    <glyph glyph-name="Igrave" unicode="&#xcc;" horiz-adv-x="333" 
d="M231 100h77v-100h-283v100h77v520h-77v100h283v-100h-77v-520zM239 788h-64l-144 170h108z" />
    <glyph glyph-name="Ntilde" unicode="&#xd1;" horiz-adv-x="727" 
d="M225 100h76v-100h-276v100h77v520h-77v100h220l257 -470v370h-77v100h276v-100h-77v-634h-109l-290 545v-431zM511 927c-15 -75 -44 -111 -97 -111c-11 0 -23 2 -34 5l-41 12c-11 3 -21 5 -31 5c-22 0 -35 -11 -42 -33h-49c13 72 44 107 94 107c11 0 25 -1 41 -6l43 -12
c8 -2 16 -4 25 -4c20 0 36 13 42 37h49z" />
    <glyph glyph-name="Oacute" unicode="&#xd3;" horiz-adv-x="815" 
d="M167 360c0 -149 107 -252 240 -252c135 0 241 103 241 252c0 150 -108 252 -241 252c-131 0 -240 -102 -240 -252zM30 360c0 210 159 374 377 374c99 0 184 -30 252 -91c82 -73 126 -171 126 -283c0 -97 -35 -187 -99 -256c-72 -78 -167 -118 -279 -118
c-217 0 -377 165 -377 374zM336 788l100 170h108l-144 -170h-64z" />
    <glyph glyph-name="Ocircumflex" unicode="&#xd4;" horiz-adv-x="815" 
d="M167 360c0 -149 107 -252 240 -252c135 0 241 103 241 252c0 150 -108 252 -241 252c-131 0 -240 -102 -240 -252zM30 360c0 210 159 374 377 374c99 0 184 -30 252 -91c82 -73 126 -171 126 -283c0 -97 -35 -187 -99 -256c-72 -78 -167 -118 -279 -118
c-217 0 -377 165 -377 374zM263 787l92 171h106l92 -171h-64l-81 103l-82 -103h-63z" />
    <glyph glyph-name="Odieresis" unicode="&#xd6;" horiz-adv-x="815" 
d="M167 360c0 -149 107 -252 240 -252c135 0 241 103 241 252c0 150 -108 252 -241 252c-131 0 -240 -102 -240 -252zM30 360c0 210 159 374 377 374c99 0 184 -30 252 -91c82 -73 126 -171 126 -283c0 -97 -35 -187 -99 -256c-72 -78 -167 -118 -279 -118
c-217 0 -377 165 -377 374zM275 811v112h100v-112h-100zM441 811v112h100v-112h-100z" />
    <glyph glyph-name="Ograve" unicode="&#xd2;" horiz-adv-x="815" 
d="M167 360c0 -149 107 -252 240 -252c135 0 241 103 241 252c0 150 -108 252 -241 252c-131 0 -240 -102 -240 -252zM30 360c0 210 159 374 377 374c99 0 184 -30 252 -91c82 -73 126 -171 126 -283c0 -97 -35 -187 -99 -256c-72 -78 -167 -118 -279 -118
c-217 0 -377 165 -377 374zM480 788h-64l-144 170h108z" />
    <glyph glyph-name="Otilde" unicode="&#xd5;" horiz-adv-x="815" 
d="M167 360c0 -149 107 -252 240 -252c135 0 241 103 241 252c0 150 -108 252 -241 252c-131 0 -240 -102 -240 -252zM30 360c0 210 159 374 377 374c99 0 184 -30 252 -91c82 -73 126 -171 126 -283c0 -97 -35 -187 -99 -256c-72 -78 -167 -118 -279 -118
c-217 0 -377 165 -377 374zM555 927c-15 -75 -44 -111 -97 -111c-11 0 -23 2 -34 5l-41 12c-11 3 -21 5 -31 5c-22 0 -35 -11 -42 -33h-49c13 72 44 107 94 107c11 0 25 -1 41 -6l43 -12c8 -2 16 -4 25 -4c20 0 36 13 42 37h49z" />
    <glyph glyph-name="Scaron" unicode="&#x160;" horiz-adv-x="626" 
d="M173 61v-61h-104v244h104c27 -104 86 -158 171 -158c67 0 117 48 117 108c0 58 -42 88 -127 112l-82 23c-126 35 -188 93 -188 199c0 117 93 206 217 206c67 0 125 -22 165 -61v47h100v-214h-100c-23 85 -71 127 -145 127c-66 0 -106 -41 -106 -91c0 -49 27 -70 85 -87
l87 -25c146 -42 219 -97 219 -221c0 -134 -88 -223 -224 -223c-76 0 -141 25 -189 75zM168 958h63l82 -103l81 103h64l-92 -171h-106z" />
    <glyph glyph-name="Uacute" unicode="&#xda;" horiz-adv-x="743" 
d="M244 262c0 -102 27 -154 128 -154c98 0 127 50 127 154v358h-76v100h282v-100h-76v-343c0 -76 -3 -136 -38 -191c-42 -67 -115 -100 -219 -100c-95 0 -165 28 -210 84c-41 51 -48 117 -48 207v343h-76v100h282v-100h-76v-358zM300 788l100 170h108l-144 -170h-64z" />
    <glyph glyph-name="Ucircumflex" unicode="&#xdb;" horiz-adv-x="743" 
d="M244 262c0 -102 27 -154 128 -154c98 0 127 50 127 154v358h-76v100h282v-100h-76v-343c0 -76 -3 -136 -38 -191c-42 -67 -115 -100 -219 -100c-95 0 -165 28 -210 84c-41 51 -48 117 -48 207v343h-76v100h282v-100h-76v-358zM227 787l92 171h106l92 -171h-64l-81 103
l-82 -103h-63z" />
    <glyph glyph-name="Udieresis" unicode="&#xdc;" horiz-adv-x="743" 
d="M244 262c0 -102 27 -154 128 -154c98 0 127 50 127 154v358h-76v100h282v-100h-76v-343c0 -76 -3 -136 -38 -191c-42 -67 -115 -100 -219 -100c-95 0 -165 28 -210 84c-41 51 -48 117 -48 207v343h-76v100h282v-100h-76v-358zM239 811v112h100v-112h-100zM405 811v112
h100v-112h-100z" />
    <glyph glyph-name="Ugrave" unicode="&#xd9;" horiz-adv-x="743" 
d="M244 262c0 -102 27 -154 128 -154c98 0 127 50 127 154v358h-76v100h282v-100h-76v-343c0 -76 -3 -136 -38 -191c-42 -67 -115 -100 -219 -100c-95 0 -165 28 -210 84c-41 51 -48 117 -48 207v343h-76v100h282v-100h-76v-358zM444 788h-64l-144 170h108z" />
    <glyph glyph-name="Ydieresis" unicode="&#x178;" horiz-adv-x="656" 
d="M389 100h88v-100h-306v100h88v232l-189 288h-57v100h263v-100h-57l110 -179l108 179h-65v100h262v-100h-58l-187 -288v-232zM195 811v112h100v-112h-100zM361 811v112h100v-112h-100z" />
    <glyph glyph-name="Zcaron" unicode="&#x17d;" horiz-adv-x="649" 
d="M467 98v120h118v-220h-526v94l369 527h-237v-98h-118v197h512v-88l-371 -532h253zM180 958h63l82 -103l81 103h64l-92 -171h-106z" />
    <glyph glyph-name="aacute" unicode="&#xe1;" horiz-adv-x="620" 
d="M144 232c0 -82 55 -139 134 -139c73 0 134 55 134 139s-61 140 -134 140c-79 0 -134 -57 -134 -140zM524 97h65v-97h-181v50c-39 -40 -90 -61 -146 -61c-138 0 -236 102 -236 244c0 136 99 244 236 244c57 0 104 -21 146 -62v50h181v-97h-65v-271zM257 531l100 170h108
l-144 -170h-64z" />
    <glyph glyph-name="acircumflex" unicode="&#xe2;" horiz-adv-x="620" 
d="M144 232c0 -82 55 -139 134 -139c73 0 134 55 134 139s-61 140 -134 140c-79 0 -134 -57 -134 -140zM524 97h65v-97h-181v50c-39 -40 -90 -61 -146 -61c-138 0 -236 102 -236 244c0 136 99 244 236 244c57 0 104 -21 146 -62v50h181v-97h-65v-271zM184 530l92 171h106
l92 -171h-64l-81 103l-82 -103h-63z" />
    <glyph glyph-name="adieresis" unicode="&#xe4;" horiz-adv-x="620" 
d="M144 232c0 -82 55 -139 134 -139c73 0 134 55 134 139s-61 140 -134 140c-79 0 -134 -57 -134 -140zM524 97h65v-97h-181v50c-39 -40 -90 -61 -146 -61c-138 0 -236 102 -236 244c0 136 99 244 236 244c57 0 104 -21 146 -62v50h181v-97h-65v-271zM196 554v112h100v-112
h-100zM362 554v112h100v-112h-100z" />
    <glyph glyph-name="agrave" unicode="&#xe0;" horiz-adv-x="620" 
d="M144 232c0 -82 55 -139 134 -139c73 0 134 55 134 139s-61 140 -134 140c-79 0 -134 -57 -134 -140zM524 97h65v-97h-181v50c-39 -40 -90 -61 -146 -61c-138 0 -236 102 -236 244c0 136 99 244 236 244c57 0 104 -21 146 -62v50h181v-97h-65v-271zM401 531h-64l-144 170
h108z" />
    <glyph glyph-name="aring" unicode="&#xe5;" horiz-adv-x="620" 
d="M524 97h65v-97h-181v50c-39 -40 -90 -61 -146 -61c-138 0 -236 102 -236 244c0 136 99 244 236 244c57 0 104 -21 146 -62v50h181v-97h-65v-271zM144 232c0 -82 55 -139 134 -139c73 0 134 55 134 139s-61 140 -134 140c-79 0 -134 -57 -134 -140zM193 612
c0 60 47 108 107 108c59 0 108 -48 108 -108c0 -59 -49 -107 -108 -107c-60 0 -107 47 -107 107zM255 612c0 -25 20 -45 45 -45s46 20 46 45s-21 46 -46 46s-45 -21 -45 -46z" />
    <glyph glyph-name="atilde" unicode="&#xe3;" horiz-adv-x="620" 
d="M144 232c0 -82 55 -139 134 -139c73 0 134 55 134 139s-61 140 -134 140c-79 0 -134 -57 -134 -140zM524 97h65v-97h-181v50c-39 -40 -90 -61 -146 -61c-138 0 -236 102 -236 244c0 136 99 244 236 244c57 0 104 -21 146 -62v50h181v-97h-65v-271zM476 670
c-15 -75 -44 -111 -97 -111c-11 0 -23 2 -34 5l-41 12c-11 3 -21 5 -31 5c-22 0 -35 -11 -42 -33h-49c13 72 44 107 94 107c11 0 25 -1 41 -6l43 -12c8 -2 16 -4 25 -4c20 0 36 13 42 37h49z" />
    <glyph glyph-name="ccedilla" unicode="&#xe7;" horiz-adv-x="516" 
d="M490 105c-59 -77 -134 -117 -218 -117c-142 0 -247 104 -247 245c0 145 103 245 231 245c49 0 91 -15 124 -45v32h91v-156h-74c-39 49 -74 70 -133 70c-72 0 -123 -54 -123 -146c0 -81 55 -144 130 -144c60 0 99 22 147 77zM156 -212v58c54 -14 96 -21 125 -21
c35 0 53 13 53 37c0 28 -23 39 -70 39c-6 0 -13 -1 -20 -1v100h44v-46h8c77 0 115 -30 115 -94c0 -58 -42 -93 -122 -93c-31 0 -77 6 -133 21z" />
    <glyph glyph-name="eacute" unicode="&#xe9;" horiz-adv-x="557" 
d="M517 137c-27 -94 -111 -149 -234 -149c-157 0 -257 101 -257 244c0 144 108 244 256 244s248 -103 248 -266v-12h-385c8 -71 58 -111 141 -111c53 0 95 19 117 50h114zM145 280h270c-19 64 -65 98 -133 98c-70 0 -121 -36 -137 -98zM213 531l100 170h108l-144 -170h-64z
" />
    <glyph glyph-name="ecircumflex" unicode="&#xea;" horiz-adv-x="557" 
d="M517 137c-27 -94 -111 -149 -234 -149c-157 0 -257 101 -257 244c0 144 108 244 256 244s248 -103 248 -266v-12h-385c8 -71 58 -111 141 -111c53 0 95 19 117 50h114zM145 280h270c-19 64 -65 98 -133 98c-70 0 -121 -36 -137 -98zM140 530l92 171h106l92 -171h-64
l-81 103l-82 -103h-63z" />
    <glyph glyph-name="edieresis" unicode="&#xeb;" horiz-adv-x="557" 
d="M517 137c-27 -94 -111 -149 -234 -149c-157 0 -257 101 -257 244c0 144 108 244 256 244s248 -103 248 -266v-12h-385c8 -71 58 -111 141 -111c53 0 95 19 117 50h114zM145 280h270c-19 64 -65 98 -133 98c-70 0 -121 -36 -137 -98zM152 554v112h100v-112h-100zM318 554
v112h100v-112h-100z" />
    <glyph glyph-name="egrave" unicode="&#xe8;" horiz-adv-x="557" 
d="M517 137c-27 -94 -111 -149 -234 -149c-157 0 -257 101 -257 244c0 144 108 244 256 244s248 -103 248 -266v-12h-385c8 -71 58 -111 141 -111c53 0 95 19 117 50h114zM145 280h270c-19 64 -65 98 -133 98c-70 0 -121 -36 -137 -98zM357 531h-64l-144 170h108z" />
    <glyph glyph-name="iacute" unicode="&#xed;" horiz-adv-x="292" 
d="M209 97h67v-97h-254v97h71v271h-70v97h186v-368zM59 531l100 170h108l-144 -170h-64z" />
    <glyph glyph-name="icircumflex" unicode="&#xee;" horiz-adv-x="292" 
d="M209 97h67v-97h-254v97h71v271h-70v97h186v-368zM-14 530l92 171h106l92 -171h-64l-81 103l-82 -103h-63z" />
    <glyph glyph-name="idieresis" unicode="&#xef;" horiz-adv-x="292" 
d="M209 97h67v-97h-254v97h71v271h-70v97h186v-368zM-2 554v112h100v-112h-100zM164 554v112h100v-112h-100z" />
    <glyph glyph-name="igrave" unicode="&#xec;" horiz-adv-x="292" 
d="M209 97h67v-97h-254v97h71v271h-70v97h186v-368zM203 531h-64l-144 170h108z" />
    <glyph glyph-name="ntilde" unicode="&#xf1;" horiz-adv-x="598" 
d="M209 402c53 50 103 75 164 75c100 0 145 -54 145 -162v-218h65v-97h-246v97h65v165v27c0 51 -27 79 -73 79c-42 0 -81 -24 -120 -70v-201h65v-97h-246v97h65v271h-65v97h181v-63zM456 670c-15 -75 -44 -111 -97 -111c-11 0 -23 2 -34 5l-41 12c-11 3 -21 5 -31 5
c-22 0 -35 -11 -42 -33h-49c13 72 44 107 94 107c11 0 25 -1 41 -6l43 -12c8 -2 16 -4 25 -4c20 0 36 13 42 37h49z" />
    <glyph glyph-name="oacute" unicode="&#xf3;" horiz-adv-x="565" 
d="M25 233c0 135 108 244 257 244c150 0 257 -109 257 -244s-107 -243 -257 -243c-148 0 -257 107 -257 243zM145 233c0 -84 62 -143 137 -143s137 58 137 143c0 86 -61 144 -137 144s-137 -59 -137 -144zM211 531l100 170h108l-144 -170h-64z" />
    <glyph glyph-name="ocircumflex" unicode="&#xf4;" horiz-adv-x="565" 
d="M25 233c0 135 108 244 257 244c150 0 257 -109 257 -244s-107 -243 -257 -243c-148 0 -257 107 -257 243zM145 233c0 -84 62 -143 137 -143s137 58 137 143c0 86 -61 144 -137 144s-137 -59 -137 -144zM138 530l92 171h106l92 -171h-64l-81 103l-82 -103h-63z" />
    <glyph glyph-name="odieresis" unicode="&#xf6;" horiz-adv-x="565" 
d="M25 233c0 135 108 244 257 244c150 0 257 -109 257 -244s-107 -243 -257 -243c-148 0 -257 107 -257 243zM145 233c0 -84 62 -143 137 -143s137 58 137 143c0 86 -61 144 -137 144s-137 -59 -137 -144zM150 554v112h100v-112h-100zM316 554v112h100v-112h-100z" />
    <glyph glyph-name="ograve" unicode="&#xf2;" horiz-adv-x="565" 
d="M25 233c0 135 108 244 257 244c150 0 257 -109 257 -244s-107 -243 -257 -243c-148 0 -257 107 -257 243zM145 233c0 -84 62 -143 137 -143s137 58 137 143c0 86 -61 144 -137 144s-137 -59 -137 -144zM355 531h-64l-144 170h108z" />
    <glyph glyph-name="otilde" unicode="&#xf5;" horiz-adv-x="565" 
d="M25 233c0 135 108 244 257 244c150 0 257 -109 257 -244s-107 -243 -257 -243c-148 0 -257 107 -257 243zM145 233c0 -84 62 -143 137 -143s137 58 137 143c0 86 -61 144 -137 144s-137 -59 -137 -144zM430 670c-15 -75 -44 -111 -97 -111c-11 0 -23 2 -34 5l-41 12
c-11 3 -21 5 -31 5c-22 0 -35 -11 -42 -33h-49c13 72 44 107 94 107c11 0 25 -1 41 -6l43 -12c8 -2 16 -4 25 -4c20 0 36 13 42 37h49z" />
    <glyph glyph-name="scaron" unicode="&#x161;" horiz-adv-x="514" 
d="M141 0h-87v162h91c23 -57 72 -88 142 -88c44 0 70 24 70 55c0 36 -32 43 -81 52l-77 13c-101 18 -150 62 -150 140c0 88 68 143 169 143c55 0 100 -15 130 -44l1 32h87v-147h-94c-17 50 -56 76 -110 76c-46 0 -73 -21 -73 -49c0 -42 31 -46 97 -58l53 -9
c108 -20 162 -64 162 -144c0 -81 -67 -146 -177 -146c-54 0 -103 15 -152 46zM112 701h63l82 -103l81 103h64l-92 -171h-106z" />
    <glyph glyph-name="uacute" unicode="&#xfa;" horiz-adv-x="595" 
d="M390 63c-53 -50 -104 -75 -165 -75c-100 0 -144 54 -144 162v218h-65v97h181v-262v-27c0 -51 27 -79 73 -79c41 0 80 23 120 70v201h-65v97h181v-368h64v-97h-180v63zM214 531l100 170h108l-144 -170h-64z" />
    <glyph glyph-name="ucircumflex" unicode="&#xfb;" horiz-adv-x="595" 
d="M390 63c-53 -50 -104 -75 -165 -75c-100 0 -144 54 -144 162v218h-65v97h181v-262v-27c0 -51 27 -79 73 -79c41 0 80 23 120 70v201h-65v97h181v-368h64v-97h-180v63zM141 530l92 171h106l92 -171h-64l-81 103l-82 -103h-63z" />
    <glyph glyph-name="udieresis" unicode="&#xfc;" horiz-adv-x="595" 
d="M390 63c-53 -50 -104 -75 -165 -75c-100 0 -144 54 -144 162v218h-65v97h181v-262v-27c0 -51 27 -79 73 -79c41 0 80 23 120 70v201h-65v97h181v-368h64v-97h-180v63zM153 554v112h100v-112h-100zM319 554v112h100v-112h-100z" />
    <glyph glyph-name="ugrave" unicode="&#xf9;" horiz-adv-x="595" 
d="M390 63c-53 -50 -104 -75 -165 -75c-100 0 -144 54 -144 162v218h-65v97h181v-262v-27c0 -51 27 -79 73 -79c41 0 80 23 120 70v201h-65v97h181v-368h64v-97h-180v63zM358 531h-64l-144 170h108z" />
    <glyph glyph-name="ydieresis" unicode="&#xff;" horiz-adv-x="567" 
d="M347 -208h-261v97h73l61 123l-155 356h-58v97h237v-97h-62l100 -239l104 239h-60v97h233v-97h-57l-228 -479h73v-97zM151 554v112h100v-112h-100zM317 554v112h100v-112h-100z" />
    <glyph glyph-name="zcaron" unicode="&#x17e;" horiz-adv-x="492" 
d="M456 0h-420v97l266 271h-152v-62h-100v159h395v-97l-265 -271h177v69h99v-166zM101 701h63l82 -103l81 103h64l-92 -171h-106z" />
    <glyph glyph-name="trademark" unicode="&#x2122;" horiz-adv-x="833" 
d="M110 713h228v-46h-82v-219h-63v219h-83v46zM395 713h83l69 -176l65 176h83v-265h-56v209l-78 -209h-29l-81 209v-209h-56v265z" />
    <glyph glyph-name="copyright" unicode="&#xa9;" horiz-adv-x="833" 
d="M416 718c98 0 187 -36 257 -106c68 -68 105 -157 105 -255c0 -99 -36 -188 -104 -254c-71 -70 -163 -108 -258 -108s-185 38 -254 107s-107 159 -107 255c0 95 39 186 108 256c68 69 154 105 253 105zM417 665c-84 0 -159 -30 -217 -89c-59 -60 -91 -138 -91 -219
c0 -82 32 -158 91 -217s136 -91 217 -91s158 32 219 92c58 57 89 131 89 216c0 83 -31 160 -89 218c-59 59 -135 90 -219 90zM589 441h-81c-7 48 -41 75 -93 75c-62 0 -103 -56 -103 -159c0 -100 40 -155 108 -155c51 0 85 29 92 82h81c-5 -87 -75 -146 -176 -146
c-118 0 -194 82 -194 216c0 137 79 222 196 222c96 0 164 -55 170 -135z" />
    <glyph glyph-name="logicalnot" unicode="&#xac;" horiz-adv-x="833" 
d="M124 421h585v-245h-81v164h-504v81z" />
    <glyph glyph-name="registered" unicode="&#xae;" horiz-adv-x="833" 
d="M416 718c99 0 189 -37 259 -108c67 -68 103 -156 103 -253c0 -100 -37 -189 -106 -256c-71 -69 -162 -106 -256 -106c-96 0 -187 39 -256 109c-68 69 -105 158 -105 253c0 96 39 188 109 258c68 68 154 103 252 103zM417 665c-84 0 -157 -30 -215 -88
c-60 -61 -93 -139 -93 -220s31 -157 89 -216c59 -59 136 -92 214 -92c85 0 162 31 223 90c58 56 90 132 90 213c0 87 -30 162 -88 221c-60 60 -135 92 -220 92zM269 566h156c114 0 171 -39 171 -110c0 -59 -32 -99 -90 -112l90 -183h-97l-80 169h-63v-169h-87v405zM356 511
v-127h57c64 0 94 18 94 62c0 46 -32 65 -98 65h-53z" />
    <glyph glyph-name="minus" unicode="&#x2212;" horiz-adv-x="833" 
d="M124 340h585v-83h-585v83z" />
    <glyph glyph-name="Eth" unicode="&#xd0;" horiz-adv-x="753" 
d="M236 326v-226h86c176 0 267 91 267 260s-91 260 -267 260h-86v-194h175v-100h-175zM319 720c266 0 404 -128 404 -360s-138 -360 -404 -360h-289v100h76v226h-105v100h105v194h-76v100h289z" />
    <glyph glyph-name="Thorn" unicode="&#xde;" horiz-adv-x="590" 
d="M324 100v-100h-299v100h77v520h-77v100h283v-100h-77v-49h40c203 0 305 -74 305 -211c0 -135 -102 -211 -305 -211h-40v-49h93zM271 480h-40v-239h40c116 0 175 36 175 119s-59 120 -175 120z" />
    <glyph glyph-name="Yacute" unicode="&#xdd;" horiz-adv-x="656" 
d="M389 100h88v-100h-306v100h88v232l-189 288h-57v100h263v-100h-57l110 -179l108 179h-65v100h262v-100h-58l-187 -288v-232zM256 788l100 170h108l-144 -170h-64z" />
    <glyph glyph-name="brokenbar" unicode="&#xa6;" 
d="M207 699h87v-370h-87v370zM207 199h87v-370h-87v370z" />
    <glyph glyph-name="degree" unicode="&#xb0;" horiz-adv-x="329" 
d="M165 713c79 0 144 -65 144 -145c0 -78 -64 -144 -145 -144c-80 0 -143 63 -143 144s64 145 144 145zM165 659c-50 0 -91 -40 -91 -90s41 -91 91 -91c51 0 90 42 90 91c0 50 -40 90 -90 90z" />
    <glyph glyph-name="divide" unicode="&#xf7;" horiz-adv-x="833" 
d="M417 551c37 0 67 -31 67 -68c0 -36 -29 -66 -67 -66s-67 29 -67 66s31 68 67 68zM124 339h585v-81h-585v81zM417 179c37 0 67 -30 67 -67c0 -36 -29 -66 -67 -66s-67 29 -67 66s31 67 67 67z" />
    <glyph glyph-name="eth" unicode="&#xf0;" horiz-adv-x="565" 
d="M282 377c-75 0 -137 -59 -137 -144s62 -143 137 -143s137 58 137 143s-61 144 -137 144zM319 466l-65 85l-170 -33l-18 73l137 27l-73 102h114l63 -80l145 29l18 -73l-111 -24l86 -112c55 -71 96 -132 96 -225c0 -144 -110 -246 -259 -246c-150 0 -258 105 -258 240
s111 242 242 242c15 0 33 -2 53 -5z" />
    <glyph glyph-name="mu" unicode="&#x3bc;" horiz-adv-x="590" 
d="M100 528h112l-61 -310c-4 -19 -6 -36 -6 -51c0 -63 31 -96 89 -96c83 0 124 59 149 186l53 271h110l-71 -361c-6 -31 -9 -52 -9 -65c0 -23 9 -32 33 -32c5 0 11 0 17 1l-16 -78c-23 -6 -47 -8 -73 -8c-48 0 -73 20 -73 61v7c-27 -44 -73 -69 -124 -69s-87 15 -115 53
l-48 -247h-112z" />
    <glyph glyph-name="multiply" unicode="&#xd7;" horiz-adv-x="833" 
d="M197 580l224 -224l225 224l57 -57l-224 -225l224 -224l-57 -58l-225 225l-224 -225l-57 58l224 224l-224 225z" />
    <glyph glyph-name="onehalf" unicode="&#xbd;" horiz-adv-x="841" 
d="M81 309v54h52v284h-48v55h124v-339h51v-54h-179zM170 -14l429 729h71l-430 -729h-70zM746 115h72v-115h-288v54l144 141c41 41 63 71 63 99c0 30 -22 48 -62 48c-52 0 -68 -30 -68 -93v-12h-73v19c0 97 46 144 143 144c85 0 137 -43 137 -107c0 -51 -35 -87 -88 -135
l-110 -99h130v56z" />
    <glyph glyph-name="onequarter" unicode="&#xbc;" horiz-adv-x="841" 
d="M81 309v54h52v284h-48v55h124v-339h51v-54h-179zM170 -14l429 729h71l-430 -729h-70zM640 0v50h62v44h-172v50l171 249h73v-250h53v-49h-53v-44h53v-50h-187zM597 143h105v97c0 16 2 43 8 78z" />
    <glyph glyph-name="onesuperior" unicode="&#xb9;" horiz-adv-x="353" 
d="M85 281v58h54v304h-50v59h130v-363h54v-58h-188z" />
    <glyph glyph-name="plusminus" unicode="&#xb1;" horiz-adv-x="833" 
d="M375 589h83v-163h251v-81h-251v-163h-83v163h-251v81h251v163zM124 89h585v-82h-585v82z" />
    <glyph glyph-name="thorn" unicode="&#xfe;" horiz-adv-x="618" 
d="M28 -111h65v734h-65v97h181v-305c42 41 89 62 146 62c137 0 236 -108 236 -244c0 -142 -97 -244 -236 -244c-53 0 -104 19 -146 55v-155h69v-97h-250v97zM339 372c-73 0 -134 -56 -134 -140c0 -83 60 -139 134 -139s134 55 134 139s-61 140 -134 140z" />
    <glyph glyph-name="threequarters" unicode="&#xbe;" horiz-adv-x="841" 
d="M100 447c1 -58 23 -85 69 -85c39 0 67 28 67 62c0 39 -31 63 -81 63h-7v49c4 0 7 -1 10 -1c47 0 71 23 71 62c0 33 -23 53 -58 53c-50 0 -66 -27 -66 -92v-4h-75v20c0 87 51 136 138 136c86 0 136 -45 136 -112c0 -44 -22 -74 -62 -85c43 -9 69 -42 69 -89
c0 -75 -53 -122 -142 -122c-95 0 -144 45 -144 131v14h75zM170 -14l429 729h71l-430 -729h-70zM640 0v50h62v44h-172v50l171 249h73v-250h53v-49h-53v-44h53v-50h-187zM597 143h105v97c0 16 2 43 8 78z" />
    <glyph glyph-name="threesuperior" unicode="&#xb3;" horiz-adv-x="353" 
d="M105 429c1 -62 24 -91 73 -91c40 0 69 29 69 66c0 42 -32 68 -85 68h-7v52c4 0 7 -1 11 -1c49 0 74 24 74 66c0 36 -24 57 -61 57c-52 0 -69 -29 -69 -98v-4h-78c0 6 -1 12 -1 21c0 93 54 146 145 146c90 0 143 -48 143 -120c0 -47 -24 -80 -66 -91c45 -10 73 -46 73 -95
c0 -81 -55 -132 -148 -132c-100 0 -152 49 -152 141v15h79z" />
    <glyph glyph-name="twosuperior" unicode="&#xb2;" horiz-adv-x="353" 
d="M253 404h76v-123h-301v58l150 151c43 44 66 76 66 106c0 32 -23 51 -64 51c-55 0 -72 -31 -72 -100v-12h-76c-1 8 -1 14 -1 21c0 104 49 154 150 154c90 0 144 -46 144 -115c0 -55 -37 -94 -92 -144l-116 -107h136v60z" />
    <glyph glyph-name="yacute" unicode="&#xfd;" horiz-adv-x="567" 
d="M347 -208h-261v97h73l61 123l-155 356h-58v97h237v-97h-62l100 -239l104 239h-60v97h233v-97h-57l-228 -479h73v-97zM212 531l100 170h108l-144 -170h-64z" />
    </font>
</defs>
</svg>
