<?xml version="1.0" standalone="no"?>
<!DOCTYPE svg PUBLIC "-//W3C//DTD SVG 1.1//EN" "http://www.w3.org/Graphics/SVG/1.1/DTD/svg11.dtd" >
<svg xmlns="http://www.w3.org/2000/svg" width="100%" height="100%">
<metadata>
Created by FontXChange 20110222 at Mon Feb 17 13:36:31 2014
 By Zeeshan Jan
Copyright 1990 as an unpublished work by Bitstream Inc.  All rights reserved.  Confidential.
</metadata>
<defs>
<font id="GeometricSlab703BT-MediumCond" horiz-adv-x="500" >
  <font-face 
    font-family="Geometric Slabserif 703"
    font-weight="500"
    font-stretch="normal"
    units-per-em="1000"
    panose-1="2 0 6 3 0 0 0 0 0 0"
    ascent="800"
    descent="-200"
    x-height="437"
    cap-height="681"
    bbox="-167 -236 1000 955"
    underline-thickness="49"
    underline-position="-92"
    stemh="65"
    stemv="76"
    unicode-range="U+0020-FB02"
  />
    <missing-glyph />
    <glyph glyph-name="space" unicode=" " horiz-adv-x="194" 
 />
    <glyph glyph-name="exclam" unicode="!" horiz-adv-x="275" 
d="M88 36c0 27 22 50 49 50c28 0 51 -22 51 -50c0 -27 -24 -50 -51 -50c-26 0 -49 24 -49 50zM168 186h-61c-2 162 -7 327 -17 495h95c-10 -168 -15 -333 -17 -495z" />
    <glyph glyph-name="quotedbl" unicode="&#x22;" horiz-adv-x="288" 
d="M103 700v-270h-57v270h57zM242 700v-270h-58v270h58z" />
    <glyph glyph-name="numbersign" unicode="#" horiz-adv-x="769" 
d="M450 711l-81 -230h127l82 230h70l-80 -230h150l-21 -60h-152l-46 -133h161l-21 -60h-162l-81 -229h-71l82 229h-129l-82 -229h-70l81 229h-156l21 60h156l47 133h-167l21 60h168l82 230h71zM475 421h-129l-46 -133h128z" />
    <glyph glyph-name="dollar" unicode="$" horiz-adv-x="389" 
d="M325 663v-168h-53c-5 61 -30 98 -68 106v-215c108 -64 156 -127 156 -226c0 -98 -60 -163 -146 -163h-10v-96h-32v98c-34 4 -65 24 -87 58v-57h-54v185h54c2 -66 33 -108 87 -120v242c-94 52 -139 114 -139 202c0 96 55 157 139 157v61h32v-64c31 -10 53 -26 68 -49v49
h53zM172 403v200c-42 0 -72 -34 -72 -84s22 -85 72 -116zM204 289v-228c51 3 81 40 81 103c0 48 -27 90 -81 125z" />
    <glyph glyph-name="percent" unicode="%" horiz-adv-x="558" 
d="M37 422v143c0 67 31 102 89 102s89 -35 89 -102v-143c0 -67 -30 -102 -89 -102c-58 0 -89 35 -89 102zM96 420c0 -33 10 -49 30 -49s30 16 30 49v147c0 32 -10 49 -30 49s-30 -16 -30 -49v-147zM343 102v143c0 67 30 102 88 102s90 -35 90 -102v-143
c0 -67 -31 -102 -90 -102c-58 0 -88 35 -88 102zM402 100c0 -33 9 -49 29 -49s31 16 31 49v147c0 32 -11 49 -31 49s-29 -16 -29 -49v-147zM97 -14l319 695h44l-318 -695h-45z" />
    <glyph glyph-name="ampersand" unicode="&#x26;" horiz-adv-x="574" 
d="M210 437c49 44 75 84 75 127c0 37 -25 63 -61 63c-40 0 -66 -28 -66 -71c0 -36 18 -74 52 -119zM248 386l147 -197c22 49 35 97 39 141h-54v67h173v-67h-49c-9 -71 -29 -137 -64 -200l43 -61h74v-69h-118l-47 64c-48 -53 -101 -78 -166 -78c-114 0 -194 80 -194 195
c0 83 38 148 117 211c-43 55 -65 105 -65 160c0 88 53 142 139 142c82 0 136 -52 136 -128c0 -71 -35 -127 -111 -180zM188 338c-51 -44 -76 -91 -76 -141c0 -74 59 -135 126 -135c44 0 80 19 114 57z" />
    <glyph glyph-name="quoteright" unicode="&#x2019;" horiz-adv-x="194" 
d="M90 681h65l-57 -198h-64z" />
    <glyph glyph-name="parenleft" unicode="(" horiz-adv-x="255" 
d="M179 -95c-86 130 -129 261 -129 395s43 264 129 394h63c-76 -135 -115 -265 -115 -394s39 -260 115 -395h-63z" />
    <glyph glyph-name="parenright" unicode=")" horiz-adv-x="255" 
d="M75 694c86 -130 130 -260 130 -394s-44 -265 -130 -395h-62c76 135 114 267 114 395s-38 259 -114 394h62z" />
    <glyph glyph-name="asterisk" unicode="*" horiz-adv-x="324" 
d="M103 447l-35 26l61 81l-98 30l14 42l96 -33l-1 101h44l-1 -101l96 32l14 -41l-98 -31l61 -81l-36 -26l-58 83z" />
    <glyph glyph-name="plus" unicode="+" horiz-adv-x="833" 
d="M446 596v-269h263v-57h-263v-270h-58v270h-264v57h264v269h58z" />
    <glyph glyph-name="comma" unicode="," horiz-adv-x="194" 
d="M75 92h64l-57 -198h-64z" />
    <glyph glyph-name="hyphen" unicode="-" horiz-adv-x="289" 
d="M30 201v63h229v-63h-229z" />
    <glyph glyph-name="period" unicode="." horiz-adv-x="194" 
d="M47 42c0 27 23 50 50 50c28 0 50 -22 50 -50c0 -27 -23 -50 -50 -50c-26 0 -50 24 -50 50z" />
    <glyph glyph-name="slash" unicode="/" horiz-adv-x="282" 
d="M-24 -93l282 787h48l-281 -787h-49z" />
    <glyph glyph-name="zero" unicode="0" horiz-adv-x="389" 
d="M350 476v-286c0 -134 -55 -204 -156 -204s-155 70 -155 204v286c0 134 54 205 155 205s156 -71 156 -205zM267 166v335c0 74 -23 110 -73 110s-72 -36 -72 -110v-335c0 -74 22 -110 72 -110s73 36 73 110z" />
    <glyph glyph-name="one" unicode="1" horiz-adv-x="389" 
d="M100 0v60h56v548h-56v59h139v-607h59v-60h-198z" />
    <glyph glyph-name="two" unicode="2" horiz-adv-x="389" 
d="M35 454v19c0 140 39 208 151 208c99 0 153 -55 153 -153c0 -81 -32 -150 -84 -233l-139 -224h156v105h70v-176h-309v69l139 225c55 89 85 161 85 227c0 62 -21 90 -75 90c-71 0 -76 -52 -76 -151v-6h-71z" />
    <glyph glyph-name="three" unicode="3" horiz-adv-x="389" 
d="M239 353c68 -7 102 -69 102 -184c0 -122 -54 -183 -160 -183c-94 0 -147 65 -147 189v21h72v-25c0 -78 27 -117 81 -117c58 0 76 39 76 121c0 105 -17 142 -105 142h-11v63c94 1 114 34 114 127c0 72 -21 107 -70 107c-55 0 -81 -38 -81 -119v-17h-69v26
c0 118 49 176 149 176c93 0 147 -59 147 -169c0 -105 -33 -158 -96 -158h-2z" />
    <glyph glyph-name="four" unicode="4" horiz-adv-x="389" 
d="M84 415h121v-273zM205 0h78v415h52v61h-52v130h52v61h-188v-61h58v-130h-181v-61z" />
    <glyph glyph-name="five" unicode="5" horiz-adv-x="389" 
d="M72 322v345h239v-73h-169v-189c19 12 40 18 63 18c94 0 144 -72 144 -214c0 -150 -50 -223 -161 -223c-92 0 -145 61 -145 171v19h75v-26c0 -64 26 -96 78 -96c57 0 72 39 72 127v48c0 87 -16 127 -74 127c-23 0 -43 -11 -60 -34h-62z" />
    <glyph glyph-name="six" unicode="6" horiz-adv-x="389" 
d="M342 522v-27h-70v25c0 64 -23 94 -77 94c-52 0 -76 -37 -76 -112v-145c19 28 51 44 88 44c95 0 145 -71 145 -212c0 -133 -57 -203 -162 -203c-43 0 -85 20 -110 50c-38 46 -38 97 -38 167v264c0 144 45 214 150 214c94 0 150 -58 150 -159zM270 227
c0 69 -29 106 -74 106c-62 0 -81 -44 -81 -135v-26c0 -79 27 -118 81 -118c47 0 74 38 74 108v65z" />
    <glyph glyph-name="seven" unicode="7" horiz-adv-x="389" 
d="M41 474v193h307v-94l-181 -573h-83l187 592h-159v-118h-71z" />
    <glyph glyph-name="eight" unicode="8" horiz-adv-x="389" 
d="M248 350c67 -7 98 -66 98 -181c0 -123 -49 -183 -152 -183s-151 60 -151 183c0 115 31 174 98 181c-63 6 -96 53 -96 139c0 132 46 193 149 193c104 0 150 -62 150 -193c0 -86 -33 -133 -96 -139zM267 489v23c0 66 -26 101 -73 101s-72 -35 -72 -101v-23
c0 -68 24 -103 72 -103s73 35 73 103zM270 176v23c0 76 -27 115 -76 115s-75 -39 -75 -115v-23c0 -83 24 -123 75 -123c52 0 76 40 76 123z" />
    <glyph glyph-name="nine" unicode="9" horiz-adv-x="389" 
d="M46 172h70v-25c0 -64 23 -94 77 -94c52 0 76 37 76 112v145c-20 -29 -51 -44 -92 -44c-90 0 -141 72 -141 212c0 133 57 203 162 203c97 0 148 -68 148 -202v-279c0 -144 -45 -214 -150 -214c-94 0 -150 58 -150 159v27zM118 441c0 -69 28 -107 74 -107
c62 0 81 44 81 135v26c0 79 -27 118 -81 118c-47 0 -74 -37 -74 -107v-65z" />
    <glyph glyph-name="colon" unicode=":" horiz-adv-x="208" 
d="M104 371c28 0 50 -22 50 -50c0 -27 -23 -50 -50 -50c-26 0 -50 24 -50 50c0 27 23 50 50 50zM104 92c28 0 50 -22 50 -50c0 -27 -23 -50 -50 -50c-26 0 -50 24 -50 50c0 27 23 50 50 50z" />
    <glyph glyph-name="semicolon" unicode=";" horiz-adv-x="208" 
d="M106 371c28 0 51 -22 51 -50c0 -27 -24 -50 -51 -50c-26 0 -49 24 -49 50c0 27 22 50 49 50zM75 92h64l-57 -198h-64z" />
    <glyph glyph-name="less" unicode="&#x3c;" horiz-adv-x="833" 
d="M704 497l-488 -199l488 -198v-63l-575 236v50l575 236v-62z" />
    <glyph glyph-name="equal" unicode="=" horiz-adv-x="833" 
d="M709 420v-57h-585v57h585zM709 233v-57h-585v57h585z" />
    <glyph glyph-name="greater" unicode="&#x3e;" horiz-adv-x="833" 
d="M704 323v-50l-575 -236v63l488 198l-488 199v62z" />
    <glyph glyph-name="question" unicode="?" horiz-adv-x="384" 
d="M192 333v-144h-68v204h16c89 0 125 33 125 116c0 75 -34 116 -91 116c-44 0 -68 -26 -68 -72v-14h-70v21c0 84 55 136 144 136c99 0 158 -69 158 -183c0 -113 -48 -172 -146 -180zM160 86c28 0 50 -22 50 -50c0 -27 -23 -50 -50 -50c-26 0 -50 24 -50 50
c0 27 23 50 50 50z" />
    <glyph glyph-name="at" unicode="@" horiz-adv-x="1000" 
d="M587 231l29 118c-11 59 -49 93 -101 93c-96 0 -167 -98 -167 -224c0 -72 35 -112 96 -112c65 0 124 49 143 125zM631 412l28 59h54l-69 -277c-4 -16 -6 -29 -6 -39c0 -29 18 -44 54 -44c26 0 65 14 99 43c56 48 93 130 93 220c0 170 -135 288 -349 288
c-109 0 -204 -34 -279 -100c-92 -80 -138 -186 -138 -311c0 -112 38 -196 121 -261c64 -51 157 -82 261 -82c111 0 220 32 308 92l22 -32c-96 -72 -205 -108 -322 -108c-124 0 -227 30 -305 90c-99 76 -148 176 -148 305c0 107 34 203 98 282c94 114 228 175 392 175
c110 0 208 -31 273 -82c84 -65 128 -152 128 -250c0 -112 -43 -204 -120 -266c-45 -36 -98 -55 -152 -55c-64 0 -97 25 -97 76c0 3 1 7 1 11c-33 -57 -84 -87 -145 -87c-100 0 -153 57 -153 162c0 153 104 268 229 268c59 0 100 -26 122 -77z" />
    <glyph glyph-name="A" unicode="A" horiz-adv-x="537" 
d="M9 681v-62h52l148 -556h-65v-63h256v63h-67l149 556h46v62h-199v-62h69l-38 -149h-185l-40 149h68v62h-194zM192 406h151l-74 -308z" />
    <glyph glyph-name="B" unicode="B" horiz-adv-x="486" 
d="M25 0v62h68v556h-68v63h245c112 0 167 -50 167 -150v-28c0 -77 -34 -122 -105 -136c80 -13 116 -58 116 -142v-55c0 -114 -55 -170 -166 -170h-257zM178 397h73c76 0 103 25 103 103v35c0 54 -29 81 -89 81h-87v-219zM178 65h80c75 0 103 32 103 111v59
c0 71 -28 99 -99 99h-84v-269z" />
    <glyph glyph-name="C" unicode="C" horiz-adv-x="426" 
d="M402 215v-17c0 -139 -65 -212 -185 -212s-185 73 -185 212v278c0 142 64 218 174 218c47 0 90 -18 118 -50v37h61v-198h-66l-1 16c-9 85 -36 126 -96 126c-72 0 -103 -43 -103 -134v-302c0 -91 30 -133 103 -133c67 0 103 46 103 135v24h77z" />
    <glyph glyph-name="D" unicode="D" horiz-adv-x="498" 
d="M25 681h174c198 0 266 -67 266 -256v-158c0 -188 -72 -267 -242 -267h-198v62h68v556h-68v63zM178 616v-551h23c126 0 177 53 177 191v179c0 132 -46 181 -171 181h-29z" />
    <glyph glyph-name="E" unicode="E" horiz-adv-x="495" 
d="M25 0v62h68v556h-68v63h426v-182h-74v117h-199v-216h166v-71h-166v-264h202v133h76v-198h-431z" />
    <glyph glyph-name="F" unicode="F" horiz-adv-x="477" 
d="M25 0v62h68v556h-68v63h441v-187h-75v122h-213v-216h166v-71h-166v-267h67v-62h-220z" />
    <glyph glyph-name="G" unicode="G" horiz-adv-x="428" 
d="M334 40c-35 -37 -74 -54 -124 -54c-111 0 -178 74 -178 212v302c0 121 69 194 174 194c47 0 90 -21 118 -60v47h61v-188h-66l-1 15c-9 79 -36 117 -96 117c-72 0 -103 -43 -103 -134v-302c0 -91 30 -133 103 -133c67 0 103 46 103 135v58h-70v72h147v-321h-40z" />
    <glyph glyph-name="H" unicode="H" horiz-adv-x="542" 
d="M25 0h220v63h-67v215h185v-215h-67v-63h220v63h-67v556h67v62h-220v-62h67v-269h-185v269h67v62h-220v-62h68v-556h-68v-63z" />
    <glyph glyph-name="I" unicode="I" horiz-adv-x="271" 
d="M25 0v62h68v556h-68v63h220v-63h-67v-556h67v-62h-220z" />
    <glyph glyph-name="J" unicode="J" horiz-adv-x="271" 
d="M3 681v-71h17c65 0 80 -21 80 -87v-566h-68v-63h220v63h-67v559c0 111 -52 165 -156 165h-26z" />
    <glyph glyph-name="K" unicode="K" horiz-adv-x="516" 
d="M25 0v62h68v556h-68v63h220v-63h-67v-257l194 257h-71v63h213v-63h-55l-193 -257l199 -299h52v-62h-213v62h67l-193 293v-293h67v-62h-220z" />
    <glyph glyph-name="L" unicode="L" horiz-adv-x="477" 
d="M25 681v-62h68v-556h-68v-63h220v63h-67v553h202v-133h76v198h-431z" />
    <glyph glyph-name="M" unicode="M" horiz-adv-x="648" 
d="M25 681h191l108 -434l113 434h186v-63h-67v-556h67v-62h-216v62h68l4 556l-140 -539h-39l-136 539v-556h67v-62h-206v62h68v556h-68v63z" />
    <glyph glyph-name="N" unicode="N" horiz-adv-x="556" 
d="M25 674v-62h68v-556h-68v-63h160l206 512v-449h-67v-63h206v63h-67v625h-74l-225 -556v487h67v62h-206z" />
    <glyph glyph-name="O" unicode="O" horiz-adv-x="444" 
d="M325 491c0 91 -31 134 -103 134s-103 -43 -103 -134v-302c0 -91 30 -133 103 -133c72 0 103 42 103 133v302zM412 490v-300c0 -134 -66 -204 -190 -204s-190 70 -190 204v300c0 134 66 204 190 204s190 -70 190 -204z" />
    <glyph glyph-name="P" unicode="P" horiz-adv-x="481" 
d="M25 0v62h68v556h-68v63h226c139 0 200 -44 200 -160v-64c0 -118 -51 -165 -168 -165h-105v-230h67v-62h-220zM178 356h66c92 0 123 23 123 104v64c0 70 -32 92 -118 92h-71v-260z" />
    <glyph glyph-name="Q" unicode="Q" horiz-adv-x="444" 
d="M119 189c0 -91 30 -133 103 -133c72 0 103 42 103 133v302c0 91 -31 134 -103 134s-103 -43 -103 -134v-302zM32 190v300c0 134 66 204 190 204s190 -70 190 -204v-300c0 -105 -40 -170 -118 -194l107 -110h-98l-93 100c-117 6 -178 75 -178 204z" />
    <glyph glyph-name="R" unicode="R" horiz-adv-x="519" 
d="M25 681v-62h68v-556h-68v-63h234c136 0 190 36 190 152v46c0 81 -26 112 -110 127c83 8 110 32 110 103v191h67v62h-148v-251c0 -57 -22 -73 -92 -73h-98v262h67v62h-220zM178 292h88c67 0 99 -25 99 -84v-65c0 -62 -27 -78 -100 -78h-87v227z" />
    <glyph glyph-name="S" unicode="S" horiz-adv-x="426" 
d="M33 0v206h69c12 -98 58 -150 126 -150c53 0 89 37 89 91c0 41 -23 76 -70 115l-114 95c-63 53 -95 110 -95 175c0 97 65 162 149 162c49 0 94 -22 126 -63v50h62v-174h-66c-15 77 -55 117 -113 117c-46 0 -82 -35 -82 -81c0 -35 22 -70 64 -105l123 -104
c66 -56 97 -111 97 -181c0 -96 -70 -167 -170 -167c-54 0 -97 25 -136 77v-63h-59z" />
    <glyph glyph-name="T" unicode="T" horiz-adv-x="475" 
d="M106 681v-62h88v-554h-94v122h-75v-187h424v187h-74v-122h-95v554h88v62h-262z" />
    <glyph glyph-name="U" unicode="U" horiz-adv-x="542" 
d="M93 172v446h-68v63h220v-63h-67v-443c0 -82 28 -119 93 -119s92 37 92 119v443h-67v63h220v-63h-67v-446c0 -121 -62 -186 -178 -186s-178 65 -178 186z" />
    <glyph glyph-name="V" unicode="V" horiz-adv-x="481" 
d="M213 -7l-159 625h-43v63h192v-63h-60l103 -461l104 461h-59v63h185v-63h-52l-148 -625h-63z" />
    <glyph glyph-name="W" unicode="W" horiz-adv-x="667" 
d="M181 -7l-135 625h-46v63h184v-63h-57l87 -461l89 461h-64v63h188v-63h-62l87 -461l96 461h-60v63h178v-63h-43l-141 -625h-55l-93 479l-97 -479h-56z" />
    <glyph glyph-name="X" unicode="X" horiz-adv-x="486" 
d="M11 0v62h45l146 271l-146 285h-42v63h193v-63h-61l102 -200l105 200h-55v63h177v-63h-40l-148 -276l145 -280h41v-62h-195v62h65l-102 195l-104 -195h60v-62h-186z" />
    <glyph glyph-name="Y" unicode="Y" horiz-adv-x="481" 
d="M12 681h194v-63h-60l92 -255l109 255h-60v63h183v-63h-45l-148 -347v-209h67v-62h-220v62h67v209l-132 347h-47v63z" />
    <glyph glyph-name="Z" unicode="Z" horiz-adv-x="440" 
d="M26 0v65l293 551h-212v-124h-74v189h376v-61l-294 -555h216v150h76v-215h-381z" />
    <glyph glyph-name="bracketleft" unicode="[" horiz-adv-x="255" 
d="M74 -81v762h181v-51h-105v-660h105v-51h-181z" />
    <glyph glyph-name="backslash" unicode="\" horiz-adv-x="282" 
d="M258 -93l-282 787h49l282 -787h-49z" />
    <glyph glyph-name="bracketright" unicode="]" horiz-adv-x="255" 
d="M181 681v-762h-181v51h104v660h-104v51h181z" />
    <glyph glyph-name="asciicircum" unicode="^" horiz-adv-x="1000" 
d="M539 712l254 -272h-77l-216 214l-216 -214h-78l254 272h79z" />
    <glyph glyph-name="underscore" unicode="_" 
d="M500 -178v-58h-500v58h500z" />
    <glyph glyph-name="quoteleft" unicode="&#x2018;" horiz-adv-x="194" 
d="M90 681h65l-57 -198h-64z" />
    <glyph glyph-name="a" unicode="a" horiz-adv-x="398" 
d="M254 54c-32 -42 -62 -62 -104 -62c-79 0 -115 67 -115 203v81c0 110 46 170 126 170c42 0 72 -19 97 -62v53h110v-60h-46v-317h46v-60h-114v54zM112 166c0 -73 14 -108 58 -108s75 44 75 117v96c0 71 -24 107 -70 107s-63 -33 -63 -105v-107z" />
    <glyph glyph-name="b" unicode="b" horiz-adv-x="396" 
d="M23 0v60h46v560h-46v61h123v-287c30 35 62 52 96 52c72 0 114 -56 114 -163v-125c0 -108 -42 -166 -112 -166c-47 0 -77 19 -106 65v-57h-115zM146 173c0 -75 19 -111 68 -111c44 0 65 33 65 100v127c0 60 -20 89 -61 89c-47 0 -72 -32 -72 -97v-108z" />
    <glyph glyph-name="c" unicode="c" horiz-adv-x="329" 
d="M306 155v-9c0 -98 -50 -154 -132 -154c-94 0 -144 62 -144 183v100c0 112 43 171 118 171c32 0 60 -14 90 -41v32h54v-145h-62c-5 60 -25 89 -64 89c-43 0 -58 -35 -58 -107v-101c0 -78 19 -116 63 -116c45 0 65 32 65 98h70z" />
    <glyph glyph-name="d" unicode="d" horiz-adv-x="396" 
d="M258 57c-29 -46 -59 -65 -106 -65c-70 0 -113 58 -113 166v125c0 107 42 163 114 163c34 0 67 -17 97 -52v226h-46v61h122v-621h47v-60h-115v57zM117 170c0 -74 14 -108 61 -108c45 0 72 41 72 119v96c0 68 -25 101 -72 101c-41 0 -61 -29 -61 -89v-119z" />
    <glyph glyph-name="e" unicode="e" horiz-adv-x="338" 
d="M307 134c-8 -93 -56 -142 -138 -142c-90 0 -139 60 -139 173v92c0 122 52 189 137 189c92 0 143 -64 143 -184v-59h-202v-28c0 -80 19 -118 66 -118c37 0 58 25 64 77h69zM108 260h127v28c0 59 -24 93 -61 93c-47 0 -66 -34 -66 -106v-15z" />
    <glyph glyph-name="f" unicode="f" horiz-adv-x="229" 
d="M30 0v60h46v317h-46v60h46v126c0 81 32 118 105 118h30v-56c-46 0 -58 -16 -58 -64v-124h53v-60h-53v-317h46v-60h-169z" />
    <glyph glyph-name="g" unicode="g" horiz-adv-x="396" 
d="M250 45c-26 -38 -55 -53 -98 -53c-70 0 -113 58 -113 166v125c0 107 42 163 114 163c38 0 72 -21 107 -62v53h113v-60h-47v-353c0 -152 -38 -223 -153 -223c-85 0 -131 42 -131 119v7h67c2 -43 21 -61 64 -61c49 0 77 34 77 100v79zM117 170c0 -74 14 -108 61 -108
c45 0 72 41 72 119v85c0 74 -25 112 -72 112c-41 0 -61 -29 -61 -89v-119z" />
    <glyph glyph-name="h" unicode="h" horiz-adv-x="433" 
d="M23 681h123v-290c28 36 67 55 110 55c74 0 103 -39 103 -123v-263h46v-60h-169v60h46v246c0 50 -12 75 -47 75c-34 0 -63 -16 -89 -47v-274h46v-60h-169v60h46v560h-46v61z" />
    <glyph glyph-name="i" unicode="i" horiz-adv-x="222" 
d="M30 0v60h46v317h-46v60h123v-377h46v-60h-169zM46 521v85h107v-85h-107z" />
    <glyph glyph-name="j" unicode="j" horiz-adv-x="208" 
d="M39 606h107v-85h-107v85zM23 437h123v-484c0 -107 -34 -150 -139 -152v62c60 8 62 33 62 100v414h-46v60z" />
    <glyph glyph-name="k" unicode="k" horiz-adv-x="424" 
d="M23 0v60h46v560h-46v61h123v-444l145 145h-70v55h197v-60h-45l-145 -142l149 -175h47v-60h-190v60h52l-140 172v-172h46v-60h-169z" />
    <glyph glyph-name="l" unicode="l" horiz-adv-x="215" 
d="M23 0v60h46v560h-46v61h123v-621h46v-60h-169z" />
    <glyph glyph-name="m" unicode="m" horiz-adv-x="632" 
d="M346 56c33 -37 68 -56 109 -56c74 0 103 39 103 123v263h46v60h-169v-60h46v-246c0 -50 -11 -75 -44 -75c-31 0 -58 16 -82 47v274h47v60h-169v-60h46v-246c0 -50 -11 -75 -44 -75c-31 0 -58 16 -82 47v274h46v60h-169v-60h46v-317h-46v-60h116v54c33 -42 71 -63 116 -63
c43 0 74 21 84 56z" />
    <glyph glyph-name="n" unicode="n" horiz-adv-x="440" 
d="M366 123v263h46v60h-169v-60h46v-246c0 -50 -12 -75 -47 -75c-34 0 -63 16 -89 47v274h46v60h-169v-60h46v-317h-46v-60h116v54c33 -42 72 -63 117 -63c74 0 103 39 103 123z" />
    <glyph glyph-name="o" unicode="o" horiz-adv-x="347" 
d="M317 273v-108c0 -113 -50 -173 -143 -173s-144 60 -144 173v108c0 113 51 173 144 173s143 -60 143 -173zM240 263c0 80 -19 118 -66 118s-66 -38 -66 -118v-88c0 -80 19 -118 66 -118s66 38 66 118v88z" />
    <glyph glyph-name="p" unicode="p" horiz-adv-x="396" 
d="M356 -68v213c0 79 -41 124 -109 124c-35 0 -71 -17 -101 -52v169h46v60h-169v-60h46v-502h-46v-60h116v54c34 -42 69 -63 113 -63c67 0 104 41 104 117zM279 -36c0 -54 -20 -79 -64 -79c-43 0 -69 34 -69 98v99c0 79 24 118 76 118c40 0 57 -28 57 -86v-150z" />
    <glyph glyph-name="q" unicode="q" horiz-adv-x="396" 
d="M258 380v57h115v-60h-47v-502h47v-60h-169v60h46v169c-30 -35 -63 -52 -97 -52c-72 0 -114 55 -114 162v125c0 107 44 167 113 167c47 0 77 -20 106 -66zM250 274c0 68 -25 101 -72 101c-41 0 -61 -29 -61 -89v-119c0 -74 14 -108 61 -108c45 0 72 41 72 119v96z" />
    <glyph glyph-name="r" unicode="r" horiz-adv-x="312" 
d="M276 446h28v-81h-6c-99 0 -145 -51 -145 -159v-146h65v-60h-195v60h53v317h-46v60h120v-90c29 65 72 99 126 99z" />
    <glyph glyph-name="s" unicode="s" horiz-adv-x="319" 
d="M31 0v156h61c9 -63 40 -98 80 -98c29 0 48 18 48 47c0 26 -16 40 -42 61l-88 71c-33 26 -52 64 -52 102c0 63 43 107 101 107c31 0 57 -14 83 -40v31h55v-132h-54c-15 47 -37 75 -73 75c-24 0 -41 -17 -41 -40c0 -19 13 -33 37 -52l81 -65c43 -35 65 -72 65 -115
c0 -71 -46 -116 -107 -116c-35 0 -63 14 -91 44v-36h-63z" />
    <glyph glyph-name="t" unicode="t" horiz-adv-x="222" 
d="M198 590c-23 4 -41 5 -54 5c-62 0 -75 -29 -75 -98v-287h-46v-60h46v-158h77v158h53v60h-53v274c0 39 1 46 39 46h13v60z" />
    <glyph glyph-name="u" unicode="u" horiz-adv-x="433" 
d="M28 437h122v-306c0 -51 12 -75 51 -75c30 0 60 16 86 47v274h-46v60h122v-377h47v-60h-116v54c-33 -42 -72 -62 -117 -62c-74 0 -103 38 -103 122v263h-46v60z" />
    <glyph glyph-name="v" unicode="v" horiz-adv-x="391" 
d="M167 -8l-126 385h-41v60h161v-60h-44l77 -257l85 257h-44v60h156v-60h-44l-135 -385h-45z" />
    <glyph glyph-name="w" unicode="w" horiz-adv-x="560" 
d="M153 -8l-114 385h-39v60h156v-60h-40l70 -261l69 261h-40v60h135v-60h-42l72 -261l72 261h-44v60h152v-60h-40l-115 -385h-51l-77 274l-73 -274h-51z" />
    <glyph glyph-name="x" unicode="x" horiz-adv-x="347" 
d="M0 437h151v-60h-32l59 -96l64 96h-30v60h131v-60h-30l-99 -149l105 -168h26v-60h-151v60h40l-67 108l-71 -108h39v-60h-135v60h25l106 160l-97 157h-34v60z" />
    <glyph glyph-name="y" unicode="y" horiz-adv-x="391" 
d="M53 437v-60h50l53 -147l-115 -355h-41v-60h161v60h-44l77 257l85 -257h-44v-60h156v60h-44l-175 502h50v60h-169z" />
    <glyph glyph-name="z" unicode="z" horiz-adv-x="370" 
d="M20 0v58l229 322h-158v-77h-62v134h308v-57l-229 -322h166v92h63v-150h-317z" />
    <glyph glyph-name="braceleft" unicode="{" 
d="M419 659c-8 0 -15 1 -22 1c-86 0 -101 -30 -101 -119v-118c0 -96 -16 -142 -97 -164c81 -22 97 -68 97 -164v-118c0 -90 16 -118 104 -118h19v-61h-17c-56 0 -97 5 -128 25c-44 29 -49 77 -49 153v119c0 97 -30 134 -119 134c-7 0 -14 -1 -22 -1v62c8 0 15 -1 22 -1
c89 0 119 37 119 135v119c0 76 4 124 49 153c31 20 71 25 128 25h17v-62z" />
    <glyph glyph-name="bar" unicode="|" 
d="M281 764v-1000h-62v1000h62z" />
    <glyph glyph-name="braceright" unicode="}" 
d="M275 543v-119c0 -98 31 -135 120 -135c7 0 14 1 22 1v-62c-8 0 -15 1 -22 1c-89 0 -120 -37 -120 -135v-118c0 -76 -4 -125 -48 -154c-30 -20 -71 -24 -126 -24h-20v61c8 0 15 -1 22 -1c86 0 101 31 101 120v117c0 96 16 142 97 164c-81 22 -97 68 -97 164v118
c0 90 -16 119 -104 119h-19v61h17c56 0 98 -5 129 -25c44 -29 48 -77 48 -153z" />
    <glyph glyph-name="asciitilde" unicode="~" horiz-adv-x="833" 
d="M747 306c-66 -47 -129 -70 -189 -70c-29 0 -60 6 -93 17c-69 23 -128 50 -190 50c-59 0 -117 -28 -188 -78v65c68 47 131 71 189 71c52 0 97 -16 142 -32c48 -17 91 -36 141 -36c60 0 118 28 188 77v-64z" />
    <glyph glyph-name="exclamdown" unicode="&#xa1;" horiz-adv-x="275" 
d="M168 494c2 -161 7 -326 17 -494h-95c10 168 15 332 17 494h61zM88 645c0 26 23 49 49 49c27 0 51 -22 51 -49c0 -28 -23 -51 -51 -51c-27 0 -49 24 -49 51z" />
    <glyph glyph-name="cent" unicode="&#xa2;" horiz-adv-x="389" 
d="M292 524h32l-34 -92h24v-150h-56c-1 14 -3 30 -7 45l-98 -263c7 -11 20 -16 40 -16c45 0 63 31 63 96v5h74c-2 -109 -48 -164 -137 -164c-22 0 -44 5 -65 15l-42 -115h-32l50 133c-42 35 -51 100 -51 204c0 146 26 218 118 218c36 0 62 -13 78 -37zM230 358
c-12 11 -26 16 -41 16c-62 0 -63 -58 -63 -192c0 -35 0 -62 7 -82z" />
    <glyph glyph-name="sterling" unicode="&#xa3;" horiz-adv-x="389" 
d="M359 492h-72v39c0 57 -23 82 -73 82c-45 0 -70 -31 -70 -89c0 -36 8 -89 23 -160h116v-58h-107c3 -37 5 -66 5 -88c0 -53 -12 -99 -35 -138c18 -18 42 -28 71 -28c62 0 82 31 82 114v6h67c1 -11 1 -21 1 -31c0 -109 -42 -156 -142 -156c-48 0 -87 15 -114 43
c-21 -18 -45 -31 -75 -40v78c47 27 71 78 71 152c0 23 -2 53 -7 88h-64v58h55c-16 71 -25 126 -25 164c0 95 54 151 151 151c92 0 142 -55 142 -163v-24z" />
    <glyph glyph-name="fraction" unicode="&#x2044;" horiz-adv-x="167" 
d="M-167 -14l454 695h46l-454 -695h-46z" />
    <glyph glyph-name="yen" unicode="&#xa5;" horiz-adv-x="435" 
d="M106 0v62h67v211l-5 14h-145v46h125l-25 67h-100v47h82l-58 157h-47v63h184v-63h-60l91 -271l110 271h-60v63h170v-63h-44l-67 -157h88v-47h-109l-28 -67h137v-46h-157l-6 -14v-211h67v-62h-210z" />
    <glyph glyph-name="florin" unicode="&#x192;" horiz-adv-x="389" 
d="M353 681l-7 -60h-16c-90 0 -90 -49 -103 -172l-5 -50h89v-61h-94l-27 -288c-16 -173 -43 -251 -181 -251c-8 0 -18 1 -27 1l10 61c6 0 11 -1 17 -1c87 0 90 48 102 173l29 305h-78v61h84l5 53c16 160 60 230 177 230c8 0 16 0 25 -1z" />
    <glyph glyph-name="section" unicode="&#xa7;" horiz-adv-x="435" 
d="M256 681h89v-153h-51v102h-39c-57 0 -85 -19 -85 -58c0 -30 26 -70 73 -123l106 -120c37 -41 58 -76 58 -121c0 -64 -42 -105 -116 -108c37 -44 56 -84 56 -127c0 -69 -49 -110 -132 -110h-119v153h51v-102h44c62 0 93 19 93 55c0 32 -20 62 -53 99l-138 156
c-39 44 -58 86 -58 123c0 62 45 104 117 106c-31 39 -46 76 -46 114c0 75 50 114 150 114zM214 380c-17 19 -35 28 -55 28c-36 0 -61 -23 -61 -55c0 -19 10 -44 26 -62l98 -111c19 -22 37 -34 64 -34c36 0 60 23 60 57c0 27 -15 45 -36 68z" />
    <glyph glyph-name="currency" unicode="&#xa4;" horiz-adv-x="606" 
d="M178 592c38 29 78 44 125 44s89 -15 127 -44l100 101l35 -36l-100 -100c28 -37 42 -79 42 -125s-14 -88 -42 -125l100 -100l-35 -36l-100 101c-37 -29 -79 -43 -127 -43s-88 14 -125 43l-101 -101l-35 36l101 100c-28 37 -43 79 -43 125s15 88 43 125l-101 100l35 36z
M457 433c0 84 -68 153 -153 153s-153 -69 -153 -153c0 -85 68 -154 153 -154s153 70 153 154z" />
    <glyph glyph-name="quotesingle" unicode="'" horiz-adv-x="149" 
d="M103 700v-270h-57v270h57z" />
    <glyph glyph-name="quotedblleft" unicode="&#x201c;" horiz-adv-x="343" 
d="M90 681h65l-57 -198h-64zM239 681h64l-56 -198h-65z" />
    <glyph glyph-name="guillemotleft" unicode="&#xab;" horiz-adv-x="428" 
d="M199 223l120 155h79l-123 -155l123 -155h-79zM30 223l120 155h79l-123 -155l123 -155h-79z" />
    <glyph glyph-name="guilsinglleft" unicode="&#x2039;" horiz-adv-x="259" 
d="M30 223l120 155h79l-123 -155l123 -155h-79z" />
    <glyph glyph-name="guilsinglright" unicode="&#x203a;" horiz-adv-x="259" 
d="M229 223l-120 -155h-79l123 155l-123 155h79z" />
    <glyph glyph-name="fi" unicode="&#xfb01;" horiz-adv-x="444" 
d="M30 0v60h46v317h-46v60h46v126c0 81 32 118 105 118h30v-56c-46 0 -58 -16 -58 -64v-124h53v-60h-53v-317h46v-60h-169zM252 0v60h47v317h-47v60h123v-377h46v-60h-169zM269 521v85h106v-85h-106z" />
    <glyph glyph-name="fl" unicode="&#xfb02;" horiz-adv-x="444" 
d="M30 0v60h46v317h-46v60h46v126c0 81 32 118 105 118h30v-56c-46 0 -58 -16 -58 -64v-124h53v-60h-53v-317h46v-60h-169zM252 0v60h47v560h-47v61h123v-621h46v-60h-169z" />
    <glyph glyph-name="endash" unicode="&#x2013;" 
d="M500 257v-49h-500v49h500z" />
    <glyph glyph-name="dagger" unicode="&#x2020;" horiz-adv-x="477" 
d="M150 681h176v-47h-59v-206h96v52h56v-159h-56v52h-96v-510h-58v510h-96v-52h-55v159h55v-52h96v206h-59v47z" />
    <glyph glyph-name="daggerdbl" unicode="&#x2021;" 
d="M162 -137v46h59v170h-96v-52h-56v159h56v-52h96v290h-96v-52h-56v159h56v-52h96v155h-59v47h176v-47h-59v-155h96v52h56v-159h-56v52h-96v-290h96v52h56v-159h-56v52h-96v-170h59v-46h-176z" />
    <glyph glyph-name="periodcentered" unicode="&#xb7;" horiz-adv-x="194" 
d="M47 333c0 27 23 50 50 50c28 0 50 -22 50 -50c0 -27 -23 -50 -50 -50c-26 0 -50 24 -50 50z" />
    <glyph glyph-name="paragraph" unicode="&#xb6;" 
d="M463 684h-61v-684h-46v684h-90v-684h-46v382c-114 5 -183 73 -183 170c0 100 74 170 192 170h234v-38z" />
    <glyph glyph-name="bullet" unicode="&#x2022;" horiz-adv-x="590" 
d="M150 372c0 80 65 144 145 144c79 0 144 -64 144 -144c0 -79 -65 -145 -145 -145s-144 65 -144 145z" />
    <glyph glyph-name="quotesinglbase" unicode="&#x201a;" horiz-adv-x="194" 
d="M75 92h64l-57 -198h-64z" />
    <glyph glyph-name="quotedblbase" unicode="&#x201e;" horiz-adv-x="343" 
d="M76 92h64l-56 -198h-65zM225 92h64l-57 -198h-64z" />
    <glyph glyph-name="quotedblright" unicode="&#x201d;" horiz-adv-x="343" 
d="M90 681h65l-57 -198h-64zM239 681h64l-56 -198h-65z" />
    <glyph glyph-name="guillemotright" unicode="&#xbb;" horiz-adv-x="428" 
d="M229 223l-120 -155h-79l123 155l-123 155h79zM398 223l-120 -155h-79l123 155l-123 155h79z" />
    <glyph glyph-name="ellipsis" unicode="&#x2026;" horiz-adv-x="1000" 
d="M117 42c0 27 23 50 50 50c28 0 50 -22 50 -50c0 -27 -23 -50 -50 -50c-26 0 -50 24 -50 50zM450 42c0 27 23 50 50 50c28 0 50 -22 50 -50c0 -27 -23 -50 -50 -50c-26 0 -50 24 -50 50zM784 42c0 27 23 50 50 50c28 0 50 -22 50 -50c0 -27 -23 -50 -50 -50
c-26 0 -50 24 -50 50z" />
    <glyph glyph-name="perthousand" unicode="&#x2030;" horiz-adv-x="799" 
d="M37 422v143c0 67 31 102 89 102s89 -35 89 -102v-143c0 -67 -30 -102 -89 -102c-58 0 -89 35 -89 102zM96 420c0 -33 10 -49 30 -49s30 16 30 49v147c0 32 -10 49 -30 49s-30 -16 -30 -49v-147zM343 102v143c0 67 30 102 88 102s90 -35 90 -102v-143
c0 -67 -31 -102 -90 -102c-58 0 -88 35 -88 102zM402 100c0 -33 9 -49 29 -49s31 16 31 49v147c0 32 -11 49 -31 49s-29 -16 -29 -49v-147zM583 102v143c0 67 31 102 89 102s90 -35 90 -102v-143c0 -67 -31 -102 -90 -102c-58 0 -89 35 -89 102zM642 100
c0 -33 10 -49 30 -49s30 16 30 49v147c0 32 -10 49 -30 49s-30 -16 -30 -49v-147zM97 -14l319 695h44l-318 -695h-45z" />
    <glyph glyph-name="questiondown" unicode="&#xbf;" horiz-adv-x="384" 
d="M348 143v-21c0 -84 -54 -136 -143 -136c-101 0 -159 68 -159 190c0 105 51 166 146 173v144h68v-204h-16c-89 0 -125 -33 -125 -116c0 -75 34 -116 91 -116c44 0 68 26 68 72v14h70zM274 646c0 -27 -22 -50 -49 -50c-28 0 -51 22 -51 50c0 27 24 50 51 50
c26 0 49 -24 49 -50z" />
    <glyph glyph-name="grave" unicode="`" 
d="M135 670h88l90 -170h-53z" />
    <glyph glyph-name="acute" unicode="&#xb4;" 
d="M277 670h89l-125 -170h-54z" />
    <glyph glyph-name="circumflex" unicode="&#x2c6;" 
d="M121 500l86 170h86l86 -170h-53l-76 111l-76 -111h-53z" />
    <glyph glyph-name="tilde" unicode="&#x2dc;" 
d="M378 635c-11 -67 -41 -101 -85 -101c-9 0 -19 2 -29 5l-42 13c-8 3 -16 4 -22 4c-19 0 -32 -12 -40 -34h-38c11 65 41 100 84 100c9 0 18 -1 26 -4l43 -14c9 -3 17 -4 23 -4c21 0 34 10 42 35h38z" />
    <glyph glyph-name="macron" unicode="&#xaf;" 
d="M132 545v69h237v-69h-237z" />
    <glyph glyph-name="breve" unicode="&#x2d8;" 
d="M122 653h48c3 -47 28 -68 80 -68s77 21 80 68h48c-6 -94 -45 -136 -128 -136s-122 42 -128 136z" />
    <glyph glyph-name="dotaccent" unicode="&#x2d9;" 
d="M209 625h82v-97h-82v97z" />
    <glyph glyph-name="dieresis" unicode="&#xa8;" 
d="M125 528v103h89v-103h-89zM286 528v103h89v-103h-89z" />
    <glyph glyph-name="ring" unicode="&#x2da;" 
d="M250 732c68 0 121 -52 121 -120s-53 -121 -121 -121s-121 53 -121 121s53 120 121 120zM250 681c-39 0 -69 -31 -69 -70s29 -70 69 -70c39 0 70 31 70 70s-31 70 -70 70z" />
    <glyph glyph-name="cedilla" unicode="&#xb8;" 
d="M226 0h35v-52h11c73 0 110 -30 110 -86c0 -58 -41 -89 -121 -89c-31 0 -72 8 -122 21v42c52 -11 92 -17 120 -17c40 0 59 13 59 40c0 34 -21 48 -67 48c-8 0 -16 0 -25 -1v94z" />
    <glyph glyph-name="hungarumlaut" unicode="&#x2dd;" 
d="M222 670h78l-95 -170h-43zM348 670h78l-108 -170h-43z" />
    <glyph glyph-name="ogonek" unicode="&#x2db;" 
d="M265 0h35c-44 -40 -66 -75 -66 -109c0 -29 13 -40 47 -40h39v-63h-38c-73 0 -109 25 -109 80c0 48 32 85 92 132z" />
    <glyph glyph-name="caron" unicode="&#x2c7;" 
d="M121 670h53l76 -111l76 111h53l-86 -170h-86z" />
    <glyph glyph-name="emdash" unicode="&#x2014;" horiz-adv-x="1000" 
d="M1000 257v-49h-1000v49h1000z" />
    <glyph glyph-name="AE" unicode="&#xc6;" horiz-adv-x="750" 
d="M-23 0v62h46l227 556h-66v63h522v-182h-74v117h-195v-216h149v-71h-149v-264h197v133h77v-198h-426v62h67v193h-173l-79 -193h68v-62h-191zM205 319h147v308h-21z" />
    <glyph glyph-name="ordfeminine" unicode="&#xaa;" horiz-adv-x="299" 
d="M191 412c-24 -30 -47 -44 -78 -44c-60 0 -87 47 -87 142v57c0 77 35 119 95 119c31 0 54 -13 73 -43v37h82v-42h-34v-222h34v-42h-85v38zM84 490c0 -51 11 -75 44 -75s56 30 56 81v68c0 49 -18 75 -53 75c-34 0 -47 -24 -47 -74v-75z" />
    <glyph glyph-name="Lslash" unicode="&#x141;" horiz-adv-x="477" 
d="M25 0v62h68v232l-93 -60v55l93 60v269h-68v63h220v-63h-67v-223l113 74v-56l-113 -73v-275h202v133h76v-198h-431z" />
    <glyph glyph-name="Oslash" unicode="&#xd8;" horiz-adv-x="444" 
d="M355 764h40l-41 -112c38 -33 58 -86 58 -162v-300c0 -134 -66 -204 -190 -204c-37 0 -70 7 -102 21l-37 -100h-39l45 122c-36 29 -57 85 -57 161v300c0 134 66 204 190 204c39 0 72 -6 101 -22zM296 600c-17 16 -43 25 -74 25c-72 0 -103 -43 -103 -134v-302v-12
c0 -14 1 -30 6 -48zM319 555l-172 -473c23 -19 45 -26 75 -26c72 0 103 42 103 133v302c0 23 -1 44 -6 64z" />
    <glyph glyph-name="OE" unicode="&#x152;" horiz-adv-x="723" 
d="M275 681h404v-182h-74v117h-194v-216h176v-71h-176v-264h197v133h76v-198h-409c-170 0 -243 79 -243 267v146c0 188 73 268 243 268zM325 518c0 67 -4 93 -70 93c-95 0 -136 -59 -136 -186v-169c0 -127 40 -187 136 -187c66 0 70 27 70 94v355z" />
    <glyph glyph-name="ordmasculine" unicode="&#xba;" horiz-adv-x="260" 
d="M238 565v-76c0 -79 -38 -121 -107 -121c-70 0 -108 42 -108 121v76c0 79 38 121 108 121c69 0 107 -42 107 -121zM180 558c0 56 -14 83 -49 83c-36 0 -50 -27 -50 -83v-62c0 -56 14 -82 50 -82c35 0 49 26 49 82v62z" />
    <glyph glyph-name="ae" unicode="&#xe6;" horiz-adv-x="549" 
d="M283 402c25 30 55 44 95 44c92 0 143 -64 143 -184v-59h-203v-28c0 -80 19 -118 66 -118c37 0 59 25 65 77h69c-7 -92 -56 -142 -136 -142c-52 0 -90 19 -114 55c-27 -37 -63 -55 -108 -55c-75 0 -130 60 -130 133v28c0 77 54 134 129 134c33 0 62 -10 83 -30v53
c0 44 -25 71 -67 71c-32 0 -59 -22 -67 -58h-55v114h51v-24c23 22 50 33 78 33c26 0 47 -5 68 -17c12 -6 22 -15 33 -27zM446 288c0 59 -25 93 -62 93c-47 0 -66 -34 -66 -106v-15h128v28zM242 152c0 48 -29 80 -67 80s-67 -32 -67 -80v-15c0 -49 27 -80 67 -80
c38 0 67 32 67 80v15z" />
    <glyph glyph-name="dotlessi" unicode="&#x131;" horiz-adv-x="222" 
d="M30 0v60h46v317h-46v60h123v-377h46v-60h-169z" />
    <glyph glyph-name="lslash" unicode="&#x142;" horiz-adv-x="215" 
d="M23 0v60h46v242l-69 -46v47l69 46v271h-46v61h123v-294l69 45v-47l-69 -45v-280h46v-60h-169z" />
    <glyph glyph-name="oslash" unicode="&#xf8;" horiz-adv-x="347" 
d="M291 516h34l-50 -109c28 -29 42 -73 42 -134v-108c0 -113 -50 -173 -143 -173c-29 0 -55 6 -79 18l-42 -91h-34l52 112c-26 23 -41 70 -41 134v108c0 113 51 173 144 173c31 0 55 -6 77 -19zM220 362c-9 14 -26 22 -47 22c-49 0 -68 -40 -68 -121v-89v-16
c0 -14 0 -27 4 -42zM237 327l-112 -250c10 -15 26 -23 48 -23c48 0 70 39 70 120v89c0 24 -2 46 -6 64z" />
    <glyph glyph-name="oe" unicode="&#x153;" horiz-adv-x="546" 
d="M278 44c-24 -35 -58 -52 -104 -52c-93 0 -144 60 -144 173v108c0 113 51 173 144 173c47 0 81 -19 106 -57c22 37 57 57 101 57c84 0 138 -65 138 -184v-59h-203v-28c0 -80 19 -118 66 -118c37 0 58 25 64 77h70c-8 -93 -56 -142 -138 -142c-45 0 -80 18 -100 52z
M108 175c0 -80 19 -118 66 -118s66 38 66 118v88c0 80 -19 118 -66 118s-66 -38 -66 -118v-88zM316 260h127v28c0 59 -24 93 -61 93c-47 0 -66 -34 -66 -106v-15z" />
    <glyph glyph-name="germandbls" unicode="&#xdf;" horiz-adv-x="435" 
d="M23 0v60h46v436c0 123 48 185 141 185c81 0 129 -53 129 -146v-43c0 -52 -20 -87 -64 -114c72 -17 112 -73 112 -161v-42c0 -116 -51 -183 -128 -183c-24 0 -42 4 -55 13l15 57c12 -3 22 -6 31 -6c38 0 58 41 58 123v35c0 90 -29 131 -95 131c-5 0 -12 0 -18 -1v53
c51 4 72 30 72 86v41c0 62 -18 92 -57 92c-42 0 -64 -31 -64 -91v-525h-123z" />
    <glyph glyph-name="Aacute" unicode="&#xc1;" horiz-adv-x="537" 
d="M9 0v62h52l148 556h-65v63h256v-63h-67l149 -556h46v-62h-199v62h69l-38 149h-185l-40 -149h68v-62h-194zM192 275h151l-74 308zM296 919h89l-125 -170h-54z" />
    <glyph glyph-name="Acircumflex" unicode="&#xc2;" horiz-adv-x="537" 
d="M9 0v62h52l148 556h-65v63h256v-63h-67l149 -556h46v-62h-199v62h69l-38 149h-185l-40 -149h68v-62h-194zM192 275h151l-74 308zM140 749l86 170h86l86 -170h-53l-76 111l-76 -111h-53z" />
    <glyph glyph-name="Adieresis" unicode="&#xc4;" horiz-adv-x="537" 
d="M9 0v62h52l148 556h-65v63h256v-63h-67l149 -556h46v-62h-199v62h69l-38 149h-185l-40 -149h68v-62h-194zM192 275h151l-74 308zM144 777v103h89v-103h-89zM305 777v103h89v-103h-89z" />
    <glyph glyph-name="Agrave" unicode="&#xc0;" horiz-adv-x="537" 
d="M9 0v62h52l148 556h-65v63h256v-63h-67l149 -556h46v-62h-199v62h69l-38 149h-185l-40 -149h68v-62h-194zM192 275h151l-74 308zM154 919h88l90 -170h-53z" />
    <glyph glyph-name="Aring" unicode="&#xc5;" horiz-adv-x="537" 
d="M9 0v62h52l148 556h-65v63h256v-63h-67l149 -556h46v-62h-199v62h69l-38 149h-185l-40 -149h68v-62h-194zM192 275h151l-74 308zM272 903c-39 0 -70 -30 -70 -69s30 -70 70 -70c39 0 69 31 69 70s-30 69 -69 69zM271 955c68 0 121 -53 121 -121s-53 -121 -121 -121
s-121 53 -121 121s53 121 121 121z" />
    <glyph glyph-name="Atilde" unicode="&#xc3;" horiz-adv-x="537" 
d="M9 0v62h52l148 556h-65v63h256v-63h-67l149 -556h46v-62h-199v62h69l-38 149h-185l-40 -149h68v-62h-194zM192 275h151l-74 308zM397 884c-11 -67 -41 -101 -85 -101c-9 0 -19 2 -29 5l-42 13c-8 3 -16 4 -22 4c-19 0 -32 -12 -40 -34h-38c11 65 41 100 84 100
c9 0 18 -1 26 -4l43 -14c9 -3 17 -4 23 -4c21 0 34 10 42 35h38z" />
    <glyph glyph-name="Ccedilla" unicode="&#xc7;" horiz-adv-x="426" 
d="M402 215v-17c0 -139 -65 -212 -185 -212s-185 73 -185 212v278c0 142 64 218 174 218c47 0 90 -18 118 -50v37h61v-198h-66l-1 16c-9 85 -36 126 -96 126c-72 0 -103 -43 -103 -134v-302c0 -91 30 -133 103 -133c67 0 103 46 103 135v24h77zM189 0h35v-52h11
c73 0 110 -30 110 -86c0 -58 -41 -89 -121 -89c-31 0 -72 8 -122 21v42c52 -11 92 -17 120 -17c40 0 59 13 59 40c0 34 -21 48 -67 48c-8 0 -16 0 -25 -1v94z" />
    <glyph glyph-name="Eacute" unicode="&#xc9;" horiz-adv-x="495" 
d="M25 0v62h68v556h-68v63h426v-182h-74v117h-199v-216h166v-71h-166v-264h202v133h76v-198h-431zM275 919h89l-125 -170h-54z" />
    <glyph glyph-name="Ecircumflex" unicode="&#xca;" horiz-adv-x="495" 
d="M25 0v62h68v556h-68v63h426v-182h-74v117h-199v-216h166v-71h-166v-264h202v133h76v-198h-431zM119 749l86 170h86l86 -170h-53l-76 111l-76 -111h-53z" />
    <glyph glyph-name="Edieresis" unicode="&#xcb;" horiz-adv-x="495" 
d="M25 0v62h68v556h-68v63h426v-182h-74v117h-199v-216h166v-71h-166v-264h202v133h76v-198h-431zM123 777v103h89v-103h-89zM284 777v103h89v-103h-89z" />
    <glyph glyph-name="Egrave" unicode="&#xc8;" horiz-adv-x="495" 
d="M25 0v62h68v556h-68v63h426v-182h-74v117h-199v-216h166v-71h-166v-264h202v133h76v-198h-431zM133 919h88l90 -170h-53z" />
    <glyph glyph-name="Iacute" unicode="&#xcd;" horiz-adv-x="271" 
d="M25 0v62h68v556h-68v63h220v-63h-67v-556h67v-62h-220zM163 919h89l-125 -170h-54z" />
    <glyph glyph-name="Icircumflex" unicode="&#xce;" horiz-adv-x="271" 
d="M25 0v62h68v556h-68v63h220v-63h-67v-556h67v-62h-220zM7 749l86 170h86l86 -170h-53l-76 111l-76 -111h-53z" />
    <glyph glyph-name="Idieresis" unicode="&#xcf;" horiz-adv-x="271" 
d="M25 0v62h68v556h-68v63h220v-63h-67v-556h67v-62h-220zM11 777v103h89v-103h-89zM172 777v103h89v-103h-89z" />
    <glyph glyph-name="Igrave" unicode="&#xcc;" horiz-adv-x="271" 
d="M25 0v62h68v556h-68v63h220v-63h-67v-556h67v-62h-220zM21 919h88l90 -170h-53z" />
    <glyph glyph-name="Ntilde" unicode="&#xd1;" horiz-adv-x="556" 
d="M25 0v62h68v556h-68v63h160l206 -512v449h-67v63h206v-63h-67v-625h-74l-225 556v-487h67v-62h-206zM406 884c-11 -67 -41 -101 -85 -101c-9 0 -19 2 -29 5l-42 13c-8 3 -16 4 -22 4c-19 0 -32 -12 -40 -34h-38c11 65 41 100 84 100c9 0 18 -1 26 -4l43 -14
c9 -3 17 -4 23 -4c21 0 34 10 42 35h38z" />
    <glyph glyph-name="Oacute" unicode="&#xd3;" horiz-adv-x="444" 
d="M325 491c0 91 -31 134 -103 134s-103 -43 -103 -134v-302c0 -91 30 -133 103 -133c72 0 103 42 103 133v302zM412 490v-300c0 -134 -66 -204 -190 -204s-190 70 -190 204v300c0 134 66 204 190 204s190 -70 190 -204zM249 919h89l-125 -170h-54z" />
    <glyph glyph-name="Ocircumflex" unicode="&#xd4;" horiz-adv-x="444" 
d="M325 491c0 91 -31 134 -103 134s-103 -43 -103 -134v-302c0 -91 30 -133 103 -133c72 0 103 42 103 133v302zM412 490v-300c0 -134 -66 -204 -190 -204s-190 70 -190 204v300c0 134 66 204 190 204s190 -70 190 -204zM93 749l86 170h86l86 -170h-53l-76 111l-76 -111h-53
z" />
    <glyph glyph-name="Odieresis" unicode="&#xd6;" horiz-adv-x="444" 
d="M325 491c0 91 -31 134 -103 134s-103 -43 -103 -134v-302c0 -91 30 -133 103 -133c72 0 103 42 103 133v302zM412 490v-300c0 -134 -66 -204 -190 -204s-190 70 -190 204v300c0 134 66 204 190 204s190 -70 190 -204zM97 777v103h89v-103h-89zM258 777v103h89v-103h-89z
" />
    <glyph glyph-name="Ograve" unicode="&#xd2;" horiz-adv-x="444" 
d="M325 491c0 91 -31 134 -103 134s-103 -43 -103 -134v-302c0 -91 30 -133 103 -133c72 0 103 42 103 133v302zM412 490v-300c0 -134 -66 -204 -190 -204s-190 70 -190 204v300c0 134 66 204 190 204s190 -70 190 -204zM107 919h88l90 -170h-53z" />
    <glyph glyph-name="Otilde" unicode="&#xd5;" horiz-adv-x="444" 
d="M325 491c0 91 -31 134 -103 134s-103 -43 -103 -134v-302c0 -91 30 -133 103 -133c72 0 103 42 103 133v302zM412 490v-300c0 -134 -66 -204 -190 -204s-190 70 -190 204v300c0 134 66 204 190 204s190 -70 190 -204zM350 884c-11 -67 -41 -101 -85 -101
c-9 0 -19 2 -29 5l-42 13c-8 3 -16 4 -22 4c-19 0 -32 -12 -40 -34h-38c11 65 41 100 84 100c9 0 18 -1 26 -4l43 -14c9 -3 17 -4 23 -4c21 0 34 10 42 35h38z" />
    <glyph glyph-name="Scaron" unicode="&#x160;" horiz-adv-x="426" 
d="M33 0v206h69c12 -98 58 -150 126 -150c53 0 89 37 89 91c0 41 -23 76 -70 115l-114 95c-63 53 -95 110 -95 175c0 97 65 162 149 162c49 0 94 -22 126 -63v50h62v-174h-66c-15 77 -55 117 -113 117c-46 0 -82 -35 -82 -81c0 -35 22 -70 64 -105l123 -104
c66 -56 97 -111 97 -181c0 -96 -70 -167 -170 -167c-54 0 -97 25 -136 77v-63h-59zM84 919h53l76 -111l76 111h53l-86 -170h-86z" />
    <glyph glyph-name="Uacute" unicode="&#xda;" horiz-adv-x="542" 
d="M93 172v446h-68v63h220v-63h-67v-443c0 -82 28 -119 93 -119s92 37 92 119v443h-67v63h220v-63h-67v-446c0 -121 -62 -186 -178 -186s-178 65 -178 186zM298 919h89l-125 -170h-54z" />
    <glyph glyph-name="Ucircumflex" unicode="&#xdb;" horiz-adv-x="542" 
d="M93 172v446h-68v63h220v-63h-67v-443c0 -82 28 -119 93 -119s92 37 92 119v443h-67v63h220v-63h-67v-446c0 -121 -62 -186 -178 -186s-178 65 -178 186zM142 749l86 170h86l86 -170h-53l-76 111l-76 -111h-53z" />
    <glyph glyph-name="Udieresis" unicode="&#xdc;" horiz-adv-x="542" 
d="M93 172v446h-68v63h220v-63h-67v-443c0 -82 28 -119 93 -119s92 37 92 119v443h-67v63h220v-63h-67v-446c0 -121 -62 -186 -178 -186s-178 65 -178 186zM146 777v103h89v-103h-89zM307 777v103h89v-103h-89z" />
    <glyph glyph-name="Ugrave" unicode="&#xd9;" horiz-adv-x="542" 
d="M93 172v446h-68v63h220v-63h-67v-443c0 -82 28 -119 93 -119s92 37 92 119v443h-67v63h220v-63h-67v-446c0 -121 -62 -186 -178 -186s-178 65 -178 186zM156 919h88l90 -170h-53z" />
    <glyph glyph-name="Ydieresis" unicode="&#x178;" horiz-adv-x="481" 
d="M12 681h194v-63h-60l92 -255l109 255h-60v63h183v-63h-45l-148 -347v-209h67v-62h-220v62h67v209l-132 347h-47v63zM116 777v103h89v-103h-89zM277 777v103h89v-103h-89z" />
    <glyph glyph-name="Zcaron" unicode="&#x17d;" horiz-adv-x="440" 
d="M26 0v65l293 551h-212v-124h-74v189h376v-61l-294 -555h216v150h76v-215h-381zM91 919h53l76 -111l76 111h53l-86 -170h-86z" />
    <glyph glyph-name="aacute" unicode="&#xe1;" horiz-adv-x="398" 
d="M254 54c-32 -42 -62 -62 -104 -62c-79 0 -115 67 -115 203v81c0 110 46 170 126 170c42 0 72 -19 97 -62v53h110v-60h-46v-317h46v-60h-114v54zM112 166c0 -73 14 -108 58 -108s75 44 75 117v96c0 71 -24 107 -70 107s-63 -33 -63 -105v-107zM226 670h89l-125 -170h-54z
" />
    <glyph glyph-name="acircumflex" unicode="&#xe2;" horiz-adv-x="398" 
d="M254 54c-32 -42 -62 -62 -104 -62c-79 0 -115 67 -115 203v81c0 110 46 170 126 170c42 0 72 -19 97 -62v53h110v-60h-46v-317h46v-60h-114v54zM112 166c0 -73 14 -108 58 -108s75 44 75 117v96c0 71 -24 107 -70 107s-63 -33 -63 -105v-107zM70 500l86 170h86l86 -170
h-53l-76 111l-76 -111h-53z" />
    <glyph glyph-name="adieresis" unicode="&#xe4;" horiz-adv-x="398" 
d="M254 54c-32 -42 -62 -62 -104 -62c-79 0 -115 67 -115 203v81c0 110 46 170 126 170c42 0 72 -19 97 -62v53h110v-60h-46v-317h46v-60h-114v54zM112 166c0 -73 14 -108 58 -108s75 44 75 117v96c0 71 -24 107 -70 107s-63 -33 -63 -105v-107zM74 528v103h89v-103h-89z
M235 528v103h89v-103h-89z" />
    <glyph glyph-name="agrave" unicode="&#xe0;" horiz-adv-x="398" 
d="M254 54c-32 -42 -62 -62 -104 -62c-79 0 -115 67 -115 203v81c0 110 46 170 126 170c42 0 72 -19 97 -62v53h110v-60h-46v-317h46v-60h-114v54zM112 166c0 -73 14 -108 58 -108s75 44 75 117v96c0 71 -24 107 -70 107s-63 -33 -63 -105v-107zM84 670h88l90 -170h-53z" />
    <glyph glyph-name="aring" unicode="&#xe5;" horiz-adv-x="398" 
d="M254 54c-32 -42 -62 -62 -104 -62c-79 0 -115 67 -115 203v81c0 110 46 170 126 170c42 0 72 -19 97 -62v53h110v-60h-46v-317h46v-60h-114v54zM112 166c0 -73 14 -108 58 -108s75 44 75 117v96c0 71 -24 107 -70 107s-63 -33 -63 -105v-107zM210 720
c68 0 121 -53 121 -121s-53 -121 -121 -121s-121 53 -121 121s53 121 121 121zM211 669c-39 0 -70 -31 -70 -70s30 -70 70 -70c39 0 69 31 69 70s-30 70 -69 70z" />
    <glyph glyph-name="atilde" unicode="&#xe3;" horiz-adv-x="398" 
d="M254 54c-32 -42 -62 -62 -104 -62c-79 0 -115 67 -115 203v81c0 110 46 170 126 170c42 0 72 -19 97 -62v53h110v-60h-46v-317h46v-60h-114v54zM112 166c0 -73 14 -108 58 -108s75 44 75 117v96c0 71 -24 107 -70 107s-63 -33 -63 -105v-107zM327 635
c-11 -67 -41 -101 -85 -101c-9 0 -19 2 -29 5l-42 13c-8 3 -16 4 -22 4c-19 0 -32 -12 -40 -34h-38c11 65 41 100 84 100c9 0 18 -1 26 -4l43 -14c9 -3 17 -4 23 -4c21 0 34 10 42 35h38z" />
    <glyph glyph-name="ccedilla" unicode="&#xe7;" horiz-adv-x="329" 
d="M306 155v-9c0 -98 -50 -154 -132 -154c-94 0 -144 62 -144 183v100c0 112 43 171 118 171c32 0 60 -14 90 -41v32h54v-145h-62c-5 60 -25 89 -64 89c-43 0 -58 -35 -58 -107v-101c0 -78 19 -116 63 -116c45 0 65 32 65 98h70zM141 0h35v-52h11c73 0 110 -30 110 -86
c0 -58 -41 -89 -121 -89c-31 0 -72 8 -122 21v42c52 -11 92 -17 120 -17c40 0 59 13 59 40c0 34 -21 48 -67 48c-8 0 -16 0 -25 -1v94z" />
    <glyph glyph-name="eacute" unicode="&#xe9;" horiz-adv-x="338" 
d="M307 134c-8 -93 -56 -142 -138 -142c-90 0 -139 60 -139 173v92c0 122 52 189 137 189c92 0 143 -64 143 -184v-59h-202v-28c0 -80 19 -118 66 -118c37 0 58 25 64 77h69zM108 260h127v28c0 59 -24 93 -61 93c-47 0 -66 -34 -66 -106v-15zM196 670h89l-125 -170h-54z" />
    <glyph glyph-name="ecircumflex" unicode="&#xea;" horiz-adv-x="338" 
d="M307 134c-8 -93 -56 -142 -138 -142c-90 0 -139 60 -139 173v92c0 122 52 189 137 189c92 0 143 -64 143 -184v-59h-202v-28c0 -80 19 -118 66 -118c37 0 58 25 64 77h69zM108 260h127v28c0 59 -24 93 -61 93c-47 0 -66 -34 -66 -106v-15zM40 500l86 170h86l86 -170h-53
l-76 111l-76 -111h-53z" />
    <glyph glyph-name="edieresis" unicode="&#xeb;" horiz-adv-x="338" 
d="M307 134c-8 -93 -56 -142 -138 -142c-90 0 -139 60 -139 173v92c0 122 52 189 137 189c92 0 143 -64 143 -184v-59h-202v-28c0 -80 19 -118 66 -118c37 0 58 25 64 77h69zM108 260h127v28c0 59 -24 93 -61 93c-47 0 -66 -34 -66 -106v-15zM44 528v103h89v-103h-89z
M205 528v103h89v-103h-89z" />
    <glyph glyph-name="egrave" unicode="&#xe8;" horiz-adv-x="338" 
d="M307 134c-8 -93 -56 -142 -138 -142c-90 0 -139 60 -139 173v92c0 122 52 189 137 189c92 0 143 -64 143 -184v-59h-202v-28c0 -80 19 -118 66 -118c37 0 58 25 64 77h69zM108 260h127v28c0 59 -24 93 -61 93c-47 0 -66 -34 -66 -106v-15zM54 670h88l90 -170h-53z" />
    <glyph glyph-name="iacute" unicode="&#xed;" horiz-adv-x="222" 
d="M30 0v60h46v317h-46v60h123v-377h46v-60h-169zM138 670h89l-125 -170h-54z" />
    <glyph glyph-name="icircumflex" unicode="&#xee;" horiz-adv-x="222" 
d="M30 0v60h46v317h-46v60h123v-377h46v-60h-169zM-18 500l86 170h86l86 -170h-53l-76 111l-76 -111h-53z" />
    <glyph glyph-name="idieresis" unicode="&#xef;" horiz-adv-x="222" 
d="M30 0v60h46v317h-46v60h123v-377h46v-60h-169zM-14 528v103h89v-103h-89zM147 528v103h89v-103h-89z" />
    <glyph glyph-name="igrave" unicode="&#xec;" horiz-adv-x="222" 
d="M30 0v60h46v317h-46v60h123v-377h46v-60h-169zM-4 670h88l90 -170h-53z" />
    <glyph glyph-name="ntilde" unicode="&#xf1;" horiz-adv-x="440" 
d="M366 323v-263h46v-60h-169v60h46v246c0 50 -12 75 -47 75c-34 0 -63 -16 -89 -47v-274h46v-60h-169v60h46v317h-46v60h116v-54c33 42 72 63 117 63c74 0 103 -39 103 -123zM348 635c-11 -67 -41 -101 -85 -101c-9 0 -19 2 -29 5l-42 13c-8 3 -16 4 -22 4
c-19 0 -32 -12 -40 -34h-38c11 65 41 100 84 100c9 0 18 -1 26 -4l43 -14c9 -3 17 -4 23 -4c21 0 34 10 42 35h38z" />
    <glyph glyph-name="oacute" unicode="&#xf3;" horiz-adv-x="347" 
d="M317 273v-108c0 -113 -50 -173 -143 -173s-144 60 -144 173v108c0 113 51 173 144 173s143 -60 143 -173zM240 263c0 80 -19 118 -66 118s-66 -38 -66 -118v-88c0 -80 19 -118 66 -118s66 38 66 118v88zM201 670h89l-125 -170h-54z" />
    <glyph glyph-name="ocircumflex" unicode="&#xf4;" horiz-adv-x="347" 
d="M317 273v-108c0 -113 -50 -173 -143 -173s-144 60 -144 173v108c0 113 51 173 144 173s143 -60 143 -173zM240 263c0 80 -19 118 -66 118s-66 -38 -66 -118v-88c0 -80 19 -118 66 -118s66 38 66 118v88zM45 500l86 170h86l86 -170h-53l-76 111l-76 -111h-53z" />
    <glyph glyph-name="odieresis" unicode="&#xf6;" horiz-adv-x="347" 
d="M317 273v-108c0 -113 -50 -173 -143 -173s-144 60 -144 173v108c0 113 51 173 144 173s143 -60 143 -173zM240 263c0 80 -19 118 -66 118s-66 -38 -66 -118v-88c0 -80 19 -118 66 -118s66 38 66 118v88zM49 528v103h89v-103h-89zM210 528v103h89v-103h-89z" />
    <glyph glyph-name="ograve" unicode="&#xf2;" horiz-adv-x="347" 
d="M317 273v-108c0 -113 -50 -173 -143 -173s-144 60 -144 173v108c0 113 51 173 144 173s143 -60 143 -173zM240 263c0 80 -19 118 -66 118s-66 -38 -66 -118v-88c0 -80 19 -118 66 -118s66 38 66 118v88zM59 670h88l90 -170h-53z" />
    <glyph glyph-name="otilde" unicode="&#xf5;" horiz-adv-x="347" 
d="M317 273v-108c0 -113 -50 -173 -143 -173s-144 60 -144 173v108c0 113 51 173 144 173s143 -60 143 -173zM240 263c0 80 -19 118 -66 118s-66 -38 -66 -118v-88c0 -80 19 -118 66 -118s66 38 66 118v88zM302 635c-11 -67 -41 -101 -85 -101c-9 0 -19 2 -29 5l-42 13
c-8 3 -16 4 -22 4c-19 0 -32 -12 -40 -34h-38c11 65 41 100 84 100c9 0 18 -1 26 -4l43 -14c9 -3 17 -4 23 -4c21 0 34 10 42 35h38z" />
    <glyph glyph-name="scaron" unicode="&#x161;" horiz-adv-x="319" 
d="M31 0v156h61c9 -63 40 -98 80 -98c29 0 48 18 48 47c0 26 -16 40 -42 61l-88 71c-33 26 -52 64 -52 102c0 63 43 107 101 107c31 0 57 -14 83 -40v31h55v-132h-54c-15 47 -37 75 -73 75c-24 0 -41 -17 -41 -40c0 -19 13 -33 37 -52l81 -65c43 -35 65 -72 65 -115
c0 -71 -46 -116 -107 -116c-35 0 -63 14 -91 44v-36h-63zM31 670h53l76 -111l76 111h53l-86 -170h-86z" />
    <glyph glyph-name="uacute" unicode="&#xfa;" horiz-adv-x="433" 
d="M28 437h122v-306c0 -51 12 -75 51 -75c30 0 60 16 86 47v274h-46v60h122v-377h47v-60h-116v54c-33 -42 -72 -62 -117 -62c-74 0 -103 38 -103 122v263h-46v60zM244 670h89l-125 -170h-54z" />
    <glyph glyph-name="ucircumflex" unicode="&#xfb;" horiz-adv-x="433" 
d="M28 437h122v-306c0 -51 12 -75 51 -75c30 0 60 16 86 47v274h-46v60h122v-377h47v-60h-116v54c-33 -42 -72 -62 -117 -62c-74 0 -103 38 -103 122v263h-46v60zM88 500l86 170h86l86 -170h-53l-76 111l-76 -111h-53z" />
    <glyph glyph-name="udieresis" unicode="&#xfc;" horiz-adv-x="433" 
d="M28 437h122v-306c0 -51 12 -75 51 -75c30 0 60 16 86 47v274h-46v60h122v-377h47v-60h-116v54c-33 -42 -72 -62 -117 -62c-74 0 -103 38 -103 122v263h-46v60zM92 528v103h89v-103h-89zM253 528v103h89v-103h-89z" />
    <glyph glyph-name="ugrave" unicode="&#xf9;" horiz-adv-x="433" 
d="M28 437h122v-306c0 -51 12 -75 51 -75c30 0 60 16 86 47v274h-46v60h122v-377h47v-60h-116v54c-33 -42 -72 -62 -117 -62c-74 0 -103 38 -103 122v263h-46v60zM102 670h88l90 -170h-53z" />
    <glyph glyph-name="ydieresis" unicode="&#xff;" horiz-adv-x="391" 
d="M53 -185v60h50l53 147l-115 355h-41v60h161v-60h-44l77 -257l85 257h-44v60h156v-60h-44l-175 -502h50v-60h-169zM71 528v103h89v-103h-89zM232 528v103h89v-103h-89z" />
    <glyph glyph-name="zcaron" unicode="&#x17e;" horiz-adv-x="370" 
d="M20 0v58l229 322h-158v-77h-62v134h308v-57l-229 -322h166v92h63v-150h-317zM56 670h53l76 -111l76 111h53l-86 -170h-86z" />
    <glyph glyph-name="trademark" unicode="&#x2122;" horiz-adv-x="833" 
d="M339 711v-33h-84v-228h-46v228h-85v33h215zM463 711l78 -198l73 198h64v-261h-40v224l-84 -224h-26l-88 224v-224h-40v261h63z" />
    <glyph glyph-name="copyright" unicode="&#xa9;" horiz-adv-x="833" 
d="M416 713c97 0 187 -36 256 -105c67 -67 103 -157 103 -254c0 -98 -36 -186 -103 -252c-71 -69 -162 -107 -256 -107c-95 0 -183 37 -252 106s-106 158 -106 253s38 185 107 255c66 67 154 104 251 104zM733 354c0 85 -33 165 -92 224c-60 60 -139 92 -225 92
s-163 -32 -221 -91c-61 -62 -94 -142 -94 -225s33 -161 93 -222c60 -60 138 -93 222 -93c83 0 164 33 226 94c59 58 91 135 91 221zM520 445c-10 51 -49 80 -102 80c-75 0 -121 -61 -121 -172c0 -107 48 -168 121 -168c56 0 97 33 107 89h63c-7 -83 -77 -140 -173 -140
c-113 0 -188 83 -188 218c0 138 78 223 193 223c90 0 156 -54 163 -130h-63z" />
    <glyph glyph-name="logicalnot" unicode="&#xac;" horiz-adv-x="833" 
d="M709 419v-245h-56v188h-529v57h585z" />
    <glyph glyph-name="registered" unicode="&#xae;" horiz-adv-x="833" 
d="M416 713c98 0 187 -37 256 -106c67 -67 103 -157 103 -253c0 -98 -36 -186 -104 -252c-71 -69 -161 -107 -255 -107c-95 0 -184 38 -253 107c-68 68 -105 157 -105 252s38 186 108 256c66 67 153 103 250 103zM733 352c0 86 -32 166 -91 225c-61 61 -139 93 -226 93
c-85 0 -162 -31 -220 -90c-62 -62 -95 -142 -95 -226c0 -83 33 -161 93 -222s139 -93 221 -93c85 0 164 32 226 93c59 58 92 135 92 220zM426 565c114 0 171 -36 171 -113c0 -57 -36 -99 -96 -109l92 -188h-77l-86 178h-87v-178h-69v410h152zM413 520h-70v-142h72
c76 0 111 17 111 69c0 53 -36 73 -113 73z" />
    <glyph glyph-name="minus" unicode="&#x2212;" horiz-adv-x="833" 
d="M709 327v-58h-585v58h585z" />
    <glyph glyph-name="Eth" unicode="&#xd0;" horiz-adv-x="498" 
d="M25 681h174c198 0 266 -67 266 -256v-158c0 -188 -72 -267 -242 -267h-198v62h68v282h-93v46h93v228h-68v63zM178 616v-226h93v-46h-93v-279h23c126 0 177 53 177 191v179c0 132 -46 181 -171 181h-29z" />
    <glyph glyph-name="Thorn" unicode="&#xde;" horiz-adv-x="481" 
d="M25 0v62h68v556h-68v63h220v-63h-67v-76h73c139 0 200 -44 200 -160v-64c0 -118 -51 -165 -168 -165h-105v-91h67v-62h-220zM178 218h66c92 0 123 23 123 104v63c0 70 -32 92 -118 92h-71v-259z" />
    <glyph glyph-name="Yacute" unicode="&#xdd;" horiz-adv-x="481" 
d="M12 681h194v-63h-60l92 -255l109 255h-60v63h183v-63h-45l-148 -347v-209h67v-62h-220v62h67v209l-132 347h-47v63zM268 919h89l-125 -170h-54z" />
    <glyph glyph-name="brokenbar" unicode="&#xa6;" 
d="M281 699v-370h-62v370h62zM281 199v-370h-62v370h62z" />
    <glyph glyph-name="degree" unicode="&#xb0;" horiz-adv-x="329" 
d="M165 710c76 0 138 -62 138 -138c0 -75 -61 -138 -139 -138c-77 0 -137 61 -137 138c0 78 62 138 138 138zM263 572c0 54 -43 98 -98 98c-54 0 -99 -43 -99 -98c0 -56 45 -99 99 -99c56 0 98 45 98 99z" />
    <glyph glyph-name="divide" unicode="&#xf7;" horiz-adv-x="833" 
d="M417 530c31 0 56 -25 56 -56c0 -30 -24 -56 -56 -56s-56 25 -56 56s26 56 56 56zM709 327v-57h-585v57h585zM417 178c30 0 56 -25 56 -56c0 -30 -24 -56 -56 -56c-31 0 -56 25 -56 56c0 32 26 56 56 56z" />
    <glyph glyph-name="eth" unicode="&#xf0;" horiz-adv-x="347" 
d="M30 165v108c0 113 51 173 144 173c20 0 36 -4 51 -13l-58 118l-99 -30l-12 30l97 29l-45 101h76l39 -80l82 26l10 -31l-78 -25l38 -82c37 -78 42 -143 42 -216v-108c0 -113 -50 -173 -143 -173s-144 60 -144 173zM108 175c0 -80 19 -118 66 -118s66 38 66 118v88
c0 80 -19 118 -66 118s-66 -38 -66 -118v-88z" />
    <glyph glyph-name="mu" unicode="&#x3bc;" horiz-adv-x="551" 
d="M177 522l-62 -291c-5 -22 -7 -44 -7 -67c0 -70 38 -111 106 -111c82 0 135 66 164 200l59 269h76l-79 -368c-7 -31 -11 -53 -11 -66c0 -21 12 -32 35 -32c2 0 8 0 17 1l-13 -61c-17 -4 -33 -5 -45 -5c-46 0 -67 22 -71 72c-26 -45 -78 -72 -141 -72c-56 0 -99 22 -128 67
l-55 -266h-76l154 730h77z" />
    <glyph glyph-name="multiply" unicode="&#xd7;" horiz-adv-x="833" 
d="M419 338l232 233l40 -40l-232 -233l232 -232l-40 -40l-232 232l-233 -232l-39 40l232 232l-232 233l39 40z" />
    <glyph glyph-name="onehalf" unicode="&#xbd;" horiz-adv-x="657" 
d="M63 293v34h35v306h-35v34h88v-340h37v-34h-125zM78 -14l454 695h46l-454 -695h-46zM434 254v11c0 78 25 116 95 116c63 0 97 -30 97 -85c0 -46 -21 -84 -53 -131l-88 -125h98v59h44v-99h-194v39l87 126c35 49 54 90 54 127c0 34 -13 50 -47 50c-45 0 -48 -29 -48 -84v-4
h-45z" />
    <glyph glyph-name="onequarter" unicode="&#xbc;" horiz-adv-x="657" 
d="M63 293v34h35v306h-35v34h88v-340h37v-34h-125zM78 -14l454 695h46l-454 -695h-46zM465 141h76v153zM541 374h49v-233h33v-34h-33v-73h33v-34h-118v34h36v73h-114v34z" />
    <glyph glyph-name="onesuperior" unicode="&#xb9;" horiz-adv-x="257" 
d="M66 266v36h37v329h-37v35h92v-364h39v-36h-131z" />
    <glyph glyph-name="plusminus" unicode="&#xb1;" horiz-adv-x="833" 
d="M446 576v-168h263v-57h-263v-168h-58v168h-264v57h264v168h58zM709 77v-57h-585v57h585z" />
    <glyph glyph-name="thorn" unicode="&#xfe;" horiz-adv-x="396" 
d="M23 681h123v-292c28 38 63 57 106 57c67 0 104 -41 104 -117v-213c0 -79 -41 -124 -109 -124c-35 0 -71 17 -101 52v-169h46v-60h-169v60h46v745h-46v61zM279 297c0 54 -20 79 -64 79c-43 0 -69 -34 -69 -98v-99c0 -79 24 -118 76 -118c40 0 57 28 57 86v150z" />
    <glyph glyph-name="threequarters" unicode="&#xbe;" horiz-adv-x="657" 
d="M151 491c42 -4 64 -39 64 -103c0 -69 -34 -103 -101 -103c-59 0 -93 37 -93 106v12h46v-14c0 -44 17 -66 51 -66c36 0 48 22 48 68c0 59 -11 80 -66 80h-7v35c59 0 71 19 71 71c0 40 -13 60 -44 60c-34 0 -51 -21 -51 -67v-9h-43v14c0 66 31 99 94 99c58 0 92 -33 92 -95
c0 -59 -20 -88 -60 -88h-1zM78 -14l454 695h46l-454 -695h-46zM465 141h76v153zM541 374h49v-233h33v-34h-33v-73h33v-34h-118v34h36v73h-114v34z" />
    <glyph glyph-name="threesuperior" unicode="&#xb3;" horiz-adv-x="257" 
d="M158 478c45 -4 67 -42 67 -111c0 -73 -36 -109 -106 -109c-62 0 -97 39 -97 113v13h48v-15c0 -47 18 -71 53 -71c39 0 51 24 51 73c0 63 -12 85 -70 85h-7v38c62 1 75 20 75 76c0 43 -14 64 -46 64c-36 0 -53 -22 -53 -71v-10h-46v15c0 71 32 106 98 106
c62 0 97 -35 97 -101c0 -63 -21 -95 -63 -95h-1z" />
    <glyph glyph-name="twosuperior" unicode="&#xb2;" horiz-adv-x="257" 
d="M23 538v12c0 84 26 125 100 125c65 0 101 -33 101 -92c0 -49 -21 -90 -56 -140l-91 -134h103v63h46v-106h-204v41l92 135c36 54 56 97 56 137c0 37 -14 54 -50 54c-47 0 -50 -32 -50 -91v-4h-47z" />
    <glyph glyph-name="yacute" unicode="&#xfd;" horiz-adv-x="391" 
d="M53 -185v60h50l53 147l-115 355h-41v60h161v-60h-44l77 -257l85 257h-44v60h156v-60h-44l-175 -502h50v-60h-169zM223 670h89l-125 -170h-54z" />
    </font>
</defs>
</svg>
