<?xml version="1.0" standalone="no"?>
<!DOCTYPE svg PUBLIC "-//W3C//DTD SVG 1.1//EN" "http://www.w3.org/Graphics/SVG/1.1/DTD/svg11.dtd" >
<svg xmlns="http://www.w3.org/2000/svg" width="100%" height="100%">
<metadata>
Created by FontXChange 20110222 at Mon Feb 17 13:36:31 2014
 By Zeeshan Jan
Copyright 1990 as an unpublished work by Bitstream Inc.  All rights reserved.  Confidential.
</metadata>
<defs>
<font id="GeometricSlab703BT-Light" horiz-adv-x="500" >
  <font-face 
    font-family="Geometric Slabserif 703"
    font-weight="200"
    font-stretch="normal"
    units-per-em="1000"
    panose-1="2 0 3 3 0 0 0 0 0 0"
    ascent="800"
    descent="-200"
    x-height="451"
    cap-height="720"
    bbox="-167 -236 1185 963"
    underline-thickness="35"
    underline-position="-104"
    stemh="45"
    stemv="51"
    unicode-range="U+0020-FB02"
  />
    <missing-glyph />
    <glyph glyph-name="space" unicode=" " horiz-adv-x="256" 
 />
    <glyph glyph-name="exclam" unicode="!" horiz-adv-x="256" 
d="M128 -12c-30 0 -53 22 -53 52s23 53 53 53c31 0 53 -23 53 -53s-23 -52 -53 -52zM106 157l-10 563h63l-9 -563h-44z" />
    <glyph glyph-name="quotedbl" unicode="&#x22;" horiz-adv-x="269" 
d="M91 700v-270h-42v270h42zM220 700v-270h-42v270h42z" />
    <glyph glyph-name="numbersign" unicode="#" horiz-adv-x="769" 
d="M447 710l-85 -243h132l86 243h54l-85 -243h157l-15 -44h-158l-49 -138h170l-15 -44h-171l-85 -241h-55l86 241h-132l-87 -241h-54l85 241h-163l15 44h164l49 138h-176l14 44h178l86 243h54zM478 423h-132l-48 -138h131z" />
    <glyph glyph-name="dollar" unicode="$" horiz-adv-x="512" 
d="M235 392v249c-83 -2 -134 -52 -134 -121c0 -66 46 -111 134 -128zM235 -4c-67 11 -119 51 -159 121l1 -117h-43v239h42c28 -118 85 -185 159 -194v295c-124 26 -185 84 -185 178c0 96 72 165 185 167v49h40v-50c57 -13 102 -43 131 -87l-1 86h43v-186h-39
c-21 75 -66 121 -134 140v-254c140 -30 209 -96 209 -203c0 -100 -84 -182 -209 -184v-83h-40v83zM275 42c93 1 158 65 158 138c0 76 -53 126 -158 150v-288z" />
    <glyph glyph-name="percent" unicode="%" horiz-adv-x="816" 
d="M781 162c0 -92 -72 -162 -162 -162c-91 0 -162 70 -162 162s71 162 162 162c90 0 162 -70 162 -162zM619 48c63 0 113 49 113 114c0 66 -49 114 -113 114c-63 0 -113 -49 -113 -114s50 -114 113 -114zM359 539c0 -92 -72 -162 -162 -162c-91 0 -162 70 -162 162
s71 162 162 162c90 0 162 -70 162 -162zM197 425c63 0 113 49 113 114c0 66 -49 114 -113 114c-63 0 -113 -49 -113 -114s50 -114 113 -114zM618 715h49l-468 -729h-48z" />
    <glyph glyph-name="ampersand" unicode="&#x26;" horiz-adv-x="652" 
d="M198 382c-61 69 -92 136 -92 204c0 92 56 148 145 148s144 -56 144 -146c0 -71 -40 -133 -121 -207l163 -180c43 54 74 117 91 185h-60v49h181v-49h-66c-21 -83 -57 -157 -111 -228l101 -109h76v-49h-104l-107 116c-75 -86 -151 -130 -226 -130c-100 0 -171 72 -171 166
c0 78 54 145 157 230zM240 414c65 65 99 118 99 177s-32 94 -83 94c-60 0 -93 -35 -93 -100c0 -57 26 -114 77 -171zM402 154l-169 193c-85 -78 -133 -131 -133 -190c0 -67 50 -118 114 -118c61 0 127 39 188 115z" />
    <glyph glyph-name="quoteright" unicode="&#x2019;" horiz-adv-x="251" 
d="M124 522h-56l60 198h56z" />
    <glyph glyph-name="parenleft" unicode="(" horiz-adv-x="308" 
d="M263 702c-93 -128 -139 -256 -139 -389s46 -261 139 -389l-41 -31c-101 129 -153 273 -153 420s52 292 153 421z" />
    <glyph glyph-name="parenright" unicode=")" horiz-adv-x="308" 
d="M44 702l42 32c101 -129 153 -274 153 -421s-52 -291 -153 -420l-42 31c93 128 140 256 140 389s-47 261 -140 389z" />
    <glyph glyph-name="asterisk" unicode="*" 
d="M229 734h46l-3 -114l105 46l16 -43l-112 -40l78 -83l-36 -31l-73 88l-73 -88l-35 31l78 83l-114 40l17 43l108 -46z" />
    <glyph glyph-name="plus" unicode="+" horiz-adv-x="833" 
d="M436 595v-278h273v-39h-273v-278h-39v278h-273v39h273v278h39z" />
    <glyph glyph-name="comma" unicode="," horiz-adv-x="256" 
d="M38 -106l65 212h56l-65 -212h-56z" />
    <glyph glyph-name="hyphen" unicode="-" horiz-adv-x="310" 
d="M33 205v50h245v-50h-245z" />
    <glyph glyph-name="period" unicode="." horiz-adv-x="256" 
d="M128 -12c-30 0 -53 22 -53 52s23 53 53 53c31 0 53 -23 53 -53s-23 -52 -53 -52z" />
    <glyph glyph-name="slash" unicode="/" horiz-adv-x="282" 
d="M317 734l-257 -827h-45l257 827h45z" />
    <glyph glyph-name="zero" unicode="0" horiz-adv-x="512" 
d="M51 262v178c0 68 2 124 30 174c38 67 98 101 175 101s137 -34 175 -101c28 -50 29 -106 29 -174v-178c0 -68 -1 -124 -29 -174c-38 -67 -98 -102 -175 -102s-137 35 -175 102c-28 50 -30 106 -30 174zM107 253c0 -60 2 -106 21 -142c27 -49 72 -76 128 -76s101 27 128 76
c19 36 21 82 21 142v195c0 60 -2 107 -21 142c-27 49 -72 77 -128 77s-101 -28 -128 -77c-19 -35 -21 -82 -21 -142v-195z" />
    <glyph glyph-name="one" unicode="1" horiz-adv-x="512" 
d="M151 0v46h88v609h-82v46h138v-655h85v-46h-229z" />
    <glyph glyph-name="two" unicode="2" horiz-adv-x="512" 
d="M45 0v47c210 253 347 388 347 494c0 77 -54 127 -138 127c-97 0 -153 -68 -153 -197v-10h-51c-1 9 -1 17 -1 26c0 142 80 228 207 228c114 0 192 -71 192 -169c0 -115 -130 -256 -341 -500h302v130h54v-176h-418z" />
    <glyph glyph-name="three" unicode="3" horiz-adv-x="512" 
d="M64 506v2c0 128 79 207 199 207c114 0 193 -79 193 -185c0 -80 -51 -145 -136 -164c86 -16 141 -87 141 -177c0 -113 -90 -203 -203 -203c-127 0 -209 81 -209 208v7h51c3 -103 65 -166 153 -166c85 0 152 64 152 151c0 92 -67 155 -168 155c-5 0 -13 -1 -21 -1v46
c117 1 184 57 184 144c0 82 -55 136 -142 136c-89 0 -141 -55 -145 -160h-49z" />
    <glyph glyph-name="four" unicode="4" horiz-adv-x="512" 
d="M229 0v46h87v146h-285v46l296 463h44v-464h87v-45h-87v-146h87v-46h-229zM316 237v255c0 33 5 77 13 131l-241 -386h228z" />
    <glyph glyph-name="five" unicode="5" horiz-adv-x="512" 
d="M52 194h51c3 -101 60 -161 144 -161c93 0 156 71 156 186c0 122 -62 185 -180 185c-42 0 -85 -7 -128 -23v320h294v-46h-242v-215c29 7 58 11 87 11c142 0 225 -88 225 -232c0 -139 -85 -233 -214 -233c-114 0 -193 81 -193 203v5z" />
    <glyph glyph-name="six" unicode="6" horiz-adv-x="512" 
d="M436 551h-49c-12 77 -52 114 -123 114c-113 0 -157 -95 -157 -296v-27c34 63 91 97 166 97c112 0 197 -92 197 -228c0 -134 -85 -225 -207 -225c-86 0 -151 41 -183 115c-22 51 -26 117 -26 204v108c0 198 74 301 216 301c99 0 159 -67 166 -163zM113 212
c0 -111 58 -177 150 -177s151 65 151 176s-61 177 -151 177c-92 0 -150 -64 -150 -176z" />
    <glyph glyph-name="seven" unicode="7" horiz-adv-x="512" 
d="M127 701l290 -655h-282v116h-55v-162h395l2 46l-288 655h-62z" />
    <glyph glyph-name="eight" unicode="8" horiz-adv-x="512" 
d="M256 33c86 0 152 66 152 153c0 88 -66 154 -152 154s-152 -66 -152 -154c0 -87 66 -153 152 -153zM256 389c80 0 141 60 141 140s-61 140 -141 140s-141 -60 -141 -140s61 -140 141 -140zM182 366c-77 28 -120 90 -120 170c0 103 82 180 194 180c113 0 194 -77 194 -180
c0 -79 -43 -142 -120 -170c82 -24 132 -94 132 -180c0 -115 -84 -200 -206 -200s-206 85 -206 200c0 86 50 156 132 180z" />
    <glyph glyph-name="nine" unicode="9" horiz-adv-x="512" 
d="M398 212c0 -113 -60 -177 -150 -177c-92 0 -150 65 -150 176s60 177 150 177c92 0 150 -64 150 -176zM71 551h49c12 76 52 114 121 114c122 0 165 -89 165 -282c0 -13 -1 -27 -1 -41c-34 63 -92 97 -167 97c-112 0 -197 -92 -197 -228c0 -134 85 -225 207 -225
c86 0 151 41 183 115c22 51 26 117 26 204v108c0 200 -73 301 -216 301c-99 0 -160 -58 -170 -163z" />
    <glyph glyph-name="colon" unicode=":" horiz-adv-x="256" 
d="M128 -12c-30 0 -53 22 -53 52s23 53 53 53c31 0 53 -23 53 -53s-23 -52 -53 -52zM128 347c-30 0 -53 22 -53 52s23 52 53 52c31 0 53 -22 53 -52s-23 -52 -53 -52z" />
    <glyph glyph-name="semicolon" unicode=";" horiz-adv-x="256" 
d="M128 347c-30 0 -53 22 -53 52s23 52 53 52c31 0 53 -22 53 -52s-23 -52 -53 -52zM38 -106l65 212h56l-65 -212h-56z" />
    <glyph glyph-name="less" unicode="&#x3c;" horiz-adv-x="833" 
d="M704 505l-510 -207l510 -207v-43l-575 235v30l575 236v-44z" />
    <glyph glyph-name="equal" unicode="=" horiz-adv-x="833" 
d="M709 406v-39h-585v39h585zM709 229v-39h-585v39h585z" />
    <glyph glyph-name="greater" unicode="&#x3e;" horiz-adv-x="833" 
d="M704 313v-30l-575 -235v43l510 207l-510 207v44z" />
    <glyph glyph-name="question" unicode="?" horiz-adv-x="509" 
d="M200 157v230c6 0 12 -1 17 -1c104 0 165 61 165 161c0 80 -59 139 -138 139c-76 0 -129 -53 -132 -140h-53c3 114 82 188 187 188c114 0 189 -76 189 -198c0 -107 -70 -186 -181 -196v-183h-54zM228 -12c-30 0 -53 22 -53 52s23 53 53 53c31 0 53 -23 53 -53
s-23 -52 -53 -52z" />
    <glyph glyph-name="at" unicode="@" horiz-adv-x="1000" 
d="M595 228l31 124c-14 64 -53 99 -114 99c-99 0 -175 -102 -175 -233c0 -76 40 -120 106 -120c72 0 132 51 152 130zM636 404l30 63h39l-67 -270c-7 -26 -10 -44 -10 -53c0 -28 20 -45 57 -45c31 0 66 13 99 37c64 47 109 139 109 239c0 176 -140 296 -354 296
c-110 0 -203 -32 -278 -94c-100 -83 -151 -194 -151 -328c0 -211 154 -350 397 -350c103 0 214 33 304 94l14 -22c-95 -71 -201 -107 -316 -107c-124 0 -225 31 -303 90c-99 75 -147 173 -147 301c0 106 34 202 97 279c93 114 226 174 388 174c108 0 205 -32 270 -82
c83 -64 127 -149 127 -246c0 -111 -43 -204 -119 -264c-44 -35 -97 -54 -149 -54c-62 0 -94 24 -94 71c0 6 1 12 2 19c-32 -58 -84 -90 -142 -90c-100 0 -153 55 -153 159c0 151 102 266 225 266c62 0 105 -28 125 -83z" />
    <glyph glyph-name="A" unicode="A" horiz-adv-x="662" 
d="M194 447h274l-137 -382zM-18 720v-49h70l228 -622h-73v-49h248v49h-73l228 622h70v49h-211v-49h82l-64 -176h-312l-64 176h82v49h-211z" />
    <glyph glyph-name="B" unicode="B" horiz-adv-x="601" 
d="M30 0v49h83v622h-83v49h240c170 0 256 -60 256 -177c0 -75 -41 -128 -124 -156c107 -25 164 -92 164 -185c0 -122 -88 -202 -223 -202h-313zM171 671v-266h94c138 0 202 30 202 133c0 95 -63 133 -202 133h-94zM171 357v-308h138c135 0 198 46 198 154
c0 106 -64 154 -198 154h-138z" />
    <glyph glyph-name="C" unicode="C" horiz-adv-x="743" 
d="M718 227c-40 -155 -152 -241 -314 -241c-95 0 -178 32 -244 92c-81 74 -123 170 -123 282s42 209 123 283c66 60 149 91 244 91c113 0 203 -46 256 -129v115h50v-224h-45c-33 119 -130 189 -261 189c-79 0 -157 -31 -211 -83c-65 -63 -97 -143 -97 -242
c0 -193 132 -325 319 -325c129 0 223 73 252 192h51z" />
    <glyph glyph-name="D" unicode="D" horiz-adv-x="712" 
d="M253 0h-224v49h83v622h-83v49h224c104 0 182 -8 235 -38c123 -70 187 -180 187 -322c0 -135 -68 -252 -189 -319c-52 -29 -130 -41 -233 -41zM253 49c226 0 362 128 362 314c0 120 -53 210 -157 271c-43 25 -111 37 -205 37h-83v-622h83z" />
    <glyph glyph-name="E" unicode="E" horiz-adv-x="590" 
d="M29 0v49h83v622h-83v49h527v-177h-58v128h-328v-265h252v-49h-252v-308h328v125h58v-174h-527z" />
    <glyph glyph-name="F" unicode="F" horiz-adv-x="558" 
d="M29 0v49h83v622h-83v49h534v-177h-57v128h-336v-265h252v-49h-252v-308h93v-49h-234z" />
    <glyph glyph-name="G" unicode="G" horiz-adv-x="823" 
d="M668 0v116c-51 -84 -140 -130 -256 -130c-75 0 -139 16 -194 49c-114 68 -181 187 -181 325c0 112 42 209 123 283c66 60 149 91 244 91c114 0 204 -46 256 -129v115h50v-224h-45c-32 118 -131 189 -261 189c-80 0 -157 -31 -211 -83c-65 -63 -97 -143 -97 -242
c0 -193 131 -325 323 -325c149 0 248 89 255 234h-222v48h344v-48h-74v-269h-54z" />
    <glyph glyph-name="H" unicode="H" horiz-adv-x="722" 
d="M29 0v49h83v622h-83v49h224v-49h-83v-271h382v271h-83v49h224v-49h-83v-622h83v-49h-224v49h83v303h-382v-303h83v-49h-224z" />
    <glyph glyph-name="I" unicode="I" horiz-adv-x="282" 
d="M20 720v-49h92v-622h-92v-49h243v49h-93v622h93v49h-243z" />
    <glyph glyph-name="J" unicode="J" horiz-adv-x="275" 
d="M112 49v622h-92v49h236v-49h-86v-622c0 -115 -37 -168 -136 -168h-36v52h18c85 0 96 30 96 116z" />
    <glyph glyph-name="K" unicode="K" horiz-adv-x="637" 
d="M29 0v49h83v622h-83v49h224v-49h-83v-301l321 301h-77v49h220v-49h-72l-331 -307l335 -315h68v-49h-231v49h77l-310 295v-295h83v-49h-224z" />
    <glyph glyph-name="L" unicode="L" horiz-adv-x="529" 
d="M29 0v49h83v622h-83v49h224v-49h-83v-622h294v104h58v-153h-493z" />
    <glyph glyph-name="M" unicode="M" horiz-adv-x="875" 
d="M25 0v49h92v622h-92v49h153l259 -611l260 611h153v-49h-92v-622h92v-49h-243v49h93v561l-247 -582h-31l-247 582v-561h93v-49h-243z" />
    <glyph glyph-name="N" unicode="N" horiz-adv-x="718" 
d="M29 0v49h83v622h-83v49h171l347 -625v576h-76v49h217v-49h-83v-685h-58l-377 671v-608h77v-49h-218z" />
    <glyph glyph-name="O" unicode="O" horiz-adv-x="808" 
d="M37 360c0 -112 42 -209 123 -283c66 -60 149 -91 244 -91c96 0 178 31 244 91c80 74 123 171 123 283c0 111 -43 209 -123 282c-66 60 -148 92 -244 92c-95 0 -178 -32 -244 -92c-81 -74 -123 -171 -123 -282zM96 360c0 98 32 178 97 241c53 52 132 83 211 83
c80 0 158 -31 211 -83c64 -62 97 -143 97 -241s-33 -180 -97 -242c-54 -52 -131 -83 -211 -83s-157 31 -211 83c-65 63 -97 143 -97 242z" />
    <glyph glyph-name="P" unicode="P" horiz-adv-x="580" 
d="M170 671v-343h121c150 0 222 54 222 172s-72 171 -222 171h-121zM20 0v49h92v622h-92v49h275c182 0 277 -77 277 -219c0 -145 -93 -219 -277 -219h-125v-233h93v-49h-243z" />
    <glyph glyph-name="Q" unicode="Q" horiz-adv-x="808" 
d="M516 3l26 -52h107v-49h-137l-44 90c-29 -4 -53 -6 -73 -6c-87 0 -170 33 -235 92c-81 74 -123 170 -123 282s42 209 123 283c66 60 149 91 244 91c96 0 178 -31 244 -91c80 -74 123 -171 123 -283c0 -169 -96 -305 -255 -357zM493 49c136 39 219 157 219 311
c0 98 -33 180 -97 242c-54 52 -131 83 -211 83s-157 -31 -211 -83c-65 -63 -97 -143 -97 -242c0 -121 50 -218 140 -275c52 -33 109 -49 169 -49c13 0 26 0 40 2l-39 81l43 21z" />
    <glyph glyph-name="R" unicode="R" horiz-adv-x="655" 
d="M170 671v-272h142c149 0 219 39 219 136s-70 136 -219 136h-142zM20 0v49h92v622h-92v49h307c173 0 263 -67 263 -185c0 -88 -60 -152 -168 -167c106 -27 136 -76 136 -180v-139h83v-49h-141v172c0 133 -62 178 -242 178h-88v-301h93v-49h-243z" />
    <glyph glyph-name="S" unicode="S" horiz-adv-x="662" 
d="M94 -2v240h48c18 -128 109 -205 234 -205c102 0 171 59 171 144c0 72 -45 112 -144 138l-94 25c-141 38 -214 108 -214 204c0 107 91 188 218 188c87 0 161 -40 201 -106l-3 92h48v-192h-45c-26 100 -102 157 -206 157c-91 0 -159 -56 -159 -130c0 -77 56 -127 170 -156
l111 -29c114 -29 171 -92 171 -186c0 -114 -90 -198 -234 -198c-92 0 -174 45 -228 127l3 -113h-48z" />
    <glyph glyph-name="T" unicode="T" horiz-adv-x="565" 
d="M161 0v49h92v622h-185v-148h-51v197h530v-197h-50v148h-186v-622h93v-49h-243z" />
    <glyph glyph-name="U" unicode="U" horiz-adv-x="704" 
d="M244 720v-49h-84v-409c0 -76 4 -131 43 -172c34 -36 82 -53 148 -53s116 17 150 53c39 41 43 96 43 172v409h-84v49h225v-49h-84v-435c0 -166 -84 -250 -249 -250c-166 0 -250 84 -250 250v435h-83v49h225z" />
    <glyph glyph-name="V" unicode="V" horiz-adv-x="609" 
d="M278 -12l-206 683h-77v49h211v-49h-78l176 -603l178 603h-79v49h211v-49h-78l-205 -683h-53z" />
    <glyph glyph-name="W" unicode="W" horiz-adv-x="924" 
d="M462 600l-143 -612h-58l-204 683h-61v49h204v-49h-84l174 -606l141 606h-84v49h230v-49h-84l141 -606l174 606h-84v49h204v-49h-61l-205 -683h-57z" />
    <glyph glyph-name="X" unicode="X" horiz-adv-x="644" 
d="M139 49h84v-49h-227v49h84l212 309l-208 313h-78v49h231v-49h-88l176 -268l178 268h-97v49h232v-49h-78l-208 -307l212 -315h83v-49h-227v49h79l-179 269z" />
    <glyph glyph-name="Y" unicode="Y" horiz-adv-x="611" 
d="M276 49v269l-208 353h-72v49h225v-49h-95l178 -309l177 309h-91v49h225v-49h-71l-210 -359v-263h93v-49h-243v49h92z" />
    <glyph glyph-name="Z" unicode="Z" horiz-adv-x="648" 
d="M81 0v49l417 622h-363v-140h-54v189h481v-49l-417 -622h363v141h54v-190h-481z" />
    <glyph glyph-name="bracketleft" unicode="[" horiz-adv-x="362" 
d="M125 -86v806h193v-48h-138v-711h138v-47h-193z" />
    <glyph glyph-name="backslash" unicode="\" horiz-adv-x="282" 
d="M248 -93l-258 827h45l257 -827h-44z" />
    <glyph glyph-name="bracketright" unicode="]" horiz-adv-x="362" 
d="M237 -86h-193v47h138v711h-138v48h193v-806z" />
    <glyph glyph-name="asciicircum" unicode="^" horiz-adv-x="1000" 
d="M528 440l264 272h-61l-231 -229l-232 229h-61l263 -272h58z" />
    <glyph glyph-name="underscore" unicode="_" 
d="M500 -236v39h-500v-39h500z" />
    <glyph glyph-name="quoteleft" unicode="&#x2018;" horiz-adv-x="251" 
d="M124 522h-56l60 198h56z" />
    <glyph glyph-name="a" unicode="a" horiz-adv-x="598" 
d="M497 46h74v-46h-125v96c-48 -73 -109 -107 -191 -107c-62 0 -119 24 -161 68c-43 45 -67 106 -67 169c0 141 95 237 225 237c80 0 142 -31 194 -97v85h125v-46h-74v-359zM80 227c0 -108 83 -190 182 -190s183 84 183 190c0 109 -82 191 -187 191
c-103 0 -178 -77 -178 -191z" />
    <glyph glyph-name="b" unicode="b" horiz-adv-x="598" 
d="M22 0v46h74v628h-74v46h125v-354c52 66 114 97 194 97c130 0 225 -96 225 -237c0 -63 -24 -124 -67 -169c-42 -44 -99 -68 -161 -68c-82 0 -143 34 -191 107v-96h-125zM148 227c0 -106 85 -191 186 -191c100 0 179 83 179 191c0 115 -73 191 -182 191
c-99 0 -183 -82 -183 -191z" />
    <glyph glyph-name="c" unicode="c" horiz-adv-x="532" 
d="M468 89c-55 -66 -123 -101 -199 -101c-142 0 -236 96 -236 238c0 69 24 128 67 170c44 43 105 67 165 67c67 0 119 -23 156 -65l-1 53h46v-151h-46c-21 74 -78 118 -155 118c-103 0 -180 -77 -180 -192c0 -112 79 -192 184 -192c60 0 117 28 167 86z" />
    <glyph glyph-name="d" unicode="d" horiz-adv-x="597" 
d="M85 227c0 -108 84 -190 183 -190s182 84 182 190c0 109 -82 191 -187 191c-103 0 -178 -77 -178 -191zM576 0h-124v96c-48 -73 -109 -107 -191 -107c-62 0 -119 24 -161 68c-43 45 -67 106 -67 169c0 141 95 237 225 237c80 0 142 -31 194 -97v308h-74v46h125v-674h73
v-46z" />
    <glyph glyph-name="e" unicode="e" horiz-adv-x="558" 
d="M86 211c6 -106 88 -178 193 -178c76 0 137 36 171 98h57c-48 -94 -125 -143 -228 -143c-143 0 -247 103 -247 237s104 238 247 238c149 0 245 -96 246 -252h-439zM472 253c-16 104 -87 165 -193 165c-99 0 -177 -64 -193 -165h386z" />
    <glyph glyph-name="f" unicode="f" horiz-adv-x="275" 
d="M241 720h-220v-46h81v-359h-81v-46h81v-136c0 -94 33 -133 123 -133c13 0 27 1 43 3v44c-15 -2 -28 -3 -40 -3c-59 0 -75 25 -75 92v133h88v46h-88v359h88v46z" />
    <glyph glyph-name="g" unicode="g" horiz-adv-x="598" 
d="M85 227c0 -108 84 -190 183 -190s182 84 182 190c0 109 -82 191 -187 191c-103 0 -178 -77 -178 -191zM503 103c0 -89 -1 -157 -33 -211c-36 -61 -110 -100 -193 -100c-108 0 -178 37 -218 118h57c28 -48 81 -73 152 -73c131 0 185 70 185 222c0 12 0 24 -1 37
c-48 -73 -109 -107 -191 -107c-62 0 -119 24 -161 68c-43 45 -67 106 -67 169c0 141 95 237 225 237c80 0 142 -31 194 -97v85h124v-46h-73v-302z" />
    <glyph glyph-name="h" unicode="h" horiz-adv-x="569" 
d="M27 0v46h74v628h-74v46h125v-354c57 65 119 97 188 97c101 0 136 -51 136 -162v-255h74v-46h-198v46h73v255c0 79 -26 116 -94 116c-61 0 -122 -38 -179 -113v-258h75v-46h-200z" />
    <glyph glyph-name="i" unicode="i" horiz-adv-x="250" 
d="M16 0v46h85v359h-80v46h131v-405h76v-46h-212zM98 543v117h52v-117h-52z" />
    <glyph glyph-name="j" unicode="j" horiz-adv-x="229" 
d="M152 13c0 -130 -30 -194 -149 -221v45c86 27 98 77 98 178v390h-80v46h131v-438zM98 543v117h52v-117h-52z" />
    <glyph glyph-name="k" unicode="k" horiz-adv-x="516" 
d="M16 0v46h85v628h-80v46h131v-458l177 143h-75v46h218v-46h-73l-195 -155l222 -204h74v-46h-207v46h64l-205 187v-187h73v-46h-209z" />
    <glyph glyph-name="l" unicode="l" horiz-adv-x="250" 
d="M16 0v46h85v628h-80v46h131v-674h76v-46h-212z" />
    <glyph glyph-name="m" unicode="m" horiz-adv-x="860" 
d="M27 417h74v-359h-74v-46h125v85c57 -65 106 -97 174 -97c64 0 108 28 127 80c53 -54 110 -80 175 -80c101 0 136 51 136 162v255h74v46h-198v-46h73v-255c0 -79 -26 -116 -94 -116c-54 0 -111 28 -158 85v286h74v46h-198v-46h73v-255c0 -79 -26 -117 -88 -117
c-58 0 -113 39 -170 114v258h75v46h-200v-46z" />
    <glyph glyph-name="n" unicode="n" horiz-adv-x="572" 
d="M27 0v46h74v359h-74v46h125v-85c57 65 119 97 188 97c101 0 136 -51 136 -162v-255h74v-46h-198v46h73v255c0 79 -26 116 -94 116c-61 0 -122 -38 -179 -113v-258h75v-46h-200z" />
    <glyph glyph-name="o" unicode="o" horiz-adv-x="558" 
d="M279 -12c-143 0 -247 103 -247 237s104 238 247 238s246 -104 246 -238s-103 -237 -246 -237zM279 33c110 0 195 81 195 193s-84 192 -195 192s-194 -80 -194 -192s84 -193 194 -193z" />
    <glyph glyph-name="p" unicode="p" horiz-adv-x="603" 
d="M151 159v258h78v46h-202v-46h73v-567h-73v-46h124v85c52 -66 115 -97 195 -97c130 0 225 96 225 237c0 63 -24 124 -67 169c-42 44 -100 68 -162 68c-82 0 -143 -34 -191 -107zM153 28c0 107 84 191 187 191c100 0 178 -84 178 -191c0 -115 -74 -191 -183 -191
c-99 0 -182 82 -182 191z" />
    <glyph glyph-name="q" unicode="q" horiz-adv-x="603" 
d="M452 96c-48 -73 -109 -107 -191 -107c-62 0 -120 24 -162 68c-43 45 -67 106 -67 169c0 141 95 237 225 237c80 0 143 -31 195 -97v85h124v-46h-73v-567h73v-46h-202v46h78v258zM450 227c0 109 -83 191 -182 191c-109 0 -183 -76 -183 -191c0 -108 84 -190 183 -190
s182 84 182 190z" />
    <glyph glyph-name="r" unicode="r" horiz-adv-x="377" 
d="M27 0v46h74v359h-74v46h125v-61c32 49 70 74 113 74c61 0 92 -33 95 -97h-42c-3 34 -22 52 -55 52c-76 0 -111 -72 -111 -217v-156h75v-46h-200z" />
    <glyph glyph-name="s" unicode="s" horiz-adv-x="481" 
d="M110 0h-47v160h47c18 -77 78 -122 160 -122c65 0 112 37 112 85c0 50 -35 72 -108 87l-59 12c-102 21 -153 47 -153 119c0 71 61 123 160 123c66 0 114 -22 140 -63l-1 50h46v-131h-46c-13 64 -65 102 -141 102c-67 0 -107 -32 -107 -76c0 -48 35 -63 109 -77l63 -12
c99 -19 148 -63 148 -131c0 -77 -63 -132 -163 -132c-64 0 -118 22 -161 66z" />
    <glyph glyph-name="t" unicode="t" horiz-adv-x="278" 
d="M141 127v-7c0 -62 1 -80 55 -80c18 0 32 1 44 3v-44c-21 -2 -38 -3 -50 -3c-96 0 -99 24 -99 114v17v278h-77v46h77v178h50v-178h87v-46h-87v-278z" />
    <glyph glyph-name="u" unicode="u" horiz-adv-x="567" 
d="M468 451v-405h74v-46h-125v86c-57 -65 -119 -98 -188 -98c-101 0 -136 51 -136 162v255h-74v46h125v-301c0 -79 26 -116 94 -116c61 0 122 38 179 113v258h-75v46h126z" />
    <glyph glyph-name="v" unicode="v" horiz-adv-x="461" 
d="M363 405h-79v46h199v-46h-68l-162 -417h-39l-170 417h-68v46h199v-46h-79l136 -350z" />
    <glyph glyph-name="w" unicode="w" horiz-adv-x="736" 
d="M247 -12h-38l-146 417h-66v46h194v-46h-80l117 -338l101 338h-69v46h220v-46h-75l99 -338l119 338h-75v46h195v-46h-73l-148 -417h-38l-118 389z" />
    <glyph glyph-name="x" unicode="x" horiz-adv-x="494" 
d="M200 0h-193v46h70l145 185l-136 174h-66v46h189v-46h-64l106 -137l107 137h-66v46h197v-46h-74l-136 -173l136 -186h74v-46h-197v46h64l-106 148l-117 -148h67v-46z" />
    <glyph glyph-name="y" unicode="y" horiz-adv-x="479" 
d="M376 405h-71v46h181v-46h-58l-255 -567h76v-46h-202v46h74l90 202l-166 365h-56v46h176v-46h-66l137 -314z" />
    <glyph glyph-name="z" unicode="z" horiz-adv-x="475" 
d="M44 0v46l304 359h-249v-77h-47v123h364v-35l-313 -370h271v84h46v-130h-376z" />
    <glyph glyph-name="braceleft" unicode="{" 
d="M414 678h-18c-95 0 -112 -32 -112 -129v-118c0 -99 -15 -149 -95 -172c81 -24 95 -73 95 -172v-118c0 -97 17 -128 111 -128h19v-43h-21c-133 0 -159 47 -159 183v117c0 101 -32 140 -126 140c-7 0 -14 -1 -22 -1v44c9 -1 17 -1 24 -1c92 0 124 39 124 140v117
c0 136 26 184 159 184h21v-43z" />
    <glyph glyph-name="bar" unicode="|" 
d="M272 764v-1000h-44v1000h44z" />
    <glyph glyph-name="braceright" unicode="}" 
d="M266 537v-117c0 -101 32 -140 126 -140c7 0 14 1 22 1v-44c-8 0 -15 1 -22 1c-94 0 -126 -39 -126 -140v-117c0 -136 -26 -183 -159 -183h-21v43h19c94 0 111 31 111 128v118c0 99 15 148 96 172c-81 23 -96 73 -96 172v118c0 97 -17 129 -112 129h-18v43h21
c133 0 159 -48 159 -184z" />
    <glyph glyph-name="asciitilde" unicode="~" horiz-adv-x="833" 
d="M747 316c-67 -47 -129 -72 -189 -72c-53 0 -97 18 -141 34c-48 17 -92 35 -141 35c-59 0 -118 -28 -189 -78v45c67 47 129 72 189 72c52 0 96 -18 141 -34c47 -17 91 -35 141 -35c59 0 118 28 189 78v-45z" />
    <glyph glyph-name="exclamdown" unicode="&#xa1;" horiz-adv-x="256" 
d="M128 729c30 0 53 -22 53 -52s-23 -53 -53 -53c-31 0 -53 23 -53 53s23 52 53 52zM150 560l10 -560h-64l9 560h45z" />
    <glyph glyph-name="cent" unicode="&#xa2;" horiz-adv-x="512" 
d="M491 98c-62 -69 -130 -103 -210 -103c-17 0 -37 2 -58 7l-44 -130h-41l47 143c-89 41 -139 121 -139 218c0 132 105 234 240 234c15 0 32 -1 49 -3l40 119h42l-44 -131c31 -14 53 -31 70 -53l-3 57h43v-150h-41c-21 55 -47 88 -83 102l-120 -359c17 -5 32 -7 47 -7
c60 0 117 29 167 87zM201 62l120 357c-14 2 -27 4 -38 4c-101 0 -183 -82 -183 -185c0 -81 36 -144 101 -176z" />
    <glyph glyph-name="sterling" unicode="&#xa3;" horiz-adv-x="512" 
d="M77 -11l-21 52c79 27 107 76 107 168c0 37 -5 72 -16 107h-104v42h92c-25 73 -37 131 -37 175c0 111 72 182 182 182c106 0 172 -64 172 -154c0 -15 -2 -32 -6 -49h-52c2 15 4 29 4 42c0 70 -44 112 -119 112c-76 0 -125 -52 -125 -135c0 -42 15 -98 36 -173h111v-42
h-102c9 -41 13 -78 13 -109c0 -45 -10 -86 -31 -127c55 -30 109 -44 154 -44c66 0 99 34 99 100c0 13 -2 28 -7 44h50c6 -18 9 -37 9 -56c0 -89 -53 -139 -145 -139c-49 0 -110 18 -184 53c-28 -27 -54 -44 -80 -49z" />
    <glyph glyph-name="fraction" unicode="&#x2044;" horiz-adv-x="167" 
d="M-167 -14l454 729h46l-454 -729h-46z" />
    <glyph glyph-name="yen" unicode="&#xa5;" horiz-adv-x="512" 
d="M134 46h92v269h-222v40h201l-58 112h-143v40h121l-79 148h-49v46h175v-46h-71l155 -298l150 298h-66v46h174v-46h-54l-77 -148h124v-41h-145l-58 -111h203v-41h-225v-268h93v-46h-241v46z" />
    <glyph glyph-name="florin" unicode="&#x192;" horiz-adv-x="512" 
d="M22 -133c16 -5 29 -8 41 -8c58 0 87 30 104 102c12 48 23 128 39 242l26 181h-118v46h125l15 88c23 132 76 197 165 197c17 0 35 -3 57 -8l-8 -48c-17 5 -33 8 -48 8c-65 0 -97 -49 -113 -154l-13 -83h111v-46h-118l-19 -143c-18 -136 -32 -238 -54 -305
c-28 -85 -78 -128 -147 -128c-19 0 -37 2 -55 8z" />
    <glyph glyph-name="section" unicode="&#xa7;" 
d="M127 45h48v-114h60c63 0 94 19 94 57c0 26 -20 57 -59 99l-156 168c-46 50 -76 87 -76 136c0 65 54 120 122 120c8 0 18 -1 28 -3c-46 48 -71 84 -71 123c0 62 45 89 137 89h106v-136h-47v92h-57c-56 0 -84 -6 -84 -46c0 -25 16 -52 47 -86l164 -177
c48 -52 79 -89 79 -139c0 -67 -53 -121 -131 -121h-12c44 -38 66 -79 66 -123c0 -63 -46 -97 -139 -97h-119v158zM367 311l-91 98c-36 39 -68 60 -106 60c-48 0 -81 -33 -81 -75c0 -24 15 -54 45 -87l91 -98c36 -39 68 -59 106 -59c48 0 81 33 81 75c0 24 -15 53 -45 86z
" />
    <glyph glyph-name="currency" unicode="&#xa4;" horiz-adv-x="606" 
d="M175 588c39 31 81 46 128 46s90 -15 129 -46l100 101l29 -29l-101 -100c30 -38 45 -82 45 -128c0 -47 -15 -90 -45 -128l101 -100l-29 -29l-100 101c-38 -30 -82 -45 -129 -45c-48 0 -90 15 -128 45l-101 -101l-28 29l101 100c-30 38 -45 82 -45 128s15 90 45 128
l-101 100l28 29zM466 433c0 89 -72 161 -162 161s-162 -73 -162 -161c0 -89 72 -162 162 -162s162 73 162 162z" />
    <glyph glyph-name="quotesingle" unicode="'" horiz-adv-x="139" 
d="M91 700v-270h-42v270h42z" />
    <glyph glyph-name="quotedblleft" unicode="&#x201c;" horiz-adv-x="443" 
d="M316 522h-56l60 198h57zM124 522h-56l60 198h56z" />
    <glyph glyph-name="guillemotleft" unicode="&#xab;" horiz-adv-x="461" 
d="M190 73l-126 152l126 153h66l-126 -153l126 -152h-66zM340 73l-126 152l126 153h66l-126 -153l126 -152h-66z" />
    <glyph glyph-name="guilsinglleft" unicode="&#x2039;" horiz-adv-x="310" 
d="M190 73l-126 152l126 153h66l-126 -153l126 -152h-66z" />
    <glyph glyph-name="guilsinglright" unicode="&#x203a;" horiz-adv-x="310" 
d="M120 73h-65l125 152l-125 153h65l126 -153z" />
    <glyph glyph-name="fi" unicode="&#xfb01;" horiz-adv-x="525" 
d="M291 0v46h85v359h-80v46h131v-405h76v-46h-212zM373 543v117h52v-117h-52zM241 0h-220v46h81v359h-81v46h81v136c0 94 33 133 123 133c13 0 27 -1 43 -3v-44c-15 2 -28 3 -40 3c-59 0 -75 -25 -75 -92v-133h88v-46h-88v-359h88v-46z" />
    <glyph glyph-name="fl" unicode="&#xfb02;" horiz-adv-x="525" 
d="M291 0v46h85v628h-80v46h131v-674h76v-46h-212zM241 0h-220v46h81v359h-81v46h81v136c0 94 33 133 123 133c13 0 27 -1 43 -3v-44c-15 2 -28 3 -40 3c-59 0 -75 -25 -75 -92v-133h88v-46h-88v-359h88v-46z" />
    <glyph glyph-name="endash" unicode="&#x2013;" 
d="M0 213v35h500v-35h-500z" />
    <glyph glyph-name="dagger" unicode="&#x2020;" 
d="M224 -117v522h-142v-42h-45v132h45v-42h142v222h-42v45h136v-45h-42v-222h141v42h46v-132h-46v42h-141v-522h-52z" />
    <glyph glyph-name="daggerdbl" unicode="&#x2021;" 
d="M276 147h141v42h46v-132h-46v42h-141v-171h42v-45h-136v45h42v171h-142v-42h-45v132h45v-42h142v308h-142v-42h-45v132h45v-41h142v171h-42v45h136v-45h-42v-171h141v41h46v-132h-46v42h-141v-308z" />
    <glyph glyph-name="periodcentered" unicode="&#xb7;" horiz-adv-x="256" 
d="M128 310c-30 0 -53 22 -53 52s23 53 53 53c31 0 53 -23 53 -53s-23 -52 -53 -52z" />
    <glyph glyph-name="paragraph" unicode="&#xb6;" 
d="M455 691h-63v-691h-34v691h-94v-691h-34v382c-116 5 -186 73 -186 170c0 100 75 170 193 170h218v-31z" />
    <glyph glyph-name="bullet" unicode="&#x2022;" horiz-adv-x="590" 
d="M150 372c0 80 65 144 145 144c79 0 144 -64 144 -144c0 -79 -65 -145 -145 -145s-144 65 -144 145z" />
    <glyph glyph-name="quotesinglbase" unicode="&#x201a;" horiz-adv-x="251" 
d="M124 -92h-56l60 198h56z" />
    <glyph glyph-name="quotedblbase" unicode="&#x201e;" horiz-adv-x="443" 
d="M124 -92h-56l60 198h56zM316 -92h-56l60 198h57z" />
    <glyph glyph-name="quotedblright" unicode="&#x201d;" horiz-adv-x="443" 
d="M316 522h-56l60 198h57zM124 522h-56l60 198h56z" />
    <glyph glyph-name="guillemotright" unicode="&#xbb;" horiz-adv-x="461" 
d="M271 73h-66l126 152l-126 153h66l126 -153zM120 73h-65l125 152l-125 153h65l126 -153z" />
    <glyph glyph-name="ellipsis" unicode="&#x2026;" horiz-adv-x="1000" 
d="M167 -12c-30 0 -53 22 -53 52s23 53 53 53c31 0 53 -23 53 -53s-23 -52 -53 -52zM500 -12c-30 0 -53 22 -53 52s23 53 53 53c31 0 53 -23 53 -53s-23 -52 -53 -52zM834 -12c-30 0 -53 22 -53 52s23 53 53 53c31 0 53 -23 53 -53s-23 -52 -53 -52z" />
    <glyph glyph-name="perthousand" unicode="&#x2030;" horiz-adv-x="1220" 
d="M781 162c0 -92 -72 -162 -162 -162c-91 0 -162 70 -162 162s71 162 162 162c90 0 162 -70 162 -162zM619 48c63 0 113 49 113 114c0 66 -49 114 -113 114c-63 0 -113 -49 -113 -114s50 -114 113 -114zM359 539c0 -92 -72 -162 -162 -162c-91 0 -162 70 -162 162
s71 162 162 162c90 0 162 -70 162 -162zM197 425c63 0 113 49 113 114c0 66 -49 114 -113 114c-63 0 -113 -49 -113 -114s50 -114 113 -114zM618 715h49l-468 -729h-48zM1185 162c0 -92 -72 -162 -162 -162c-91 0 -162 70 -162 162s71 162 162 162c90 0 162 -70 162 -162z
M1023 48c63 0 113 49 113 114c0 66 -49 114 -113 114c-63 0 -113 -49 -113 -114s50 -114 113 -114z" />
    <glyph glyph-name="questiondown" unicode="&#xbf;" horiz-adv-x="509" 
d="M307 565v-230c-6 0 -12 1 -17 1c-104 0 -164 -61 -164 -161c0 -80 59 -140 138 -140c76 0 128 54 131 141h53c-3 -114 -81 -188 -186 -188c-114 0 -190 76 -190 198c0 107 70 186 181 196v183h54zM280 734c30 0 52 -23 52 -53s-22 -52 -52 -52c-31 0 -53 22 -53 52
s23 53 53 53z" />
    <glyph glyph-name="grave" unicode="`" 
d="M266 517l-131 170h74l102 -170h-45z" />
    <glyph glyph-name="acute" unicode="&#xb4;" 
d="M234 517h-45l102 170h74z" />
    <glyph glyph-name="circumflex" unicode="&#x2c6;" 
d="M115 517l98 170h74l98 -170h-45l-90 128l-90 -128h-45z" />
    <glyph glyph-name="tilde" unicode="&#x2dc;" 
d="M391 646c-17 -59 -49 -89 -93 -89c-10 0 -21 2 -32 5l-47 15c-9 3 -17 4 -26 4c-19 0 -35 -13 -45 -36h-39c14 58 48 89 95 89c9 0 18 0 26 -3l47 -16c11 -4 21 -5 27 -5c22 0 36 12 47 36h40z" />
    <glyph glyph-name="macron" unicode="&#xaf;" 
d="M125 566v57h250v-57h-250z" />
    <glyph glyph-name="breve" unicode="&#x2d8;" 
d="M116 666h39c4 -50 34 -71 95 -71s90 21 94 71h40c-6 -89 -47 -128 -134 -128c-86 0 -128 40 -134 128z" />
    <glyph glyph-name="dotaccent" unicode="&#x2d9;" 
d="M213 552v85h74v-85h-74z" />
    <glyph glyph-name="dieresis" unicode="&#xa8;" 
d="M137 555v79h69v-79h-69zM294 555v79h69v-79h-69z" />
    <glyph glyph-name="ring" unicode="&#x2da;" 
d="M133 625c0 66 51 118 117 118s118 -52 118 -118s-52 -117 -118 -117s-117 51 -117 117zM177 625c0 -41 32 -73 73 -73c40 0 73 32 73 73s-32 74 -73 74s-73 -33 -73 -74z" />
    <glyph glyph-name="cedilla" unicode="&#xb8;" 
d="M148 -204v37c48 -11 87 -17 116 -17c42 0 64 15 64 44c0 36 -23 51 -71 51c-7 0 -15 0 -23 -1v90h32v-54h7c71 0 109 -30 109 -84c0 -55 -38 -86 -110 -86c-40 0 -81 8 -124 20z" />
    <glyph glyph-name="hungarumlaut" unicode="&#x2dd;" 
d="M164 517l73 170h65l-102 -170h-36zM279 517l82 170h65l-111 -170h-36z" />
    <glyph glyph-name="ogonek" unicode="&#x2db;" 
d="M299 0c-47 -41 -71 -80 -71 -115c0 -31 16 -42 54 -42h37v-51h-36c-69 0 -103 25 -103 79c0 39 30 83 90 129h29z" />
    <glyph glyph-name="caron" unicode="&#x2c7;" 
d="M115 687h45l90 -128l90 128h45l-98 -170h-74z" />
    <glyph glyph-name="emdash" unicode="&#x2014;" horiz-adv-x="1000" 
d="M0 248h1000v-35h-1000v35z" />
    <glyph glyph-name="AE" unicode="&#xc6;" horiz-adv-x="958" 
d="M228 273h263v398h-30zM549 671v-265h241v-49h-241v-308h317v125h58v-174h-515v49h82v176h-292l-102 -176h88v-49h-211v49h63l365 622h-102v49h624v-177h-58v128h-317z" />
    <glyph glyph-name="ordfeminine" unicode="&#xaa;" horiz-adv-x="449" 
d="M373 436h55v-32h-93v67c-36 -51 -82 -75 -144 -75c-46 0 -89 17 -120 48c-33 31 -51 74 -51 118c0 99 72 166 169 166c60 0 107 -22 146 -68v60h93v-33h-55v-251zM60 563c0 -76 62 -133 137 -133c74 0 137 59 137 133c0 76 -62 134 -140 134s-134 -54 -134 -134z" />
    <glyph glyph-name="Lslash" unicode="&#x141;" horiz-adv-x="531" 
d="M31 0v49h84v259l-104 -72v53l104 73v309h-84v49h225v-49h-84v-281l200 139v-53l-200 -140v-287h294v104h58v-153h-493z" />
    <glyph glyph-name="Oslash" unicode="&#xd8;" horiz-adv-x="808" 
d="M215 101c56 -43 121 -65 189 -65c80 0 158 31 211 83c64 62 97 143 97 241c0 96 -31 176 -94 240zM615 671l72 92h58l-96 -121c80 -76 122 -170 122 -282c0 -111 -43 -209 -123 -282c-66 -60 -148 -92 -244 -92c-83 0 -154 23 -223 73l-83 -104h-58l107 134
c-69 64 -110 164 -110 271c0 112 42 209 123 283c66 60 149 91 244 91c78 0 148 -21 211 -63zM582 630c-53 37 -110 55 -178 55c-79 0 -157 -31 -211 -83c-65 -63 -97 -143 -97 -242c0 -95 31 -177 85 -229z" />
    <glyph glyph-name="OE" unicode="&#x152;" horiz-adv-x="1050" 
d="M961 0h-526c-255 0 -398 136 -398 359c0 225 143 361 398 361h526v-177h-58v128h-316v-265h241v-49h-241v-308h316v125h58v-174zM529 116v491c0 55 -23 65 -93 65c-221 0 -340 -110 -340 -313c0 -196 120 -309 340 -309c70 0 93 11 93 66z" />
    <glyph glyph-name="ordmasculine" unicode="&#xba;" horiz-adv-x="419" 
d="M209 396c-107 0 -185 72 -185 165c0 94 78 167 185 167c108 0 185 -73 185 -167c0 -93 -77 -165 -185 -165zM209 427c83 0 147 57 147 135c0 79 -63 135 -147 135c-83 0 -145 -56 -145 -135c0 -78 63 -135 145 -135z" />
    <glyph glyph-name="ae" unicode="&#xe6;" horiz-adv-x="881" 
d="M420 356c53 73 120 107 206 107c126 0 222 -99 223 -252h-416c6 -106 88 -178 193 -178c58 0 112 35 148 98h57c-48 -93 -123 -143 -212 -143c-78 0 -147 35 -200 103c-42 -72 -104 -103 -197 -103c-123 0 -200 69 -200 160c0 99 80 169 197 169c68 0 123 -19 166 -59
c1 7 1 14 1 20c0 92 -59 143 -164 143c-37 0 -79 -6 -127 -18l-8 42c45 14 88 21 130 21c107 0 176 -39 203 -110zM385 153c0 72 -57 121 -152 121c-105 0 -162 -46 -162 -121c0 -74 57 -121 155 -121c100 0 159 48 159 121zM434 253h362c-17 103 -85 165 -170 165
c-101 0 -176 -62 -192 -165z" />
    <glyph glyph-name="dotlessi" unicode="&#x131;" horiz-adv-x="250" 
d="M16 0v46h85v359h-80v46h131v-405h76v-46h-212z" />
    <glyph glyph-name="lslash" unicode="&#x142;" horiz-adv-x="259" 
d="M20 0v46h86v286l-97 -68v51l97 69v290h-81v46h131v-311l97 68v-52l-97 -68v-311h77v-46h-213z" />
    <glyph glyph-name="oslash" unicode="&#xf8;" horiz-adv-x="558" 
d="M409 430l50 62h54l-69 -88c53 -46 81 -108 81 -179c0 -134 -103 -237 -246 -237c-51 0 -99 13 -138 37l-57 -71h-54l77 97c-49 50 -75 108 -75 174c0 134 104 238 247 238c48 0 91 -11 130 -33zM173 62c35 -19 70 -29 106 -29c110 0 195 81 195 193c0 56 -20 103 -58 141
zM381 391c-28 19 -59 27 -96 27c-118 0 -200 -79 -200 -192c0 -54 18 -100 53 -137z" />
    <glyph glyph-name="oe" unicode="&#x153;" horiz-adv-x="972" 
d="M279 33c110 0 195 81 195 193s-84 192 -195 192s-194 -80 -194 -192s84 -193 194 -193zM525 253h361c-17 103 -85 165 -170 165c-101 0 -175 -62 -191 -165zM500 337c50 84 121 126 216 126c126 0 222 -99 223 -252h-416c6 -106 88 -178 193 -178c58 0 113 35 149 98h56
c-49 -94 -123 -143 -215 -143c-85 0 -158 41 -211 120c-50 -79 -123 -120 -216 -120c-143 0 -247 103 -247 237s104 238 247 238c96 0 169 -42 221 -126z" />
    <glyph glyph-name="germandbls" unicode="&#xdf;" horiz-adv-x="542" 
d="M27 0v46h70v458c0 149 64 224 192 224c107 0 179 -73 179 -172c0 -80 -40 -136 -107 -155c93 -20 147 -97 147 -212c0 -120 -71 -199 -160 -199c-30 0 -59 10 -87 30l25 40c20 -15 41 -22 63 -22c64 0 107 56 107 155c0 113 -66 181 -178 181c-6 0 -13 -1 -20 -1v43
c102 3 158 54 158 139c0 78 -52 132 -128 132c-97 0 -141 -59 -141 -182v-459h69v-46h-189z" />
    <glyph glyph-name="Aacute" unicode="&#xc1;" horiz-adv-x="662" 
d="M194 273h274l-137 382zM-18 0v49h70l228 622h-73v49h248v-49h-73l228 -622h70v-49h-211v49h82l-64 176h-312l-64 -176h82v-49h-211zM315 788h-45l102 170h74z" />
    <glyph glyph-name="Acircumflex" unicode="&#xc2;" horiz-adv-x="662" 
d="M194 273h274l-137 382zM-18 0v49h70l228 622h-73v49h248v-49h-73l228 -622h70v-49h-211v49h82l-64 176h-312l-64 -176h82v-49h-211zM196 788l98 170h74l98 -170h-45l-90 128l-90 -128h-45z" />
    <glyph glyph-name="Adieresis" unicode="&#xc4;" horiz-adv-x="662" 
d="M194 273h274l-137 382zM-18 0v49h70l228 622h-73v49h248v-49h-73l228 -622h70v-49h-211v49h82l-64 176h-312l-64 -176h82v-49h-211zM218 826v79h69v-79h-69zM375 826v79h69v-79h-69z" />
    <glyph glyph-name="Agrave" unicode="&#xc0;" horiz-adv-x="662" 
d="M194 273h274l-137 382zM-18 0v49h70l228 622h-73v49h248v-49h-73l228 -622h70v-49h-211v49h82l-64 176h-312l-64 -176h82v-49h-211zM347 788l-131 170h74l102 -170h-45z" />
    <glyph glyph-name="Aring" unicode="&#xc5;" horiz-adv-x="662" 
d="M224 855c0 60 47 108 107 108s109 -48 109 -108s-49 -107 -109 -107s-107 47 -107 107zM266 855c0 -36 30 -65 66 -65s65 29 65 65s-29 66 -65 66s-66 -30 -66 -66zM194 273h274l-137 382zM-18 0v49h70l228 622h-73v49h248v-49h-73l228 -622h70v-49h-211v49h82l-64 176
h-312l-64 -176h82v-49h-211z" />
    <glyph glyph-name="Atilde" unicode="&#xc3;" horiz-adv-x="662" 
d="M194 273h274l-137 382zM-18 0v49h70l228 622h-73v49h248v-49h-73l228 -622h70v-49h-211v49h82l-64 176h-312l-64 -176h82v-49h-211zM472 917c-17 -59 -49 -89 -93 -89c-10 0 -21 2 -32 5l-47 15c-9 3 -17 4 -26 4c-19 0 -35 -13 -45 -36h-39c14 58 48 89 95 89
c9 0 18 0 26 -3l47 -16c11 -4 21 -5 27 -5c22 0 36 12 47 36h40z" />
    <glyph glyph-name="Ccedilla" unicode="&#xc7;" horiz-adv-x="743" 
d="M718 227c-40 -155 -152 -241 -314 -241c-95 0 -178 32 -244 92c-81 74 -123 170 -123 282s42 209 123 283c66 60 149 91 244 91c113 0 203 -46 256 -129v115h50v-224h-45c-33 119 -130 189 -261 189c-79 0 -157 -31 -211 -83c-65 -63 -97 -143 -97 -242
c0 -193 132 -325 319 -325c129 0 223 73 252 192h51zM314 -204v37c48 -11 87 -17 116 -17c42 0 64 15 64 44c0 36 -23 51 -71 51c-7 0 -15 0 -23 -1v90h32v-54h7c71 0 109 -30 109 -84c0 -55 -38 -86 -110 -86c-40 0 -81 8 -124 20z" />
    <glyph glyph-name="Eacute" unicode="&#xc9;" horiz-adv-x="590" 
d="M29 0v49h83v622h-83v49h527v-177h-58v128h-328v-265h252v-49h-252v-308h328v125h58v-174h-527zM303 788h-45l102 170h74z" />
    <glyph glyph-name="Ecircumflex" unicode="&#xca;" horiz-adv-x="590" 
d="M29 0v49h83v622h-83v49h527v-177h-58v128h-328v-265h252v-49h-252v-308h328v125h58v-174h-527zM184 788l98 170h74l98 -170h-45l-90 128l-90 -128h-45z" />
    <glyph glyph-name="Edieresis" unicode="&#xcb;" horiz-adv-x="590" 
d="M29 0v49h83v622h-83v49h527v-177h-58v128h-328v-265h252v-49h-252v-308h328v125h58v-174h-527zM206 826v79h69v-79h-69zM363 826v79h69v-79h-69z" />
    <glyph glyph-name="Egrave" unicode="&#xc8;" horiz-adv-x="590" 
d="M29 0v49h83v622h-83v49h527v-177h-58v128h-328v-265h252v-49h-252v-308h328v125h58v-174h-527zM335 788l-131 170h74l102 -170h-45z" />
    <glyph glyph-name="Iacute" unicode="&#xcd;" horiz-adv-x="282" 
d="M20 0v49h92v622h-92v49h243v-49h-93v-622h93v-49h-243zM125 788h-45l102 170h74z" />
    <glyph glyph-name="Icircumflex" unicode="&#xce;" horiz-adv-x="282" 
d="M20 0v49h92v622h-92v49h243v-49h-93v-622h93v-49h-243zM6 788l98 170h74l98 -170h-45l-90 128l-90 -128h-45z" />
    <glyph glyph-name="Idieresis" unicode="&#xcf;" horiz-adv-x="282" 
d="M20 0v49h92v622h-92v49h243v-49h-93v-622h93v-49h-243zM28 826v79h69v-79h-69zM185 826v79h69v-79h-69z" />
    <glyph glyph-name="Igrave" unicode="&#xcc;" horiz-adv-x="282" 
d="M20 0v49h92v622h-92v49h243v-49h-93v-622h93v-49h-243zM157 788l-131 170h74l102 -170h-45z" />
    <glyph glyph-name="Ntilde" unicode="&#xd1;" horiz-adv-x="718" 
d="M29 0v49h83v622h-83v49h171l347 -625v576h-76v49h217v-49h-83v-685h-58l-377 671v-608h77v-49h-218zM500 917c-17 -59 -49 -89 -93 -89c-10 0 -21 2 -32 5l-47 15c-9 3 -17 4 -26 4c-19 0 -35 -13 -45 -36h-39c14 58 48 89 95 89c9 0 18 0 26 -3l47 -16
c11 -4 21 -5 27 -5c22 0 36 12 47 36h40z" />
    <glyph glyph-name="Oacute" unicode="&#xd3;" horiz-adv-x="808" 
d="M37 360c0 112 42 209 123 283c66 60 149 91 244 91c96 0 178 -31 244 -91c80 -74 123 -171 123 -283c0 -111 -43 -209 -123 -282c-66 -60 -148 -92 -244 -92c-95 0 -178 32 -244 92c-81 74 -123 171 -123 282zM96 360c0 -98 32 -178 97 -241c53 -52 132 -83 211 -83
c80 0 158 31 211 83c64 62 97 143 97 241s-33 180 -97 242c-54 52 -131 83 -211 83s-157 -31 -211 -83c-65 -63 -97 -143 -97 -242zM388 788h-45l102 170h74z" />
    <glyph glyph-name="Ocircumflex" unicode="&#xd4;" horiz-adv-x="808" 
d="M37 360c0 112 42 209 123 283c66 60 149 91 244 91c96 0 178 -31 244 -91c80 -74 123 -171 123 -283c0 -111 -43 -209 -123 -282c-66 -60 -148 -92 -244 -92c-95 0 -178 32 -244 92c-81 74 -123 171 -123 282zM96 360c0 -98 32 -178 97 -241c53 -52 132 -83 211 -83
c80 0 158 31 211 83c64 62 97 143 97 241s-33 180 -97 242c-54 52 -131 83 -211 83s-157 -31 -211 -83c-65 -63 -97 -143 -97 -242zM269 788l98 170h74l98 -170h-45l-90 128l-90 -128h-45z" />
    <glyph glyph-name="Odieresis" unicode="&#xd6;" horiz-adv-x="808" 
d="M37 360c0 112 42 209 123 283c66 60 149 91 244 91c96 0 178 -31 244 -91c80 -74 123 -171 123 -283c0 -111 -43 -209 -123 -282c-66 -60 -148 -92 -244 -92c-95 0 -178 32 -244 92c-81 74 -123 171 -123 282zM96 360c0 -98 32 -178 97 -241c53 -52 132 -83 211 -83
c80 0 158 31 211 83c64 62 97 143 97 241s-33 180 -97 242c-54 52 -131 83 -211 83s-157 -31 -211 -83c-65 -63 -97 -143 -97 -242zM291 826v79h69v-79h-69zM448 826v79h69v-79h-69z" />
    <glyph glyph-name="Ograve" unicode="&#xd2;" horiz-adv-x="808" 
d="M37 360c0 112 42 209 123 283c66 60 149 91 244 91c96 0 178 -31 244 -91c80 -74 123 -171 123 -283c0 -111 -43 -209 -123 -282c-66 -60 -148 -92 -244 -92c-95 0 -178 32 -244 92c-81 74 -123 171 -123 282zM96 360c0 -98 32 -178 97 -241c53 -52 132 -83 211 -83
c80 0 158 31 211 83c64 62 97 143 97 241s-33 180 -97 242c-54 52 -131 83 -211 83s-157 -31 -211 -83c-65 -63 -97 -143 -97 -242zM420 788l-131 170h74l102 -170h-45z" />
    <glyph glyph-name="Otilde" unicode="&#xd5;" horiz-adv-x="808" 
d="M37 360c0 112 42 209 123 283c66 60 149 91 244 91c96 0 178 -31 244 -91c80 -74 123 -171 123 -283c0 -111 -43 -209 -123 -282c-66 -60 -148 -92 -244 -92c-95 0 -178 32 -244 92c-81 74 -123 171 -123 282zM96 360c0 -98 32 -178 97 -241c53 -52 132 -83 211 -83
c80 0 158 31 211 83c64 62 97 143 97 241s-33 180 -97 242c-54 52 -131 83 -211 83s-157 -31 -211 -83c-65 -63 -97 -143 -97 -242zM545 917c-17 -59 -49 -89 -93 -89c-10 0 -21 2 -32 5l-47 15c-9 3 -17 4 -26 4c-19 0 -35 -13 -45 -36h-39c14 58 48 89 95 89
c9 0 18 0 26 -3l47 -16c11 -4 21 -5 27 -5c22 0 36 12 47 36h40z" />
    <glyph glyph-name="Scaron" unicode="&#x160;" horiz-adv-x="662" 
d="M94 -2v240h48c18 -128 109 -205 234 -205c102 0 171 59 171 144c0 72 -45 112 -144 138l-94 25c-141 38 -214 108 -214 204c0 107 91 188 218 188c87 0 161 -40 201 -106l-3 92h48v-192h-45c-26 100 -102 157 -206 157c-91 0 -159 -56 -159 -130c0 -77 56 -127 170 -156
l111 -29c114 -29 171 -92 171 -186c0 -114 -90 -198 -234 -198c-92 0 -174 45 -228 127l3 -113h-48zM196 958h45l90 -128l90 128h45l-98 -170h-74z" />
    <glyph glyph-name="Uacute" unicode="&#xda;" horiz-adv-x="704" 
d="M244 720v-49h-84v-409c0 -76 4 -131 43 -172c34 -36 82 -53 148 -53s116 17 150 53c39 41 43 96 43 172v409h-84v49h225v-49h-84v-435c0 -166 -84 -250 -249 -250c-166 0 -250 84 -250 250v435h-83v49h225zM336 788h-45l102 170h74z" />
    <glyph glyph-name="Ucircumflex" unicode="&#xdb;" horiz-adv-x="704" 
d="M244 720v-49h-84v-409c0 -76 4 -131 43 -172c34 -36 82 -53 148 -53s116 17 150 53c39 41 43 96 43 172v409h-84v49h225v-49h-84v-435c0 -166 -84 -250 -249 -250c-166 0 -250 84 -250 250v435h-83v49h225zM217 788l98 170h74l98 -170h-45l-90 128l-90 -128h-45z" />
    <glyph glyph-name="Udieresis" unicode="&#xdc;" horiz-adv-x="704" 
d="M244 720v-49h-84v-409c0 -76 4 -131 43 -172c34 -36 82 -53 148 -53s116 17 150 53c39 41 43 96 43 172v409h-84v49h225v-49h-84v-435c0 -166 -84 -250 -249 -250c-166 0 -250 84 -250 250v435h-83v49h225zM239 826v79h69v-79h-69zM396 826v79h69v-79h-69z" />
    <glyph glyph-name="Ugrave" unicode="&#xd9;" horiz-adv-x="704" 
d="M244 720v-49h-84v-409c0 -76 4 -131 43 -172c34 -36 82 -53 148 -53s116 17 150 53c39 41 43 96 43 172v409h-84v49h225v-49h-84v-435c0 -166 -84 -250 -249 -250c-166 0 -250 84 -250 250v435h-83v49h225zM368 788l-131 170h74l102 -170h-45z" />
    <glyph glyph-name="Ydieresis" unicode="&#x178;" horiz-adv-x="611" 
d="M276 49v269l-208 353h-72v49h225v-49h-95l178 -309l177 309h-91v49h225v-49h-71l-210 -359v-263h93v-49h-243v49h92zM193 826v79h69v-79h-69zM350 826v79h69v-79h-69z" />
    <glyph glyph-name="Zcaron" unicode="&#x17d;" horiz-adv-x="648" 
d="M81 0v49l417 622h-363v-140h-54v189h481v-49l-417 -622h363v141h54v-190h-481zM189 958h45l90 -128l90 128h45l-98 -170h-74z" />
    <glyph glyph-name="aacute" unicode="&#xe1;" horiz-adv-x="598" 
d="M497 46h74v-46h-125v96c-48 -73 -109 -107 -191 -107c-62 0 -119 24 -161 68c-43 45 -67 106 -67 169c0 141 95 237 225 237c80 0 142 -31 194 -97v85h125v-46h-74v-359zM80 227c0 -108 83 -190 182 -190s183 84 183 190c0 109 -82 191 -187 191
c-103 0 -178 -77 -178 -191zM254 517h-45l102 170h74z" />
    <glyph glyph-name="acircumflex" unicode="&#xe2;" horiz-adv-x="598" 
d="M497 46h74v-46h-125v96c-48 -73 -109 -107 -191 -107c-62 0 -119 24 -161 68c-43 45 -67 106 -67 169c0 141 95 237 225 237c80 0 142 -31 194 -97v85h125v-46h-74v-359zM80 227c0 -108 83 -190 182 -190s183 84 183 190c0 109 -82 191 -187 191
c-103 0 -178 -77 -178 -191zM135 517l98 170h74l98 -170h-45l-90 128l-90 -128h-45z" />
    <glyph glyph-name="adieresis" unicode="&#xe4;" horiz-adv-x="598" 
d="M497 46h74v-46h-125v96c-48 -73 -109 -107 -191 -107c-62 0 -119 24 -161 68c-43 45 -67 106 -67 169c0 141 95 237 225 237c80 0 142 -31 194 -97v85h125v-46h-74v-359zM80 227c0 -108 83 -190 182 -190s183 84 183 190c0 109 -82 191 -187 191
c-103 0 -178 -77 -178 -191zM157 555v79h69v-79h-69zM314 555v79h69v-79h-69z" />
    <glyph glyph-name="agrave" unicode="&#xe0;" horiz-adv-x="598" 
d="M497 46h74v-46h-125v96c-48 -73 -109 -107 -191 -107c-62 0 -119 24 -161 68c-43 45 -67 106 -67 169c0 141 95 237 225 237c80 0 142 -31 194 -97v85h125v-46h-74v-359zM80 227c0 -108 83 -190 182 -190s183 84 183 190c0 109 -82 191 -187 191
c-103 0 -178 -77 -178 -191zM286 517l-131 170h74l102 -170h-45z" />
    <glyph glyph-name="aring" unicode="&#xe5;" horiz-adv-x="598" 
d="M168 598c0 60 48 108 108 108s108 -48 108 -108s-48 -107 -108 -107s-108 47 -108 107zM211 598c0 -36 29 -65 65 -65s65 29 65 65s-29 66 -65 66s-65 -30 -65 -66zM497 46h74v-46h-125v96c-48 -73 -109 -107 -191 -107c-62 0 -119 24 -161 68c-43 45 -67 106 -67 169
c0 141 95 237 225 237c80 0 142 -31 194 -97v85h125v-46h-74v-359zM80 227c0 -108 83 -190 182 -190s183 84 183 190c0 109 -82 191 -187 191c-103 0 -178 -77 -178 -191z" />
    <glyph glyph-name="atilde" unicode="&#xe3;" horiz-adv-x="598" 
d="M497 46h74v-46h-125v96c-48 -73 -109 -107 -191 -107c-62 0 -119 24 -161 68c-43 45 -67 106 -67 169c0 141 95 237 225 237c80 0 142 -31 194 -97v85h125v-46h-74v-359zM80 227c0 -108 83 -190 182 -190s183 84 183 190c0 109 -82 191 -187 191
c-103 0 -178 -77 -178 -191zM411 646c-17 -59 -49 -89 -93 -89c-10 0 -21 2 -32 5l-47 15c-9 3 -17 4 -26 4c-19 0 -35 -13 -45 -36h-39c14 58 48 89 95 89c9 0 18 0 26 -3l47 -16c11 -4 21 -5 27 -5c22 0 36 12 47 36h40z" />
    <glyph glyph-name="ccedilla" unicode="&#xe7;" horiz-adv-x="532" 
d="M468 89c-55 -66 -123 -101 -199 -101c-142 0 -236 96 -236 238c0 69 24 128 67 170c44 43 105 67 165 67c67 0 119 -23 156 -65l-1 53h46v-151h-46c-21 74 -78 118 -155 118c-103 0 -180 -77 -180 -192c0 -112 79 -192 184 -192c60 0 117 28 167 86zM164 -204v37
c48 -11 87 -17 116 -17c42 0 64 15 64 44c0 36 -23 51 -71 51c-7 0 -15 0 -23 -1v90h32v-54h7c71 0 109 -30 109 -84c0 -55 -38 -86 -110 -86c-40 0 -81 8 -124 20z" />
    <glyph glyph-name="eacute" unicode="&#xe9;" horiz-adv-x="558" 
d="M86 211c6 -106 88 -178 193 -178c76 0 137 36 171 98h57c-48 -94 -125 -143 -228 -143c-143 0 -247 103 -247 237s104 238 247 238c149 0 245 -96 246 -252h-439zM472 253c-16 104 -87 165 -193 165c-99 0 -177 -64 -193 -165h386zM263 517h-45l102 170h74z" />
    <glyph glyph-name="ecircumflex" unicode="&#xea;" horiz-adv-x="558" 
d="M86 211c6 -106 88 -178 193 -178c76 0 137 36 171 98h57c-48 -94 -125 -143 -228 -143c-143 0 -247 103 -247 237s104 238 247 238c149 0 245 -96 246 -252h-439zM472 253c-16 104 -87 165 -193 165c-99 0 -177 -64 -193 -165h386zM144 517l98 170h74l98 -170h-45
l-90 128l-90 -128h-45z" />
    <glyph glyph-name="edieresis" unicode="&#xeb;" horiz-adv-x="558" 
d="M86 211c6 -106 88 -178 193 -178c76 0 137 36 171 98h57c-48 -94 -125 -143 -228 -143c-143 0 -247 103 -247 237s104 238 247 238c149 0 245 -96 246 -252h-439zM472 253c-16 104 -87 165 -193 165c-99 0 -177 -64 -193 -165h386zM166 555v79h69v-79h-69zM323 555v79h69
v-79h-69z" />
    <glyph glyph-name="egrave" unicode="&#xe8;" horiz-adv-x="558" 
d="M86 211c6 -106 88 -178 193 -178c76 0 137 36 171 98h57c-48 -94 -125 -143 -228 -143c-143 0 -247 103 -247 237s104 238 247 238c149 0 245 -96 246 -252h-439zM472 253c-16 104 -87 165 -193 165c-99 0 -177 -64 -193 -165h386zM295 517l-131 170h74l102 -170h-45z
" />
    <glyph glyph-name="iacute" unicode="&#xed;" horiz-adv-x="250" 
d="M16 0v46h85v359h-80v46h131v-405h76v-46h-212zM83 517h-45l102 170h74z" />
    <glyph glyph-name="icircumflex" unicode="&#xee;" horiz-adv-x="250" 
d="M16 0v46h85v359h-80v46h131v-405h76v-46h-212zM-36 517l98 170h74l98 -170h-45l-90 128l-90 -128h-45z" />
    <glyph glyph-name="idieresis" unicode="&#xef;" horiz-adv-x="250" 
d="M16 0v46h85v359h-80v46h131v-405h76v-46h-212zM-14 555v79h69v-79h-69zM143 555v79h69v-79h-69z" />
    <glyph glyph-name="igrave" unicode="&#xec;" horiz-adv-x="250" 
d="M16 0v46h85v359h-80v46h131v-405h76v-46h-212zM115 517l-131 170h74l102 -170h-45z" />
    <glyph glyph-name="ntilde" unicode="&#xf1;" horiz-adv-x="572" 
d="M27 0v46h74v359h-74v46h125v-85c57 65 119 97 188 97c101 0 136 -51 136 -162v-255h74v-46h-198v46h73v255c0 79 -26 116 -94 116c-61 0 -122 -38 -179 -113v-258h75v-46h-200zM427 646c-17 -59 -49 -89 -93 -89c-10 0 -21 2 -32 5l-47 15c-9 3 -17 4 -26 4
c-19 0 -35 -13 -45 -36h-39c14 58 48 89 95 89c9 0 18 0 26 -3l47 -16c11 -4 21 -5 27 -5c22 0 36 12 47 36h40z" />
    <glyph glyph-name="oacute" unicode="&#xf3;" horiz-adv-x="558" 
d="M279 -12c-143 0 -247 103 -247 237s104 238 247 238s246 -104 246 -238s-103 -237 -246 -237zM279 33c110 0 195 81 195 193s-84 192 -195 192s-194 -80 -194 -192s84 -193 194 -193zM263 517h-45l102 170h74z" />
    <glyph glyph-name="ocircumflex" unicode="&#xf4;" horiz-adv-x="558" 
d="M279 -12c-143 0 -247 103 -247 237s104 238 247 238s246 -104 246 -238s-103 -237 -246 -237zM279 33c110 0 195 81 195 193s-84 192 -195 192s-194 -80 -194 -192s84 -193 194 -193zM144 517l98 170h74l98 -170h-45l-90 128l-90 -128h-45z" />
    <glyph glyph-name="odieresis" unicode="&#xf6;" horiz-adv-x="558" 
d="M279 -12c-143 0 -247 103 -247 237s104 238 247 238s246 -104 246 -238s-103 -237 -246 -237zM279 33c110 0 195 81 195 193s-84 192 -195 192s-194 -80 -194 -192s84 -193 194 -193zM166 555v79h69v-79h-69zM323 555v79h69v-79h-69z" />
    <glyph glyph-name="ograve" unicode="&#xf2;" horiz-adv-x="558" 
d="M279 -12c-143 0 -247 103 -247 237s104 238 247 238s246 -104 246 -238s-103 -237 -246 -237zM279 33c110 0 195 81 195 193s-84 192 -195 192s-194 -80 -194 -192s84 -193 194 -193zM295 517l-131 170h74l102 -170h-45z" />
    <glyph glyph-name="otilde" unicode="&#xf5;" horiz-adv-x="558" 
d="M279 -12c-143 0 -247 103 -247 237s104 238 247 238s246 -104 246 -238s-103 -237 -246 -237zM279 33c110 0 195 81 195 193s-84 192 -195 192s-194 -80 -194 -192s84 -193 194 -193zM420 646c-17 -59 -49 -89 -93 -89c-10 0 -21 2 -32 5l-47 15c-9 3 -17 4 -26 4
c-19 0 -35 -13 -45 -36h-39c14 58 48 89 95 89c9 0 18 0 26 -3l47 -16c11 -4 21 -5 27 -5c22 0 36 12 47 36h40z" />
    <glyph glyph-name="scaron" unicode="&#x161;" horiz-adv-x="481" 
d="M110 0h-47v160h47c18 -77 78 -122 160 -122c65 0 112 37 112 85c0 50 -35 72 -108 87l-59 12c-102 21 -153 47 -153 119c0 71 61 123 160 123c66 0 114 -22 140 -63l-1 50h46v-131h-46c-13 64 -65 102 -141 102c-67 0 -107 -32 -107 -76c0 -48 35 -63 109 -77l63 -12
c99 -19 148 -63 148 -131c0 -77 -63 -132 -163 -132c-64 0 -118 22 -161 66zM106 687h45l90 -128l90 128h45l-98 -170h-74z" />
    <glyph glyph-name="uacute" unicode="&#xfa;" horiz-adv-x="567" 
d="M468 451v-405h74v-46h-125v86c-57 -65 -119 -98 -188 -98c-101 0 -136 51 -136 162v255h-74v46h125v-301c0 -79 26 -116 94 -116c61 0 122 38 179 113v258h-75v46h126zM248 517h-45l102 170h74z" />
    <glyph glyph-name="ucircumflex" unicode="&#xfb;" horiz-adv-x="567" 
d="M468 451v-405h74v-46h-125v86c-57 -65 -119 -98 -188 -98c-101 0 -136 51 -136 162v255h-74v46h125v-301c0 -79 26 -116 94 -116c61 0 122 38 179 113v258h-75v46h126zM129 517l98 170h74l98 -170h-45l-90 128l-90 -128h-45z" />
    <glyph glyph-name="udieresis" unicode="&#xfc;" horiz-adv-x="567" 
d="M468 451v-405h74v-46h-125v86c-57 -65 -119 -98 -188 -98c-101 0 -136 51 -136 162v255h-74v46h125v-301c0 -79 26 -116 94 -116c61 0 122 38 179 113v258h-75v46h126zM151 555v79h69v-79h-69zM308 555v79h69v-79h-69z" />
    <glyph glyph-name="ugrave" unicode="&#xf9;" horiz-adv-x="567" 
d="M468 451v-405h74v-46h-125v86c-57 -65 -119 -98 -188 -98c-101 0 -136 51 -136 162v255h-74v46h125v-301c0 -79 26 -116 94 -116c61 0 122 38 179 113v258h-75v46h126zM280 517l-131 170h74l102 -170h-45z" />
    <glyph glyph-name="ydieresis" unicode="&#xff;" horiz-adv-x="479" 
d="M376 405h-71v46h181v-46h-58l-255 -567h76v-46h-202v46h74l90 202l-166 365h-56v46h176v-46h-66l137 -314zM127 555v79h69v-79h-69zM284 555v79h69v-79h-69z" />
    <glyph glyph-name="zcaron" unicode="&#x17e;" horiz-adv-x="475" 
d="M44 0v46l304 359h-249v-77h-47v123h364v-35l-313 -370h271v84h46v-130h-376zM103 687h45l90 -128l90 128h45l-98 -170h-74z" />
    <glyph glyph-name="trademark" unicode="&#x2122;" horiz-adv-x="833" 
d="M339 710v-25h-85v-234h-33v234h-87v25h205zM452 710l85 -215l79 215h50v-259h-29v234l-88 -234h-24l-93 234v-234h-29v259h49z" />
    <glyph glyph-name="copyright" unicode="&#xa9;" horiz-adv-x="833" 
d="M416 709c97 0 186 -37 254 -105c67 -67 103 -156 103 -252c0 -98 -36 -184 -103 -250c-70 -69 -160 -107 -254 -107c-95 0 -183 38 -251 106s-105 156 -105 251c0 94 37 184 106 254c66 67 153 103 250 103zM738 352c0 87 -33 167 -93 227c-62 62 -142 95 -229 95
s-166 -33 -225 -93c-62 -63 -96 -144 -96 -229s34 -165 95 -226s141 -95 226 -95c84 0 166 34 229 96c60 59 93 137 93 225zM528 448c-13 53 -54 84 -111 84c-81 0 -130 -65 -130 -181c0 -112 51 -178 130 -178c59 0 105 36 117 94h50c-7 -80 -77 -136 -170 -136
c-110 0 -184 83 -184 223c0 136 78 220 190 220c86 0 151 -52 159 -126h-51z" />
    <glyph glyph-name="logicalnot" unicode="&#xac;" horiz-adv-x="833" 
d="M709 418v-245h-39v206h-546v39h585z" />
    <glyph glyph-name="registered" unicode="&#xae;" horiz-adv-x="833" 
d="M416 709c97 0 186 -37 254 -105c67 -67 103 -156 103 -252c0 -98 -36 -184 -103 -250c-70 -69 -160 -107 -254 -107c-95 0 -183 38 -251 106s-105 156 -105 251c0 94 37 184 106 254c66 67 153 103 250 103zM738 352c0 87 -33 167 -93 227c-62 62 -142 95 -229 95
s-166 -33 -225 -93c-62 -63 -96 -144 -96 -229s34 -165 95 -226s141 -95 226 -95c84 0 166 34 229 96c60 59 93 137 93 225zM427 564c114 0 170 -34 170 -114c0 -57 -38 -100 -99 -107l93 -192h-64l-89 184h-104v-184h-56v413h149zM416 526h-82v-153h82c87 0 124 16 124 79
c0 52 -41 74 -124 74z" />
    <glyph glyph-name="minus" unicode="&#x2212;" horiz-adv-x="833" 
d="M709 318v-39h-585v39h585z" />
    <glyph glyph-name="Eth" unicode="&#xd0;" horiz-adv-x="716" 
d="M258 49c226 0 362 128 362 314c0 120 -53 210 -157 271c-43 25 -112 37 -206 37h-82v-269h206v-45h-206v-308h83zM258 0h-224v49h83v308h-102v46h102v268h-83v49h224c104 0 182 -8 235 -38c123 -70 186 -180 186 -322c0 -135 -67 -252 -188 -319
c-52 -29 -130 -41 -233 -41z" />
    <glyph glyph-name="Thorn" unicode="&#xde;" horiz-adv-x="580" 
d="M20 0v49h92v622h-92v49h243v-49h-93v-92h125c182 0 277 -77 277 -219c0 -145 -93 -219 -277 -219h-125v-92h93v-49h-243zM291 530h-121v-343h121c150 0 222 54 222 172s-72 171 -222 171z" />
    <glyph glyph-name="Yacute" unicode="&#xdd;" horiz-adv-x="611" 
d="M276 49v269l-208 353h-72v49h225v-49h-95l178 -309l177 309h-91v49h225v-49h-71l-210 -359v-263h93v-49h-243v49h92zM290 788h-45l102 170h74z" />
    <glyph glyph-name="brokenbar" unicode="&#xa6;" 
d="M272 699v-370h-44v370h44zM272 199v-370h-44v370h44z" />
    <glyph glyph-name="degree" unicode="&#xb0;" horiz-adv-x="329" 
d="M165 708c73 0 133 -60 133 -134c0 -73 -59 -133 -134 -133s-133 59 -133 133c0 75 60 134 134 134zM269 574c0 57 -47 104 -104 104c-58 0 -104 -46 -104 -104s47 -104 104 -104c58 0 104 47 104 104z" />
    <glyph glyph-name="divide" unicode="&#xf7;" horiz-adv-x="833" 
d="M417 515c27 0 48 -21 48 -48c0 -26 -21 -49 -48 -49s-48 22 -48 49s22 48 48 48zM709 318v-39h-585v39h585zM417 179c27 0 48 -23 48 -49c0 -27 -21 -48 -48 -48s-48 20 -48 48c0 26 22 49 48 49z" />
    <glyph glyph-name="eth" unicode="&#xf0;" horiz-adv-x="558" 
d="M85 226c0 -112 83 -193 194 -193s195 81 195 193s-85 192 -195 192s-194 -80 -194 -192zM284 569l-150 -48l-14 38l138 44l-79 117h51l75 -103l101 31l15 -36l-92 -28l117 -162c50 -69 79 -128 79 -199c0 -132 -104 -235 -246 -235c-143 0 -247 103 -247 237
s104 238 247 238c31 0 60 -5 90 -15z" />
    <glyph glyph-name="mu" unicode="&#x3bc;" horiz-adv-x="534" 
d="M159 519l-60 -288c-5 -25 -8 -47 -8 -69c0 -82 40 -126 114 -126c80 0 144 69 174 206l61 277h59l-81 -384c-7 -33 -12 -55 -12 -66c0 -20 11 -31 33 -31c2 0 8 0 19 1l-9 -47c-14 -3 -27 -6 -37 -6c-44 0 -65 20 -65 62c0 6 1 14 2 22c-28 -54 -82 -84 -152 -84
c-64 0 -113 31 -134 84l-58 -277h-59l154 726h59z" />
    <glyph glyph-name="multiply" unicode="&#xd7;" horiz-adv-x="833" 
d="M417 326l238 238l28 -28l-238 -238l238 -238l-28 -28l-238 238l-238 -238l-28 28l238 238l-238 238l28 28z" />
    <glyph glyph-name="onehalf" unicode="&#xbd;" horiz-adv-x="812" 
d="M95 309v26h55v341h-51v26h87v-367h53v-26h-144zM155 -14l454 729h46l-454 -729h-46zM517 0v26c133 142 219 218 219 277c0 43 -34 71 -87 71c-61 0 -96 -38 -96 -110v-6h-33v15c0 79 50 127 130 127c72 0 121 -39 121 -94c0 -65 -82 -144 -215 -280h191v73h34v-99h-264z
" />
    <glyph glyph-name="onequarter" unicode="&#xbc;" horiz-adv-x="812" 
d="M95 309v26h55v341h-51v26h87v-367h53v-26h-144zM155 -14l454 729h46l-454 -729h-46zM633 0v26h55v82h-179v25l186 260h28v-260h55v-25h-55v-82h55v-26h-145zM688 133v143c0 18 3 43 8 73l-152 -216h144z" />
    <glyph glyph-name="onesuperior" unicode="&#xb9;" horiz-adv-x="338" 
d="M99 281v28h58v365h-54v28h91v-393h57v-28h-152z" />
    <glyph glyph-name="plusminus" unicode="&#xb1;" horiz-adv-x="833" 
d="M436 567v-173h273v-39h-273v-172h-39v172h-273v39h273v173h39zM709 69v-39h-585v39h585z" />
    <glyph glyph-name="thorn" unicode="&#xfe;" horiz-adv-x="606" 
d="M151 -162h78v-46h-202v46h73v836h-73v46h124v-354c52 66 115 97 195 97c129 0 225 -96 225 -237c0 -63 -24 -124 -67 -169c-42 -44 -100 -68 -162 -68c-82 0 -143 34 -191 107v-258zM335 418c-99 0 -182 -82 -182 -191c0 -107 83 -191 186 -191c101 0 179 84 179 191
c0 115 -74 191 -183 191z" />
    <glyph glyph-name="threequarters" unicode="&#xbe;" horiz-adv-x="812" 
d="M40 592v1c0 72 50 116 126 116c72 0 121 -44 121 -103c0 -45 -32 -81 -85 -92c54 -9 88 -49 88 -99c0 -63 -56 -114 -127 -114c-80 0 -132 46 -132 117v4h32c2 -58 41 -93 96 -93c54 0 96 35 96 84c0 52 -42 87 -106 87c-3 0 -8 -1 -13 -1v26c74 1 116 32 116 81
c0 46 -35 76 -89 76c-57 0 -89 -31 -92 -90h-31zM156 -14l454 729h46l-454 -729h-46zM634 0v26h55v82h-179v25l186 260h28v-260h55v-25h-55v-82h55v-26h-145zM689 133v143c0 18 3 43 8 73l-152 -216h144z" />
    <glyph glyph-name="threesuperior" unicode="&#xb3;" horiz-adv-x="338" 
d="M42 585v1c0 77 52 124 132 124c75 0 127 -47 127 -111c0 -48 -34 -87 -90 -98c57 -10 93 -53 93 -107c0 -67 -59 -121 -134 -121c-84 0 -138 48 -138 124v5h34c2 -62 43 -100 101 -100c56 0 100 38 100 91c0 55 -44 93 -111 93c-3 0 -8 -1 -13 -1v28c77 0 121 34 121 86
c0 49 -36 82 -94 82s-93 -33 -95 -96h-33z" />
    <glyph glyph-name="twosuperior" unicode="&#xb2;" horiz-adv-x="338" 
d="M30 281v28c138 152 229 233 229 297c0 46 -36 76 -91 76c-64 0 -101 -41 -101 -118v-6h-34c-1 5 -1 10 -1 15c0 85 53 137 137 137c75 0 127 -43 127 -101c0 -69 -86 -154 -225 -300h199v78h36v-106h-276z" />
    <glyph glyph-name="yacute" unicode="&#xfd;" horiz-adv-x="479" 
d="M376 405h-71v46h181v-46h-58l-255 -567h76v-46h-202v46h74l90 202l-166 365h-56v46h176v-46h-66l137 -314zM224 517h-45l102 170h74z" />
    </font>
</defs>
</svg>
