<?xml version="1.0" standalone="no"?>
<!DOCTYPE svg PUBLIC "-//W3C//DTD SVG 1.1//EN" "http://www.w3.org/Graphics/SVG/1.1/DTD/svg11.dtd" >
<svg xmlns="http://www.w3.org/2000/svg" width="100%" height="100%">
<metadata>
Created by FontXChange 20110222 at Mon Feb 17 13:36:32 2014
 By Zeeshan Jan
Copyright 1990 as an unpublished work by Bitstream Inc.  All rights reserved.  Confidential.
</metadata>
<defs>
<font id="GeometricSlab703BT-XtraBold" horiz-adv-x="500" >
  <font-face 
    font-family="Geometric Slabserif 703"
    font-weight="700"
    font-stretch="normal"
    units-per-em="1000"
    panose-1="2 0 8 3 0 0 0 0 0 0"
    ascent="800"
    descent="-200"
    x-height="475"
    cap-height="720"
    bbox="-167 -237 1322 963"
    underline-thickness="118"
    underline-position="-107"
    stemh="165"
    stemv="178"
    unicode-range="U+0020-FB02"
  />
    <missing-glyph />
    <glyph glyph-name="space" unicode=" " horiz-adv-x="278" 
 />
    <glyph glyph-name="exclam" unicode="!" horiz-adv-x="359" 
d="M179 -12c-57 0 -101 43 -101 100s44 100 101 100c58 0 101 -43 101 -100s-43 -100 -101 -100zM84 720h190l-16 -464h-158z" />
    <glyph glyph-name="quotedbl" unicode="&#x22;" horiz-adv-x="348" 
d="M37 702h107v-274h-107v274zM203 702h109v-274h-109v274z" />
    <glyph glyph-name="numbersign" unicode="#" horiz-adv-x="769" 
d="M334 716h122l-68 -193h115l69 193h122l-68 -193h132l-42 -112h-131l-39 -112h135l-41 -113h-134l-69 -192h-122l68 192h-115l-69 -192h-122l68 192h-134l42 113h132l40 112h-138l42 112h136zM345 411l-40 -113h120l40 113h-120z" />
    <glyph glyph-name="dollar" unicode="$" horiz-adv-x="556" 
d="M154 0h-112v208h120c22 -46 48 -73 76 -82v140c-138 26 -208 94 -208 201c0 116 81 199 208 203v63h70v-67c39 -9 69 -28 90 -54l-2 49h113v-188h-120c-17 37 -41 64 -81 80v-133c158 -24 237 -96 237 -216c0 -128 -91 -217 -237 -219v-81h-70v91c-34 8 -64 30 -84 63
v-58zM238 428v130c-43 -5 -67 -30 -67 -67s22 -59 67 -63zM308 114c51 2 84 34 84 72c0 36 -30 63 -84 69v-141z" />
    <glyph glyph-name="percent" unicode="%" horiz-adv-x="903" 
d="M206 456c33 0 60 26 60 60s-27 60 -60 60s-59 -26 -59 -60c0 -33 26 -60 59 -60zM392 516c0 -105 -82 -185 -186 -185c-103 0 -186 81 -186 185s83 185 186 185s186 -80 186 -185zM630 715h88l-445 -729h-88zM697 125c33 0 59 26 59 60s-26 60 -59 60s-60 -26 -60 -60
c0 -33 27 -60 60 -60zM882 185c0 -105 -82 -185 -186 -185c-103 0 -185 81 -185 185s82 186 185 186s186 -81 186 -186z" />
    <glyph glyph-name="ampersand" unicode="&#x26;" horiz-adv-x="743" 
d="M465 59c-66 -51 -130 -73 -209 -73c-138 0 -231 91 -231 225c0 84 39 148 121 204c-45 46 -66 92 -66 148c0 101 71 171 187 171c114 0 186 -67 186 -167c0 -66 -35 -120 -106 -164l128 -151c31 33 44 66 44 100v4h-35v130h225v-130h-37c-15 -74 -44 -139 -103 -200
l13 -12h127v-144h-194zM370 162l-142 159c-30 -29 -45 -57 -45 -88c0 -57 44 -99 106 -99c27 0 53 9 81 28zM263 488c36 21 54 46 54 77c0 32 -21 53 -51 53c-31 0 -53 -23 -53 -52s16 -54 50 -78z" />
    <glyph glyph-name="quoteright" unicode="&#x2019;" horiz-adv-x="270" 
d="M176 500h-154l65 220h157z" />
    <glyph glyph-name="parenleft" unicode="(" horiz-adv-x="424" 
d="M245 -175c-104 139 -154 287 -154 454s50 317 154 455l132 -74c-77 -125 -114 -243 -114 -381c0 -137 37 -255 114 -380z" />
    <glyph glyph-name="parenright" unicode=")" horiz-adv-x="424" 
d="M178 -175l-131 74c77 125 113 243 113 380c0 138 -36 256 -113 381l131 74c104 -138 155 -288 155 -455s-51 -315 -155 -454z" />
    <glyph glyph-name="asterisk" unicode="*" horiz-adv-x="556" 
d="M226 720h109l-19 -147l134 71l37 -101l-153 -41l115 -101l-82 -69l-90 122l-88 -124l-82 72l115 100l-154 41l38 101l136 -71z" />
    <glyph glyph-name="plus" unicode="+" horiz-adv-x="833" 
d="M359 596h116v-241h234v-113h-234v-242h-116v242h-235v113h235v241z" />
    <glyph glyph-name="comma" unicode="," horiz-adv-x="278" 
d="M166 -107h-153l72 248h157z" />
    <glyph glyph-name="hyphen" unicode="-" horiz-adv-x="310" 
d="M22 169v160h267v-160h-267z" />
    <glyph glyph-name="period" unicode="." horiz-adv-x="278" 
d="M139 -12c-57 0 -101 43 -101 100s44 100 101 100c58 0 101 -43 101 -100s-43 -100 -101 -100z" />
    <glyph glyph-name="slash" unicode="/" horiz-adv-x="385" 
d="M26 -93l257 827h101l-258 -827h-100z" />
    <glyph glyph-name="zero" unicode="0" horiz-adv-x="556" 
d="M44 262v178c0 67 2 124 34 174c43 66 111 101 199 101c89 0 158 -35 201 -101c33 -51 34 -107 34 -174v-178c0 -67 -1 -123 -34 -174c-43 -66 -112 -102 -201 -102c-88 0 -156 36 -199 102c-32 50 -34 107 -34 174zM340 268v165c0 77 -14 116 -63 116
c-47 0 -62 -39 -62 -116v-165c0 -78 14 -115 62 -115c49 0 63 38 63 115z" />
    <glyph glyph-name="one" unicode="1" horiz-adv-x="556" 
d="M119 0v131h73v440h-73v130h245v-570h75v-131h-320z" />
    <glyph glyph-name="two" unicode="2" horiz-adv-x="556" 
d="M36 0v147l177 179c80 81 126 134 126 180c0 35 -24 58 -60 58c-44 0 -71 -28 -71 -78v-11h-171v12c0 143 91 228 241 228c143 0 231 -81 231 -202c0 -119 -96 -222 -278 -363h147v43h141v-193h-483z" />
    <glyph glyph-name="three" unicode="3" horiz-adv-x="556" 
d="M31 235h165v-7c0 -59 26 -90 76 -90c43 0 75 32 75 81c0 58 -42 78 -127 78h-10v128h10c76 0 118 13 118 74c0 39 -28 65 -70 65c-47 0 -76 -29 -76 -78v-10h-153v5c0 150 86 234 239 234c142 0 229 -82 229 -195c0 -75 -45 -129 -129 -150c90 -10 145 -74 145 -170
c0 -125 -95 -214 -248 -214c-152 0 -245 86 -245 227c0 7 1 15 1 22z" />
    <glyph glyph-name="four" unicode="4" horiz-adv-x="556" 
d="M306 594l-144 -290h137v146c0 39 2 88 7 144zM198 0v117h101v69h-278v95l215 420h225v-397h63v-118h-63v-69h63v-117h-326z" />
    <glyph glyph-name="five" unicode="5" horiz-adv-x="556" 
d="M48 238h165v-13c0 -59 13 -88 61 -88c37 0 58 27 58 78v57c0 46 -25 59 -83 59h-182v370h401v-150h-254v-89c39 16 80 24 122 24c117 0 167 -59 167 -182v-97c0 -150 -75 -221 -234 -221c-160 0 -222 57 -222 201c0 5 0 22 1 51z" />
    <glyph glyph-name="six" unicode="6" horiz-adv-x="556" 
d="M504 181h-165c-4 -32 -26 -52 -54 -52c-53 0 -63 41 -63 124v37c36 -40 83 -61 135 -61c103 0 156 56 156 164v108c0 139 -80 214 -227 214c-96 0 -161 -28 -202 -90c-26 -40 -31 -96 -31 -173v-204c0 -77 5 -132 31 -172c41 -62 106 -90 202 -90c137 0 218 70 218 185
v10zM341 486v-54c0 -54 -18 -80 -59 -80s-60 26 -60 80v54c0 54 19 80 60 80s59 -26 59 -80z" />
    <glyph glyph-name="seven" unicode="7" horiz-adv-x="556" 
d="M99 0l255 551h-152v-95h-143v245h458v-176l-230 -525h-188z" />
    <glyph glyph-name="eight" unicode="8" horiz-adv-x="556" 
d="M278 426c42 0 74 32 74 74s-32 74 -74 74s-74 -32 -74 -74s32 -74 74 -74zM278 139c45 0 81 37 81 82c0 46 -35 81 -81 81c-45 0 -80 -35 -80 -81c0 -45 35 -82 80 -82zM157 375c-71 27 -104 76 -104 151c0 111 85 190 225 190s226 -79 226 -190
c0 -75 -33 -124 -104 -151c73 -17 119 -81 119 -165c0 -138 -90 -224 -241 -224c-150 0 -240 86 -240 224c0 84 46 148 119 165z" />
    <glyph glyph-name="nine" unicode="9" horiz-adv-x="556" 
d="M51 181h165c4 -32 26 -51 54 -51c53 0 63 41 63 124v36c-36 -40 -82 -60 -134 -60c-103 0 -156 56 -156 164v108c0 139 79 213 226 213c96 0 161 -28 202 -90c26 -40 32 -95 32 -172v-204c0 -77 -6 -133 -32 -173c-41 -62 -106 -90 -202 -90c-137 0 -218 70 -218 185v10z
M214 487v-55c0 -54 19 -80 60 -80s60 26 60 80v55c0 54 -19 80 -60 80s-60 -26 -60 -80z" />
    <glyph glyph-name="colon" unicode=":" horiz-adv-x="345" 
d="M172 -12c-57 0 -100 43 -100 100s43 100 100 100c58 0 101 -43 101 -100s-43 -100 -101 -100zM172 286c-57 0 -100 43 -100 100s43 100 100 100c58 0 101 -43 101 -100s-43 -100 -101 -100z" />
    <glyph glyph-name="semicolon" unicode=";" horiz-adv-x="345" 
d="M176 486h-154l73 -248h157zM180 93c-57 0 -101 -43 -101 -100s44 -100 101 -100c58 0 101 43 101 100s-43 100 -101 100z" />
    <glyph glyph-name="less" unicode="&#x3c;" horiz-adv-x="833" 
d="M704 593v-124l-417 -171l417 -170v-124l-575 237v114z" />
    <glyph glyph-name="equal" unicode="=" horiz-adv-x="833" 
d="M124 133h585v113h-585v-113zM124 352h585v112h-585v-112z" />
    <glyph glyph-name="greater" unicode="&#x3e;" horiz-adv-x="833" 
d="M129 593l575 -238v-114l-575 -237v124l417 170l-417 171v124z" />
    <glyph glyph-name="question" unicode="?" horiz-adv-x="602" 
d="M278 -12c-57 0 -100 43 -100 100s43 100 100 100c58 0 101 -43 101 -100s-43 -100 -101 -100zM197 256v175c7 0 16 -1 27 -1c90 0 132 25 132 86c0 42 -21 65 -62 65c-42 0 -69 -28 -70 -74h-174c-1 6 -2 14 -2 21c0 53 31 110 89 154c45 34 101 52 163 52
c143 0 239 -91 239 -222c0 -119 -68 -199 -176 -207v-49h-166z" />
    <glyph glyph-name="at" unicode="@" horiz-adv-x="1000" 
d="M585 340c-6 50 -34 76 -78 76c-66 0 -127 -90 -127 -199c0 -55 24 -85 65 -85c53 0 99 40 115 106zM567 128c-37 -54 -81 -77 -144 -77c-106 0 -162 57 -162 168c0 160 107 277 240 277c50 0 87 -20 112 -60l25 45h101l-75 -298c-1 -6 -2 -11 -2 -16c0 -19 10 -29 31 -29
c88 0 168 108 168 234c0 153 -125 264 -316 264c-97 0 -179 -24 -246 -71c-101 -72 -158 -183 -158 -308c0 -197 143 -323 365 -323c106 0 207 31 291 91l47 -66c-101 -76 -214 -114 -338 -114c-127 0 -233 33 -314 95c-102 79 -152 182 -152 314c0 110 35 210 102 292
c96 118 236 182 404 182c114 0 214 -33 283 -87c88 -69 132 -156 132 -268c0 -109 -44 -202 -125 -267c-46 -37 -103 -56 -161 -56c-69 0 -105 26 -108 78z" />
    <glyph glyph-name="A" unicode="A" horiz-adv-x="759" 
d="M310 351h139l-70 -228zM2 720v-144h61l134 -432h-71v-144h507v144h-70l133 432h62v144h-315v-144h64l-29 -97h-197l-27 97h63v144h-315z" />
    <glyph glyph-name="B" unicode="B" horiz-adv-x="657" 
d="M18 0v144h73v432h-73v144h355c153 0 236 -72 236 -191c0 -76 -45 -124 -135 -149c112 -25 162 -79 162 -179c0 -128 -81 -201 -233 -201h-385zM278 436h58c59 0 89 23 89 70s-30 70 -89 70h-58v-140zM278 144h58c69 0 104 28 104 85c0 56 -36 86 -104 86h-58v-171z" />
    <glyph glyph-name="C" unicode="C" horiz-adv-x="793" 
d="M584 264h200c-52 -173 -194 -278 -375 -278c-100 0 -186 31 -255 91c-84 74 -129 172 -129 283c0 112 45 209 129 283c69 60 155 91 255 91c80 0 148 -27 197 -78v64h168v-277h-182c-30 77 -91 118 -175 118c-114 0 -194 -83 -194 -201s82 -200 187 -200
c78 0 135 34 174 104z" />
    <glyph glyph-name="D" unicode="D" horiz-adv-x="789" 
d="M285 576v-432h56c148 0 226 74 226 216c0 143 -78 216 -226 216h-56zM20 0v144h73v432h-73v144h342c100 0 172 -12 216 -35c128 -68 186 -170 186 -325c0 -154 -59 -257 -186 -325c-44 -23 -116 -35 -216 -35h-342z" />
    <glyph glyph-name="E" unicode="E" horiz-adv-x="715" 
d="M24 0v144h73v432h-73v144h646v-261h-125l-44 117h-216v-117h142v-160h-142v-155h216l44 140h125v-284h-646z" />
    <glyph glyph-name="F" unicode="F" horiz-adv-x="675" 
d="M24 0v144h73v432h-73v144h634v-261h-125l-43 117h-205v-117h133v-160h-133v-155h95v-144h-356z" />
    <glyph glyph-name="G" unicode="G" horiz-adv-x="845" 
d="M564 263h-91v134h365v-134h-65v-263h-157v94c-59 -73 -133 -108 -227 -108c-88 0 -174 32 -238 90c-81 73 -126 175 -126 284c0 115 44 212 129 286c64 56 150 88 239 88c77 0 137 -23 179 -66l-2 52h168v-251h-182c-25 62 -74 93 -146 93c-109 0 -187 -84 -187 -202
c0 -121 75 -201 187 -201c69 0 124 37 154 104z" />
    <glyph glyph-name="H" unicode="H" horiz-adv-x="780" 
d="M24 0v144h73v432h-73v144h336v-144h-76v-131h212v131h-76v144h336v-144h-73v-432h73v-144h-336v144h76v158h-212v-158h76v-144h-336z" />
    <glyph glyph-name="I" unicode="I" horiz-adv-x="384" 
d="M24 0v144h73v432h-73v144h336v-144h-76v-432h76v-144h-336z" />
    <glyph glyph-name="J" unicode="J" horiz-adv-x="382" 
d="M102 153v423h-73v144h333v-144h-73v-432c0 -99 0 -172 -39 -229c-39 -58 -104 -84 -201 -84c-11 0 -23 0 -36 1v170h17c25 0 43 2 55 14c15 15 17 43 17 90v47z" />
    <glyph glyph-name="K" unicode="K" horiz-adv-x="734" 
d="M24 0v144h73v432h-73v144h328v-144h-68v-195l170 195h-45v144h305v-144h-51l-191 -205l205 -227h69v-144h-337v144h49l-174 198v-198h68v-144h-328z" />
    <glyph glyph-name="L" unicode="L" horiz-adv-x="648" 
d="M24 0v144h73v432h-73v144h333v-144h-72v-432h184l43 140h122v-284h-610z" />
    <glyph glyph-name="M" unicode="M" horiz-adv-x="943" 
d="M25 0v144h72v432h-72v144h337l112 -296l107 296h338v-144h-73v-432h73v-144h-331v144h76v399l-148 -391h-89l-148 391v-399h77v-144h-331z" />
    <glyph glyph-name="N" unicode="N" horiz-adv-x="778" 
d="M24 720v-144h73v-432h-73v-144h256l240 397l-6 -253h-77v-144h331v144h-72v576h-156l-265 -434l4 290h76v144h-331z" />
    <glyph glyph-name="O" unicode="O" horiz-adv-x="819" 
d="M25 360c0 112 44 209 129 283c69 60 154 91 255 91s187 -31 256 -91c84 -74 129 -172 129 -283s-45 -209 -129 -283c-69 -60 -155 -91 -256 -91c-100 0 -186 31 -255 91c-84 74 -129 172 -129 283zM223 360c0 -118 82 -200 187 -200s187 81 187 200s-82 201 -187 201
c-104 0 -187 -83 -187 -201z" />
    <glyph glyph-name="P" unicode="P" horiz-adv-x="657" 
d="M24 0v144h73v432h-73v144h369c152 0 244 -89 244 -228s-92 -228 -244 -228h-109v-120h76v-144h-336zM284 576v-177h50c77 0 115 30 115 89s-38 88 -115 88h-50z" />
    <glyph glyph-name="Q" unicode="Q" horiz-adv-x="819" 
d="M547 223c38 31 56 75 56 132c0 121 -80 206 -187 206c-112 0 -193 -83 -193 -201s82 -200 187 -200c13 0 24 2 33 7l-48 68l106 65zM659 77h113v-145h-196l-42 78c-34 -16 -75 -24 -125 -24c-100 0 -186 31 -255 91c-84 74 -129 172 -129 283c0 112 44 209 129 283
c69 60 155 91 255 91c101 0 187 -31 256 -91c86 -75 129 -173 129 -292s-45 -210 -135 -274z" />
    <glyph glyph-name="R" unicode="R" horiz-adv-x="704" 
d="M25 720v-144h72v-432h-72v-144h444c113 0 189 77 189 187c0 80 -37 129 -120 160c66 20 90 42 90 104v125h65v144h-252v-168c0 -95 -5 -138 -98 -138h-58v162h58v144h-318zM285 144v152h74c68 0 100 -24 100 -76s-32 -76 -100 -76h-74z" />
    <glyph glyph-name="S" unicode="S" horiz-adv-x="683" 
d="M197 646l4 75h-157v-244h167c52 72 97 107 159 107c49 0 80 -26 80 -63c0 -36 -29 -59 -86 -68l-77 -13c-166 -27 -248 -101 -248 -226c0 -129 104 -228 244 -228c74 0 130 26 170 79l-3 -64h158v227h-158c-39 -69 -81 -103 -132 -103c-45 0 -77 27 -77 62
c0 38 33 57 100 70l66 12c164 31 245 103 245 227c0 143 -96 239 -248 239c-85 0 -153 -29 -207 -89z" />
    <glyph glyph-name="T" unicode="T" horiz-adv-x="639" 
d="M153 0v144h73v434h-58l-37 -113h-115v255h607v-255h-115l-37 113h-58v-434h73v-144h-333z" />
    <glyph glyph-name="U" unicode="U" horiz-adv-x="762" 
d="M80 249v327h-73v144h336v-144h-76v-301c0 -76 41 -115 114 -115s113 39 113 115v301h-75v144h335v-144h-72v-327c0 -162 -115 -263 -301 -263s-301 101 -301 263z" />
    <glyph glyph-name="V" unicode="V" horiz-adv-x="693" 
d="M257 0l-193 576h-56v144h301v-144h-66l103 -352l104 352h-66v144h300v-144h-56l-192 -576h-179z" />
    <glyph glyph-name="W" unicode="W" horiz-adv-x="979" 
d="M492 307l-96 -307h-151l-188 576h-49v144h288v-144h-62l96 -319l96 319h-62v144h251v-144h-62l98 -319l101 319h-69v144h288v-144h-51l-193 -576h-143z" />
    <glyph glyph-name="X" unicode="X" horiz-adv-x="756" 
d="M376 308l-105 -164h57v-144h-322v144h65l169 228l-165 204h-56v144h315v-144h-57l101 -132l101 132h-58v144h315v-144h-61l-156 -205l167 -227h64v-144h-323v144h56z" />
    <glyph glyph-name="Y" unicode="Y" horiz-adv-x="734" 
d="M199 0v144h73v122l-208 310h-56v144h316v-144h-58l104 -170l103 170h-57v144h309v-144h-55l-211 -310v-122h76v-144h-336z" />
    <glyph glyph-name="Z" unicode="Z" horiz-adv-x="679" 
d="M34 0v144l375 437h-186l-38 -110h-139v249h593v-133l-389 -448h227l35 143h132v-282h-610z" />
    <glyph glyph-name="bracketleft" unicode="[" horiz-adv-x="437" 
d="M107 -86v806h293v-100h-121v-606h121v-100h-293z" />
    <glyph glyph-name="backslash" unicode="\" horiz-adv-x="385" 
d="M259 -93l-257 827h101l256 -827h-100z" />
    <glyph glyph-name="bracketright" unicode="]" horiz-adv-x="437" 
d="M330 -86h-292v100h121v606h-121v100h292v-806z" />
    <glyph glyph-name="asciicircum" unicode="^" horiz-adv-x="1000" 
d="M429 714h141l227 -275h-129l-168 167l-169 -167h-129z" />
    <glyph glyph-name="underscore" unicode="_" 
d="M0 -119h500v-117h-500v117z" />
    <glyph glyph-name="quoteleft" unicode="&#x2018;" horiz-adv-x="270" 
d="M175 500h-153l64 220h157z" />
    <glyph glyph-name="a" unicode="a" horiz-adv-x="637" 
d="M203 234c0 -53 39 -91 93 -91c52 0 94 38 94 91c0 52 -42 91 -94 91c-54 0 -93 -38 -93 -91zM555 144h58v-144h-227v61c-32 -49 -77 -73 -138 -73c-126 0 -227 107 -227 249c0 151 94 249 224 249c63 0 110 -24 141 -72v61h227v-144h-58v-187z" />
    <glyph glyph-name="b" unicode="b" horiz-adv-x="634" 
d="M245 234c0 -53 41 -91 93 -91c54 0 94 38 94 91s-40 91 -94 91c-52 0 -93 -38 -93 -91zM22 0v144h57v432h-57v144h236v-297c38 42 83 63 137 63c122 0 218 -98 218 -249c0 -142 -101 -249 -226 -249c-58 0 -103 22 -138 71v-59h-227z" />
    <glyph glyph-name="c" unicode="c" horiz-adv-x="569" 
d="M535 205c-21 -138 -116 -217 -259 -217c-152 0 -255 104 -255 251c0 145 101 246 237 246c59 0 103 -21 123 -55v45h142v-201h-156c-14 34 -42 52 -80 52c-50 0 -84 -35 -84 -87c0 -53 31 -86 81 -86c42 0 68 16 83 52h168z" />
    <glyph glyph-name="d" unicode="d" horiz-adv-x="632" 
d="M203 234c0 -53 39 -91 93 -91c52 0 94 38 94 91c0 52 -42 91 -94 91c-54 0 -93 -38 -93 -91zM318 719h237v-575h58v-144h-228v59c-35 -49 -79 -71 -137 -71c-125 0 -227 107 -227 249c0 151 97 249 219 249c55 0 101 -21 137 -63v153h-59v143z" />
    <glyph glyph-name="e" unicode="e" horiz-adv-x="553" 
d="M513 117c-54 -84 -133 -129 -229 -129c-157 0 -263 97 -263 250c0 143 106 248 262 248c142 0 247 -104 247 -261c0 -7 -1 -14 -1 -21h-323c4 -48 35 -78 75 -78c32 0 56 13 75 40zM206 282h155c-4 48 -30 73 -77 73s-74 -25 -78 -73z" />
    <glyph glyph-name="f" unicode="f" horiz-adv-x="359" 
d="M29 144h59v187h-59v144h59v66c0 72 3 119 30 146s71 33 139 33c25 0 52 -1 80 -3v-140c-6 0 -12 1 -18 1c-46 0 -52 -17 -52 -72v-31h59v-144h-59v-187h59v-144h-297v144z" />
    <glyph glyph-name="g" unicode="g" horiz-adv-x="633" 
d="M203 44c0 53 39 91 93 91c52 0 94 -38 94 -91c0 -52 -42 -91 -94 -91c-54 0 -93 38 -93 91zM555 201c0 102 -12 169 -66 220c-41 39 -116 65 -212 65c-94 0 -168 -15 -214 -39v-145c64 34 126 50 187 50c86 0 129 -35 129 -103c0 -9 -1 -18 -2 -27c-38 34 -81 49 -136 49
c-136 0 -220 -90 -220 -230c0 -150 94 -249 219 -249c56 0 99 20 137 62v-51h236v144h-58v254z" />
    <glyph glyph-name="h" unicode="h" horiz-adv-x="616" 
d="M79 576h-57v144h236v-306c49 48 95 72 145 72c53 0 94 -17 118 -50c19 -26 20 -60 20 -103v-12v-177h57v-144h-236v258c0 54 -8 80 -46 80c-47 0 -58 -33 -58 -101v-93h51v-144h-287v144h57v432z" />
    <glyph glyph-name="i" unicode="i" horiz-adv-x="339" 
d="M260 144h51v-144h-287v144h58v187h-58v144h236v-331zM44 540v154h216v-154h-216z" />
    <glyph glyph-name="j" unicode="j" horiz-adv-x="319" 
d="M42 540v154h216v-154h-216zM258 7c0 -66 -2 -114 -27 -151c-26 -39 -87 -65 -168 -65c-17 0 -33 1 -48 3v164h11c52 0 53 21 53 84v289h-57v144h236v-468z" />
    <glyph glyph-name="k" unicode="k" horiz-adv-x="613" 
d="M79 576h-58v144h236v-460l120 88h-65v127h264v-144h-40l-95 -72l116 -115h35v-144h-280v120h65l-120 103v-223h-236v144h58v432z" />
    <glyph glyph-name="l" unicode="l" horiz-adv-x="333" 
d="M79 576h-58v144h236v-576h51v-144h-287v144h58v432z" />
    <glyph glyph-name="m" unicode="m" horiz-adv-x="860" 
d="M255 414c44 51 83 72 142 72c55 0 91 -20 125 -69c40 46 78 69 125 69c53 0 94 -17 118 -50c18 -24 19 -55 19 -93v-22v-177h47v-144h-220v258c0 55 -8 81 -42 81c-42 0 -51 -34 -51 -102v-93h44v-144h-214v258c0 55 -8 81 -42 81c-42 0 -51 -34 -51 -102v-93h44v-144
h-264v144h47v187h-47v144h220v-61z" />
    <glyph glyph-name="n" unicode="n" horiz-adv-x="618" 
d="M260 414c49 48 96 72 146 72c53 0 93 -17 117 -50c19 -26 20 -60 20 -103v-12v-177h57v-144h-235v258c0 54 -9 80 -47 80c-47 0 -58 -33 -58 -101v-93h51v-144h-287v144h58v187h-58v144h236v-61z" />
    <glyph glyph-name="o" unicode="o" horiz-adv-x="569" 
d="M21 237c0 139 111 249 263 249c153 0 265 -110 265 -249s-113 -249 -265 -249c-151 0 -263 110 -263 249zM202 237c0 -48 36 -83 82 -83s83 34 83 83s-37 84 -83 84s-82 -35 -82 -84z" />
    <glyph glyph-name="p" unicode="p" horiz-adv-x="637" 
d="M260 475v-51c37 43 83 62 144 62c115 0 212 -99 212 -249c0 -141 -100 -249 -220 -249c-57 0 -99 17 -136 58v-111h62v-143h-298v143h58v396h-58v144h236zM434 234c0 53 -39 91 -93 91c-52 0 -94 -39 -94 -91c0 -53 42 -91 94 -91c54 0 93 38 93 91z" />
    <glyph glyph-name="q" unicode="q" horiz-adv-x="637" 
d="M314 -65h63v111c-37 -41 -79 -58 -136 -58c-120 0 -220 108 -220 249c0 150 97 249 212 249c61 0 107 -19 144 -62v51h236v-144h-58v-396h58v-143h-299v143zM203 234c0 -53 39 -91 93 -91c52 0 94 38 94 91c0 52 -42 91 -94 91c-54 0 -93 -38 -93 -91z" />
    <glyph glyph-name="r" unicode="r" horiz-adv-x="479" 
d="M260 394l7 2c15 56 50 87 97 87c56 0 95 -40 95 -100c0 -56 -40 -97 -96 -97c-43 0 -74 25 -94 76l-9 -3v-215h59v-144h-295v144h58v187h-58v144h236v-81z" />
    <glyph glyph-name="s" unicode="s" horiz-adv-x="525" 
d="M176 0h-123v144h117c27 -42 58 -63 97 -63c27 0 41 14 41 37c0 18 -13 27 -42 36l-76 24c-98 31 -147 66 -147 151c0 92 72 158 175 158c43 0 86 -13 123 -35v23h123v-144h-114c-12 42 -39 64 -79 64c-29 0 -46 -14 -46 -34c0 -22 19 -33 56 -45l53 -17
c105 -34 154 -61 154 -156c0 -93 -64 -155 -176 -155c-47 0 -89 14 -136 34v-22z" />
    <glyph glyph-name="t" unicode="t" horiz-adv-x="340" 
d="M313 0h-70c-116 0 -170 3 -170 112v219h-62v144h62v150h175v-150h60v-144h-60v-128c0 -47 10 -59 59 -59h6v-144z" />
    <glyph glyph-name="u" unicode="u" horiz-adv-x="606" 
d="M353 402c-49 48 -95 73 -145 73c-53 0 -93 -18 -117 -51c-19 -26 -20 -60 -20 -102v-12v-178h-58v-144h236v258c0 54 8 81 46 81c47 0 58 -33 58 -101v-94h-50v-144h229v144v187h58v144h-237v-61z" />
    <glyph glyph-name="v" unicode="v" horiz-adv-x="597" 
d="M194 475l-132 -331h-58v-144h269v144h-40l69 186l66 -186h-40v-144h265v144h-58l-132 331h-209z" />
    <glyph glyph-name="w" unicode="w" horiz-adv-x="808" 
d="M462 475l85 -299l46 155h-40v144h251v-144h-57l-102 -331h-181l-60 217l-60 -217h-182l-101 331h-58v144h255v-144h-40l45 -155l82 299h117z" />
    <glyph glyph-name="x" unicode="x" horiz-adv-x="593" 
d="M339 385v90h231v-144h-83l-66 -84l93 -103h62v-144h-234v117l-45 57l-44 -57v-117h-234v144h62l93 103l-66 84h-83v144h231v-90l41 -57z" />
    <glyph glyph-name="y" unicode="y" horiz-adv-x="604" 
d="M408 -209h-277v144h65l30 65l-160 331h-62v144h274v-144h-43l71 -164l69 164h-39v144h256v-144h-58l-184 -396h58v-144z" />
    <glyph glyph-name="z" unicode="z" horiz-adv-x="530" 
d="M487 0h-444v153l250 197h-121l-21 -57h-108v182h444v-150l-255 -201h128l15 62h112v-186z" />
    <glyph glyph-name="braceleft" unicode="{" 
d="M436 721v-118c-7 0 -14 1 -20 1c-68 0 -81 -21 -81 -89v-117c0 -85 -20 -122 -103 -139c84 -17 103 -53 103 -138v-118c0 -67 13 -88 80 -88c7 0 14 1 21 1v-118c-14 0 -27 -1 -40 -1c-64 0 -112 6 -146 24c-47 25 -52 68 -52 137v125c0 86 -28 118 -106 118
c-5 0 -12 -1 -18 -1v118c6 0 12 -1 18 -1c78 0 106 34 106 119v124c0 69 5 113 52 138c34 18 83 24 147 24c12 0 25 -1 39 -1z" />
    <glyph glyph-name="bar" unicode="|" 
d="M192 764h117v-1000h-117v1000z" />
    <glyph glyph-name="braceright" unicode="}" 
d="M65 721c14 0 27 1 39 1c64 0 112 -6 147 -24c47 -25 52 -69 52 -138v-124c0 -86 28 -119 106 -119c6 0 12 1 18 1v-118c-6 0 -12 1 -18 1c-78 0 -106 -33 -106 -118v-125c0 -69 -5 -113 -52 -138c-33 -18 -80 -23 -142 -23c-14 0 -29 1 -44 1v118c8 0 15 -1 21 -1
c68 0 80 21 80 88v118c0 84 19 121 103 138c-84 17 -103 54 -103 139v117c0 66 -12 89 -78 89c-7 0 -15 -1 -23 -1v118z" />
    <glyph glyph-name="asciitilde" unicode="~" horiz-adv-x="833" 
d="M747 400v-124c-64 -44 -124 -67 -184 -67c-30 0 -59 5 -84 14c-72 25 -137 50 -205 50c-59 0 -117 -27 -187 -77v124c71 46 133 70 189 70s101 -14 144 -28c48 -16 94 -36 146 -36c58 0 115 26 181 74z" />
    <glyph glyph-name="exclamdown" unicode="&#xa1;" horiz-adv-x="359" 
d="M78 634c0 57 44 100 101 100c58 0 101 -43 101 -100s-43 -100 -101 -100c-57 0 -101 43 -101 100zM84 2l16 464h158l16 -464h-190z" />
    <glyph glyph-name="cent" unicode="&#xa2;" horiz-adv-x="556" 
d="M265 147c9 -2 17 -3 25 -3c47 0 81 28 87 71h145c-12 -128 -112 -215 -232 -215c-16 0 -34 2 -53 4l-36 -127h-67l40 143c-93 39 -145 121 -145 233c0 143 99 241 221 241c19 0 37 -2 53 -6l34 120h67l-42 -149c14 -8 27 -20 40 -36v62h112v-201h-145
c-9 31 -25 51 -49 58zM223 153l57 200c-4 0 -8 1 -12 1c-53 0 -91 -44 -91 -113c0 -43 16 -73 46 -88z" />
    <glyph glyph-name="sterling" unicode="&#xa3;" horiz-adv-x="556" 
d="M32 -13v170c63 18 89 56 89 125v37h-87v88h73c-12 54 -18 93 -18 118c0 110 85 190 213 190c130 0 216 -82 216 -193c0 -6 0 -15 -1 -25h-157c0 52 -14 76 -51 76c-34 0 -55 -22 -55 -56c0 -15 8 -51 21 -110h125v-88h-114c2 -18 2 -34 2 -47c0 -41 -8 -76 -27 -107
c28 -20 50 -30 70 -30c38 0 57 22 58 67h158v-18c0 -127 -63 -198 -178 -198c-68 0 -127 25 -174 73c-38 -43 -90 -65 -163 -72z" />
    <glyph glyph-name="fraction" unicode="&#x2044;" horiz-adv-x="167" 
d="M-167 -14l415 729h85l-415 -729h-85z" />
    <glyph glyph-name="yen" unicode="&#xa5;" horiz-adv-x="631" 
d="M166 0v131h63v99h-200v82h168l-45 79h-123v82h76l-55 95h-50v129h283v-129h-52l89 -185l87 185h-54v129h278v-129h-50l-57 -95h76v-82h-123l-46 -79h169v-82h-200v-99h66v-131h-300z" />
    <glyph glyph-name="florin" unicode="&#x192;" horiz-adv-x="556" 
d="M9 -31c30 -9 52 -13 64 -13c45 0 69 29 77 89l34 262h-114v105h126l12 90c20 144 91 214 218 214c36 0 73 -6 112 -18l-22 -140c-31 10 -56 15 -74 15c-58 0 -72 -37 -82 -126l-4 -35h128v-105h-141l-24 -205c-24 -204 -83 -294 -221 -294c-36 0 -71 6 -108 16z" />
    <glyph glyph-name="section" unicode="&#xa7;" horiz-adv-x="556" 
d="M95 56h116v-54h38c33 0 49 6 49 27c0 22 -32 52 -86 102l-76 71c-69 64 -104 120 -104 183c0 71 54 128 131 130c-21 27 -32 55 -32 83c0 69 62 122 161 122h185v-164h-116v54h-38c-39 0 -57 -7 -57 -28c0 -28 36 -53 92 -105l77 -72c58 -54 88 -103 88 -165
c0 -82 -50 -141 -118 -141c26 -31 38 -63 38 -94c0 -77 -60 -116 -179 -116h-169v167zM355 300l-89 87c-24 23 -43 36 -63 36c-25 0 -42 -17 -42 -39c0 -15 15 -37 44 -66l89 -88c24 -23 42 -36 62 -36c25 0 42 17 42 39c0 15 -14 38 -43 67z" />
    <glyph glyph-name="currency" unicode="&#xa4;" horiz-adv-x="606" 
d="M87 705l99 -98c32 22 70 36 117 36c45 0 85 -12 119 -36l98 98l58 -57l-98 -100c23 -35 34 -73 34 -116c0 -42 -11 -81 -34 -116l98 -99l-58 -58l-98 99c-35 -25 -73 -36 -118 -36s-82 11 -118 36l-99 -99l-57 58l98 99c-23 34 -35 72 -35 116s12 83 35 116l-98 100z
M304 559c-70 0 -127 -58 -127 -127c0 -70 56 -127 127 -127c70 0 127 57 127 127c0 69 -57 127 -127 127z" />
    <glyph glyph-name="quotesingle" unicode="'" horiz-adv-x="181" 
d="M37 702h107v-274h-107v274z" />
    <glyph glyph-name="quotedblleft" unicode="&#x201c;" horiz-adv-x="535" 
d="M176 500h-154l65 220h157zM441 500h-154l65 220h157z" />
    <glyph glyph-name="guillemotleft" unicode="&#xab;" horiz-adv-x="588" 
d="M547 75h-138l-136 162l136 162h138l-135 -162zM323 75h-139l-135 162l135 162h139l-136 -162z" />
    <glyph glyph-name="guilsinglleft" unicode="&#x2039;" horiz-adv-x="363" 
d="M323 75h-139l-135 162l135 162h139l-136 -162z" />
    <glyph glyph-name="guilsinglright" unicode="&#x203a;" horiz-adv-x="363" 
d="M41 75l135 162l-135 162h138l136 -162l-136 -162h-138z" />
    <glyph glyph-name="fi" unicode="&#xfb01;" horiz-adv-x="681" 
d="M606 144h51v-144h-287v144h58v187h-58v144h236v-331zM390 540v154h216v-154h-216zM29 144h59v187h-59v144h59v66c0 72 3 119 30 146s71 33 139 33c25 0 52 -1 80 -3v-140c-6 0 -12 1 -18 1c-46 0 -52 -17 -52 -72v-31h59v-144h-59v-187h59v-144h-297v144z" />
    <glyph glyph-name="fl" unicode="&#xfb02;" horiz-adv-x="681" 
d="M428 576h-58v144h236v-576h51v-144h-287v144h58v432zM29 144h59v187h-59v144h59v66c0 72 3 119 30 146s71 33 139 33c25 0 52 -1 80 -3v-140c-6 0 -12 1 -18 1c-46 0 -52 -17 -52 -72v-31h59v-144h-59v-187h59v-144h-297v144z" />
    <glyph glyph-name="endash" unicode="&#x2013;" 
d="M0 190v118h500v-118h-500z" />
    <glyph glyph-name="dagger" unicode="&#x2020;" horiz-adv-x="556" 
d="M215 -117v488h-81v-51h-106v214h106v-54h81v136h-52v104h229v-104h-52v-136h81v54h107v-214h-107v51h-81v-488h-125z" />
    <glyph glyph-name="daggerdbl" unicode="&#x2021;" horiz-adv-x="556" 
d="M340 201h81v51h107v-214h-107v54h-81v-105h52v-104h-229v104h52v105h-81v-54h-106v214h106v-51h81v201h-81v-51h-106v213h106v-53h81v105h-52v104h229v-104h-52v-105h81v53h107v-213h-107v51h-81v-201z" />
    <glyph glyph-name="periodcentered" unicode="&#xb7;" horiz-adv-x="278" 
d="M139 258c-57 0 -101 42 -101 99s44 101 101 101c58 0 101 -44 101 -101s-43 -99 -101 -99z" />
    <glyph glyph-name="paragraph" unicode="&#xb6;" 
d="M487 722v-60h-52v-662h-85v662h-74v-662h-85v383c-109 4 -177 73 -177 169c0 100 72 170 190 170h283z" />
    <glyph glyph-name="bullet" unicode="&#x2022;" horiz-adv-x="590" 
d="M150 372c0 80 65 144 145 144c79 0 144 -64 144 -144c0 -79 -65 -145 -145 -145s-144 65 -144 145z" />
    <glyph glyph-name="quotesinglbase" unicode="&#x201a;" horiz-adv-x="270" 
d="M176 -79h-154l65 220h157z" />
    <glyph glyph-name="quotedblbase" unicode="&#x201e;" horiz-adv-x="535" 
d="M441 -79h-154l65 220h157zM176 -79h-154l65 220h157z" />
    <glyph glyph-name="quotedblright" unicode="&#x201d;" horiz-adv-x="535" 
d="M176 500h-154l65 220h157zM441 500h-154l65 220h157z" />
    <glyph glyph-name="guillemotright" unicode="&#xbb;" horiz-adv-x="588" 
d="M41 75l135 162l-135 162h138l136 -162l-136 -162h-138zM265 75l136 162l-136 162h139l135 -162l-135 -162h-139z" />
    <glyph glyph-name="ellipsis" unicode="&#x2026;" horiz-adv-x="1000" 
d="M167 -12c-57 0 -101 43 -101 100s44 100 101 100c58 0 101 -43 101 -100s-43 -100 -101 -100zM500 -12c-57 0 -101 43 -101 100s44 100 101 100c58 0 101 -43 101 -100s-43 -100 -101 -100zM834 -12c-57 0 -101 43 -101 100s44 100 101 100c58 0 101 -43 101 -100
s-43 -100 -101 -100z" />
    <glyph glyph-name="perthousand" unicode="&#x2030;" horiz-adv-x="1343" 
d="M392 516c0 -105 -82 -185 -186 -185c-103 0 -186 81 -186 185s83 185 186 185s186 -80 186 -185zM206 456c33 0 60 26 60 60s-27 60 -60 60s-59 -26 -59 -60c0 -33 26 -60 59 -60zM630 715h88l-445 -729h-88zM882 185c0 -105 -82 -185 -186 -185c-103 0 -185 81 -185 185
s82 186 185 186s186 -81 186 -186zM697 125c33 0 59 26 59 60s-26 60 -59 60s-60 -26 -60 -60c0 -33 27 -60 60 -60zM1322 185c0 -105 -81 -185 -185 -185c-103 0 -186 81 -186 185s83 186 186 186s185 -81 185 -186zM1137 125c33 0 60 26 60 60s-27 60 -60 60
s-59 -26 -59 -60c0 -33 26 -60 59 -60z" />
    <glyph glyph-name="questiondown" unicode="&#xbf;" horiz-adv-x="602" 
d="M323 734c57 0 101 -43 101 -100s-44 -100 -101 -100c-58 0 -101 43 -101 100s43 100 101 100zM405 466v-175c-7 0 -16 1 -27 1c-90 0 -133 -25 -133 -86c0 -42 22 -65 63 -65c42 0 69 28 70 74h174c1 -6 2 -14 2 -21c0 -53 -31 -110 -89 -154c-45 -34 -101 -52 -163 -52
c-143 0 -239 91 -239 222c0 119 68 199 176 207v49h166z" />
    <glyph glyph-name="grave" unicode="`" 
d="M101 540h140l94 181h-75z" />
    <glyph glyph-name="acute" unicode="&#xb4;" 
d="M399 721l-159 -181h-75l94 181h140z" />
    <glyph glyph-name="circumflex" unicode="&#x2c6;" 
d="M93 540l94 181h125l94 -181h-75l-81 97l-82 -97h-75z" />
    <glyph glyph-name="tilde" unicode="&#x2dc;" 
d="M412 699c-19 -84 -51 -124 -107 -124c-12 0 -24 2 -37 6l-45 13c-15 4 -26 6 -33 6c-22 0 -35 -12 -44 -38h-58c18 81 51 120 105 120c11 0 26 -2 44 -7l46 -13c9 -3 18 -5 28 -5c21 0 36 14 43 42h58z" />
    <glyph glyph-name="macron" unicode="&#xaf;" 
d="M100 589v83h300v-83h-300z" />
    <glyph glyph-name="breve" unicode="&#x2d8;" 
d="M96 705h64c4 -47 33 -68 90 -68c58 0 87 22 89 68h64c-8 -103 -55 -150 -153 -150c-97 0 -147 48 -154 150z" />
    <glyph glyph-name="dotaccent" unicode="&#x2d9;" 
d="M187 562v137h127v-137h-127z" />
    <glyph glyph-name="dieresis" unicode="&#xa8;" 
d="M100 565v132h122v-132h-122zM277 565v132h123v-132h-123z" />
    <glyph glyph-name="ring" unicode="&#x2da;" 
d="M118 664c0 74 58 132 132 132s133 -58 133 -132s-59 -133 -133 -133s-132 58 -132 133zM194 663c0 -31 24 -55 56 -55c31 0 56 24 56 55s-25 56 -56 56s-56 -25 -56 -56z" />
    <glyph glyph-name="cedilla" unicode="&#xb8;" 
d="M133 -214v67c58 -16 103 -22 132 -22c28 0 42 11 42 35c0 22 -19 31 -58 31c-8 0 -17 0 -27 -1v104h56v-41h9c73 0 112 -34 112 -94c0 -64 -44 -102 -124 -102c-39 0 -86 8 -142 23z" />
    <glyph glyph-name="hungarumlaut" unicode="&#x2dd;" 
d="M194 721h120l-123 -181h-54zM278 540l76 181h124l-142 -181h-58z" />
    <glyph glyph-name="ogonek" unicode="&#x2db;" 
d="M309 0c-38 -35 -58 -64 -58 -96c0 -27 12 -39 37 -39h50v-93h-36c-94 0 -140 22 -140 96c0 50 30 91 94 132h53z" />
    <glyph glyph-name="caron" unicode="&#x2c7;" 
d="M93 721h75l82 -97l81 97h75l-94 -181h-125z" />
    <glyph glyph-name="emdash" unicode="&#x2014;" horiz-adv-x="1000" 
d="M0 308h1000v-118h-1000v118z" />
    <glyph glyph-name="AE" unicode="&#xc6;" horiz-adv-x="1119" 
d="M508 239h-213l-46 -95h69v-144h-318v144h52l240 432h-77v144h858v-261h-125l-43 117h-213v-117h142v-160h-142v-155h213l43 140h125v-284h-638v144h73v95zM508 367v219h-45l-105 -219h150z" />
    <glyph glyph-name="ordfeminine" unicode="&#xaa;" horiz-adv-x="478" 
d="M152 552c0 -37 30 -64 70 -64c39 0 71 27 71 64c0 36 -32 63 -71 63c-40 0 -70 -26 -70 -63zM416 489h44v-101h-170v43c-24 -35 -58 -51 -104 -51c-94 0 -170 74 -170 174c0 106 70 174 168 174c47 0 82 -17 106 -50v42h170v-100h-44v-131z" />
    <glyph glyph-name="Lslash" unicode="&#x141;" horiz-adv-x="648" 
d="M24 0v144h73v101l-97 -57v150l97 55v183h-73v144h333v-144h-72v-104l124 70v-148l-124 -73v-177h184l43 140h122v-284h-610z" />
    <glyph glyph-name="Oslash" unicode="&#xd8;" horiz-adv-x="819" 
d="M254 240l239 304c-23 14 -50 21 -83 21c-106 0 -191 -85 -191 -205c0 -45 11 -84 35 -120zM565 483l-241 -307c30 -13 59 -20 86 -20c108 0 190 83 190 204c0 48 -10 88 -35 123zM663 765h126l-105 -136c74 -74 110 -163 110 -269c0 -110 -45 -210 -129 -283
c-68 -60 -156 -91 -256 -91c-70 0 -131 15 -191 47l-63 -77h-127l107 137c-71 71 -110 165 -110 267c0 112 44 209 129 283c70 62 157 91 263 91c79 0 137 -18 183 -46z" />
    <glyph glyph-name="OE" unicode="&#x152;" horiz-adv-x="1088" 
d="M461 0c-110 0 -200 13 -280 59c-95 55 -155 167 -155 301c0 135 60 247 160 308c71 43 159 52 275 52h581v-261h-125l-43 117h-207v-117h142v-160h-142v-155h207l43 140h125v-284h-581zM481 219v281c0 56 -7 76 -68 76c-113 0 -193 -87 -193 -217
c0 -126 80 -216 193 -216c61 0 68 20 68 76z" />
    <glyph glyph-name="ordmasculine" unicode="&#xba;" horiz-adv-x="427" 
d="M16 554c0 97 83 174 197 174c115 0 199 -77 199 -174s-85 -174 -199 -174c-113 0 -197 77 -197 174zM152 554c0 -34 27 -58 61 -58c35 0 62 24 62 58s-27 59 -62 59c-34 0 -61 -25 -61 -59z" />
    <glyph glyph-name="ae" unicode="&#xe6;" horiz-adv-x="861" 
d="M508 204c4 -49 33 -78 80 -78c32 0 56 13 75 40l158 -49c-56 -87 -133 -129 -238 -129c-66 0 -119 18 -163 56c-52 -37 -116 -56 -192 -56c-129 0 -205 62 -205 155s79 166 191 166c50 0 94 -13 129 -38v11c0 64 -34 90 -111 90c-33 0 -74 -10 -123 -28v114
c51 18 106 28 164 28c69 0 119 -16 153 -52c46 35 100 52 165 52c142 0 247 -104 247 -261c0 -7 -1 -14 -1 -21h-329zM190 152c0 -29 30 -53 78 -53c47 0 77 23 77 53c0 29 -30 53 -76 53c-49 0 -79 -23 -79 -53zM508 282h161c-4 49 -33 75 -81 75s-76 -26 -80 -75z" />
    <glyph glyph-name="dotlessi" unicode="&#x131;" horiz-adv-x="339" 
d="M260 144h51v-144h-287v144h58v187h-58v144h236v-331z" />
    <glyph glyph-name="lslash" unicode="&#x142;" horiz-adv-x="343" 
d="M84 258l-85 -59v138l85 59v180h-58v144h236v-246l84 59v-138l-84 -59v-192h51v-144h-287v144h58v114z" />
    <glyph glyph-name="oslash" unicode="&#xf8;" horiz-adv-x="569" 
d="M202 237c0 -48 36 -83 82 -83s83 34 83 83s-37 84 -83 84s-82 -35 -82 -84zM95 62c-50 50 -74 108 -74 175c0 139 111 249 263 249c44 0 83 -9 122 -26l71 89h102l-106 -135c50 -49 76 -109 76 -177c0 -139 -113 -249 -265 -249c-45 0 -85 9 -123 28l-70 -88h-103z" />
    <glyph glyph-name="oe" unicode="&#x153;" horiz-adv-x="884" 
d="M531 204c4 -49 34 -78 81 -78c32 0 56 13 75 40l157 -49c-56 -87 -134 -129 -238 -129c-59 0 -111 17 -157 51c-50 -34 -103 -51 -164 -51c-151 0 -264 110 -264 249s111 249 264 249c64 0 119 -18 165 -52c46 35 99 52 164 52c142 0 247 -104 247 -261
c0 -7 -1 -14 -1 -21h-329zM531 282h161c-4 49 -32 75 -80 75s-77 -26 -81 -75zM203 237c0 -48 36 -83 82 -83s83 34 83 83s-37 84 -83 84s-82 -35 -82 -84z" />
    <glyph glyph-name="germandbls" unicode="&#xdf;" horiz-adv-x="626" 
d="M19 0v144h54v360c0 148 83 225 244 225c129 0 211 -71 211 -176c0 -58 -27 -106 -83 -145c101 -25 154 -97 154 -209c0 -134 -71 -211 -186 -211c-32 0 -64 7 -97 20l24 143c5 0 10 -1 15 -1c43 0 63 22 63 72c0 65 -34 96 -109 101v143c39 4 58 25 58 61
c0 33 -22 54 -58 54c-55 0 -58 -38 -58 -112v-469h-232z" />
    <glyph glyph-name="Aacute" unicode="&#xc1;" horiz-adv-x="759" 
d="M310 369h139l-70 228zM2 0v144h61l134 432h-71v144h507v-144h-70l133 -432h62v-144h-315v144h64l-29 97h-197l-27 -97h63v-144h-315zM529 955l-159 -181h-75l94 181h140z" />
    <glyph glyph-name="Acircumflex" unicode="&#xc2;" horiz-adv-x="759" 
d="M310 369h139l-70 228zM2 0v144h61l134 432h-71v144h507v-144h-70l133 -432h62v-144h-315v144h64l-29 97h-197l-27 -97h63v-144h-315zM223 774l94 181h125l94 -181h-75l-81 97l-82 -97h-75z" />
    <glyph glyph-name="Adieresis" unicode="&#xc4;" horiz-adv-x="759" 
d="M310 369h139l-70 228zM2 0v144h61l134 432h-71v144h507v-144h-70l133 -432h62v-144h-315v144h64l-29 97h-197l-27 -97h63v-144h-315zM230 799v132h122v-132h-122zM407 799v132h123v-132h-123z" />
    <glyph glyph-name="Agrave" unicode="&#xc0;" horiz-adv-x="759" 
d="M310 369h139l-70 228zM2 0v144h61l134 432h-71v144h507v-144h-70l133 -432h62v-144h-315v144h64l-29 97h-197l-27 -97h63v-144h-315zM231 955h140l94 -181h-75z" />
    <glyph glyph-name="Aring" unicode="&#xc5;" horiz-adv-x="759" 
d="M2 0v144h61l134 432h-71v144h507v-144h-70l133 -432h62v-144h-315v144h64l-29 97h-197l-27 -97h63v-144h-315zM350 856c0 -22 17 -39 39 -39c21 0 38 18 38 39s-17 38 -38 38s-39 -17 -39 -38zM281 855c0 60 47 108 107 108s108 -48 108 -108s-48 -107 -108 -107
s-107 47 -107 107zM310 369h139l-70 228z" />
    <glyph glyph-name="Atilde" unicode="&#xc3;" horiz-adv-x="759" 
d="M310 369h139l-70 228zM2 0v144h61l134 432h-71v144h507v-144h-70l133 -432h62v-144h-315v144h64l-29 97h-197l-27 -97h63v-144h-315zM542 933c-19 -84 -51 -124 -107 -124c-12 0 -24 2 -37 6l-45 13c-15 4 -26 6 -33 6c-22 0 -35 -12 -44 -38h-58c18 81 51 120 105 120
c11 0 26 -2 44 -7l46 -13c9 -3 18 -5 28 -5c21 0 36 14 43 42h58z" />
    <glyph glyph-name="Ccedilla" unicode="&#xc7;" horiz-adv-x="793" 
d="M584 264h200c-52 -173 -194 -278 -375 -278c-100 0 -186 31 -255 91c-84 74 -129 172 -129 283c0 112 45 209 129 283c69 60 155 91 255 91c80 0 148 -27 197 -78v64h168v-277h-182c-30 77 -91 118 -175 118c-114 0 -194 -83 -194 -201s82 -200 187 -200
c78 0 135 34 174 104zM289 -214v67c58 -16 103 -22 132 -22c28 0 42 11 42 35c0 22 -19 31 -58 31c-8 0 -17 0 -27 -1v104h56v-41h9c73 0 112 -34 112 -94c0 -64 -44 -102 -124 -102c-39 0 -86 8 -142 23z" />
    <glyph glyph-name="Eacute" unicode="&#xc9;" horiz-adv-x="715" 
d="M24 0v144h73v432h-73v144h646v-261h-125l-44 117h-216v-117h142v-160h-142v-155h216l44 140h125v-284h-646zM519 955l-159 -181h-75l94 181h140z" />
    <glyph glyph-name="Ecircumflex" unicode="&#xca;" horiz-adv-x="715" 
d="M24 0v144h73v432h-73v144h646v-261h-125l-44 117h-216v-117h142v-160h-142v-155h216l44 140h125v-284h-646zM213 774l94 181h125l94 -181h-75l-81 97l-82 -97h-75z" />
    <glyph glyph-name="Edieresis" unicode="&#xcb;" horiz-adv-x="715" 
d="M24 0v144h73v432h-73v144h646v-261h-125l-44 117h-216v-117h142v-160h-142v-155h216l44 140h125v-284h-646zM220 799v132h122v-132h-122zM397 799v132h123v-132h-123z" />
    <glyph glyph-name="Egrave" unicode="&#xc8;" horiz-adv-x="715" 
d="M24 0v144h73v432h-73v144h646v-261h-125l-44 117h-216v-117h142v-160h-142v-155h216l44 140h125v-284h-646zM221 955h140l94 -181h-75z" />
    <glyph glyph-name="Iacute" unicode="&#xcd;" horiz-adv-x="384" 
d="M24 0v144h73v432h-73v144h336v-144h-76v-432h76v-144h-336zM341 955l-159 -181h-75l94 181h140z" />
    <glyph glyph-name="Icircumflex" unicode="&#xce;" horiz-adv-x="384" 
d="M24 0v144h73v432h-73v144h336v-144h-76v-432h76v-144h-336zM35 774l94 181h125l94 -181h-75l-81 97l-82 -97h-75z" />
    <glyph glyph-name="Idieresis" unicode="&#xcf;" horiz-adv-x="384" 
d="M24 0v144h73v432h-73v144h336v-144h-76v-432h76v-144h-336zM42 799v132h122v-132h-122zM219 799v132h123v-132h-123z" />
    <glyph glyph-name="Igrave" unicode="&#xcc;" horiz-adv-x="384" 
d="M24 0v144h73v432h-73v144h336v-144h-76v-432h76v-144h-336zM43 955h140l94 -181h-75z" />
    <glyph glyph-name="Ntilde" unicode="&#xd1;" horiz-adv-x="778" 
d="M24 0v144h73v432h-73v144h256l240 -397l-6 253h-77v144h331v-144h-72v-576h-156l-265 434l4 -290h76v-144h-331zM551 933c-19 -84 -51 -124 -107 -124c-12 0 -24 2 -37 6l-45 13c-15 4 -26 6 -33 6c-22 0 -35 -12 -44 -38h-58c18 81 51 120 105 120c11 0 26 -2 44 -7
l46 -13c9 -3 18 -5 28 -5c21 0 36 14 43 42h58z" />
    <glyph glyph-name="Oacute" unicode="&#xd3;" horiz-adv-x="819" 
d="M25 360c0 112 44 209 129 283c69 60 154 91 255 91s187 -31 256 -91c84 -74 129 -172 129 -283s-45 -209 -129 -283c-69 -60 -155 -91 -256 -91c-100 0 -186 31 -255 91c-84 74 -129 172 -129 283zM223 360c0 -118 82 -200 187 -200s187 81 187 200s-82 201 -187 201
c-104 0 -187 -83 -187 -201zM559 955l-159 -181h-75l94 181h140z" />
    <glyph glyph-name="Ocircumflex" unicode="&#xd4;" horiz-adv-x="819" 
d="M25 360c0 112 44 209 129 283c69 60 154 91 255 91s187 -31 256 -91c84 -74 129 -172 129 -283s-45 -209 -129 -283c-69 -60 -155 -91 -256 -91c-100 0 -186 31 -255 91c-84 74 -129 172 -129 283zM223 360c0 -118 82 -200 187 -200s187 81 187 200s-82 201 -187 201
c-104 0 -187 -83 -187 -201zM253 774l94 181h125l94 -181h-75l-81 97l-82 -97h-75z" />
    <glyph glyph-name="Odieresis" unicode="&#xd6;" horiz-adv-x="819" 
d="M25 360c0 112 44 209 129 283c69 60 154 91 255 91s187 -31 256 -91c84 -74 129 -172 129 -283s-45 -209 -129 -283c-69 -60 -155 -91 -256 -91c-100 0 -186 31 -255 91c-84 74 -129 172 -129 283zM223 360c0 -118 82 -200 187 -200s187 81 187 200s-82 201 -187 201
c-104 0 -187 -83 -187 -201zM260 799v132h122v-132h-122zM437 799v132h123v-132h-123z" />
    <glyph glyph-name="Ograve" unicode="&#xd2;" horiz-adv-x="819" 
d="M25 360c0 112 44 209 129 283c69 60 154 91 255 91s187 -31 256 -91c84 -74 129 -172 129 -283s-45 -209 -129 -283c-69 -60 -155 -91 -256 -91c-100 0 -186 31 -255 91c-84 74 -129 172 -129 283zM223 360c0 -118 82 -200 187 -200s187 81 187 200s-82 201 -187 201
c-104 0 -187 -83 -187 -201zM261 955h140l94 -181h-75z" />
    <glyph glyph-name="Otilde" unicode="&#xd5;" horiz-adv-x="819" 
d="M25 360c0 112 44 209 129 283c69 60 154 91 255 91s187 -31 256 -91c84 -74 129 -172 129 -283s-45 -209 -129 -283c-69 -60 -155 -91 -256 -91c-100 0 -186 31 -255 91c-84 74 -129 172 -129 283zM223 360c0 -118 82 -200 187 -200s187 81 187 200s-82 201 -187 201
c-104 0 -187 -83 -187 -201zM572 933c-19 -84 -51 -124 -107 -124c-12 0 -24 2 -37 6l-45 13c-15 4 -26 6 -33 6c-22 0 -35 -12 -44 -38h-58c18 81 51 120 105 120c11 0 26 -2 44 -7l46 -13c9 -3 18 -5 28 -5c21 0 36 14 43 42h58z" />
    <glyph glyph-name="Scaron" unicode="&#x160;" horiz-adv-x="683" 
d="M197 75l4 -75h-157v244h167c52 -72 97 -107 159 -107c49 0 80 26 80 63c0 36 -29 59 -86 68l-77 13c-166 27 -248 101 -248 226c0 129 104 228 244 228c74 0 130 -26 170 -79l-3 64h158v-227h-158c-39 69 -81 103 -132 103c-45 0 -77 -27 -77 -62c0 -38 33 -57 100 -70
l66 -12c164 -31 245 -103 245 -227c0 -143 -96 -239 -248 -239c-85 0 -153 29 -207 89zM185 955h75l82 -97l81 97h75l-94 -181h-125z" />
    <glyph glyph-name="Uacute" unicode="&#xda;" horiz-adv-x="762" 
d="M80 249v327h-73v144h336v-144h-76v-301c0 -76 41 -115 114 -115s113 39 113 115v301h-75v144h335v-144h-72v-327c0 -162 -115 -263 -301 -263s-301 101 -301 263zM530 955l-159 -181h-75l94 181h140z" />
    <glyph glyph-name="Ucircumflex" unicode="&#xdb;" horiz-adv-x="762" 
d="M80 249v327h-73v144h336v-144h-76v-301c0 -76 41 -115 114 -115s113 39 113 115v301h-75v144h335v-144h-72v-327c0 -162 -115 -263 -301 -263s-301 101 -301 263zM224 774l94 181h125l94 -181h-75l-81 97l-82 -97h-75z" />
    <glyph glyph-name="Udieresis" unicode="&#xdc;" horiz-adv-x="762" 
d="M80 249v327h-73v144h336v-144h-76v-301c0 -76 41 -115 114 -115s113 39 113 115v301h-75v144h335v-144h-72v-327c0 -162 -115 -263 -301 -263s-301 101 -301 263zM231 799v132h122v-132h-122zM408 799v132h123v-132h-123z" />
    <glyph glyph-name="Ugrave" unicode="&#xd9;" horiz-adv-x="762" 
d="M80 249v327h-73v144h336v-144h-76v-301c0 -76 41 -115 114 -115s113 39 113 115v301h-75v144h335v-144h-72v-327c0 -162 -115 -263 -301 -263s-301 101 -301 263zM232 955h140l94 -181h-75z" />
    <glyph glyph-name="Ydieresis" unicode="&#x178;" horiz-adv-x="734" 
d="M199 0v144h73v122l-208 310h-56v144h316v-144h-58l104 -170l103 170h-57v144h309v-144h-55l-211 -310v-122h76v-144h-336zM217 799v132h122v-132h-122zM394 799v132h123v-132h-123z" />
    <glyph glyph-name="Zcaron" unicode="&#x17d;" horiz-adv-x="679" 
d="M34 0v144l375 437h-186l-38 -110h-139v249h593v-133l-389 -448h227l35 143h132v-282h-610zM183 955h75l82 -97l81 97h75l-94 -181h-125z" />
    <glyph glyph-name="aacute" unicode="&#xe1;" horiz-adv-x="637" 
d="M203 234c0 -53 39 -91 93 -91c52 0 94 38 94 91c0 52 -42 91 -94 91c-54 0 -93 -38 -93 -91zM555 144h58v-144h-227v61c-32 -49 -77 -73 -138 -73c-126 0 -227 107 -227 249c0 151 94 249 224 249c63 0 110 -24 141 -72v61h227v-144h-58v-187zM499 721l-159 -181h-75
l94 181h140z" />
    <glyph glyph-name="acircumflex" unicode="&#xe2;" horiz-adv-x="637" 
d="M203 234c0 -53 39 -91 93 -91c52 0 94 38 94 91c0 52 -42 91 -94 91c-54 0 -93 -38 -93 -91zM555 144h58v-144h-227v61c-32 -49 -77 -73 -138 -73c-126 0 -227 107 -227 249c0 151 94 249 224 249c63 0 110 -24 141 -72v61h227v-144h-58v-187zM193 540l94 181h125
l94 -181h-75l-81 97l-82 -97h-75z" />
    <glyph glyph-name="adieresis" unicode="&#xe4;" horiz-adv-x="637" 
d="M203 234c0 -53 39 -91 93 -91c52 0 94 38 94 91c0 52 -42 91 -94 91c-54 0 -93 -38 -93 -91zM555 144h58v-144h-227v61c-32 -49 -77 -73 -138 -73c-126 0 -227 107 -227 249c0 151 94 249 224 249c63 0 110 -24 141 -72v61h227v-144h-58v-187zM200 565v132h122v-132h-122
zM377 565v132h123v-132h-123z" />
    <glyph glyph-name="agrave" unicode="&#xe0;" horiz-adv-x="637" 
d="M203 234c0 -53 39 -91 93 -91c52 0 94 38 94 91c0 52 -42 91 -94 91c-54 0 -93 -38 -93 -91zM555 144h58v-144h-227v61c-32 -49 -77 -73 -138 -73c-126 0 -227 107 -227 249c0 151 94 249 224 249c63 0 110 -24 141 -72v61h227v-144h-58v-187zM201 721h140l94 -181h-75z
" />
    <glyph glyph-name="aring" unicode="&#xe5;" horiz-adv-x="637" 
d="M555 144h58v-144h-227v61c-32 -49 -77 -73 -138 -73c-126 0 -227 107 -227 249c0 151 94 249 224 249c63 0 110 -24 141 -72v61h227v-144h-58v-187zM203 234c0 -53 39 -91 93 -91c52 0 94 38 94 91c0 52 -42 91 -94 91c-54 0 -93 -38 -93 -91zM230 612
c0 60 48 108 108 108s107 -48 107 -108s-47 -107 -107 -107s-108 47 -108 107zM300 612c0 -22 16 -38 38 -38c21 0 38 17 38 38s-17 39 -38 39s-38 -18 -38 -39z" />
    <glyph glyph-name="atilde" unicode="&#xe3;" horiz-adv-x="637" 
d="M203 234c0 -53 39 -91 93 -91c52 0 94 38 94 91c0 52 -42 91 -94 91c-54 0 -93 -38 -93 -91zM555 144h58v-144h-227v61c-32 -49 -77 -73 -138 -73c-126 0 -227 107 -227 249c0 151 94 249 224 249c63 0 110 -24 141 -72v61h227v-144h-58v-187zM512 699
c-19 -84 -51 -124 -107 -124c-12 0 -24 2 -37 6l-45 13c-15 4 -26 6 -33 6c-22 0 -35 -12 -44 -38h-58c18 81 51 120 105 120c11 0 26 -2 44 -7l46 -13c9 -3 18 -5 28 -5c21 0 36 14 43 42h58z" />
    <glyph glyph-name="ccedilla" unicode="&#xe7;" horiz-adv-x="569" 
d="M535 205c-21 -138 -116 -217 -259 -217c-152 0 -255 104 -255 251c0 145 101 246 237 246c59 0 103 -21 123 -55v45h142v-201h-156c-14 34 -42 52 -80 52c-50 0 -84 -35 -84 -87c0 -53 31 -86 81 -86c42 0 68 16 83 52h168zM155 -214v67c58 -16 103 -22 132 -22
c28 0 42 11 42 35c0 22 -19 31 -58 31c-8 0 -17 0 -27 -1v104h56v-41h9c73 0 112 -34 112 -94c0 -64 -44 -102 -124 -102c-39 0 -86 8 -142 23z" />
    <glyph glyph-name="eacute" unicode="&#xe9;" horiz-adv-x="553" 
d="M513 117c-54 -84 -133 -129 -229 -129c-157 0 -263 97 -263 250c0 143 106 248 262 248c142 0 247 -104 247 -261c0 -7 -1 -14 -1 -21h-323c4 -48 35 -78 75 -78c32 0 56 13 75 40zM206 282h155c-4 48 -30 73 -77 73s-74 -25 -78 -73zM427 721l-159 -181h-75l94 181h140z
" />
    <glyph glyph-name="ecircumflex" unicode="&#xea;" horiz-adv-x="553" 
d="M513 117c-54 -84 -133 -129 -229 -129c-157 0 -263 97 -263 250c0 143 106 248 262 248c142 0 247 -104 247 -261c0 -7 -1 -14 -1 -21h-323c4 -48 35 -78 75 -78c32 0 56 13 75 40zM206 282h155c-4 48 -30 73 -77 73s-74 -25 -78 -73zM121 540l94 181h125l94 -181h-75
l-81 97l-82 -97h-75z" />
    <glyph glyph-name="edieresis" unicode="&#xeb;" horiz-adv-x="553" 
d="M513 117c-54 -84 -133 -129 -229 -129c-157 0 -263 97 -263 250c0 143 106 248 262 248c142 0 247 -104 247 -261c0 -7 -1 -14 -1 -21h-323c4 -48 35 -78 75 -78c32 0 56 13 75 40zM206 282h155c-4 48 -30 73 -77 73s-74 -25 -78 -73zM128 565v132h122v-132h-122z
M305 565v132h123v-132h-123z" />
    <glyph glyph-name="egrave" unicode="&#xe8;" horiz-adv-x="553" 
d="M513 117c-54 -84 -133 -129 -229 -129c-157 0 -263 97 -263 250c0 143 106 248 262 248c142 0 247 -104 247 -261c0 -7 -1 -14 -1 -21h-323c4 -48 35 -78 75 -78c32 0 56 13 75 40zM206 282h155c-4 48 -30 73 -77 73s-74 -25 -78 -73zM129 721h140l94 -181h-75z" />
    <glyph glyph-name="iacute" unicode="&#xed;" horiz-adv-x="339" 
d="M260 144h51v-144h-287v144h58v187h-58v144h236v-331zM311 721l-159 -181h-75l94 181h140z" />
    <glyph glyph-name="icircumflex" unicode="&#xee;" horiz-adv-x="339" 
d="M260 144h51v-144h-287v144h58v187h-58v144h236v-331zM5 540l94 181h125l94 -181h-75l-81 97l-82 -97h-75z" />
    <glyph glyph-name="idieresis" unicode="&#xef;" horiz-adv-x="339" 
d="M260 144h51v-144h-287v144h58v187h-58v144h236v-331zM12 565v132h122v-132h-122zM189 565v132h123v-132h-123z" />
    <glyph glyph-name="igrave" unicode="&#xec;" horiz-adv-x="339" 
d="M260 144h51v-144h-287v144h58v187h-58v144h236v-331zM13 721h140l94 -181h-75z" />
    <glyph glyph-name="ntilde" unicode="&#xf1;" horiz-adv-x="618" 
d="M260 414c49 48 96 72 146 72c53 0 93 -17 117 -50c19 -26 20 -60 20 -103v-12v-177h57v-144h-235v258c0 54 -9 80 -47 80c-47 0 -58 -33 -58 -101v-93h51v-144h-287v144h58v187h-58v144h236v-61zM471 699c-19 -84 -51 -124 -107 -124c-12 0 -24 2 -37 6l-45 13
c-15 4 -26 6 -33 6c-22 0 -35 -12 -44 -38h-58c18 81 51 120 105 120c11 0 26 -2 44 -7l46 -13c9 -3 18 -5 28 -5c21 0 36 14 43 42h58z" />
    <glyph glyph-name="oacute" unicode="&#xf3;" horiz-adv-x="569" 
d="M21 237c0 139 111 249 263 249c153 0 265 -110 265 -249s-113 -249 -265 -249c-151 0 -263 110 -263 249zM202 237c0 -48 36 -83 82 -83s83 34 83 83s-37 84 -83 84s-82 -35 -82 -84zM434 721l-159 -181h-75l94 181h140z" />
    <glyph glyph-name="ocircumflex" unicode="&#xf4;" horiz-adv-x="569" 
d="M21 237c0 139 111 249 263 249c153 0 265 -110 265 -249s-113 -249 -265 -249c-151 0 -263 110 -263 249zM202 237c0 -48 36 -83 82 -83s83 34 83 83s-37 84 -83 84s-82 -35 -82 -84zM128 540l94 181h125l94 -181h-75l-81 97l-82 -97h-75z" />
    <glyph glyph-name="odieresis" unicode="&#xf6;" horiz-adv-x="569" 
d="M21 237c0 139 111 249 263 249c153 0 265 -110 265 -249s-113 -249 -265 -249c-151 0 -263 110 -263 249zM202 237c0 -48 36 -83 82 -83s83 34 83 83s-37 84 -83 84s-82 -35 -82 -84zM135 565v132h122v-132h-122zM312 565v132h123v-132h-123z" />
    <glyph glyph-name="ograve" unicode="&#xf2;" horiz-adv-x="569" 
d="M21 237c0 139 111 249 263 249c153 0 265 -110 265 -249s-113 -249 -265 -249c-151 0 -263 110 -263 249zM202 237c0 -48 36 -83 82 -83s83 34 83 83s-37 84 -83 84s-82 -35 -82 -84zM136 721h140l94 -181h-75z" />
    <glyph glyph-name="otilde" unicode="&#xf5;" horiz-adv-x="569" 
d="M21 237c0 139 111 249 263 249c153 0 265 -110 265 -249s-113 -249 -265 -249c-151 0 -263 110 -263 249zM202 237c0 -48 36 -83 82 -83s83 34 83 83s-37 84 -83 84s-82 -35 -82 -84zM447 699c-19 -84 -51 -124 -107 -124c-12 0 -24 2 -37 6l-45 13c-15 4 -26 6 -33 6
c-22 0 -35 -12 -44 -38h-58c18 81 51 120 105 120c11 0 26 -2 44 -7l46 -13c9 -3 18 -5 28 -5c21 0 36 14 43 42h58z" />
    <glyph glyph-name="scaron" unicode="&#x161;" horiz-adv-x="525" 
d="M176 0h-123v144h117c27 -42 58 -63 97 -63c27 0 41 14 41 37c0 18 -13 27 -42 36l-76 24c-98 31 -147 66 -147 151c0 92 72 158 175 158c43 0 86 -13 123 -35v23h123v-144h-114c-12 42 -39 64 -79 64c-29 0 -46 -14 -46 -34c0 -22 19 -33 56 -45l53 -17
c105 -34 154 -61 154 -156c0 -93 -64 -155 -176 -155c-47 0 -89 14 -136 34v-22zM106 721h75l82 -97l81 97h75l-94 -181h-125z" />
    <glyph glyph-name="uacute" unicode="&#xfa;" horiz-adv-x="606" 
d="M353 61c-49 -48 -95 -73 -145 -73c-53 0 -93 18 -117 51c-19 26 -20 60 -20 102v12v178h-58v144h236v-258c0 -54 8 -81 46 -81c47 0 58 33 58 101v94h-50v144h229v-144v-187h58v-144h-237v61zM437 721l-159 -181h-75l94 181h140z" />
    <glyph glyph-name="ucircumflex" unicode="&#xfb;" horiz-adv-x="606" 
d="M353 61c-49 -48 -95 -73 -145 -73c-53 0 -93 18 -117 51c-19 26 -20 60 -20 102v12v178h-58v144h236v-258c0 -54 8 -81 46 -81c47 0 58 33 58 101v94h-50v144h229v-144v-187h58v-144h-237v61zM131 540l94 181h125l94 -181h-75l-81 97l-82 -97h-75z" />
    <glyph glyph-name="udieresis" unicode="&#xfc;" horiz-adv-x="606" 
d="M353 61c-49 -48 -95 -73 -145 -73c-53 0 -93 18 -117 51c-19 26 -20 60 -20 102v12v178h-58v144h236v-258c0 -54 8 -81 46 -81c47 0 58 33 58 101v94h-50v144h229v-144v-187h58v-144h-237v61zM138 565v132h122v-132h-122zM315 565v132h123v-132h-123z" />
    <glyph glyph-name="ugrave" unicode="&#xf9;" horiz-adv-x="606" 
d="M353 61c-49 -48 -95 -73 -145 -73c-53 0 -93 18 -117 51c-19 26 -20 60 -20 102v12v178h-58v144h236v-258c0 -54 8 -81 46 -81c47 0 58 33 58 101v94h-50v144h229v-144v-187h58v-144h-237v61zM139 721h140l94 -181h-75z" />
    <glyph glyph-name="ydieresis" unicode="&#xff;" horiz-adv-x="604" 
d="M408 -209h-277v144h65l30 65l-160 331h-62v144h274v-144h-43l71 -164l69 164h-39v144h256v-144h-58l-184 -396h58v-144zM152 565v132h122v-132h-122zM329 565v132h123v-132h-123z" />
    <glyph glyph-name="zcaron" unicode="&#x17e;" horiz-adv-x="530" 
d="M487 0h-444v153l250 197h-121l-21 -57h-108v182h444v-150l-255 -201h128l15 62h112v-186zM108 721h75l82 -97l81 97h75l-94 -181h-125z" />
    <glyph glyph-name="trademark" unicode="&#x2122;" horiz-adv-x="833" 
d="M92 715h245v-62h-80v-207h-85v207h-80v62zM389 715h109l55 -148l56 148h108v-269h-76v190l-71 -190h-32l-73 190v-190h-76v269z" />
    <glyph glyph-name="copyright" unicode="&#xa9;" horiz-adv-x="833" 
d="M416 725c100 0 190 -37 260 -107c69 -69 105 -159 105 -258c0 -100 -36 -189 -104 -256c-72 -71 -165 -109 -261 -109s-187 38 -257 108s-107 160 -107 257c0 96 38 188 108 259c68 69 156 106 256 106zM417 659c-82 0 -154 -30 -210 -87c-57 -58 -89 -133 -89 -212
c0 -78 32 -153 89 -210s131 -88 210 -88c78 0 154 31 213 89c56 55 85 127 85 209c0 81 -30 155 -86 211c-57 57 -130 88 -212 88zM596 435h-104c-4 44 -32 69 -76 69c-52 0 -86 -50 -86 -143c0 -92 32 -139 91 -139c43 0 70 27 74 76h105c-4 -93 -75 -155 -181 -155
c-123 0 -201 81 -201 214c0 136 79 220 200 220c103 0 173 -57 178 -142z" />
    <glyph glyph-name="logicalnot" unicode="&#xac;" horiz-adv-x="833" 
d="M124 423h585v-245h-112v134h-473v111z" />
    <glyph glyph-name="registered" unicode="&#xae;" horiz-adv-x="833" 
d="M416 725c101 0 193 -38 263 -110c67 -68 102 -158 102 -255c0 -101 -38 -192 -108 -259c-72 -69 -163 -106 -257 -106c-98 0 -189 39 -259 111c-68 70 -105 159 -105 254c0 97 39 191 111 262c68 67 155 103 253 103zM417 659c-81 0 -152 -29 -208 -84
c-59 -59 -90 -135 -90 -215c0 -78 29 -150 85 -207c57 -59 132 -91 212 -91c78 0 153 30 211 86c57 55 88 130 88 212c0 80 -29 153 -84 209c-58 59 -132 90 -214 90zM262 568h161c115 0 173 -41 173 -116c0 -52 -31 -92 -85 -108l89 -176h-121l-75 159h-32v-159h-110v400z
M372 499v-107h39c48 0 72 17 72 52c0 39 -25 55 -78 55h-33z" />
    <glyph glyph-name="minus" unicode="&#x2212;" horiz-adv-x="833" 
d="M124 356h585v-115h-585v115z" />
    <glyph glyph-name="Eth" unicode="&#xd0;" horiz-adv-x="789" 
d="M285 576v-135h142v-135h-142v-162h56c148 0 226 74 226 216c0 143 -78 216 -226 216h-56zM20 0v144h73v162h-93v135h93v135h-73v144h342c100 0 172 -12 216 -35c128 -68 186 -170 186 -325c0 -154 -59 -257 -186 -325c-44 -23 -116 -35 -216 -35h-342z" />
    <glyph glyph-name="Thorn" unicode="&#xde;" horiz-adv-x="657" 
d="M24 144h73v432h-73v144h333v-120h-73v-28h109c154 0 244 -81 244 -203c0 -121 -91 -202 -244 -202h-109v-35h76v-132h-336v144zM334 444h-50v-157h50c77 0 115 27 115 79s-38 78 -115 78z" />
    <glyph glyph-name="Yacute" unicode="&#xdd;" horiz-adv-x="734" 
d="M199 0v144h73v122l-208 310h-56v144h316v-144h-58l104 -170l103 170h-57v144h309v-144h-55l-211 -310v-122h76v-144h-336zM516 955l-159 -181h-75l94 181h140z" />
    <glyph glyph-name="brokenbar" unicode="&#xa6;" 
d="M192 699h117v-370h-117v370zM192 199h117v-370h-117v370z" />
    <glyph glyph-name="degree" unicode="&#xb0;" horiz-adv-x="329" 
d="M165 716c83 0 152 -67 152 -152c0 -83 -68 -152 -153 -152c-84 0 -151 67 -151 152c0 86 68 152 152 152zM165 645c-44 0 -81 -35 -81 -80s35 -81 81 -81c45 0 80 37 80 81s-35 80 -80 80z" />
    <glyph glyph-name="divide" unicode="&#xf7;" horiz-adv-x="833" 
d="M417 577c43 0 80 -36 80 -81c0 -43 -35 -80 -81 -80c-45 0 -80 36 -80 80c0 45 37 81 81 81zM124 355h585v-113h-585v113zM417 181c44 0 80 -36 80 -81c0 -43 -34 -80 -80 -80c-44 0 -81 35 -81 80s37 81 81 81z" />
    <glyph glyph-name="eth" unicode="&#xf0;" horiz-adv-x="569" 
d="M284 321c-47 0 -82 -35 -82 -84s36 -83 82 -83s83 34 83 83s-37 84 -83 84zM306 480l-47 68l-143 -58l-31 71l130 53l-70 106h152l38 -56l125 50l31 -73l-111 -45l61 -92c61 -93 108 -168 108 -267c0 -139 -113 -249 -265 -249c-151 0 -263 110 -263 249
c0 91 48 171 129 216c37 20 75 30 115 30c13 0 27 -1 41 -3z" />
    <glyph glyph-name="mu" unicode="&#x3bc;" horiz-adv-x="642" 
d="M94 532h175l-39 -258c-4 -27 -6 -51 -6 -70c0 -55 23 -83 70 -83c59 0 89 46 104 141l43 270h174l-85 -532h-157l9 61c-26 -48 -56 -69 -102 -69c-38 0 -70 20 -90 59l-40 -260h-172z" />
    <glyph glyph-name="multiply" unicode="&#xd7;" horiz-adv-x="833" 
d="M210 593l215 -215l215 215l79 -79l-215 -216l215 -215l-79 -79l-215 215l-215 -215l-79 79l215 215l-215 216z" />
    <glyph glyph-name="onehalf" unicode="&#xbd;" horiz-adv-x="867" 
d="M74 309v73h46v247h-46v73h155v-320h47v-73h-202zM183 -14l415 729h85l-415 -729h-85zM540 0v82l111 101c51 45 80 75 80 100c0 20 -16 33 -38 33c-28 0 -45 -16 -45 -44v-6h-108v7c0 80 58 127 152 127c90 0 146 -45 146 -113c0 -66 -61 -124 -175 -203h92v24h89v-108
h-304z" />
    <glyph glyph-name="onequarter" unicode="&#xbc;" horiz-adv-x="867" 
d="M74 309v73h46v247h-46v73h155v-320h47v-73h-202zM183 -14l415 729h85l-415 -729h-85zM710 333l-91 -163h86v82c0 22 2 49 5 81zM642 0v66h63v38h-175v53l136 236h141v-223h40v-66h-40v-38h40v-66h-205z" />
    <glyph glyph-name="onesuperior" unicode="&#xb9;" horiz-adv-x="367" 
d="M78 281v79h49v264h-49v78h162v-342h50v-79h-212z" />
    <glyph glyph-name="plusminus" unicode="&#xb1;" horiz-adv-x="833" 
d="M359 606h116v-156h234v-113h-234v-156h-116v156h-235v113h235v156zM124 104h585v-113h-585v113z" />
    <glyph glyph-name="thorn" unicode="&#xfe;" horiz-adv-x="637" 
d="M82 576h-58v144h236v-296c38 43 83 62 144 62c115 0 212 -99 212 -249c0 -140 -100 -249 -220 -249c-58 0 -100 17 -136 58v-111h62v-143h-298v143h58v641zM341 143c54 0 93 38 93 91s-39 91 -93 91c-52 0 -94 -38 -94 -91s42 -91 94 -91z" />
    <glyph glyph-name="threequarters" unicode="&#xbe;" horiz-adv-x="868" 
d="M20 441h103v-4c0 -33 17 -51 48 -51c27 0 48 18 48 46c0 32 -27 43 -80 43h-7v72h7c47 0 74 7 74 41c0 22 -18 37 -44 37c-30 0 -48 -16 -48 -44v-5h-96v2c0 84 54 131 150 131c90 0 144 -46 144 -109c0 -42 -28 -72 -81 -84c57 -5 91 -41 91 -95
c0 -70 -59 -120 -156 -120c-96 0 -154 48 -154 127c0 4 1 9 1 13zM183 -14l415 729h85l-415 -729h-85zM710 333l-91 -163h86v82c0 22 2 49 5 81zM642 0v66h63v38h-175v53l136 236h141v-223h40v-66h-40v-38h40v-66h-205z" />
    <glyph glyph-name="threesuperior" unicode="&#xb3;" horiz-adv-x="367" 
d="M20 422h109v-4c0 -36 18 -54 51 -54c28 0 49 19 49 48c0 35 -28 47 -84 47h-6v77h6c50 0 78 8 78 44c0 24 -18 39 -46 39c-31 0 -50 -17 -50 -46v-6h-101v3c0 90 57 140 157 140c94 0 152 -49 152 -117c0 -45 -30 -77 -86 -90c60 -6 96 -44 96 -102
c0 -75 -63 -128 -163 -128c-101 0 -162 51 -162 136v13z" />
    <glyph glyph-name="twosuperior" unicode="&#xb2;" horiz-adv-x="367" 
d="M24 281v88l117 108c52 48 83 80 83 108c0 21 -16 34 -40 34c-29 0 -47 -16 -47 -46v-7h-113v7c0 86 60 137 159 137c95 0 153 -49 153 -121s-63 -133 -184 -218h97v26h94v-116h-319z" />
    <glyph glyph-name="yacute" unicode="&#xfd;" horiz-adv-x="604" 
d="M408 -209h-277v144h65l30 65l-160 331h-62v144h274v-144h-43l71 -164l69 164h-39v144h256v-144h-58l-184 -396h58v-144zM451 721l-159 -181h-75l94 181h140z" />
    </font>
</defs>
</svg>
